<?xml version="1.0" encoding="utf-8"?>
<!-- Generator: Adobe Illustrator 26.1.0, SVG Export Plug-In . SVG Version: 6.00 Build 0)  -->
<svg version="1.1" xmlns="http://www.w3.org/2000/svg" xmlns:xlink="http://www.w3.org/1999/xlink" x="0px" y="0px"
	 viewBox="0 0 1792.467 1771.657" enable-background="new 0 0 1792.467 1771.657" xml:space="preserve">
<g id="Background">
</g>
<g id="Ring">
	<g id="Ring_Path">
		<g>
			<path fill="#D1D3D4" d="M896.741,1c463.92,0,840,376.08,840,840s-376.08,840-840,840s-840-376.08-840-840S432.821,1,896.741,1z
				 M1656.741,841c0-419.74-340.26-760-760-760s-760,340.26-760,760s340.26,760,760,760S1656.741,1260.74,1656.741,841z"/>
		</g>
		<g>
			<circle fill="none" stroke="#231F20" stroke-width="2" stroke-miterlimit="10" cx="896.741" cy="841" r="840"/>
			<circle fill="none" stroke="#231F20" stroke-width="2" stroke-miterlimit="10" cx="896.741" cy="841" r="760"/>
		</g>
	</g>
	<g id="Outer_Ring_Shadow">
		<g>
			<path fill="#414042" d="M1690.811,566.312c29.76,86.06,45.93,178.47,45.93,274.66c0,349.72-213.72,649.53-517.67,775.93
				c41.68-24.41,97.77-61.02,157.92-112.95c60.89-52.56,174.22-152.48,252-321.3c79.95-173.53,77.11-342.98,76.55-434.75
				c-0.27-44.39-13.78-80.7-17.75-115.75C1684.521,603.262,1694.691,587.532,1690.811,566.312z"/>
		</g>
		<g>
			<path fill="none" stroke="#231F20" stroke-width="2" stroke-miterlimit="10" d="M1705.541,747.902
				c-0.27-44.39-13.78-80.7-17.75-115.75c-3.27-28.89,6.9-44.62,3.02-65.84c29.76,86.06,45.93,178.47,45.93,274.66
				c0,349.72-213.72,649.53-517.67,775.93c41.68-24.41,97.77-61.02,157.92-112.95c60.89-52.56,174.22-152.48,252-321.3
				C1708.941,1009.122,1706.101,839.672,1705.541,747.902z"/>
		</g>
	</g>
	<g id="Inner_Ring_Shadow">
		<g>
			<path fill="#414042" d="M1586.108,398.206c32.91,41.86,47.02,108.38,39.88,94.94c-2.68-5.04-17.53-15.29-81.63-49.62
				c-133.76-217.28-373.8-362.14-647.67-362.14c-419.74,0-760,340.26-760,760c0,216.72,90.71,412.26,236.24,550.71
				c-10.67-2.01-17.74-5.57-22.62-5.57c-5.02,0-7.73,3.76-9.69,16.8c-0.36,2.36,25.82,31.17,25.05,31.5
				c-4.26,1.82-67.47-30.13-99.75-82.35c-53.8-87.03-137.75-229.29-155.05-396.29c-25.3-244.31,61.39-561.49,321.3-754.2
				c34.51-25.59,260.22-187.64,560.7-151.2C1279.238,85.516,1496.638,284.406,1586.108,398.206z"/>
		</g>
		<g>
			<path fill="none" stroke="#231F20" stroke-width="2" stroke-miterlimit="10" d="M1625.988,493.146
				c-2.68-5.04-17.53-15.29-81.63-49.62c-133.76-217.28-373.8-362.14-647.67-362.14c-419.74,0-760,340.26-760,760
				c0,216.72,90.71,412.26,236.24,550.71c-10.67-2.01-17.74-5.57-22.62-5.57c-5.02,0-7.73,3.76-9.69,16.8
				c-0.36,2.36,25.82,31.17,25.05,31.5c-4.26,1.82-67.47-30.13-99.75-82.35c-53.8-87.03-137.75-229.29-155.05-396.29
				c-25.3-244.31,61.39-561.49,321.3-754.2c34.51-25.59,260.22-187.64,560.7-151.2c286.37,34.73,503.77,233.62,593.24,347.42
				C1619.018,440.066,1633.128,506.586,1625.988,493.146z"/>
		</g>
	</g>
</g>
<g id="Letters">
	<g id="Letter_J">
		<g>
			<polygon fill="#D1D3D4" points="491.218,308.5 846.241,308.574 846.046,1258.471 378.021,926.661 706.568,993.216 
				690.241,969.078 690.265,463.5 491.241,464.34 			"/>
		</g>
		<g>
			<path fill="#231F20" d="M847.045,1260.405l-1.578-1.119L373.586,924.742l330.784,67.009l-15.128-22.366l0.023-504.88
				l-199.023,0.84L490.218,307.5h1l356.024,0.074l0,1L847.045,1260.405z M382.457,928.58l462.589,327.957l0.195-946.962
				L492.218,309.5l0.023,153.835l199.023-0.84l-0.023,506.276l17.526,25.911L382.457,928.58z"/>
		</g>
	</g>
	<g id="XMLID_00000026154124831931947930000014074997205332796804_">
		<g>
			<path fill="#D1D3D4" d="M1182.351,311c130.19,0.02,235.28,111.2,235.28,235.1s-110.2,233.64-235.6,234.98l-80.01-0.08
				l-24.74-1.32l24.46,24.49v346.28l-156,110.65V624.83c39.55-0.11,78.98,0.4,118.42,0.29c39.43-0.11,78.87-0.23,118.3-0.34
				c43.63,0.55,79.75-34.77,80.32-77.69c0.58-43.71-35.89-80.36-80.32-79.81c-78.87,0.06-236.72,0.19-236.72,0.19V311.25
				C1104.211,311.25,1023.881,311,1182.351,311z"/>
		</g>
		<g>
			<path fill="none" stroke="#231F20" stroke-width="2" stroke-miterlimit="10" d="M1182.031,781.08
				c125.4-1.34,235.6-111.08,235.6-234.98s-105.09-235.08-235.28-235.1c-158.47,0-78.14,0.25-236.61,0.25v156.22
				c0,0,157.85-0.13,236.72-0.19c44.43-0.55,80.9,36.1,80.32,79.81c-0.57,42.92-36.69,78.24-80.32,77.69
				c-39.43,0.11-78.87,0.23-118.3,0.34c-39.44,0.11-78.87-0.4-118.42-0.29v636.27l156-110.65V804.17l-24.46-24.49l24.74,1.32
				L1182.031,781.08z"/>
		</g>
	</g>
	<g id="Letter_M_00000122685501745266891910000016453777160607097768_">
		<polygon fill="#D1D3D4" points="896.136,1404.176 1573.765,924.696 1789.829,1765.35 1458.11,1221.319 896.086,1690.118 
			333.075,1220.198 2.654,1765.35 218.703,924.797 		"/>
		<path fill="#231F20" d="M0,1771.657l218.096-848.516l1.185,0.838l676.855,478.971l678.236-479.91l218.096,848.557L1457.86,1222.83
			l-561.774,468.591L333.327,1221.71L0,1771.657z M1458.36,1219.809l0.604,0.99l328.227,538.303l-214.033-832.751l-677.022,479.051
			l-0.578-0.408L219.31,926.451L5.308,1759.042l327.515-540.357l0.893,0.745l562.371,469.386L1458.36,1219.809z"/>
	</g>
</g>
<g id="Shading">
	<g id="XMLID_00000034085361895218588300000011396255488495693740_">
		<g>
			<path fill="#414042" d="M1063.378,624.43c39.43-0.11,78.87-0.23,118.3-0.34c43.63,0.55,79.75-34.77,80.32-77.69
				c0.58-43.71-35.89-80.36-80.32-79.81c-78.87,0.06-236.72,0.19-236.72,0.19l253.58-9.58c17.88-0.83,53.36,3.15,63.7,17.18
				l2.3,4.12c10.07,19.72,16.75,41.24,17.8,63.29l7.29,101.83l-0.47,0.08c-16.8-18.48-44.55-32.1-67.29-22.47
				c-5.09,2.16-10.6,3.59-16.5,4.99l-5.99,1.05c-13.71,1.58-27.47,2.5-41.28,1.8l-213.14-4.93
				C984.508,624.03,1023.938,624.54,1063.378,624.43z"/>
		</g>
		<g>
			<path fill="none" stroke="#231F20" stroke-width="2" stroke-miterlimit="10" d="M944.958,624.14
				c39.55-0.11,78.98,0.4,118.42,0.29c39.43-0.11,78.87-0.23,118.3-0.34c43.63,0.55,79.75-34.77,80.32-77.69
				c0.58-43.71-35.89-80.36-80.32-79.81c-78.87,0.06-236.72,0.19-236.72,0.19l253.58-9.58c17.88-0.83,53.36,3.15,63.7,17.18
				l2.3,4.12c10.07,19.72,16.75,41.24,17.8,63.29l7.29,101.83l-0.47,0.08c-16.8-18.48-44.55-32.1-67.29-22.47
				c-5.09,2.16-10.6,3.59-16.5,4.99l-5.99,1.05c-13.71,1.58-27.47,2.5-41.28,1.8L944.958,624.14z"/>
		</g>
	</g>
	<g id="XMLID_00000026844034965216619280000000890585260052971144_">
		<g>
			<path fill="#414042" d="M1340.181,662.51c7.03-18.8,7.82-63.35,3.37-100.61l9.55,26.74c7.98,22.38,39.57,22.56,47.81,0.27
				l16.22-43.89c0,123.9-110.2,233.64-235.6,234.98l-80.01-0.08c-8.25-0.44-16.49-0.14-24.74-0.59
				C1210.661,778.93,1307.121,750.97,1340.181,662.51z"/>
		</g>
		<g>
			<path fill="none" stroke="#231F20" stroke-width="2" stroke-miterlimit="10" d="M1340.181,662.51
				c7.03-18.8,7.82-63.35,3.37-100.61l9.55,26.74c7.98,22.38,39.57,22.56,47.81,0.27l16.22-43.89c0,123.9-110.2,233.64-235.6,234.98
				l-80.01-0.08c-8.25-0.44-16.49-0.14-24.74-0.59C1210.661,778.93,1307.121,750.97,1340.181,662.51z"/>
		</g>
	</g>
	<g id="XMLID_00000095338884279700450770000013384682516266187421_">
		<g>
			<polygon fill="#414042" points="845.941,308.57 845.741,1258.47 767.741,1097.1 767.741,425.7 			"/>
		</g>
		<g>
			<polygon fill="none" stroke="#231F20" stroke-miterlimit="10" points="845.941,308.57 767.741,425.7 767.741,1097.1 
				845.741,1258.47 			"/>
		</g>
	</g>
	<g>
		<g>
			<polygon fill="#414042" points="1075.241,780.198 1076.774,1126.391 945.181,1260.691 1101.241,1150.003 1101.241,803.585 			"/>
		</g>
		<g>
			<path fill="#231F20" d="M945.76,1261.506l-1.292-1.516l131.305-134.006l-1.541-348.04l28.01,25.196v347.379l-0.422,0.299
				L945.76,1261.506z M1076.251,782.451l1.525,344.346L953.71,1253.416l146.531-103.93V804.031L1076.251,782.451z"/>
		</g>
	</g>
	<g>
		<g>
			<path fill="#414042" d="M706.568,993.216L706.568,993.216c8.312,6.776,20.472,5.867,27.685-2.069l14.794-16.279l-7.629,28.904
				c-6.821,25.841-34.288,40.316-59.46,31.335L378.021,926.661L706.568,993.216z"/>
		</g>
		<g>
			<path fill="#231F20" d="M697.275,1038.751c-5.289,0.001-10.587-0.895-15.653-2.702L377.686,927.603l0.535-1.922l328.789,66.605
				l0.191,0.155c7.9,6.439,19.458,5.575,26.313-1.967l17.545-19.305l-8.673,32.858c-3.322,12.587-11.833,23.287-23.349,29.355
				C712.277,1036.945,704.787,1038.751,697.275,1038.751z M391.522,930.416l290.772,103.75c11.735,4.188,24.788,3.258,35.81-2.552
				c11.022-5.809,19.168-16.05,22.348-28.097l6.585-24.95l-12.043,13.252c-7.513,8.268-20.144,9.271-28.863,2.328L391.522,930.416z"
				/>
		</g>
	</g>
	<g>
		<g>
			<path fill="#414042" d="M491.228,464.34l231.65-27.39l17.1,67.5l0,0c-10.661-9.304-27.392-3.088-29.392,10.92l-20.345,171.105
				l0.01-222.975L491.228,464.34z"/>
		</g>
		<g>
			<path fill="#231F20" d="M691.234,686.593l-1.993-0.118l0.01-221.971l-198.019,0.835l-0.122-1.993l232.522-27.493l18.102,71.456
				l-2.414-2.106c-4.725-4.124-11.057-5.283-16.938-3.098c-5.88,2.185-9.92,7.196-10.807,13.406L691.234,686.593z M691.252,462.496
				l-0.009,207.093l18.351-154.336c0.995-6.971,5.515-12.578,12.093-15.022c5.657-2.1,11.688-1.438,16.628,1.724l-16.189-63.908
				l-213.294,25.219L691.252,462.496z"/>
		</g>
	</g>
	<g>
		<path fill="#414042" d="M896.241,1690.118l0.412-76.614c0.154-28.641,13.162-55.699,35.436-73.706l565.806-457.431
			c4.512-3.648,11.266-1.917,13.467,3.452l278.622,679.531l-331.719-544.031L896.241,1690.118z"/>
		<path fill="#231F20" d="M1789.13,1765.87l-331.115-543.04L895.23,1692.264l0.423-78.766c0.156-29.061,13.208-56.206,35.807-74.477
			l565.806-457.432c2.399-1.94,5.485-2.612,8.479-1.847c2.987,0.767,5.372,2.843,6.543,5.697l278.621,679.53L1789.13,1765.87z
			 M1458.515,1219.809l0.604,0.99l325.161,533.275l-273.843-667.876c-0.929-2.263-2.819-3.91-5.189-4.518
			c-2.369-0.605-4.821-0.073-6.724,1.464l-565.806,457.432c-22.132,17.893-34.912,44.476-35.064,72.933l-0.4,74.464
			L1458.515,1219.809z"/>
	</g>
	<g>
		<path fill="#414042" d="M218.703,924.797l592.503,511.554c52.037,44.928,125.617,55.083,187.878,25.932l1.457-0.682l-38.023-0.68
			c-36.508-0.653-53.693-45.386-27.011-70.314l63.034-58.89l-102.405,72.46L218.703,924.797z"/>
		<path fill="#231F20" d="M925.25,1479.699c-41.328,0-82.237-14.565-114.698-42.592L218.049,925.553l1.231-1.573l676.855,478.972
			l101.827-72.053l1.26,1.547l-63.033,58.891c-12.039,11.248-15.849,27.789-9.94,43.17c5.909,15.381,19.812,25.118,36.286,25.413
			l42.333,0.757l-5.36,2.511C975.82,1474.278,950.455,1479.699,925.25,1479.699z M235.052,937.591l576.807,498.002
			c50.969,44.005,123.022,54.445,184.304,26.928l-33.663-0.602c-17.306-0.31-31.911-10.539-38.117-26.696
			c-6.207-16.156-2.206-33.532,10.441-45.348l52.274-48.839l-90.963,64.364l-0.578-0.408L235.052,937.591z"/>
	</g>
	<g>
		<path fill="#414042" d="M2.654,1765.35l315.387-643.05l2.352,30.326c1.777,22.916,6.029,45.571,12.682,67.572l0,0L2.654,1765.35z"
			/>
		<path fill="#231F20" d="M3.509,1765.868l-1.753-0.959l316.999-646.336l2.635,33.976c1.768,22.804,6.021,45.467,12.642,67.359
			l0.129,0.426L3.509,1765.868z M317.327,1126.026L13.45,1745.607l318.539-525.548c-6.588-21.897-10.825-44.558-12.593-67.356
			L317.327,1126.026z"/>
	</g>
	<g id="Signature" display="none">
		<g display="inline">
			<g>
				<path fill="#231F20" d="M352.37,710.209c-25.024,14.576-50.048,29.152-75.072,43.729c-12.512,7.288-25.024,14.576-37.536,21.864
					c-11.812,6.88-23.677,13.685-35.228,21c-6.51,4.122-12.916,8.412-19.128,12.973c-5.374,3.945-11.245,8.223-13.071,14.997
					c-0.328,1.216,0.407,2.833,1.746,3.075c5.627,1.019,11.131-1.513,16.346-3.32c5.35-1.854,10.677-3.771,15.987-5.737
					c10.621-3.932,21.169-8.06,31.683-12.271c20.887-8.366,41.64-17.062,62.604-25.235c11.889-4.635,23.847-9.097,35.918-13.237
					c-0.811-1.393-1.622-2.786-2.432-4.178c-7.043,7.641-16.567,12.718-25.358,18.051c-9.536,5.785-19.162,11.421-28.811,17.016
					c-19.296,11.19-38.69,22.22-57.66,33.959c-4.988,3.087-10.083,6.097-14.855,9.514c-4.393,3.146-8.215,6.817-10.252,11.917
					c-0.501,1.254,0.547,2.746,1.746,3.075c1.424,0.391,2.573-0.487,3.075-1.746c1.552-3.886,4.941-6.802,8.274-9.156
					c4.232-2.989,8.704-5.665,13.103-8.399c9.404-5.844,18.917-11.509,28.473-17.1c19.047-11.143,38.268-21.992,57.164-33.393
					c5.133-3.097,10.281-6.186,15.307-9.454c4.79-3.114,9.443-6.534,13.328-10.749c1.588-1.723,0.058-5.033-2.432-4.178
					c-21.13,7.247-41.898,15.487-62.59,23.888c-20.696,8.403-41.332,16.965-62.236,24.845c-5.82,2.194-11.66,4.335-17.526,6.404
					c-3.009,1.061-6.024,2.104-9.046,3.124c-2.669,0.901-5.617,2.056-8.48,1.538c0.582,1.025,1.164,2.05,1.746,3.075
					c1.455-5.397,6.502-8.872,10.773-12.009c5.45-4.003,11.052-7.796,16.741-11.451c11.387-7.316,23.118-14.078,34.81-20.889
					c24.665-14.367,49.329-28.734,73.994-43.1c13.806-8.042,27.613-16.084,41.419-24.126
					C357.673,712.908,355.159,708.585,352.37,710.209L352.37,710.209z"/>
			</g>
		</g>
		<g display="inline">
			<g>
				<path fill="#231F20" d="M239.335,793.937c-4.043,0.872-7.12,3.786-8.621,7.568c-0.698,1.758,1.383,3.647,3.075,3.075
					c11.661-3.942,22.975-8.903,33.766-14.825c2.845-1.561,0.34-5.726-2.524-4.317c-2.433,1.197-4.653,2.675-6.771,4.363
					c-1.968,1.568,0.159,4.941,2.432,4.178c10.046-3.371,20.501-5.216,31.096-5.436c3.213-0.067,3.224-5.067,0-5
					c-11.015,0.229-21.979,2.11-32.425,5.615c0.811,1.393,1.622,2.786,2.432,4.178c1.772-1.412,3.729-2.583,5.759-3.581
					c-0.841-1.439-1.682-2.878-2.524-4.317c-10.422,5.72-21.309,10.513-32.572,14.321c1.025,1.025,2.05,2.05,3.075,3.075
					c0.863-2.174,2.906-3.597,5.129-4.076C243.808,798.08,242.478,793.259,239.335,793.937L239.335,793.937z"/>
			</g>
		</g>
		<g display="inline">
			<g>
				<path fill="#231F20" d="M299.689,771.624c-4.962,1.827-9.819,3.934-14.536,6.324c0.841,1.439,1.682,2.878,2.524,4.317
					c9.012-4.63,18.435-8.361,28.166-11.18c-0.811-1.393-1.622-2.786-2.432-4.178c-2.257,2.527-4.902,4.488-7.965,5.935
					c-2.573,1.215-0.757,5.385,1.926,4.569c6.986-2.123,13.971-4.246,20.957-6.369c3.07-0.933,1.762-5.761-1.329-4.821
					c-6.986,2.123-13.971,4.246-20.957,6.369c0.642,1.523,1.284,3.046,1.926,4.569c3.404-1.608,6.469-3.91,8.977-6.717
					c1.601-1.791,0.077-4.906-2.432-4.178c-10.135,2.937-19.975,6.862-29.36,11.684c-2.866,1.473-0.341,5.768,2.524,4.317
					c4.336-2.197,8.78-4.14,13.342-5.82c1.266-0.466,2.125-1.695,1.746-3.075C302.429,772.151,300.962,771.156,299.689,771.624
					L299.689,771.624z"/>
			</g>
		</g>
		<g display="inline">
			<g>
				<path fill="#231F20" d="M337.582,713.733c2.886,27.593,1.832,55.595-3.267,82.87c-1.443,7.717-3.205,15.371-5.268,22.946
					c1.637,0.221,3.274,0.443,4.911,0.665c2.717-26.255,6.525-55.763,27.305-74.472c9.156-8.244,21.626-13.238,34.029-12.04
					c1.323,0.128,2.9,0.198,4.128,0.718c0.973,0.412,0.773,1.778,0.787,2.693c0.043,2.859-0.47,5.642-1.408,8.338
					c-1.879,5.402-5.499,10.097-9.593,14.016c-10.631,10.174-25.409,16.101-39.798,18.284c0.443,1.607,0.886,3.214,1.329,4.821
					c31.137-7.385,62.62-13.165,94.078-18.992c31.265-5.791,62.543-11.64,93.439-19.198c17.401-4.257,34.67-9.065,51.685-14.675
					c3.042-1.003,1.739-5.833-1.329-4.821c-30.333,10.003-61.441,17.415-92.712,23.811c-31.191,6.379-62.571,11.775-93.822,17.846
					c-17.621,3.423-35.201,7.066-52.668,11.208c-1.314,0.312-2.095,1.807-1.746,3.075c0.393,1.429,1.735,1.949,3.075,1.746
					c14.274-2.166,28.563-8.018,39.618-17.419c4.838-4.114,9.171-9.148,11.862-14.941c1.375-2.96,2.33-6.027,2.751-9.265
					c0.412-3.172,0.838-7.688-1.794-10.042c-1.206-1.079-2.793-1.456-4.344-1.727c-1.848-0.322-3.722-0.54-5.596-0.621
					c-3.385-0.146-6.784,0.159-10.112,0.778c-6.747,1.256-13.269,4.049-18.962,7.863c-11.578,7.755-19.59,19.56-24.848,32.286
					c-6.641,16.074-8.577,33.576-10.353,50.729c-0.295,2.851,4.188,3.32,4.911,0.665c7.382-27.113,10.852-55.311,10.225-83.405
					c-0.177-7.93-0.687-15.85-1.512-23.74c-0.14-1.343-1.048-2.5-2.5-2.5C338.839,711.233,337.44,712.381,337.582,713.733
					L337.582,713.733z"/>
			</g>
		</g>
		<g display="inline">
			<g>
				<path fill="#231F20" d="M422.751,752.306c-4.445,0.512-7.747,3.811-8.127,8.3c-0.11,1.3,1.235,2.566,2.5,2.5
					c18.642-0.975,37.115-4.936,54.472-11.821c4.978-1.975,9.867-4.168,14.646-6.584c1.205-0.609,1.549-2.306,0.897-3.42
					c-0.724-1.238-2.203-1.491-3.42-0.897c-5.872,2.866-11.745,5.732-17.617,8.598c-1.105,0.539-1.489,2.062-1.023,3.122
					c0.52,1.183,1.696,1.704,2.949,1.448c7.233-1.482,14.466-2.965,21.699-4.447c3.576-0.733,7.152-1.466,10.728-2.198
					c1.788-0.366,3.576-0.733,5.364-1.099c0.892-0.183,1.784-0.394,2.682-0.55c0.077-0.013,0.469-0.133,0.314-0.023
					c-0.017-0.013-0.034-0.025-0.05-0.038c0.638,0.424,0.472,0.03-0.498-1.181c0.114-0.421,0.228-0.841,0.341-1.262
					c0.04-0.057,0.081-0.114,0.121-0.171c-2.365,2.192,1.177,5.722,3.536,3.536c1.662-1.54,1.089-3.992-0.739-5.101
					c-1.755-1.066-3.433-0.769-5.329-0.381c-4.389,0.899-8.777,1.799-13.166,2.698c-8.777,1.799-17.555,3.597-26.332,5.396
					c0.642,1.523,1.284,3.046,1.926,4.569c5.872-2.866,11.745-5.732,17.617-8.598c-0.841-1.439-1.682-2.878-2.524-4.317
					c-16.136,8.158-33.584,13.637-51.472,16.256c-5.013,0.734-10.064,1.202-15.122,1.467c0.833,0.833,1.667,1.667,2.5,2.5
					c0.13-1.534,1.564-3.12,3.127-3.3c1.341-0.154,2.5-1.038,2.5-2.5C425.251,753.574,424.101,752.15,422.751,752.306
					L422.751,752.306z"/>
			</g>
		</g>
		<g display="inline">
			<g>
				<path fill="#231F20" d="M509.259,739.189c0.431,1.221,0.324,2.803-0.817,3.656c1.14,1.14,2.28,2.28,3.42,3.42
					c5.096-8.33,13.665-14.047,23.253-15.764c-0.811-1.393-1.622-2.786-2.432-4.178c-3.587,3.175-7.646,5.726-12.016,7.681
					c-2.589,1.158-0.75,5.42,1.926,4.569c11.202-3.561,22.64-6.333,34.23-8.297c-0.642-1.523-1.284-3.046-1.926-4.569
					c-6.772,3.441-14.306,7.882-16.244,15.815c-0.493,2.019,1.216,3.34,3.075,3.075c9.518-1.354,18.693-4.927,26.64-10.335
					c-0.841,0-1.682,0-2.524,0c8.134,4.549,17.538,6.07,26.703,4.477c1.331-0.231,2.079-1.864,1.746-3.075
					c-0.386-1.406-1.74-1.978-3.075-1.746c-7.796,1.355-15.959-0.119-22.85-3.973c-0.743-0.416-1.788-0.5-2.524,0
					c-7.641,5.199-16.297,8.529-25.446,9.831c1.025,1.025,2.05,2.05,3.075,3.075c1.603-6.559,8.41-10.015,13.946-12.827
					c1.097-0.558,1.495-2.048,1.023-3.122c-0.532-1.211-1.684-1.662-2.949-1.448c-11.59,1.964-23.027,4.736-34.23,8.297
					c0.642,1.523,1.284,3.046,1.926,4.569c4.764-2.131,9.122-5.006,13.028-8.463c0.822-0.728,0.926-2.115,0.391-3.03
					c-0.593-1.014-1.721-1.346-2.823-1.149c-10.822,1.939-20.516,8.704-26.242,18.062c-1.23,2.011,1.356,4.965,3.42,3.42
					c2.872-2.149,4.351-5.802,3.114-9.303c-0.449-1.273-1.707-2.122-3.075-1.746C509.772,736.452,508.807,737.91,509.259,739.189
					L509.259,739.189z"/>
			</g>
		</g>
	</g>
</g>
<g id="Shine">
	<g>
		<g>
			<line fill="#414042" x1="357.941" y1="1129.5" x2="744.041" y2="1466.1"/>
		</g>
		<g>
			<path fill="#F1F2F2" d="M357.949,1129.492c66.282,53.326,131.372,109.519,195.403,165.601
				c63.759,55.903,128.529,113.426,190.69,171.007c-65.501-53.714-131.347-110.061-195.41-165.593
				C484.359,1244.706,419.741,1187.904,357.949,1129.492L357.949,1129.492z"/>
		</g>
	</g>
	<g>
		<polygon fill="#F1F2F2" points="1466.441,1058.7 1531.826,1016.164 1536.422,1013.174 1538.602,1018.177 1567.241,1083.9 
			1529.881,1022.712 1536.656,1024.725 1466.441,1058.7 		"/>
	</g>
	<g>
		<g>
			<path fill="#F1F2F2" d="M1011.741,1038.5c0.947-0.026,0.308-0.052,0.5-0.078l0-0.078c-0.003-1.26-0.01-3.527-0.013-4.829
				c0.053-88.839-2.516-185.436-2.737-274.141c0.011-13.165-0.68-26.886,2.251-39.875c0,0,0.148-0.661,0.148-0.661l0.352,0.161
				c0.27,0.123,0.54,0.119,0.811,0.078c0.398-0.062,0.597-0.127,0.811-0.615c0,0,0-1.466,0-1.466l39.379,2.503l-39.379,2.503
				l0-1.466c-0.215-0.519-0.412-0.525-0.811-0.615c-0.27-0.041-0.54-0.045-0.811,0.078l0.5-0.5
				c1.486,6.646,2.016,13.292,2.237,19.938c0.242,83.432-2.186,175.475-2.628,259.187c-0.03,11.08-0.078,28.555-0.108,39.563
				c0,0,0,0.156,0,0.156l0,0.078c0.192,0.026-0.447,0.052,0.5,0.078H1011.741L1011.741,1038.5z"/>
		</g>
	</g>
	<g>
		<g>
			<path fill="#F1F2F2" d="M1097.741,399.6c62.595-12.754,158.476-16.502,205.055,34.833c6.882,7.798,12.412,16.751,15.895,26.367
				c-2.599-4.398-5.388-8.643-8.577-12.546c-2.306-2.786-4.889-5.897-7.531-8.397C1254.072,391.738,1161.648,394.741,1097.741,399.6
				L1097.741,399.6z"/>
		</g>
	</g>
	<g>
		<g>
			<path fill="#F1F2F2" d="M581.241,383c46.914-3.57,94.086-3.58,141-0.001C675.328,386.58,628.155,386.57,581.241,383L581.241,383z
				"/>
		</g>
	</g>
	<g>
		<path fill="#F1F2F2" d="M660.042,1068.896c11.753,1.369,23.261,3.855,34.72,6.658c11.45,2.877,22.769,6.106,33.68,10.746
			c-11.801-1.138-23.288-3.709-34.72-6.654C682.323,1076.627,670.997,1073.325,660.042,1068.896L660.042,1068.896z"/>
	</g>
	<g>
		<g>
			<path fill="#F1F2F2" d="M112.241,628.2c31.251-174.742,137.312-334.696,283.586-434.772
				c15.053-10.185,30.801-19.994,46.714-28.728c-9.463,7.252-19.447,14.871-28.754,22.393c-28.12,22.581-55.564,46.99-80.919,72.518
				C228.451,364.636,157.333,487.538,112.241,628.2L112.241,628.2z"/>
		</g>
	</g>
	<g>
		<path fill="#F1F2F2" d="M1623.341,519.3c17.543,11.598,29.759,33.118,31.5,54c-4.486-9.572-8.836-18.896-14.202-27.903
			C1635.357,536.329,1629.371,528.005,1623.341,519.3L1623.341,519.3z"/>
	</g>
	<g>
		<g>
			<path fill="#6D6E71" d="M807.741,530.5c4.239,133.82,2.891,268.166,0.001,402C804.85,798.667,803.503,664.319,807.741,530.5
				L807.741,530.5z"/>
		</g>
	</g>
	<g>
		<path fill="#6D6E71" d="M1117.058,1448.7c35.948-33.788,74.004-64.991,112.661-95.526c38.773-30.36,78.257-59.945,120.323-85.674
			c-35.294,34.436-73.689,65.422-112.661,95.526C1198.268,1392.975,1158.657,1422.177,1117.058,1448.7L1117.058,1448.7z"/>
	</g>
	<g>
		<g>
			<rect x="1074.359" y="777.5" fill="#231F20" width="43.924" height="2"/>
		</g>
		<g>
			<path fill="#231F20" d="M1118.407,779.625h-44.174v-2.25h44.174V779.625z M1074.484,779.375h43.674v-1.75h-43.674V779.375z"/>
		</g>
	</g>
</g>
</svg>
