<svg xmlns="http://www.w3.org/2000/svg" viewBox="0 0 1792.47 1771.66" xmlns:v="https://vecta.io/nano"><style><![CDATA[.B{stroke:#231f20}.C{fill:none}.D{stroke-width:2}.E{fill:#414042}.F{stroke-miterlimit:10}.G{fill:#d1d3d4}]]></style><path d="M896.74 1c463.92 0 840 376.08 840 840s-376.08 840-840 840-840-376.08-840-840S432.82 1 896.74 1zm760 840c0-419.74-340.26-760-760-760s-760 340.26-760 760 340.26 760 760 760 760-340.26 760-760z" class="G"/><g class="B C D"><circle cx="896.74" cy="841" r="840"/><circle cx="896.74" cy="841" r="760"/></g><path d="M1690.81 566.31A838.89 838.89 0 0 1 1736.74 841c0 349.72-213.72 649.53-517.67 775.93A1066.34 1066.34 0 0 0 1377 1504c60.89-52.56 174.22-152.48 252-321.3 80-173.53 77.11-343 76.55-434.75-.27-44.39-13.78-80.7-17.75-115.75-3.28-28.94 6.89-44.67 3.01-65.89z" class="E"/><path d="M1705.54 747.9c-.27-44.39-13.78-80.7-17.75-115.75-3.27-28.89 6.9-44.62 3-65.84A838.89 838.89 0 0 1 1736.74 841c0 349.72-213.72 649.53-517.67 775.93A1066.34 1066.34 0 0 0 1377 1504c60.89-52.56 174.22-152.48 252-321.3 79.94-173.58 77.1-343.03 76.54-434.8z" class="B C D F"/><path d="M1586.11 398.21c32.91 41.86 47 108.38 39.88 94.94-2.68-5-17.53-15.29-81.63-49.62-133.76-217.28-373.8-362.14-647.67-362.14-419.74 0-760 340.26-760 760 0 216.72 90.71 412.26 236.24 550.71-10.67-2-17.74-5.57-22.62-5.57s-7.73 3.76-9.69 16.8c-.36 2.36 25.82 31.17 25.05 31.5-4.26 1.82-67.47-30.13-99.75-82.35-53.8-87-137.75-229.29-155-396.29C85.57 711.88 172.26 394.7 432.17 202c34.51-25.59 260.22-187.64 560.7-151.2 286.37 34.72 503.77 233.61 593.24 347.41z" class="E"/><g class="B D F"><path d="M1626 493.15c-2.68-5-17.53-15.29-81.63-49.62C1410.6 226.25 1170.56 81.39 896.69 81.39c-419.74 0-760 340.26-760 760 0 216.72 90.71 412.26 236.24 550.71-10.67-2-17.74-5.57-22.62-5.57s-7.73 3.76-9.69 16.8c-.36 2.36 25.82 31.17 25.05 31.5-4.26 1.82-67.47-30.13-99.75-82.35-53.8-87-137.75-229.29-155-396.29C85.57 711.88 172.26 394.7 432.17 202c34.51-25.59 260.22-187.64 560.7-151.2 286.37 34.73 503.77 233.62 593.24 347.42 32.89 41.85 47.02 108.37 39.89 94.93z" class="C"/><path d="M491.22 308.5l355.02.07-.19 949.9-468.03-331.81 328.55 66.56-16.33-24.14.02-505.58-199.02.84-.02-155.84z" class="G"/></g><path d="M1182.35 311c130.19 0 235.28 111.2 235.28 235.1s-110.2 233.64-235.6 235l-80-.08-24.74-1.32 24.46 24.49v346.28l-156 110.65V624.83l118.42.29 118.3-.34c43.63.55 79.75-34.77 80.32-77.69.58-43.71-35.89-80.36-80.32-79.81l-236.72.19V311.25l236.6-.25z" class="G"/><g class="B D F"><path d="M1182 781.08c125.4-1.34 235.6-111.08 235.6-235S1312.54 311 1182.35 311l-236.61.25v156.22l236.72-.19c44.43-.55 80.9 36.1 80.32 79.81-.57 42.92-36.69 78.24-80.32 77.69l-118.3.34c-39.44.11-78.87-.4-118.42-.29v636.27l156-110.65V804.17l-24.46-24.49L1102 781z" class="C"/><path d="M896.14 1404.18l677.63-479.48 216.06 840.65-331.72-544.03-562.02 468.8-563.02-469.92L2.65 1765.35 218.7 924.8l677.44 479.38z" class="G"/></g><path d="M1282.34 541.79l7.29 101.83-.47.08c-16.8-18.48-44.55-32.1-67.29-22.47a103.09 103.09 0 0 1-16.5 5l-6 1a249.79 249.79 0 0 1-41.28 1.8L945 624.14l118.42.29 118.3-.34c43.63.55 79.75-34.77 80.32-77.69.58-43.71-35.89-80.36-80.32-79.81l-236.72.19 253.58-9.58c17.88-.83 53.36 3.15 63.7 17.18l2.3 4.12c10.03 19.72 16.71 41.24 17.76 63.29z" class="E"/><path d="M945 624.14l118.42.29 118.3-.34c43.63.55 79.75-34.77 80.32-77.69.58-43.71-35.89-80.36-80.32-79.81l-236.72.19 253.58-9.58c17.88-.83 53.36 3.15 63.7 17.18l2.3 4.12c10.07 19.72 16.75 41.24 17.8 63.29l7.29 101.83-.47.08c-16.8-18.48-44.55-32.1-67.29-22.47a103.09 103.09 0 0 1-16.5 5l-6 1a249.79 249.79 0 0 1-41.28 1.8z" class="B C D F"/><path d="M1400.91 588.91l16.22-43.91c0 123.9-110.2 233.64-235.6 235l-80-.08c-8.25-.44-16.49-.14-24.74-.59 133.88-.4 230.34-28.36 263.4-116.82 7-18.8 7.82-63.35 3.37-100.61l9.55 26.74c7.97 22.36 39.56 22.56 47.8.27z" class="E"/><path d="M1340.18 662.51c7-18.8 7.82-63.35 3.37-100.61l9.55 26.74c8 22.38 39.57 22.56 47.81.27l16.22-43.91c0 123.9-110.2 233.64-235.6 235l-80-.08c-8.25-.44-16.49-.14-24.74-.59 133.87-.4 230.33-28.33 263.39-116.82z" class="B C D F"/><path d="M845.94 308.57l-.2 949.9-78-161.37V425.7l78.2-117.13z" class="E"/><g class="B F"><path d="M845.94 308.57l-78.2 117.13v671.4l78 161.37.2-949.9z" class="C"/><path d="M1075.24 780.2l1.53 346.19-131.59 134.3L1101.24 1150V803.59l-26-23.39zM706.57 993.22h0a20.19 20.19 0 0 0 27.68-2.07l14.8-16.28-7.63 28.9a45.64 45.64 0 0 1-59.42 31.34L378 926.66zM491.23 464.34L722.88 437l17.1 67.5h0a17.84 17.84 0 0 0-29.39 10.92l-20.35 171.06v-223zm405.01 1225.78l.41-76.62a95.47 95.47 0 0 1 35.44-73.7l565.8-457.43a8.67 8.67 0 0 1 13.47 3.45L1790 1765.35l-331.72-544zM218.7 924.8l592.51 511.55a174.34 174.34 0 0 0 187.87 25.93l1.46-.68-38-.68c-36.51-.65-53.69-45.39-27-70.31l63-58.89-102.4 72.46zM2.65 1765.35L318 1122.3l2.35 30.33a318.94 318.94 0 0 0 12.68 67.57h0z" class="D E"/></g><path d="M357.94 1129.5l386.1 336.6" class="E"/><path d="M358 1129.49c66.28 53.33 131.37 109.52 195.4 165.6l190.69 171c-65.5-53.71-131.35-110.06-195.41-165.59-64.27-55.8-128.89-112.61-190.68-171zm1108.44-70.79l65.39-42.54 4.59-2.99 2.18 5.01 28.64 65.72-37.36-61.19 6.78 2.01-70.22 33.98h0zm-454.7-20.2c1 0 .31 0 .5-.08v-.08-4.82l-2.74-274.15c0-13.16-.68-26.88 2.25-39.87l.15-.66.35.16a1.42 1.42 0 0 0 .81.08.84.84 0 0 0 .81-.62V717l39.38 2.5-39.38 2.5v-1.46c-.21-.52-.41-.53-.81-.62a1.42 1.42 0 0 0-.81.08l.5-.5a106.57 106.57 0 0 1 2.24 19.94l-2.63 259.18-.11 39.57v.23c.19 0-.45 0 .5.08zm86-638.9c62.6-12.75 158.48-16.5 205.06 34.83a82.76 82.76 0 0 1 15.89 26.37 101 101 0 0 0-8.58-12.55 94.75 94.75 0 0 0-7.53-8.39c-48.51-48.12-140.93-45.12-204.84-40.26zM581.24 383a928.19 928.19 0 0 1 141 0 928.19 928.19 0 0 1-141 0zM660 1068.9a283.51 283.51 0 0 1 34.72 6.65c11.45 2.88 22.77 6.11 33.68 10.75-11.8-1.14-23.29-3.71-34.72-6.65A282.35 282.35 0 0 1 660 1068.9zM112.24 628.2c31.25-174.74 137.31-334.7 283.59-434.77 15.05-10.19 30.8-20 46.71-28.73l-28.75 22.39a973.61 973.61 0 0 0-80.92 72.52c-104.42 105-175.54 227.93-220.63 368.59zm1511.1-108.9c17.54 11.6 29.76 33.12 31.5 54-4.48-9.57-8.83-18.9-14.2-27.9s-11.27-17.4-17.3-26.1z" fill="#f1f2f2"/><path d="M807.74 530.5c4.24 133.82 2.89 268.17 0 402-2.89-133.83-4.24-268.18 0-402zm309.32 918.2c36-33.79 74-65 112.66-95.53 38.77-30.36 78.26-59.94 120.32-85.67-35.29 34.44-73.69 65.42-112.66 95.53-39.11 30-78.72 59.15-120.32 85.67z" fill="#6d6e71"/><path fill="#231f20" stroke-width=".25" d="M1074.36 777.5h43.92v2h-43.92z" class="B F"/></svg>