<svg xmlns="http://www.w3.org/2000/svg" viewBox="0 0 1244.98 1244.98" xmlns:v="https://vecta.io/nano"><style><![CDATA[.B{fill:#414042}.C{fill:#231f20}.D{stroke:#231f20}.E{stroke-miterlimit:10}.F{stroke-width:2}]]></style><circle cx="622.49" cy="622.49" r="616.49" fill="#fff"/><g class="C"><path d="M622.49,1244A621.65,621.65,0,0,1,380.58,49.84,621.65,621.65,0,0,1,864.4,1195.14,617.73,617.73,0,0,1,622.49,1244Zm0-1233C285.31,11,11,285.31,11,622.49S285.31,1234,622.49,1234,1234,959.67,1234,622.49,959.67,11,622.49,11Z"/><path d="M622.49,1240A617.65,617.65,0,0,1,382.13,53.53,617.65,617.65,0,0,1,862.84,1191.45,613.56,613.56,0,0,1,622.49,1240Zm0-1233C283.11,7,7,283.11,7,622.49S283.11,1238,622.49,1238,1238,961.87,1238,622.49,961.87,7,622.49,7Z"/><path d="M622.49,1245A622.65,622.65,0,0,1,380.19,48.92a622.65,622.65,0,0,1,484.6,1147.14A618.63,618.63,0,0,1,622.49,1245Zm0-1233C285.86,12,12,285.86,12,622.49S285.86,1233,622.49,1233,1233,959.11,1233,622.49,959.11,12,622.49,12Z"/></g><g fill="#808285"><path d="M215.88 185.06l355.02.07-.19 949.9-468.02-331.81 328.54 66.55-16.33-24.14.03-505.57-199.02.84-.03-155.84z"/><path d="M571.71 1137l-1.58-1.12L98.25 801.3l330.78 67-15.13-22.36V341.06l-199 .84V184.06h1l356 .07v1zM107.12 805.14l462.59 327.95.19-947-353-.07v153.83l199-.84v506.28l17.53 25.91zM907 187.56c130.19 0 235.28 111.2 235.28 235.1s-110.2 233.64-235.6 235l-80-.08-24.68-1.34 24.46 24.49V1027l-156 110.65V501.39l118.41.29 118.31-.34c43.63.55 79.75-34.77 80.32-77.69.58-43.71-35.89-80.36-80.32-79.81l-236.77.16V187.81l236.59-.25z"/></g><path d="M906.7 657.64c125.4-1.34 235.6-111.08 235.6-235S1037.21 187.58 907 187.56l-236.61.25V344l236.72-.19c44.43-.55 80.9 36.1 80.32 79.81-.57 42.92-36.69 78.24-80.32 77.69l-118.31.34c-39.43.11-78.87-.4-118.41-.29v636.27l156-110.65V680.73L802 656.24l24.73 1.32z" fill="none" class="D E F"/><path d="M1007.34 418.38l7.29 101.83-.47.08c-16.8-18.48-44.55-32.1-67.29-22.47a103.09 103.09 0 0 1-16.5 5l-6 1.05a249.79 249.79 0 0 1-41.28 1.8L670 500.73l118.42.29 118.3-.34c43.63.55 79.75-34.77 80.32-77.69.58-43.71-35.89-80.36-80.32-79.81l-236.72.19 253.58-9.58c17.88-.83 53.36 3.15 63.7 17.18l2.3 4.12c10.03 19.72 16.71 41.24 17.76 63.29z" class="B"/><path d="M670 500.73l118.42.29 118.3-.34c43.63.55 79.75-34.77 80.32-77.69.58-43.71-35.89-80.36-80.32-79.81l-236.72.19 253.58-9.58c17.88-.83 53.36 3.15 63.7 17.18l2.3 4.12c10.07 19.72 16.75 41.24 17.8 63.29l7.29 101.83-.47.08c-16.8-18.48-44.55-32.1-67.29-22.47a103.09 103.09 0 0 1-16.5 5l-6 1.05a249.79 249.79 0 0 1-41.28 1.8z" fill="none" class="D E F"/><path d="M1125.92 465.47l16.22-43.89c0 123.9-110.2 233.64-235.6 235l-80-.08c-8.25-.44-16.49-.14-24.74-.58 133.88-.41 230.34-28.37 263.4-116.83 7-18.8 7.82-63.35 3.37-100.61l9.55 26.74c7.97 22.36 39.56 22.54 47.8.25z" class="B"/><path d="M1065.19 539.07c7-18.8 7.82-63.35 3.37-100.61l9.55 26.74c8 22.38 39.57 22.56 47.81.27l16.22-43.89c0 123.9-110.2 233.64-235.6 235l-80-.08c-8.25-.44-16.49-.14-24.74-.58 133.87-.43 230.33-28.39 263.39-116.85z" fill="none" class="D E F"/><path d="M570.6 185.16l-.19 949.9-78-161.37v-671.4l78.19-117.13z" class="B"/><path fill="none" d="M570.6 185.16l-78.19 117.13v671.4l78 161.37.19-949.9z" class="D E"/><path d="M799.9 656.78l1.54 346.2-131.59 134.3 156.05-110.69V680.17l-26-23.39z" class="B"/><path d="M670.42,1138.09l-1.29-1.51,131.31-134-1.55-348,28,25.2v347.38l-.42.29ZM800.91,659l1.53,344.34L678.37,1130,824.9,1026.07V680.62Z" class="C"/><path d="M431.57,869.8h0a20.18,20.18,0,0,0,27.69-2.07l14.79-16.28-7.63,28.91A45.62,45.62,0,0,1,407,911.69L103,803.25Z" class="B"/><path d="M422.28,915.34a46.48,46.48,0,0,1-15.65-2.71L102.69,804.19l.54-1.92L432,868.87l.2.16a19.18,19.18,0,0,0,26.31-2l17.54-19.3-8.67,32.85a46.61,46.61,0,0,1-45.11,34.73ZM116.53,807,407.3,910.75a44.63,44.63,0,0,0,58.16-30.65l6.58-25-12,13.26a21.19,21.19,0,0,1-28.86,2.32Z" class="C"/><path d="M215.89 340.9l231.65-27.39 17.1 67.5h0a17.84 17.84 0 0 0-29.39 10.92L414.9 563V340z" class="B"/><path d="M415.9 563.15l-2-.12v-222l-198 .84-.13-2 232.53-27.46 18.1 71.46-2.4-2.11a16.84 16.84 0 0 0-27.74 10.31zm0-224.1v207.1l18.35-154.34a18.85 18.85 0 0 1 28.75-13.3l-16.21-63.91-213.3 25.22z" class="C"/><path d="M736.4 915.06c1 0 .31-.06.5-.08v-.08-4.83l-2.74-274.14c0-13.16-.68-26.88 2.25-39.87l.15-.66.35.16a1.36 1.36 0 0 0 .82.07.85.85 0 0 0 .81-.61v-1.47l39.37 2.51-39.37 2.5v-1.47c-.22-.52-.42-.52-.81-.61a1.37 1.37 0 0 0-.82.08l.5-.5a106.47 106.47 0 0 1 2.23 19.94l-2.63 259.19-.1 39.57v.24c.2 0-.44 0 .5.08zm86.35-638.87c62.59-12.76 158.47-16.51 205 34.83a83 83 0 0 1 15.9 26.37 100.29 100.29 0 0 0-8.58-12.55 96.65 96.65 0 0 0-7.53-8.4c-48.51-48.12-140.94-45.11-204.84-40.25zM305.9 259.56a928.19 928.19 0 0 1 141 0 928.19 928.19 0 0 1-141 0zm79.15 685.92a285.81 285.81 0 0 1 34.72 6.66c11.45 2.88 22.77 6.11 33.68 10.75-11.8-1.14-23.29-3.71-34.72-6.66a281.77 281.77 0 0 1-33.68-10.75z" fill="#f1f2f2"/><path d="M532.4,407.06c4.24,133.82,2.9,268.16,0,402-2.9-133.84-4.24-268.18,0-402Z" fill="#6d6e71"/><g class="C"><path d="M798.9 654.06h44v2h-44z"/><path d="M843,656.18H798.78v-2.25H843Zm-44-.25h43.75v-1.75H799Z"/></g></svg>