<?xml version="1.0" encoding="utf-8"?>
<!-- Generator: Adobe Illustrator 26.1.0, SVG Export Plug-In . SVG Version: 6.00 Build 0)  -->
<svg version="1.1" xmlns="http://www.w3.org/2000/svg" xmlns:xlink="http://www.w3.org/1999/xlink" x="0px" y="0px"
	 viewBox="0 0 1244.978 1244.978" enable-background="new 0 0 1244.978 1244.978" xml:space="preserve">
<g id="Background">
	<g>
		<g>
			<circle fill="#FFFFFF" cx="622.489" cy="622.489" r="616.489"/>
			<path fill="#231F20" d="M622.489,1243.978c-83.898,0-165.29-16.433-241.913-48.842
				c-74.007-31.302-140.472-76.113-197.546-133.188c-57.075-57.075-101.886-123.539-133.188-197.546
				C17.433,787.778,1,706.387,1,622.489s16.433-165.29,48.842-241.913c31.303-74.007,76.113-140.471,133.188-197.546
				c57.074-57.075,123.539-101.886,197.546-133.188C457.199,17.433,538.591,1,622.489,1s165.289,16.433,241.913,48.842
				c74.007,31.302,140.471,76.113,197.546,133.188c57.074,57.075,101.886,123.539,133.188,197.546
				c32.409,76.624,48.842,158.015,48.842,241.913s-16.433,165.29-48.842,241.914c-31.302,74.007-76.113,140.471-133.188,197.546
				c-57.075,57.074-123.539,101.886-197.546,133.188C787.779,1227.545,706.388,1243.978,622.489,1243.978z M622.489,11
				C285.312,11,11,285.313,11,622.489c0,337.176,274.312,611.489,611.489,611.489c337.176,0,611.488-274.312,611.488-611.489
				C1233.978,285.313,959.665,11,622.489,11z"/>
		</g>
		<g>
			<path fill="#231F20" d="M622.489,1239.978c-83.36,0-164.228-16.326-240.354-48.525
				c-73.531-31.101-139.567-75.624-196.276-132.333c-56.709-56.708-101.232-122.745-132.333-196.275
				C21.326,786.716,5,705.849,5,622.489c0-83.36,16.326-164.227,48.525-240.355c31.101-73.53,75.624-139.567,132.333-196.276
				c56.709-56.708,122.745-101.231,196.276-132.332C458.262,21.327,539.129,5,622.489,5s164.228,16.327,240.354,48.526
				c73.53,31.101,139.567,75.624,196.275,132.332c56.709,56.709,101.232,122.746,132.333,196.276
				c32.199,76.128,48.525,156.995,48.525,240.355c0,83.36-16.326,164.227-48.525,240.355
				c-31.101,73.53-75.624,139.567-132.333,196.275c-56.708,56.709-122.745,101.232-196.275,132.333
				C786.717,1223.651,705.85,1239.978,622.489,1239.978z M622.489,7C283.107,7,7,283.107,7,622.489
				c0,339.381,276.107,615.489,615.489,615.489c339.381,0,615.488-276.107,615.488-615.489C1237.978,283.107,961.87,7,622.489,7z"/>
			<path fill="#231F20" d="M622.489,1244.978c-84.033,0-165.556-16.459-242.303-48.921
				c-74.125-31.352-140.696-76.234-197.863-133.402c-57.167-57.165-102.05-123.736-133.402-197.863
				C16.459,788.044,0,706.522,0,622.489s16.459-165.556,48.92-242.303c31.353-74.126,76.236-140.697,133.403-197.864
				C239.49,125.156,306.062,80.273,380.188,48.921C456.935,16.459,538.456,0,622.489,0s165.556,16.459,242.302,48.921
				c74.128,31.353,140.698,76.236,197.863,133.401c57.167,57.167,102.051,123.738,133.402,197.864
				c32.462,76.747,48.921,158.27,48.921,242.303s-16.459,165.555-48.921,242.302c-31.353,74.127-76.235,140.698-133.402,197.863
				c-57.165,57.167-123.736,102.05-197.863,133.402C788.045,1228.519,706.522,1244.978,622.489,1244.978z M622.489,12
				C285.864,12,12,285.864,12,622.489s273.864,610.489,610.489,610.489c336.624,0,610.488-273.864,610.488-610.489
				S959.113,12,622.489,12z"/>
		</g>
	</g>
</g>
<g id="Ring">
</g>
<g id="Letters">
</g>
<g id="Shading">
</g>
<g id="Shine">
	<g id="Letter_J_00000010991652704934875100000011748063351114943143_">
		<g>
			<polygon fill="#808285" points="215.881,185.057 570.905,185.131 570.71,1135.028 102.685,803.217 431.232,869.773 
				414.905,845.635 414.928,340.057 215.905,340.896 			"/>
		</g>
		<g>
			<path fill="#808285" d="M571.71,1136.962l-1.578-1.119L98.249,801.299l330.784,67.009l-15.129-22.366l0.023-504.88l-199.023,0.84
				l-0.023-157.844h1l356.023,0.074v1L571.71,1136.962z M107.12,805.137l462.59,327.956l0.194-946.962l-353.023-0.073l0.023,153.835
				l199.023-0.84l-0.023,506.276l17.525,25.911L107.12,805.137z"/>
		</g>
	</g>
	<g id="XMLID_00000122683716519656850920000000140357252874679968_">
		<g>
			<path fill="#808285" d="M907.017,187.556c130.19,0.02,235.28,111.2,235.28,235.1s-110.2,233.64-235.6,234.98l-80.02-0.08
				l-24.73-1.32l24.46,24.49v346.28l-156,110.65v-636.27c39.54-0.11,78.98,0.4,118.41,0.29c39.44-0.11,78.87-0.22,118.31-0.34
				c43.63,0.55,79.75-34.77,80.32-77.69c0.58-43.71-35.89-80.36-80.32-79.81c-78.87,0.06-236.72,0.19-236.72,0.19v-156.22
				C828.867,187.806,748.547,187.556,907.017,187.556z"/>
		</g>
		<g>
			<path fill="none" stroke="#231F20" stroke-width="2" stroke-miterlimit="10" d="M906.697,657.636
				c125.4-1.34,235.6-111.08,235.6-234.98s-105.09-235.08-235.28-235.1c-158.47,0-78.15,0.25-236.61,0.25v156.22
				c0,0,157.85-0.13,236.72-0.19c44.43-0.55,80.9,36.1,80.32,79.81c-0.57,42.92-36.69,78.24-80.32,77.69
				c-39.44,0.12-78.87,0.23-118.31,0.34c-39.43,0.11-78.87-0.4-118.41-0.29v636.27l156-110.65v-346.28l-24.46-24.49l24.73,1.32
				L906.697,657.636z"/>
		</g>
	</g>
	<g id="XMLID_00000028300189387558060600000005187371079860947387_">
		<g>
			<path fill="#414042" d="M1007.344,418.377l7.29,101.83l-0.47,0.08c-16.8-18.48-44.55-32.1-67.29-22.47
				c-5.09,2.16-10.6,3.59-16.5,4.99l-5.99,1.05c-13.71,1.58-27.47,2.5-41.28,1.8l-213.14-4.93c39.55-0.11,78.98,0.4,118.42,0.29
				c39.43-0.11,78.87-0.23,118.3-0.34c43.63,0.55,79.75-34.77,80.32-77.69c0.58-43.71-35.89-80.36-80.32-79.81
				c-78.87,0.06-236.72,0.19-236.72,0.19l253.58-9.58c17.88-0.83,53.36,3.15,63.7,17.18l2.3,4.12
				C999.614,374.807,1006.294,396.327,1007.344,418.377z"/>
		</g>
		<g>
			<path fill="none" stroke="#231F20" stroke-width="2" stroke-miterlimit="10" d="M669.964,500.727
				c39.55-0.11,78.98,0.4,118.42,0.29c39.43-0.11,78.87-0.23,118.3-0.34c43.63,0.55,79.75-34.77,80.32-77.69
				c0.58-43.71-35.89-80.36-80.32-79.81c-78.87,0.06-236.72,0.19-236.72,0.19l253.58-9.58c17.88-0.83,53.36,3.15,63.7,17.18
				l2.3,4.12c10.07,19.72,16.75,41.24,17.8,63.29l7.29,101.83l-0.47,0.08c-16.8-18.48-44.55-32.1-67.29-22.47
				c-5.09,2.16-10.6,3.59-16.5,4.99l-5.99,1.05c-13.71,1.58-27.47,2.5-41.28,1.8L669.964,500.727z"/>
		</g>
	</g>
	<g id="XMLID_00000008115774036782622510000005429656451103867050_">
		<g>
			<path fill="#414042" d="M1125.917,465.466l16.22-43.89c0,123.9-110.2,233.64-235.6,234.98l-80.01-0.08
				c-8.25-0.44-16.49-0.14-24.74-0.58c133.88-0.41,230.34-28.37,263.4-116.83c7.03-18.8,7.82-63.35,3.37-100.61l9.55,26.74
				C1086.087,487.576,1117.677,487.756,1125.917,465.466z"/>
		</g>
		<g>
			<path fill="none" stroke="#231F20" stroke-width="2" stroke-miterlimit="10" d="M1065.187,539.066
				c7.03-18.8,7.82-63.35,3.37-100.61l9.55,26.74c7.98,22.38,39.57,22.56,47.81,0.27l16.22-43.89c0,123.9-110.2,233.64-235.6,234.98
				l-80.01-0.08c-8.25-0.44-16.49-0.14-24.74-0.58C935.667,655.486,1032.127,627.526,1065.187,539.066z"/>
		</g>
	</g>
	<g id="XMLID_00000147901098047006068370000017678811549921065355_">
		<g>
			<polygon fill="#414042" points="570.597,185.156 570.407,1135.056 492.407,973.686 492.407,302.286 			"/>
		</g>
		<g>
			<polygon fill="none" stroke="#231F20" stroke-miterlimit="10" points="570.597,185.156 492.407,302.286 492.407,973.686 
				570.407,1135.056 			"/>
		</g>
	</g>
	<g>
		<g>
			<polygon fill="#414042" points="799.905,656.784 801.438,1002.977 669.845,1137.277 825.905,1026.589 825.905,680.172 			"/>
		</g>
		<g>
			<path fill="#231F20" d="M670.423,1138.093l-1.292-1.516l131.305-134.007l-1.541-348.04l28.01,25.196v347.379l-0.422,0.299
				L670.423,1138.093z M800.914,659.037l1.525,344.346l-124.066,126.62l146.531-103.931V680.617L800.914,659.037z"/>
		</g>
	</g>
	<g>
		<g>
			<path fill="#414042" d="M431.574,869.803L431.574,869.803c8.312,6.776,20.472,5.867,27.685-2.069l14.794-16.279l-7.629,28.904
				c-6.821,25.841-34.288,40.316-59.46,31.335L103.027,803.247L431.574,869.803z"/>
		</g>
		<g>
			<path fill="#231F20" d="M422.28,915.337c-5.288,0-10.587-0.895-15.652-2.702L102.691,804.188l0.534-1.922l328.789,66.605
				l0.191,0.155c7.899,6.442,19.456,5.577,26.312-1.967l17.545-19.305l-8.673,32.858c-3.322,12.587-11.833,23.286-23.35,29.355
				C437.283,913.531,429.793,915.337,422.28,915.337z M116.526,807.002L407.3,910.752c11.737,4.188,24.788,3.257,35.81-2.552
				s19.168-16.049,22.348-28.096l6.585-24.95l-12.043,13.252c-7.515,8.269-20.146,9.268-28.862,2.328L116.526,807.002z"/>
		</g>
	</g>
	<g>
		<g>
			<path fill="#414042" d="M215.892,340.896l231.65-27.39l17.1,67.5h0c-10.661-9.304-27.392-3.088-29.392,10.92l-20.345,171.105
				l0.01-222.975L215.892,340.896z"/>
		</g>
		<g>
			<path fill="#231F20" d="M415.897,563.15l-1.993-0.118l0.011-221.971l-198.02,0.835l-0.121-1.993l232.521-27.493l18.102,71.456
				l-2.413-2.106c-4.727-4.125-11.062-5.283-16.938-3.098c-5.88,2.185-9.92,7.196-10.806,13.406L415.897,563.15z M415.915,339.052
				l-0.01,207.094l18.352-154.337c0.994-6.97,5.514-12.577,12.092-15.021c5.659-2.102,11.688-1.438,16.629,1.723l-16.189-63.908
				l-213.294,25.219L415.915,339.052z"/>
		</g>
	</g>
	<g>
		<g>
			<path fill="#F1F2F2" d="M736.405,915.057c0.947-0.026,0.308-0.052,0.5-0.078l0-0.078c-0.003-1.26-0.01-3.527-0.013-4.829
				c0.054-88.839-2.516-185.436-2.737-274.14c0.011-13.165-0.68-26.886,2.251-39.875c0,0,0.147-0.661,0.147-0.661
				s0.353,0.161,0.353,0.161c0.27,0.123,0.541,0.119,0.811,0.078c0.398-0.062,0.597-0.127,0.811-0.615c0,0,0-1.466,0-1.466
				s39.378,2.503,39.378,2.503s-39.378,2.503-39.378,2.503s0-1.466,0-1.466c-0.215-0.519-0.411-0.525-0.811-0.615
				c-0.27-0.041-0.541-0.045-0.811,0.078c0,0,0.5-0.5,0.5-0.5c1.486,6.646,2.016,13.292,2.237,19.937
				c0.242,83.432-2.187,175.475-2.628,259.187c-0.03,11.08-0.078,28.555-0.108,39.563c0,0,0,0.156,0,0.156s0,0.078,0,0.078
				c0.191,0.026-0.447,0.052,0.5,0.078C737.405,915.057,736.405,915.057,736.405,915.057L736.405,915.057z"/>
		</g>
	</g>
	<g>
		<g>
			<path fill="#F1F2F2" d="M822.747,276.186c62.595-12.754,158.476-16.502,205.055,34.833c6.882,7.798,12.412,16.751,15.894,26.367
				c-2.599-4.398-5.388-8.643-8.577-12.546c-2.306-2.786-4.889-5.897-7.531-8.397C979.078,268.324,886.653,271.327,822.747,276.186
				L822.747,276.186z"/>
		</g>
	</g>
	<g>
		<g>
			<path fill="#F1F2F2" d="M305.905,259.557c46.914-3.57,94.086-3.58,141-0.001C399.991,263.137,352.819,263.127,305.905,259.557
				L305.905,259.557z"/>
		</g>
	</g>
	<g>
		<g>
			<path fill="#F1F2F2" d="M385.048,945.483c11.753,1.368,23.261,3.855,34.72,6.658c11.45,2.877,22.769,6.106,33.679,10.746
				c-11.801-1.138-23.288-3.709-34.72-6.654C407.328,953.213,396.003,949.911,385.048,945.483L385.048,945.483z"/>
		</g>
	</g>
	<g>
		<g>
			<path fill="#6D6E71" d="M532.405,407.057c4.238,133.82,2.891,268.166,0.001,402C529.514,675.224,528.166,540.876,532.405,407.057
				L532.405,407.057z"/>
		</g>
	</g>
	<g>
		<g>
			<rect x="798.905" y="654.057" fill="#231F20" width="44" height="2"/>
		</g>
		<g>
			<path fill="#231F20" d="M843.029,656.182h-44.25v-2.25h44.25V656.182z M799.029,655.932h43.75v-1.75h-43.75V655.932z"/>
		</g>
	</g>
</g>
</svg>
