<svg xmlns="http://www.w3.org/2000/svg" viewBox="0 0 1176.37 2240.58" fill="#fff200" xmlns:v="https://vecta.io/nano"><path d="M1148.3 1486l-19.37-115.13c-2-12.44-4.85-24.63-5.36-37.08-1.27-23.33-6.62-44.08-24.72-59.89a201.91 201.91 0 0 1-15.81-17.38c-7.13 39.17 32.38 177.37 65.26 229.48zM652.24 553.83c25.24 17.37 49.2 36.3 63 64.56a724.06 724.06 0 0 1 56.59 156.36c1.28 5.7.26 11.93.26 17.89L757.77 788l-1.77 3.09c16.57 17.63 25 42.78 51 53.41a15.48 15.48 0 0 1-2.55 6.48q-37.84 40.85-76 81.17a77.48 77.48 0 0 1-7.39 5.18c-28.81 23.6-58.12 46.16-85.66 71-16.31 14.52-11.47 29.56 9.18 36.3a25.77 25.77 0 0 0 28.3-6.48c18.35-17.89 36.45-36.3 55.82-52.9a337.2 337.2 0 0 0 76.73-92.57c4.59-8 11.47-14.52 16.57-22.3 3.32-4.92 5.35-10.89 9.18-18.93a31.72 31.72 0 0 1 29.82 4.72c20.91 15.3 35.44 36 46.91 58.86 2 3.89.51 9.86-.26 14.52-.25.78-7.9-.52-8.41 1-6.63 13.22-12.24 26.71-18.1 39.93l-1-.26.51.52 17.85-28.26c4.84 4.41 8.66 7.26 12 10.63l110.63 116.43a208.5 208.5 0 0 1 47.67 71.82c14.53 35.79 26.51 72.87 39.51 109.17a20.92 20.92 0 0 1 0 5.7l-2.8 1.82a288.81 288.81 0 0 0-119.3-116.95 191.32 191.32 0 0 0 12.23 40.71l30.85 75.2c13.25 34 24.47 69 38.23 102.68 21.42 52.38 41.56 105 53.28 160.51a83.47 83.47 0 0 1-.25 35.53c-6.63 28 0 42.52 30.33 54.45l-11.73-94.13 3.57-1.29c3.06 3.89 7.65 7 9.18 11.41 5.86 17.37 12.75 34.74 15.3 52.63 3.82 25.42 1.78 51.86 6.37 77.28 10.7 61.19-8.67 106.05-62.2 137.17-20.39 11.92-38 29-56.08 44.34a31.4 31.4 0 0 0-8.41 15 314.07 314.07 0 0 0-7.4 38.11c-1.53 11.41-3.82 23.34-2 34.49l44.36 230c5.35 28 7.9 56.27 12 84.53l-97.89.78c1-11.41 2.81-23.08 3.06-34.48.51-14.79-4.33-21.79-19.88-30.08-7.14 21.52-4.08 43-3.57 64.56h-38.33l-4.59-62.23c-.76-16.6-.51-33.45-1-50-.25-3.88-2.55-7.77-3.82-11.66H923l-1 60.67c-.51 21-1.79 42-2.55 63H794.48l-.51-30.85a203.85 203.85 0 0 0-2.55-37.34l-15 68.19h-12.78c2.54-19.19 6.11-38.11 7.39-57.56 1.78-26.45 1.78-53.16 2.55-79.87 0-3.63 2.29-7.26 2.29-11.15a121.92 121.92 0 0 0-1.27-16.59l-4.85-.52-16.82 69.49-20.14 95.94H258.65c-1.78-3.11-3.57-8.55-5.1-8.55-27.53 1.81-45.88-15-64.49-31.64-6.88-6.22-13.51-13-21.92-21l-51.24 61.19H90.41l31.1-47.19 73.41-107.09c9.18-14.26 15.3-30.6 23.45-47.45-14-.78-21.15-5.71-20.64-18.93 7.9 2.07 15.55 7 21.66 5.44 6.89-1.81 12-9.59 17.85-14.78-6.38-10.11-13.26-11.15-20.65-6.22-10.71 7-19.63 3.37-30.34-4.41 12.24-5.7 22.95-11.41 34.42-15.56 8.41-3.11 9.68-9.59 6.88-15-1.78-3.37-9.69-5.7-14.53-5.18-6.37.78-12.49 4.67-18.86 7.26-4.85 2.07-9.94 3.63-15 5.44l-4.85-11.66c16.06 1.29 31.36 0 42.57-15-6.11-7.26-13.25-13-23.45-10.38-10.45 2.6-18.61 14.27-18.86 25.67-13-9.07-14.79-21.78-12-36.3a22.72 22.72 0 0 0-1.53-14.26c-7.65-15-6.37-22 6.88-32.67 3.82-3.11 7.22-10.07 9.58-14.68-11-15.3-17.23-25.77-28.7-39.52a235.78 235.78 0 0 1-51.24-102.94c-2.54-11.41-6.11-22.56-8.92-33.71-3.82-14.26-3.57-31.37-23.7-32.93 0 .78.25 2.34.51 4.15-13.77-10.37-12-24.89-9.18-39.41-9.69 2.85-10.45 4.4-9.43 13.48 1.53 14 9.17 24.63 18.35 25.67l15.55 11.41c-26.26-1-37.22-18.41-47.67-36.82-2-3.63-3.82-8.3-7.14-9.85-10.19-4.93-13.25-13-11.47-23.34 2-10.89 4.85-21.26 6.63-32.15a19 19 0 0 0-1.27-10.64c-5.36-13.74-1.53-20 13.25-17.63 8.41 1.3 12.24-1.55 16.32-8a339.77 339.77 0 0 1 27.78-38.37c10.71-12.19 12-19.71 1.79-32.68-30.36-38.45-21.96-77.61 21.64-101.2-9.94 17.89-20.39 35.26-29.6 53.41-2.8 5.71-1.27 13.23-1.78 20l4.08.52c1-4.15 2.29-8.56 3.31-12.71l1.79 1.82c2.55-2.08 6.62-3.63 7.39-6 6.12-18.15 11.47-36.3 16.82-54.45 0-.26-1.78-1.3-2.8-2.07 6.37-10.12 7.48-12 14.11-21.85-4.59-2.33-5.61-3.34-9.18-5.42-8.16-4.93-4.43-2.16-12.34-7.35a314.88 314.88 0 0 1-34.53-26.55c-6.63-6-11.13-12.1-16-20.14-17.84-29.56-31.05-82.31-41.75-114.47a6.74 6.74 0 0 1 .25-3.89c11.47-31.11 10.83-64.21 32.5-93.25 16.57-22.3 33-44 55.2-60.3 19.89-15 37.47-31.07 57.6-45.85l3.83-3.11c13.76-11.93 39.76-13.74 55.57-4.93 6.63 3.63 14 5.19 21.16 7.78 21.41 7.52 43.33 14.26 64.49 22.82 11.73 4.93 22.43 12.71 34.67 20l-27-1.3c-16.83-24.89-42.32-33.19-69.59-36.56-12-1.56-25.24-3.37-36.46-.26-21.41 6-42.06 15.3-62.71 23.85a11 11 0 0 0-5.35 9.34c.51 3.11 5.1 5.19 10.45 6l-3.31-7.78c16.82.78 28.8-21.78 49.71-9.33-10.45 7.52-21.16 13.74-30.08 22s-16.57 19.19-24.73 28.78l2 2.34 58.63-40.2-.77-11.92c8.93 4.66 17.34 6.22 21.93 11.66 14.27 16.6 33.65 18.42 52.51 22.56 7.39 1.56 15 2.6 21.41 3.89a175.57 175.57 0 0 1 6.38-21.78c1-2.07 6.62-1.81 10.19-2.59 4.34 3.37 8.41 9.07 13 9.85 18.61 2.34 35.95 17.12 56.59 5.71-1.53 5.44-4.33 9.07-5.86 13.22a98.26 98.26 0 0 0-3.31 15c12.23-3.11 30.59-27.48 28.29-37.08-.76-3.63-5.35-6.22-7.65-8.82 14.79-.77 20.14 5.19 17.59 23.34-1.27 9.34-1.53 16.86 9.18 20.75a15.33 15.33 0 0 1 8.41 9.85c3.32 19.19 20.65 27.23 32.89 35.26 23.7 16.08 32.12 32.94 15.8 57.31-9.68 14.52-21.92 27.49-34.16 39.93a50 50 0 0 0-15 37.86c.77 48.75-.51 97.5-.76 146.25 0 3.89 1.27 9.07 3.82 11.15 16.83 14 34.42 27.48 51.24 40.71l11.47-30.6c11.47-27.49 21.16-56 19.63-86.35-1-20.22.51-38.37 9.43-57.56 17.08-36.82 27.28-76.76 47.42-112.54 3.31-6 2-15.3 1-22.82-1.53-11.93-6.38-23.34-7.14-35.26-1.79-23.34 4.59-29 27-26.45 2.8 3.11 8.16 6.48 9.69 5.18 12.49-10.11 24.47-21 19.37-41.74-2.55 2.07-3.57 5.7-5.61 8-14 14.27-34.92 9.6-43.33-8.81a45.16 45.16 0 0 0-13.26-16.86c-13-9.85-27-18.15-40.28-27.48a158.8 158.8 0 0 1-24-19.45c-5.35-5.7-8.92-7.78-17.08-4.67-6.37 2.34-15 0-22.43-1.81-2-.52-2.8-6.23-4.08-9.86 3.06-.77 6.12-2.59 8.92-2.33 11.47 1.3 9.43-4.41 6.63-11.67-12.24 4.41-20.65-.78-26.26-10.63-4.07-7.52-5.86-16.34-10.19-23.6-2.44-4.1-8.57-6.18-11.57-10.28-6.63-8.3-20.14-1.29-25.49-15-13.25-32.67-18.35-69.75-53-91.79m161.8-226.98l.76-6.22M372.85 1223.6c-.76.78-1.53 1.82-2.29 2.59-19.89 15-39 9.08-57.61-2.59a75.07 75.07 0 0 1-61.18 24.12c-16.06-.78-27.53-6.49-32.12-23.6-1-3.63-5.35-6-8.16-9.08-.25 4.15-2 8.82-.51 12.19 8.16 18.41 23.2 26.71 42.32 28 21.66 1.29 40.78-6.23 58.37-17.64 25.24 16.08 42.57 13 59.91-10.63l.76-3.89 3.57-2.59h.77l-.26-.26zM179.88 1569l-.76.26-5.36-2.85-3.56 8 9.43-5.19zm503.71-18.15c1.53 3.11 11.73 3.63 17.34 2.33 11.72-2.85 18.61 2.6 24.47 11.15 27.53-16.59 27.78 16.6 43.08 24.38-.77-9.34-1.79-18.67-3.32-28a16.69 16.69 0 0 0-7.39-9.85q-18-8.94-36.71-16.34c-10.19-3.89-18.86-14-31.6-9.59 4.33-7.26 15.29-15 6.62-23.08-7.39-6.48-18.35-1.81-25.74 6.23a44.44 44.44 0 0 1-6.63 5.44c-5.61-35.52 21.41-63 19.88-97-9.94.26-14 4.15-14.27 12.71-.51 20.74-5.61 39.93-17.85 56.78-7.39 10.12-2 40.46 8.93 44.86 6.37 2.6 14.78-.51 22.43-1-.26 7.26-2.3 15.55.76 21zm390.53-360.17l-.25.52c-3.32-13.23-5.36-27.49-10.71-39.93-8.92-20.23-20.14-39.68-38-53.68l-2 .78 2-.78c3.31 8.82 6.37 17.89 9.94 26.45 2.55 6.48 6.12 12.71 9.18 18.93l-3.06 1.81c-8.42-13-16.57-26.19-25.49-38.89-4.59-6.48-10.71-11.93-16.06-17.89l.25-.78-.51.52 5.1 20c-7.14-1.29-14.53-1.29-21.41-3.89s-12.24-7.26-20.4-9.33l15.55 28.78a13.11 13.11 0 0 0 5.61 4.93l47.42 23.59c3.82 1.82 8.92 1.3 15.8 2.34l27.28 37.08zM292 1851.89l-.25.26 21.92 98c2.55 12.19 5.86 24.12 7.14 36.57 2 22 10.2 37.59 28 47.45-11.22-14-5.61-28.78-3.57-43.31a21.56 21.56 0 0 0 .26-9.07c-5.36-19.71-9.18-40.19-16.83-59.12-8.92-22-21.16-43-31.86-64.31a29.6 29.6 0 0 0-5.36-6zm331.9-365.1l9.43-55.23a291.22 291.22 0 0 1 11.22-41.23c1.78-4.41 8.41-8.55 13.51-10.11 11-2.85 15-9.85 8.67-19.71-9.18-14.52-8.92-28.52-2.55-44.08l57.1-135.35c5.1-11.41 3.06-22 3.31-33.19v.25c1.28-3.11 4.59-7.52 3.57-9.07a132.3 132.3 0 0 0-13.51-15.82 40.91 40.91 0 0 0-5.35 6.22c-.51.78 1 2.86 1.78 4.15h-.25c-3.06 3.37-7.14 6.49-8.67 10.38l-92 220.14c-3.57 8.56-7.14 14.78-17.85 14-10.19-1-15.8 4.66-19.12 14.78a193.33 193.33 0 0 1-11 26.18c-2.55 5.19-2.29 15-13 10.64-.76-.26-4.08 5.18-5.86 7.78 6.88 10.89 25.75 12.7 20.65 28.52-4.59 14.78-6.63 32.93-24.22 37.6 3.06-7.52 9.18-15.56 8.67-23.6s-7.39-14.78-12.75-24.37l-12 17.63 31.87-80.13 116.49-268.89c3.31-7.52 5.61-15.3 8.41-22.82-17.84-8.3-25.74-4.67-25.49 15 .26 22.82-6.63 43-15.55 63.27l-41 97.76-76.47 177.88c-3.06 7-8.42 12.7-11.22 19.7-1.27 2.86 2 7.78 3.06 11.67l4.84-3.37c-2 11.93.51 21.26 11.22 28.52 8.67 6 15.55 14.27 24.22 22.3l-16.53 7.81 6.37 19.19 20.65-19.19v24.9a72.85 72.85 0 0 0 6.63-8.82c6.62-15.56 16.31-26.45 33.39-30.86 3.82-1 5.61-10.11 9.43-17.11 13.51-2.07 8.67-19.45 17.59-27.23l-3.06-2.59-5.35 7.26zm-184.05 340a20.21 20.21 0 0 1 2.81 13.74c-2.55 11.15 2.8 18.67 14.27 19.45 16.32 1.29 32.63 2.33 48.44 6 13.25 3.11 22.43-.52 26.51-12.7a143.41 143.41 0 0 0 8.41-38.64c1-27 3.57-53.42 17.33-77.27 6.63-11.67 3.32-18.15-7.13-23.6-15-7.78-29.32-11.41-47.42-7.78s-38 .78-56.84-.52c-22.44-1.55-44.61-5.18-67-7.26-6.37-.52-13.25.52-19.88 1-.76 1.3-1.27 2.85-2 4.15 4.85 3.63 8.92 8.82 14.28 10.37 16.31 4.41 33.14 7 49.71 10.89 7.64 1.82 14.78 4.67 22.43 7.26.25 1.56.76 3.37 1 4.93-7.14 4.41-14 9.59-21.41 13a135.54 135.54 0 0 1-24.22 7.26c-8.92 2.08-17.85 3.12-27.79 7.78l49.71 15c.26-7.26-1.53-15.81 1.28-17.89 5.35-4.15 13.25-4.41 23.19-7.26-6.12 13.48-2.8 23.08 7.4 30.08-2.3 3.37-4.34 9.33-6.63 9.33a251.43 251.43 0 0 1-34.16-.77c-9.18-1-18.35-3.89-27.53-4.93-3.32-.26-6.63 2.59-10.2 3.89 3.06 3.37 5.35 7.78 8.92 9.59a54.29 54.29 0 0 0 18.1 5.45c6.89 1 13.77.26 24 .26 5.03 6.17 10.13 12.65 14.46 19.14zm-5.6-1116.82l-11.22-14c.76-3.37 1.78-7.26 2.8-11.15-4.33-1-8.66-3.11-13-3.11-12.74.52-16.06 3.37-28.8 21.52l-19.89-10.63c-2.29 9.34-5.09 19.19-7.13 29-.77 4.15.76 8.56.51 12.71-.26 4.93.51 12.7-2.3 14.52-12.74 8.56-4.59 15.3.26 23.34 7.39 12.18 15.55 24.37 20.14 37.86 3.06 8.55.51 19.18.51 26.44 7.13 1.3 12.23 3.12 17.08 2.86 3.82-.26 9.68-2.86 11-6 9.43-23.85 29.31-29 51.23-31.63 6.38-.78 12.5-1.82 18.87-2.6 14.53-2.07 21.41 4.15 20.39 19.45-.51 9.34-3.57 18.67-4.08 28-.25 4.66 1.28 13 3.32 13.48a19 19 0 0 0 14.78-3.37 90.5 90.5 0 0 0 16.06-18.15c6.37-9.6 13.77-10.37 22.69-4.67 3.57 2.33 7.39 4.15 11 6.74 15.8 11.15 33.14 11.41 51.24 7 10.45-2.59 13.76-10.11 10.19-17.89-2.55-5.7-11.47-13-16.31-11.93-27.79 5.19-45.63-7.26-60.16-29.56-3.06-4.66-9.43-8.29-15-10.11-21.41-7-43.08-13-64.49-19.45-3.06-.77-7.65-3.11-7.91-5.18-3.31-22.56-18.35-33.45-37.72-39.93-.26 0-.26-.78-.51-3.12zm717.58 973.68l-14-46.41a28.65 28.65 0 0 0-3.57-8c-26.26-42.27-50-86.87-80-126-29.57-38.9-59.91-77-83.61-120.06a3.58 3.58 0 0 0-.77-1l-20.9-11.4c.51 6.74-.51 14 1.78 20.22 6.63 18.67 12.75 37.86 22.18 55 27.53 50.31 56.59 99.57 97.38 141.32 24 24.64 44.1 53.42 64.49 81.68 7.14 9.6 9.43 22.82 14 34.23a117.05 117.05 0 0 0 6.12 10.89l5.1-1.81c-2.55-9.78-5.36-19.11-8.16-28.71zM244.12 1861l-28.55-17.11c24.22 42.53 42.32 88.68 73.42 126.28l3.05-1.3c-4.58-19.7-9.68-39.41-13-59.12-2.29-13.22-2.55-27-3.57-40.71-.51-8 .26-16.07-.76-24.11-3.06-23.34-5.1-47.19-10.71-70-7.13-28.27-17.33-55.75-26-83.5l-5.61 1c-19.88 56.78-4.84 111.49 11.73 168.57zm309 6.23c-1.28 7.52 1.53 12.19 9.43 13.48 14.53 2.59 29.06 6 43.59 7.78 8.92 1 16.06-2.59 18.61-13.48.76-3.11 8.15-7.26 12-6.74a143.37 143.37 0 0 1 29.06 8.55c20.14 7.26 38.75 2.08 55.57-9.07 6.12-4.15 10.2-11.67 13-20l-41 15.3c-29.57 11.93-49.45 3.37-56.59-27.75-3.57-15-10.2-22.81-23.45-28.26-14.53-6-28.3-14-46.14-22.82l-14.12 82.97zm-337.51-278l53.53 10.11 124.15 22c21.66 3.63 43.33 7.52 65.25 9.59 6.38.52 13.26-3.89 19.89-6l15.55-5.19-2.81-6.74c-8.41 0-14.27.78-19.63 0-18.35-2.85-36.7-8.81-55.06-9.33-62.2-1.82-121.59-20-182.52-28.53l-14.78-1.81zm283.21 66.12l-144.54-29-127.71-23.08a38.92 38.92 0 0 0-6.12-.26l-3.06 15.3 302.84 54.45c.51-1.29 1.28-2.33 1.79-3.63-7.95-4.72-15.08-11.98-23.24-13.79zm-313-24.38c36.71 8.82 74.44 15 109.62 28.53 20.9 7.78 42.57 8.55 63 16.07 2.81 1 8.41 1 9.18-.51a14 14 0 0 0 .25-10.64c-3.57-8-5.86-17.89-17.08-14.52-4.84 2.34-9.68 6.49-14.53 6.49-2.29 0-4.33-8-7.64-14.27l-152.95-27.48c-1.91 10.62 1.66 14.25 10.07 16.36zm-8.92 65.87l-6.12-9.6c-8.15 7.78-12.23 26.45-7.13 37.08l44.35 88.17a3.64 3.64 0 0 0 4.59 2.59l-14.53-51.86c-2.29-8.3-1.53-16.08 0-25.41 4.08-23.34 3.06-48 3.57-72.09 0-3.63-2.29-7.26-3.57-10.63l-4.84-.52zM809 1823.37c9.18 10.89 19.12 20.74 27 32.41 3.82 5.7 3.82 14.26 6.12 23.6 18.61 4.14 38.24-4.41 43.59-21.53-38.24-15-63.47-46.67-94.06-76.23-.77 18.93 7.64 30.6 17.33 41.75zm-139.68-643.85c-15.81 37.6-28.3 77.27-48.44 112.54-12.74 22.3-23.45 45.12-34.15 68.19-1.53 3.11-2.55 6.23-4.34 10.63 7.39 1.82 12.49 2.08 15.81-6.48l96.35-231.29a41.32 41.32 0 0 0 1.53-7.78l-3.82-1q-11.09 27.62-22.94 55.23zm-272.76-89.46a52.3 52.3 0 0 1 2.8-6.74c7.65-9.34 7.91-10.89-4.59-11.67-15.8-1-26.51-10.11-37-20.48a234 234 0 0 0-20.65-18.93c-2-1.82-7.9-1.82-9.68 0a14 14 0 0 0-3.32 10.89c3.57 13.74 8.42 27.22 13.51 42.52 19.12-16.33 38.75-8.55 58.89 4.41zm-111.65 366.65c-26-18.67-53.79-13.22-78.52 16.08 46.14-13.22 83.87.26 118.28 26.19l2.81-4.15c-14-12.7-27.28-27.23-42.57-38.12zm585.28 255.42c5.1 4.66 8.67 11.4 12.75 17.11l9.17 12.71c4.85-4.93 11-9.34 14-15.3 1.53-3.37-.76-11.15-4.08-14a248.53 248.53 0 0 0-28.8-21c-10.2-6.74-20.65-13.48-31.36-19.71-3.56-2.07-8.41-1.81-12.74-2.85l-2.3 6.22c14.3 12.18 29.34 24.11 43.36 36.82zM632.35 801.46a42.79 42.79 0 0 0-.51 11.41c4.08-1 10.46-1 11.73-3.63 4.33-10.12 9.94-21 9.69-31.38-.26-17.37-4.59-34.49-6.89-49.27l-22.94 1.56c13.77 17.37 16.06 36.3 4.34 55.49l10.7 7.26c-2.55 3.1-5.35 5.45-6.12 8.56zm-414.23 1269c-7.9 29.3 7.39 51.08 25.24 70.53 12.49 13.74 28.29 24.37 43.08 36 2.29 1.82 5.6 2.08 8.66 3.12l2-2.6a93 93 0 0 0-6.63-7.52l-32.62-28.78c-15-13-24.22-29.82-29.83-48.75-1.53-5.18.77-11.67 1.28-17.37s1.27-11.67 2-17.63l-6.37-2.08a88.22 88.22 0 0 0-6.81 15.1zm-62.71-664.07c11.47-10.11 28-16.86 27-35-.25-7-9.18-13.74-13.76-20-21.65 16.12-10.44 36.87-13.24 55.02zm781.31 544.81c3.83 3.63 9.18 7.78 9.69 12.19 1 7-4.08 9.59-11.73 9.33-3.31 0-6.88 6-10.45 9.08 3.32 1.81 6.88 3.63 10.45 5.19 2.55 1 5.36 1.55 7.91 2.59s5.6 2.33 8.41 3.63c.76-2.85 1.53-5.71 2-8.3 1.53-6.48 2.29-13.22 4.84-18.93 4.33-9.33.76-16.07-6.37-19.45-6.63-3.11-15-12.44-23.2 2.08 3.86 1.04 6.92 1.04 8.45 2.59zm-565.14-216.52c-8.67-1.81-17.85-2.85-25.75-6.22-24.73-9.85-29.06-31.37-9.94-50.3l-22.18-4.67 2 39.67a9.36 9.36 0 0 0 2.81 6.49c19.62 15.81 41.8 22 67.29 16.85a85.8 85.8 0 0 1-14.23-1.82zm200.87-805.9c-9.43 4.66-16.82 3.11-25-2.08-7.14-4.41-14.79-8-22.94-12.7-1.79 4.92-4.08 8.29-4.08 11.92 0 4.41.25 10.38 2.8 12.45a13.93 13.93 0 0 0 12.75 1c10.45-5.71 19.63-5.19 30.08.77 8.15 4.67 16.31 2.34 22.17-5.44 0-1.82.26-3.63.26-5.45-5.35-.26-11.73-2.59-16.06-.51zm180.48 775.83c7.65 10.63 14 21.26 9.43 35.52-1 2.85 2.3 10.11 4.08 10.37a17.76 17.76 0 0 0 12.24-3.89c2.54-2.33 5.35-8.29 4.07-10.37-7.64-14.26-16.06-28-24.72-41.75-2-3.11-6.38-4.92-9.69-7.26l-3.57 2.86a117.94 117.94 0 0 0 8.16 14.52zM428.68 1849.3c7.39-2.86 7.14-8.3 3.06-13.49-5.61-7-36.46-11.15-45.38-6.48 5.1 12.97 30.08 24.89 42.32 19.97zm254.66-729.16l-3.57-1.56-73.93 176.85 3.57 2.07q36.71-88.68 73.93-177.36zM678 1368.55c4.85 14.26 19.63 13.23 26.77 23.08l-18.35 42.78c8.41-2.59 23.19-34.48 25-52.38zm-397.66 58.08l57.35 18.16c-5.35-17.38-33.39-26.19-57.35-18.16zm-91.54 489.05c-10.7 3.37-16.06 13.74-16.82 26.45l33.65-13.75 1.53-4.66c-6.12-3.12-13.51-9.86-18.36-8zm-6.11-309.87l17.08 3.37 5.35-23.33-17.34-7.52-5.09 27.48zm225.85-999.09h45.88c-19.62-13.72-35.17-13.48-45.88 0zM52.17 1538.13l3.57 3.63c19.37-1.29 32.12-13.74 39-38.11l-3.31-2.86zM618.84 689.7c-4.33-1.82-10.45.52-15.8.78l.25 3.89 32.89 14.78c.76-11.67-8.92-15.82-17.34-19.45zm-192.46-73.9c-4.58 8.81 4.08 14.26 12.24 17.37l8.92-18.93c-6.12-2.85-16.06-7.78-21.16 1.56zM982.1 2123.9a161.53 161.53 0 0 0-.26 19.18c.26 2.34 2.3 4.67 3.57 7 1.79-2.08 5.1-4.15 4.84-6-.51-15-1.78-30.08-2.8-45.12h-2.55c-.76 8.04-2.04 16.64-2.8 24.94zm3.31-117.47h2.3c2.54-10.37 5.6-20.48 6.88-30.85.25-2.6-5.87-6-9.18-9.08l-2.55 2.33zm3.06 24.64h-2.8l-2.55 55.23h5.35zM223.73 1195.6l32.88 24.63c-9.18-20.23-17.08-26.71-32.88-24.63zm701.78 859.06h2.55v-44.34l-2.55.26zm-715.51-481a16.08 16.08 0 0 1 1.28-3.11c-8.67-1.82-4.34-18.15-17.34-14.26-2.55.77-3.57 7.52-5.86 13.74zM373.62 1666c12.23 6.74 17.59 4.93 23.45-7.78-9.94-2.62-18.61-5.22-23.45 7.78zm568.46 494.75l3 32.15c12.24-13.74 12-19.71-3-32.15zM445.25 630.84l11.47 17.37 12.49-8.56-1.28-3.65zm503.2 1460.38c-6.12 16.86-1.79 26.45 9.94 24.9zm-418.06-448.33c1.27-2.85 4.33-7.78 3.82-8.3a149.18 149.18 0 0 0-14.78-10.11l-3.57 5.19zm-485.87-22.56c11.47-2.85 18.87-6 18.61-20.74zm238.6-408.4l.77-3.11-25.75-7.26-.76 4.41zm185.07-565c0 1.82.25 3.63.25 5.45l16.57-.78-.25-6zm518.24 1524.42a52.21 52.21 0 0 0 6.88-6c-1.78-1.81-3.82-5.18-5.6-5.18s-3.83 3.11-6.63 5.7c2.29 2.63 4.84 5.74 5.35 5.48zm-334.7-740l4.33 1.3q2.69-8.56 5.35-17.12l-3.82-1.29zm-483.57 149.83l-.51 5.18 13.25 1.56.51-4.93zm473.88-126l-2.8-1.3-8.92 17.63 3.56.78c2.55-5.72 5.36-11.43 8.12-17.13zM472.78 602.06l1-2.6-18.1-5.7c-.26 1-.77 2.07-1 3.11zM444.23 1102l-2.3 3.89 13.26 7.52 2-3.37-12.96-8.04zm-330.88-84c0-1-3.06-3.89-4.08-3.38-2 .52-3.57 2.86-5.1 4.41l5.61 6c1.78-3.12 3.57-4.93 3.57-7zm128.73 222l2.3-2.34-8.16-9.07-3.32 2.85zM122 1017.2l2.55-2.86-7.14-6.74-2.55 2.86zm-95.32 602.35c1.27 1 2.29 2.08 2.55 1.82l5.35-4.67-3.31-2.85zm7.65-63.78l-1.53-2.34-6.12 4.15L29 1561zM285.67 1228l-.76-2.33-6.12 1.55 1.27 3.11zm137.15-600.53c0-.26-1.53-1.3-1.79-1a10.39 10.39 0 0 0-2 2.59l2.55 1.3a9.9 9.9 0 0 0 1.24-2.89zm506 1465.53c.51-.78 1.78-1.82 1.78-2.59s-1.53-1.3-2.29-2.08l-2.29 2.85zM37.38 1583.77c-.5.52-1 .78-1.52 1.3.25.26.51.52.51.78a6.76 6.76 0 0 0 1.52-1.3zm667.88-469.59l.76-1.3h-1c-.26 0-.51.52-.51.78zM449.58 589.61l-1-.52.26.78zm479 1406.19l-1 .26.76 1z"/><path d="M224.96 928.29h926.92v1312.3H224.96z"/><path d="M1151.87 1090.06L661.34 1590.2 92.43 1021.3 1113.73 0l37.39 50.59"/><path d="M1135.48 1480.82l-19.21-111.83c-2-12.09-4.8-23.92-5.31-36-1.26-22.67-6.57-42.82-24.52-58.18a197.14 197.14 0 0 1-15.67-16.87c-7.08 38.06 32.1 172.25 64.71 222.88zm-953.23-468.7l-.76-11.59c8.85 4.54 17.19 6.05 21.74 11.34 14.16 16.12 33.37 17.88 52.08 21.91 7.33 1.51 14.91 2.52 21.23 3.78a167.65 167.65 0 0 1 6.32-21.16c1-2 6.57-1.76 10.11-2.52 4.3 3.28 8.34 8.82 12.89 9.57 18.45 2.27 35.64 16.63 56.12 5.54-1.52 5.29-4.3 8.82-5.82 12.85a94.9 94.9 0 0 0-3.28 14.61c12.13-3 30.33-26.7 28.06-36-.76-3.52-5.31-6-7.59-8.56 14.66-.76 20 5 17.44 22.66-1.26 9.07-1.51 16.38 9.1 20.15a15.06 15.06 0 0 1 8.35 9.57c3.28 18.64 20.47 26.45 32.6 34.26 23.51 15.61 31.86 32 15.68 55.65-9.61 14.11-21.74 26.7-33.88 38.79a48 48 0 0 0-14.91 36.77c.76 47.35-.5 94.7-.76 142 0 3.78 1.27 8.82 3.79 10.83 16.69 13.6 34.13 26.7 50.81 39.54l11.38-29.71c11.37-26.7 21-54.4 19.46-83.87-1-19.64.51-37.27 9.35-55.91 16.94-35.76 27-74.55 47-109.31 3.29-5.79 2-14.85 1-22.16-1.51-11.58-6.32-22.66-7.07-34.25-1.77-22.67 4.55-28.21 26.79-25.69 2.78 3 8.09 6.3 9.61 5 12.38-9.82 24.26-20.4 19.21-40.55-2.53 2-3.54 5.54-5.56 7.81-13.91 13.85-34.64 9.32-43-8.57a44.07 44.07 0 0 0-13.14-16.37C523.76 999 509.85 991 496.71 981.9A156.09 156.09 0 0 1 473 963c-5.31-5.54-8.85-7.56-16.94-4.53-6.32 2.26-14.91 0-22.24-1.77-2-.5-2.78-6-4-9.57 3-.75 6.07-2.52 8.85-2.26 11.38 1.25 9.35-4.29 6.57-11.34-12.13 4.28-20.47-.75-26-10.32-4.05-7.31-5.82-15.87-10.11-22.92-2.53-4-8.6-6-11.63-10.08-6.58-8.06-20-1.26-25.28-14.6-13.15-31.74-13-42.1-47.34-63.5C306.8 801 287 771.62 271.87 755.75c-9.86-10.32-6.76-32.51 5.63-39.56 7.83-4.28 16.48-29 14.21-37.52-2.78-10.33 3.28-18.64 13.14-22.16 11.12-4.29 21.74-10.33 32.61-15.87a14.11 14.11 0 0 0-1-3h-27.3l-2.28-2.52a88.42 88.42 0 0 1 10.12-9.34c26.55-18.39 53.59-36 79.38-55.41 10.87-8.31 21-12.09 34.88-9.57 16.18 3 32.61 3.53 48.79 5.29l.75-6-53.84-4.79c18.2-15.87 36.66-20.15 57.38-10.83 8.09 3.53 14.92 2 16.94-6.3.76-2.51-6.07-6.8-9.61-10.32 10.87-5.79 24.27-5 37.16-2.52 42.22 7.56 79.63 26.44 114.76 50.12 25 16.87 48.79 35.26 62.44 62.71A694.37 694.37 0 0 1 762.13 790c1.26 5.54.25 11.58.25 17.37l-14.16-4.53-1.76 3c16.43 17.16 24.77 41.57 50.54 51.89a14.92 14.92 0 0 1-2.53 6.3l-75.32 78.83a76.09 76.09 0 0 1-7.34 5c-28.56 22.92-57.63 44.83-84.93 69-16.18 14.1-11.37 28.71 9.1 35.25a25.92 25.92 0 0 0 28.06-6.29c18.2-17.38 36.15-35.26 55.36-51.38a329.28 329.28 0 0 0 76.08-89.91c4.55-7.81 11.38-14.1 16.44-21.66 3.28-4.79 5.3-10.58 9.1-18.39a32 32 0 0 1 29.57 4.54c20.73 14.86 35.14 35 46.51 57.17 2 3.78.51 9.57-.25 14.1-.25.76-7.84-.5-8.34 1-6.58 12.84-12.14 25.94-17.95 38.78l-1-.25.5.51 17.7-27.46c4.8 4.29 8.59 7.06 11.88 10.33l109.71 113.08a202.42 202.42 0 0 1 47.27 69.76c14.4 34.76 26.28 70.78 39.18 106a20.63 20.63 0 0 1 0 5.55l-2.78 1.76a283.69 283.69 0 0 0-118.31-113.59 183.38 183.38 0 0 0 12.14 39.54l30.58 73c13.15 33 24.27 67 37.92 99.73 21.23 50.88 41.2 102 52.83 155.9a79.36 79.36 0 0 1-.25 34.5c-6.57 27.2 0 41.31 30.08 52.89l-11.63-91.42 3.54-1.26c3 3.78 7.58 6.8 9.1 11.08 5.81 16.88 12.64 33.75 15.17 51.13 3.79 24.68 1.77 50.37 6.32 75 10.61 59.44-8.6 103-61.68 133.23-20.22 11.59-37.66 28.21-55.61 43.07a30.31 30.31 0 0 0-8.34 14.6 297.18 297.18 0 0 0-7.33 37c-1.52 11.08-3.8 22.66-2 33.49l44 223.4c5.31 27.2 7.83 54.65 11.88 82.1l-97.07.75c1-11.08 2.78-22.41 3-33.49.51-14.36-4.29-21.16-19.71-29.22-7.08 20.91-4 41.81-3.54 62.71h-37.93l-4.55-60.44c-.76-16.12-.51-32.49-1-48.61-.25-3.77-2.53-7.55-3.79-11.33H912l-1 58.93c-.5 20.4-1.77 40.8-2.52 61.2H784.62l-.5-30a194.84 194.84 0 0 0-2.53-36.26l-14.91 66.23H754c2.53-18.63 6.06-37 7.33-55.91 1.77-25.69 1.77-51.63 2.53-77.57 0-3.52 2.27-7 2.27-10.83a115.16 115.16 0 0 0-1.26-16.12l-4.81-.5-16.68 67.5-20 93.18h-470.1c-1.77-3-3.54-8.31-5.05-8.31m118.3-978.95c-.76.76-1.52 1.76-2.28 2.52-19.71 14.61-38.67 8.82-57.13-2.52a75.22 75.22 0 0 1-60.66 23.42c-15.93-.75-27.3-6.29-31.85-22.91-1-3.53-5.31-5.8-8.09-8.82-.25 4-2 8.56-.51 11.84 8.09 17.88 23 25.94 42 27.2 21.49 1.26 40.45-6.05 57.89-17.13 25 15.62 42.21 12.59 59.4-10.32l.76-3.78 3.54-2.52h.76l-.25-.25zm-191.36 335.71l-.75.25-5.31-2.77-3.54 7.81 9.35-5zm499.5-17.63c1.51 3 11.62 3.52 17.18 2.27 11.63-2.77 18.46 2.51 24.27 10.83 27.3-16.12 27.55 16.11 42.72 23.67-.76-9.07-1.77-18.13-3.29-27.2a16.31 16.31 0 0 0-7.33-9.57q-17.82-8.68-36.4-15.87c-10.11-3.78-18.7-13.6-31.34-9.32 4.3-7 15.17-14.6 6.57-22.41-7.33-6.3-18.2-1.76-25.53 6a42.91 42.91 0 0 1-6.57 5.29c-5.56-34.5 21.23-61.2 19.72-94.19-9.86.25-13.91 4-14.16 12.34-.51 20.15-5.56 38.79-17.69 55.16-7.34 9.82-2 39.28 8.84 43.57 6.32 2.51 14.66-.51 22.25-1-.26 7-2.28 15.11.76 20.4zM1061.92 1194l-.25.5c-3.29-12.84-5.31-26.7-10.62-38.78-8.84-19.65-20-38.54-37.66-52.14l-2 .76 2-.76c3.29 8.57 6.32 17.38 9.86 25.69 2.53 6.3 6.06 12.34 9.1 18.39l-3 1.76c-8.34-12.59-16.43-25.44-25.27-37.78-4.55-6.29-10.62-11.58-15.93-17.38l.25-.75-.5.5 5 19.39c-7.07-1.25-14.4-1.25-21.23-3.77s-12.13-7.06-20.22-9.07l15.42 28a12.86 12.86 0 0 0 5.56 4.78l47 22.92c3.79 1.76 8.84 1.26 15.67 2.27l27 36zM286.4 1836.18l-.26.25 21.74 95.2c2.53 11.84 5.82 23.42 7.08 35.51 2 21.41 10.11 36.52 27.81 46.09-11.13-13.6-5.56-28-3.54-42.06a20.52 20.52 0 0 0 .25-8.81c-5.31-19.14-9.1-39-16.68-57.43-8.85-21.4-21-41.8-31.6-62.46a29.53 29.53 0 0 0-5.31-5.79zm329.11-354.61l9.36-53.64a277.24 277.24 0 0 1 11.12-40c1.77-4.28 8.34-8.31 13.4-9.82 10.87-2.77 14.91-9.57 8.59-19.14-9.1-14.1-8.85-27.7-2.53-42.82l56.63-131.46c5-11.08 3-21.41 3.28-32.24v.25c1.27-3 4.55-7.3 3.54-8.81a128.46 128.46 0 0 0-13.4-15.36 38.89 38.89 0 0 0-5.3 6c-.51.76 1 2.77 1.77 4h-.26c-3 3.27-7.08 6.3-8.59 10.07q-45.89 106.92-91.26 213.83c-3.53 8.31-7.07 14.35-17.69 13.6-10.11-1-15.67 4.53-19 14.35a186.71 186.71 0 0 1-10.87 25.44c-2.53 5-2.27 14.61-12.89 10.32-.76-.25-4 5-5.81 7.56 6.82 10.58 25.53 12.34 20.47 27.7-4.55 14.36-6.57 32-24 36.52 3-7.3 9.1-15.11 8.59-22.92s-7.33-14.35-12.64-23.67l-11.88 17.13 31.6-77.83 115.52-261.17c3.29-7.3 5.56-14.86 8.34-22.16-17.69-8.06-25.53-4.53-25.28 14.61.26 22.16-6.57 41.8-15.42 61.45l-40.69 94.95-75.84 172.77c-3 6.8-8.34 12.34-11.12 19.14-1.26 2.77 2 7.55 3 11.33l4.81-3.27c-2 11.58.5 20.65 11.12 27.7 8.59 5.79 15.42 13.85 24 21.66l-16.43 7.56 6.32 18.63 20.48-18.63v24.17a69.81 69.81 0 0 0 6.57-8.56c6.57-15.11 16.18-25.69 33.11-30 3.8-1 5.56-9.82 9.36-16.62 13.39-2 8.59-18.89 17.44-26.45l-3-2.51-5.3 7zM433 1811.75a19.26 19.26 0 0 1 2.78 13.35c-2.53 10.83 2.78 18.13 14.15 18.89 16.18 1.26 32.36 2.26 48 5.79 13.15 3 22.25-.51 26.29-12.34a136.76 136.76 0 0 0 8.34-37.53c1-26.19 3.54-51.88 17.19-75.05 6.57-11.33 3.29-17.63-7.08-22.92-14.91-7.55-29.06-11.08-47-7.55s-37.67.75-56.37-.51c-22.25-1.51-44.24-5-66.48-7.05-6.32-.5-13.15.5-19.72 1-.76 1.26-1.26 2.77-2 4 4.8 3.52 8.85 8.56 14.15 10.07 16.18 4.28 32.87 6.8 49.3 10.58 7.58 1.76 14.66 4.53 22.24 7 .25 1.51.76 3.28 1 4.79-7.08 4.28-13.9 9.32-21.23 12.59a137.77 137.77 0 0 1-24 7c-8.84 2-17.69 3-27.55 7.56l49.29 14.6c.26-7.05-1.51-15.36 1.27-17.37 5.31-4 13.14-4.29 23-7.06-6.07 13.1-2.78 22.42 7.33 29.22-2.27 3.27-4.3 9.07-6.57 9.07a253.68 253.68 0 0 1-33.87-.76c-9.1-1-18.2-3.78-27.3-4.78-3.29-.26-6.58 2.51-10.12 3.77 3 3.28 5.31 7.56 8.85 9.32a54.87 54.87 0 0 0 17.95 5.29c6.82 1 13.65.25 23.76.25 5.06 6.19 10.11 12.48 14.4 18.78zM427.45 727l-11.12-13.6c.75-3.27 1.76-7 2.78-10.83-4.3-1-8.6-3-12.9-3-12.64.51-15.92 3.28-28.56 20.91l-19.72-10.33c-2.27 9.07-5.05 18.64-7.07 28.21-.76 4 .75 8.31.5 12.34-.25 4.78.51 12.34-2.27 14.1-12.64 8.31-4.55 14.86.25 22.67 7.33 11.84 15.42 23.67 20 36.77 3 8.31.5 18.64.5 25.69 7.08 1.26 12.14 3 16.94 2.77 3.79-.25 9.61-2.77 10.87-5.79 9.35-23.18 29.07-28.21 50.81-30.73l18.7-2.52c14.41-2 21.24 4 20.23 18.89-.51 9.07-3.54 18.13-4.05 27.2-.25 4.53 1.27 12.59 3.29 13.1a19.17 19.17 0 0 0 14.66-3.28 88.29 88.29 0 0 0 15.92-17.63c6.32-9.32 13.65-10.07 22.5-4.53 3.54 2.27 7.33 4 10.87 6.55 15.67 10.83 32.86 11.08 50.81 6.8 10.36-2.52 13.65-9.83 10.11-17.38-2.53-5.54-11.37-12.59-16.18-11.59-27.55 5-45.24-7-59.65-28.71-3-4.53-9.36-8.06-14.92-9.82-21.23-6.8-42.72-12.59-64-18.89-3-.75-7.58-3-7.84-5-3.28-21.91-18.2-32.48-37.41-38.78-.25 0-.25-.76-.5-3zM1139 1672.73l-13.9-45.08a27.31 27.31 0 0 0-3.54-7.81c-26-41-49.55-84.37-79.37-122.4-29.33-37.78-59.41-74.8-82.92-116.61a3.67 3.67 0 0 0-.75-1l-20.73-11.08c.5 6.55-.51 13.6 1.77 19.65 6.57 18.13 12.64 36.77 22 53.39 27.3 48.86 56.12 96.71 96.56 137.26 23.76 23.92 43.73 51.88 63.95 79.33 7.08 9.32 9.36 22.16 13.91 33.25a114.13 114.13 0 0 0 6.06 10.57l5.06-1.76c-2.52-9.33-5.3-18.39-8.1-27.71zM238.87 1845l-28.31-16.62c24 41.31 42 86.13 72.8 122.65l3-1.26c-4.55-19.14-9.61-38.28-12.9-57.42-2.27-12.84-2.52-26.19-3.53-39.54-.51-7.81.25-15.61-.76-23.42-3-22.67-5.06-45.84-10.62-68-7.08-27.45-17.19-54.15-25.78-81.1l-5.56 1c-19.68 55.16-4.77 108.3 11.66 163.71zm306.37 6c-1.26 7.3 1.52 11.84 9.36 13.09 14.4 2.52 28.81 5.8 43.22 7.56 8.85 1 15.93-2.52 18.45-13.1.76-3 8.09-7 11.88-6.54a144.41 144.41 0 0 1 28.82 8.31c20 7.05 38.42 2 55.11-8.82 6.06-4 10.11-11.33 12.89-19.39l-40.7 14.86c-29.32 11.58-49 3.27-56.12-27-3.53-14.61-10.11-22.16-23.25-27.45-14.41-5.79-28.06-13.6-45.75-22.16L545.24 1851zm-334.68-270l53.09 9.83 123.1 21.4c21.49 3.53 43 7.31 64.71 9.32 6.32.5 13.15-3.78 19.72-5.79l15.42-5c-1.27-3-2.78-6.29-2.78-6.55-8.34 0-14.16.76-19.47 0-18.2-2.77-36.4-8.56-54.6-9.06-61.68-1.77-120.57-19.4-181-27.71l-14.66-1.76zm280.84 64.23l-143.33-28.21-126.64-22.42a39.66 39.66 0 0 0-6.06-.25c-1 4.53-1.77 8.82-3 14.86l300.3 52.89c.51-1.26 1.27-2.27 1.77-3.53-7.87-4.48-14.95-11.57-23.04-13.29zM181 1621.6c36.4 8.56 73.81 14.61 108.69 27.7 20.73 7.56 42.22 8.32 62.44 15.62 2.78 1 8.34 1 9.1-.5a13.28 13.28 0 0 0 .25-10.33c-3.54-7.81-5.81-17.38-16.93-14.1-4.81 2.26-9.61 6.29-14.41 6.29-2.28 0-4.3-7.8-7.59-13.85l-151.66-26.7c-1.78 10.33 1.76 13.86 10.11 15.87zm26.54 178.82l-14.41-50.37c-2.27-8.06-1.52-15.62 0-24.69 4-22.66 3-46.59 3.54-70 0-3.53-2.27-7-3.54-10.33l-4.8-.5-16.18 41M799 1808.48c9.1 10.57 19 20.14 26.8 31.48 3.79 5.54 3.79 13.85 6.06 22.92 18.46 4 37.92-4.29 43.23-20.91-37.92-14.61-62.94-45.33-93.28-74-.75 18.38 7.59 29.72 17.19 40.55zm-138.49-625.35c-15.67 36.52-28.06 75-48 109.3-12.64 21.66-23.25 43.82-33.87 66.24-1.52 3-2.53 6-4.3 10.32 7.33 1.77 12.39 2 15.67-6.29l95.55-224.65a39.73 39.73 0 0 0 1.52-7.56l-3.79-1q-11 26.82-22.75 53.65zM390 1096.24a49.56 49.56 0 0 1 2.78-6.55c7.58-9.07 7.83-10.58-4.55-11.33-15.68-1-26.29-9.83-36.66-19.9a231.17 231.17 0 0 0-20.47-18.38c-2-1.77-7.84-1.77-9.61 0a13.4 13.4 0 0 0-3.28 10.57c3.54 13.35 8.34 26.45 13.39 41.31 19-15.87 38.43-8.31 58.4 4.28zm-110.68 356.12c-25.78-18.14-53.34-12.85-77.86 15.61 45.76-12.84 83.17.25 117.29 25.44l2.78-4c-13.9-12.34-27-26.45-42.21-37zm580.38 248.07c5.06 4.53 8.59 11.08 12.64 16.62l9.1 12.34c4.8-4.78 10.87-9.06 13.9-14.86 1.52-3.27-.76-10.83-4-13.6a247.42 247.42 0 0 0-28.57-20.4c-10.11-6.54-20.47-13.09-31.09-19.14-3.54-2-8.34-1.76-12.64-2.77l-2.27 6.05c14.11 11.83 29.03 23.42 42.93 35.76zm-235.84-884.5a40.35 40.35 0 0 0-.51 11.08c4-1 10.37-1 11.63-3.53 4.3-9.82 9.86-20.4 9.6-30.47-.25-16.88-4.55-33.5-6.82-47.85L615 746.67c13.65 16.87 15.92 35.26 4.3 53.89l10.61 7.06c-2.51 3.02-5.3 5.29-6.05 8.31zM280.84 2152c2.27 1.76 5.56 2 8.59 3l2-2.52a92.89 92.89 0 0 0-6.57-7.3l-32.36-27.95m673.15-184.61c3.8 3.52 9.1 7.55 9.61 11.84 1 6.8-4 9.31-11.63 9.06-3.28 0-6.82 5.79-10.36 8.82 3.28 1.76 6.82 3.52 10.36 5 2.53 1 5.31 1.51 7.84 2.52s5.56 2.27 8.34 3.53c.76-2.77 1.52-5.54 2-8.06 1.52-6.3 2.28-12.85 4.81-18.39 4.29-9.06.75-15.61-6.32-18.89-6.58-3-14.92-12.08-23 2 3.82 1.08 6.86 1.08 8.37 2.59zm-560.41-210.3c-8.59-1.76-17.69-2.77-25.53-6-24.52-9.57-28.81-30.48-9.86-48.86l-22-4.54 2 38.54a9 9 0 0 0 2.78 6.29c19.46 15.37 41.45 21.41 66.73 16.37a86.59 86.59 0 0 1-14.1-1.78zm199.21-782.73c-9.35 4.53-16.68 3-24.77-2-7.08-4.28-14.66-7.81-22.75-12.34-1.77 4.79-4 8.06-4 11.59 0 4.28.25 10.07 2.78 12.09a14 14 0 0 0 12.64 1c10.36-5.54 19.46-5 29.82.76 8.09 4.53 16.18 2.26 22-5.29 0-1.76.25-3.53.25-5.29-5.31-.25-11.63-2.52-15.93-.5zm179 753.54c7.58 10.32 13.9 20.65 9.35 34.5-1 2.77 2.28 9.82 4.05 10.07a17.83 17.83 0 0 0 12.13-3.77c2.53-2.27 5.31-8.06 4-10.08-7.59-13.85-15.93-27.2-24.52-40.55-2-3-6.32-4.78-9.61-7l-3.54 2.77a113.92 113.92 0 0 0 8.11 14.06zm-321.56 140.53c7.33-2.77 7.07-8.06 3-13.1-5.56-6.8-36.15-10.83-45-6.29 5.11 12.59 29.86 24.18 42 19.39zm252.52-708.21l-3.54-1.51-73.3 171.76 3.54 2q36.39-86.11 73.3-172.25zm-5.31 241.28c4.81 13.85 19.47 12.84 26.55 22.41l-18.2 41.56c8.34-2.52 23-33.5 24.77-50.88zm-394.33 56.41l56.87 17.63c-5.3-16.87-33.11-25.44-56.87-17.63zm-96.82 174l16.94 3.28 5.31-22.67-17.19-7.3-5.06 26.69zm224-970.38h45.5c-19.45-13.32-34.92-13.07-45.53.03zm208.54 80.59c-4.3-1.76-10.36.5-15.67.75l.25 3.78 32.61 14.36c.73-11.31-8.88-15.33-17.22-18.86zM419.61 635.6c-4.55 8.56 4.05 13.85 12.13 16.88l8.85-18.39c-6.06-2.77-15.92-7.56-21 1.51zm551.06 1464.77a150.6 150.6 0 0 0-.25 18.64c.25 2.26 2.27 4.53 3.54 6.8 1.77-2 5-4 4.8-5.79-.51-14.61-1.77-29.22-2.78-43.83h-2.53c-.76 7.81-2.02 16.12-2.78 24.18zm3.33-114.09h2.27c2.53-10.07 5.56-19.89 6.83-30 .25-2.52-5.82-5.79-9.1-8.81l-2.53 2.26zm3 23.93h-2.78l-2.53 53.64H977zm-758.35-811.47l32.61 23.93c-9.1-19.65-16.94-25.94-32.61-23.93zm695.9 834.39h2.53v-43.07l-2.53.25zM205 1565.94a15 15 0 0 1 1.27-3c-8.6-1.76-4.3-17.63-17.19-13.85-2.53.75-3.54 7.3-5.82 13.35zm162.29 89.66c12.13 6.55 17.44 4.79 23.25-7.55-9.86-2.52-18.45-5.05-23.25 7.55zM931 2136.13l3 31.23c12.13-13.34 11.88-19.14-3-31.23zM438.32 650.21l11.37 16.87 12.39-8.31-1.27-3.52zm499 1418.43c-6.06 16.37-1.77 25.69 9.86 24.18zm-414.57-435.45c1.26-2.77 4.29-7.56 3.79-8.06a149.82 149.82 0 0 0-14.66-9.83l-3.54 5zM303.59 686.73c3.79 0 8.59.75 8.84 0a76.78 76.78 0 0 0 2.57-13.35l-3.54-.76-7.87 14.11zm-26 527.88l.76-3-25.53-7.06-.76 4.29zm183.48-548.79c0 1.77.25 3.53.25 5.29l16.43-.75-.25-5.8zM975 2146.46a52 52 0 0 0 6.82-5.79c-1.77-1.77-3.79-5-5.56-5s-3.79 3-6.57 5.54c2.24 2.48 4.77 5.5 5.31 5.25zm-331.9-718.78l4.3 1.25q2.64-8.31 5.3-16.62l-3.79-1.26zm-479.55 145.57l-.51 5 13.15 1.51.5-4.78zm469.91-122.4l-2.78-1.26-8.85 17.12 3.54.76c2.53-5.54 5.31-11.08 8.09-16.62zm-167.84-828.6l1-2.52-17.95-5.54c-.25 1-.76 2-1 3zm-28.31 485.57l-2.31 3.78 13.15 7.3 2-3.27-12.84-7.81zm-200.46 134l2.28-2.27-8.09-8.81-3.29 2.77zm43.23-11.59l-.76-2.26-6.07 1.51 1.27 3zm136-583.29c0-.25-1.51-1.25-1.77-1a9.79 9.79 0 0 0-2 2.52l2.53 1.26a9.44 9.44 0 0 0 1.23-2.79zM917.84 2070.4c.5-.75 1.77-1.76 1.77-2.52s-1.52-1.26-2.28-2l-2.27 2.77zm-221.69-950.74l.76-1.26h-1c-.25 0-.51.5-.51.76zm-253.54-509.5l-1-.5.26.76zm475 1365.8l-1 .25.76 1z"/><path d="M379.93 633.17h130.55v66.4H379.93zm-76.34 38.16h15.84v25.66h-15.84zm-135.94 852.39h125.88v252.36H167.65zm-22.45 653.07h113.45v63.27H145.2zM23.58 1551.92H39.1v9.88H23.58zm10.24 30.82h5.29v3.1h-5.29zm-8.77 28.91h11.83v10.24H25.05zm21.03-2.82h24.86v36.01H46.08z"/><path d="M42.48 1616.19h5.7v5.7h-5.7zm4.5 19.99h23.96v19.46H46.98z"/><path d="M56.894 1646.801l27.955 16.14-5.4 9.353-27.955-16.14z"/><path d="M74.934 1666.881l11.184 1.221-.613 5.617-11.184-1.221zm11.495-176.461l21.894 15.767-35.876 49.816-21.894-15.767zm15.175-129.085l17.579 13.06-39.873 53.669-17.579-13.06z"/><path d="M67.8 1418.04h12.38v21.6H67.8zm104.18 493.95h74.84v48.9h-74.84z"/><path d="M186.889 1962.409L223 1949.437l15.849 44.12-36.111 12.972z"/><path d="M205.12 2001.39h39.9v32.79h-39.9zm14.75 51.3h25.15v21h-25.15zm-44.39-93.75h24.61v6.51h-24.61z"/><path d="M174.45 1960.75h1.93v4.16h-1.93zm27.22 33.99l-15.42 4.69-7.13-23.08 14.91-6.76 7.64 25.15z"/><path d="M188.02 1998.327l22.656-10.234 14.022 31.04-22.656 10.234z"/><path d="M186.169 1999.689l4.228-2.87 8.341 12.287-4.228 2.87z"/><path d="M188.54 2002.73h.1v.16h-.1zm-2.388-3.308l.143-.045.069.219-.143.045zM137.31 1655.64h165.9v141.02h-165.9z"/><path d="M186.35 1776.07h100.04v100.04H186.35zm26.56 292.57h45.74v55.03h-45.74zm-88.2-877.45h183.17v311.42H124.71zm-76.53 402.48h52.23v20.96H48.18zm296.13-894.59h51.6v73.38h-51.6zm51.6-89.42h91.78v36.23h-91.78zm-279.6 1595h40.05v35.41h-40.05z"/></svg>