<svg xmlns="http://www.w3.org/2000/svg" viewBox="0 0 1924.97 2160.15" xmlns:v="https://vecta.io/nano"><path d="M744 2026.46c0-.4 0-.7.2-.9 1.9-4.8 1.9-10.5-.2-17.1 0-.4 0-.6.2-.7a82.19 82.19 0 0 0 18.8-15.3v-17c-.4 0-.6-.1-.6-.2a36.67 36.67 0 0 0-6.4-8.8 2.8 2.8 0 0 1-1-.1c-3.7-.3-6.4-1.5-8-3.9h-.5c1.26-15.55-1.35-27-7.92-34.37l-.58-1.63 3-52c.6 0 1-.1 1-.3 4.3-16.5 8.1-33.4 11.6-50.6a173.55 173.55 0 0 0 2.4-56.1c6.1-11.8 7-24.7 2.5-38.9a439.55 439.55 0 0 1-14.7-64.2c-4.3-27.4-4.9-53.1-1.8-76.9q18.3-20.4 13.7-60.1c-2.7-23.2-4.3-46.1-4.7-68.9q-.75-44.25-12-78a11.19 11.19 0 0 0-7.3 6.9q-24.15 59.1-49.1 118.5c-17.6 41.5-26.2 92.1-26.1 151.6.1 14.6.6 28.3 1.6 41.1a1147.08 1147.08 0 0 1 .9 169.9 1.11 1.11 0 0 1-.3.8 44.19 44.19 0 0 0-6.7 10.2 3.69 3.69 0 0 1-.1 1c-1.5 19.5.5 35.5 6.1 48-4.1 21.5-6.1 45.9-6 73 0 5 15.17 42.47 38 50.37s53.55-13.8 55.2-11.1m174.3 119.35H4.93c0-1.15-5.09-203-5-213.68h.58l1.69-10.6c-.4 0 .34-4.35.34-4.35s.26-9.59 1.46-18v-.5l.44-10.12s.38-3.42.41-5.28q3-74.7 11.4-150.2 9-81.15 17.1-162.9 4-40.2 7.5-75.1c1.7-17.7 4-34.6 6.8-50.8 7.2-40.8 15.1-81.1 24-121a71.68 71.68 0 0 1 2.8-9.6c15.7-43.3 32.2-86.3 49.8-129q25.8-62.85 71.3-106.9c15.2-14.8 33.4-26.5 54.5-35.3 26.6-10.9 57.2-17.9 91.8-20.8a218.65 218.65 0 0 0 38.1-6.5 15.37 15.37 0 0 1 5.7-8.4c7.1-5.1 11.5-13 13.3-23.6a1 1 0 0 1 .2-.7 646.91 646.91 0 0 0 49.8-45.3h1c13.8 1.5 25.5 5.1 35 11a3.69 3.69 0 0 0 .1 1c.6 3.9 2.6 6.6 5.9 8a1.14 1.14 0 0 0 .8-.3c8.4-7.5 14.8-17.1 19.2-28.7a4.24 4.24 0 0 1 1 .1 135.42 135.42 0 0 1 25 6.9c7.1-5.5 10.7-13.2 10.8-23a119.2 119.2 0 0 1 3.2-27c1.1.8 1.5 2.5 1.3 5-.7 6.1-.1 11.3 1.8 15.5a397.64 397.64 0 0 0 41.9 71.5 1.37 1.37 0 0 1 .9.2 49.29 49.29 0 0 1 23.1 20.8 1.37 1.37 0 0 1 .9.2 61.1 61.1 0 0 0 31.1 5.8c0-.4 0-.5.1-.6a40 40 0 0 0 16.9-8.4c.4 0 .5-.1.5-.2 2.9-6.9 3-13.5.5-19.8a29.79 29.79 0 0 0-9.1-3c-10.9-1.7-17.5-7.4-19.9-17a2.36 2.36 0 0 1 .2-.9c2.2-3.4 6.2-5.1 11.8-5.1a1 1 0 0 1 .2-.7c4.8-3.6 9.4-7.4 13.8-11.3A74.29 74.29 0 0 0 639.6 940c-12.1-2.7-19.7-7.8-22.6-15.5v-.5c20.5-2.2 39.9 0 58 6.5h1c6.1.5 12.1 1.2 18 2a2.15 2.15 0 0 0-.2-.9c-2.6-4.7-5.8-7.1-9.8-7.1a.86.86 0 0 1-.2.6q-7 3.9-10.8-3.6a6.36 6.36 0 0 1 0-4.7 253.35 253.35 0 0 0 7-26.3v-.5c-7.9-.2-14.2-1.7-19-4.5h-.5c.4-5.6 3.2-8.9 8.5-10h1c5-.1 10 1.6 15 5h1c11.7.3 20.3-2.3 26-8a214.27 214.27 0 0 1 9-46.3 215.08 215.08 0 0 0 9-46.7 2.56 2.56 0 0 0 .9-.2 187.28 187.28 0 0 1 48.1-12.8c2.4-1.6 4.7-3.1 6.9-4.7 6.5-4.5 10.8-10.9 13.1-19.3-1.9-3.5-5.2-5.6-10-6.4-12.8-2.3-21.9-8.5-27-18.6a2.36 2.36 0 0 1 .2-.9c3.5-5.2 4.4-8.2 2.8-9.1 0 .3-.1.5-.2.5-5.9 2.2-6.8 0-2.8-6.5h1c8.1.2 15.5-3.5 22-11a2.56 2.56 0 0 0-.2-.9c-6.4-10.8-16.7-16.2-30.8-16.1a1 1 0 0 1-.8-.3 32.93 32.93 0 0 1-6.2-7.7 53.31 53.31 0 0 1-17.5-9.5 18.39 18.39 0 0 0-3.2-2.1Q693 638.41 660 623.46a52.39 52.39 0 0 0-22.6 18.6 132 132 0 0 0-14 26.9l-51.6 128.4a6.36 6.36 0 0 0-.4 3.8c5.2 22.3 2.4 39.8-8.4 52.3l-1.8-4.7a33 33 0 0 0-8.4-12.3c-7.9-7.3-11.4-19.7-10.3-37.1a136 136 0 0 0-.9-23.7q-6.75-50.25 27.4-62.2a1 1 0 0 1 .2-.7c3.4-2.7 5.3-6.8 5.8-12.3a1 1 0 0 0-.3-.8 28.05 28.05 0 0 1-5.7-14.2 1.51 1.51 0 0 1 .2-.8l6.8-9.2v-1q.45-2.55-3-6a3.1 3.1 0 0 1 .1-1 41.24 41.24 0 0 1 7.9-15 3.1 3.1 0 0 1 .1-1c1.1-4.1-.6-4.5-5.1-1-2.1 1.1-2.3.4-.4-2.3 4.3-6.1 4.4-9 .4-8.7l-1 1.5 2-18.5a1.72 1.72 0 0 0 .8-.2c4.3-2.5 5.7-6.5 4.2-11.8a3.1 3.1 0 0 1 .1-1 8.57 8.57 0 0 1 4.9-6c-3.6 0-6.1-.8-7.6-2.4-1.1-1.1-3.6-.7-7.4 1.4h-.5c5.7-3.9 8.9-8.9 9.5-15a2.37 2.37 0 0 0-1.1-.7l-.9-.3c1.7-2.7 6.3-4.4 14-5 0-.4 0-.5.1-.6 3.8-1.4 4.8-3.2 2.9-5.4h1q12 0 3-6a4.76 4.76 0 0 0-1.1-.9l-.9-.6c6.8 1.3 14.1.4 22-2.5v-1c.2-4 3.2-4.7 9-2a2.18 2.18 0 0 0 .9-.2c13.1-4.5 18.1-13.8 15.1-27.8 0-.4 0-.6.2-.7 3.2-1.8 5.2-5 5.8-9.3.4 0 .5 0 .5.1.9 3.7 1.7 6 2.5 6.9.4 0 .5-.1.6-.2 2.1-3.5 7.3-4.1 15.4-1.8 0-.4 0-.6.2-.6a17.32 17.32 0 0 0 6.8-5.4c4.6-.1 8.3-1.2 11.1-3.2a73.44 73.44 0 0 1 21.7-11.4 25.34 25.34 0 0 0-10.8 11.6c15.8-.4 31.5-1.2 46.9-2.4a102.14 102.14 0 0 1 29.8 1.9 399.59 399.59 0 0 0 42.3 6.5c0 .3 0 .5.2.6q44.4 18.6 86.8 39.4a1.15 1.15 0 0 0 .2.7 15.75 15.75 0 0 1 3.8 5.3 1.5 1.5 0 0 1 .9.2 41.22 41.22 0 0 0 15.1 4.8 3 3 0 0 1-.2.9c-1.5 5.2.2 8.2 5.2 9.1-.9 1.5-.4 3 1.4 4.4 2.4 2 5 4 7.6 5.9 11.3 8.5 25.3 14.3 42 17.7h.5c-1.3 2.6-.8 4.3 1.5 5 2.6-1.3 3.6-1.3 2.9-.1-2.5 4.7-5.8 7-9.9 7.1a2.51 2.51 0 0 0-.9.2c-3.6 2.3-2.3 4.5 3.9 6.8-1.1.9-2.5.8-4-.4-2.9-2.1-7.6-2.7-14-1.6a1 1 0 0 0-.7.2c-4.2 5-2.3 6.5 5.7 4.8 1.8-.5 2.7-.2 2.8 1a4.48 4.48 0 0 0 1.4 3.4c3.6 2.9 4.5 5.1 2.8 6.6-5.5.1-6.4 2.4-3 6.7a101.33 101.33 0 0 0 20 19.3c0 .3-.1.5-.2.5-4.4 1.4-8.7 2.9-12.8 4.5h-.5c.7 4-1.5 4.4-6.5 1-2.8 2.9-2.3 5.8 1.5 8.6s4.9 4.9 3.5 6.4c0-.4-.1-.5-.2-.6-5.7-1.7-10.7-.8-14.8 2.6v.5a14.63 14.63 0 0 1-7-6.5c-1.4-.4-1.9-.1-1.6.8a78.61 78.61 0 0 0 14.6 26.2v.8c-4.7-2.7-9-4.2-13-4.5a1.48 1.48 0 0 0 .2.9l10.8 22.1c-.4 0-.6-.1-.6-.2a111 111 0 0 0-10.4-15.8 3 3 0 0 1-.2.9c-3.2 6.7-3.2 13.8.2 21.1 0 .3 0 .5-.1.5-1.8.2-3.8-1.3-5.9-4.5V739a44.52 44.52 0 0 0-4 16.5c-.4 0-.6-.1-.7-.3a50.55 50.55 0 0 1-5.3-10.7 1 1 0 0 1-.8-.3 27.43 27.43 0 0 0-7.2-3.7h-.5c-.5 4.2.6 8.5 3.5 13a1.82 1.82 0 0 0 .2.8c1.3 2.3.2 3.6-3.2 4.2v1q-.6 15.75-12 21a524.8 524.8 0 0 0-21.6 57.8q-18.3 59.4-62.4 93.2a3.34 3.34 0 0 0-1 .1 77 77 0 0 1-9 1.9c-8.9 8.1-14.9 19.4-18 33.8-3.1 13.7-8.7 25.1-16.8 34.3a61.21 61.21 0 0 1-19.8 14.7q-29.85 14.25-43.1 43.8l-14.2 32a146 146 0 0 0-10.1 34.4 418.08 418.08 0 0 1 34.6 47.6c6.2 9.9 12.3 20 18.1 30.1a408.56 408.56 0 0 0 68.3 88.3v1a47.49 47.49 0 0 0 3 15 1 1 0 0 0-.7.2c-2 2.6-.8 5.2 3.7 7.8 4.8-2.2 9.1-.7 12.8 4.4a954.72 954.72 0 0 1 68.6 110.4 468.37 468.37 0 0 0 34.6 55.2c1.4-.2 2-1.2 1.6-2.9-4.9-19-6.3-39.6-4.3-62.1a127.13 127.13 0 0 1 3.6-20.3 374.06 374.06 0 0 0 12.1-76.7c-.4 0-.6-.1-.6-.2a450.8 450.8 0 0 0-22.4-41.8h-1a30.64 30.64 0 0 1-13-3h-.5c.9-8.1 3.4-14.8 7.5-20v-1c-.4-12.6-5.2-20.9-14-25a2.47 2.47 0 0 0-.9.1 37.27 37.27 0 0 0-14.1 7.9h-1c-4.1.4-6.8-.6-8-3v-1c.6-6 3.9-11 10-15 0-.4-.1-.7-.1-1a108.74 108.74 0 0 0-7.9-21 1.51 1.51 0 0 1 .2-.8q6-7.5 7.8-19.2c0-.4-.1-.6-.3-.7-4.5-3.4-4.7-6.8-.7-10.3 3.7.4 6.2-.3 7.3-2.1q30.71-47.85 58.7-97.9a2.56 2.56 0 0 0 .9-.2 28.77 28.77 0 0 1 7.1-2.8c5.6-8 11-16.5 16-25.4q32.1-57 64-114.6v-1l1-24a1.51 1.51 0 0 1 .2-.8c3-3.3 7.3-5.4 12.8-6.2a1.37 1.37 0 0 1 .9.2c6 3.1 11.4 3 16.1-.2h1c8.9-.3 15.2 3.7 19 12-1.1-.1-1.6.6-1.3 2a4.3 4.3 0 0 0 1.3 2.8c7.6 6.1 15 12.5 22 19.2a214.61 214.61 0 0 1-22.1 37.2c-5.8 7.9-7.1 15.8-3.9 23.8-3.7 12.3-8.8 23.1-15.6 32.3-2.4 3.3-4.9 6.6-7.6 9.7-7.4 9.1-11.4 21.7-11.8 38 .3 0 .5 0 .6.2 7.6 14.2 20 23.5 37.4 27.8a3 3 0 0 1-.2.9l-30.8 79.1a1.37 1.37 0 0 1 .9.2 140.22 140.22 0 0 1 14.1 7.8 2.71 2.71 0 0 0 .1.9 158.56 158.56 0 0 1 6.9 21.1 1.5 1.5 0 0 1 .9.2c12.7 5.5 19.8 16.7 21.1 33.8a1.18 1.18 0 0 1-.1.5c-6.7 1.3-9.6.5-8.9-2.5a7.21 7.21 0 0 0-.9-3.6c-4.4-7.9-13.8-11.1-28.1-9.4-5.8 4.8-11.5 9.8-16.9 15.1-6.4 6.1-8.1 13.8-5.1 22.9v.5a104.23 104.23 0 0 0 21-6.5 1.11 1.11 0 0 1-.3.8c-4.7 6.2-8 13.9-9.7 23.2h1a128.57 128.57 0 0 1 20 1l7.9-4.2a24.31 24.31 0 0 1 9.2-2.4c12.9-.6 22.5-4.1 28.9-10.4h.5a42.47 42.47 0 0 0-3.5-15 1 1 0 0 1-.8-.3c-2.7-2.3-5.4-4.5-8.2-6.7a3 3 0 0 1 .9.1 70.2 70.2 0 0 1 18.1 9.9v1c.2 6.1 1.5 11.1 4 15v1.3a100.4 100.4 0 0 0 3 28 166.19 166.19 0 0 0-16.2 29.5 335.3 335.3 0 0 0-11.8 32.5 1.32 1.32 0 0 0 .2.7q35.25 26.25 39.8 83.3-7.65 52.8-23.2 97.9c-9.6 27.7-20.4 54.4-32.3 80.4q-27.9 60.75-59.3 119.3c-5.2 9.6-10 19.3-14.6 29.1q-28.8 61.65-75.6 104.3v1c0 7-1.7 12.3-5 16v15a.78.78 0 0 1-.3.7 23.15 23.15 0 0 0-6.7 10.3v.7c-.4 16.7-.1 32.7 1 48 .3 0 .5 0 .6.1a24.44 24.44 0 0 0 7.4 11.9c-.4 0-.6 0-.7.2a210.55 210.55 0 0 1-18.3 26.8c-.4 0 .1 11.4 0 11.3M555.6 759.36a10.74 10.74 0 0 0-.2 5.1c.1.2.6.3 1.6.3 10 1.4 14.4-3 13-13v-1c-6.7-4-11.5-1.1-14.4 8.6zm3.4 41.4c-5.6-5.5-9.4-12.8-11.5-21.9 0-.1-.2-.1-.5-.1-3.4 12.5-.3 21.8 9.1 27.7a1.33 1.33 0 0 0 .9.3 23.38 23.38 0 0 0 9.4-9.8c0-.2.2-.2.6-.2a56.18 56.18 0 0 0 1-14v-1c-9 2-11.5 8-7.5 18.2.4.9-.1 1.2-1.5.8zm-9-27c-1.5.3-1.5.5 0 .5zm-46.1 192.1a3 3 0 0 0-.9-.1c-1.3 4.7-.2 8.6 3.2 11.7a1 1 0 0 0 .8.3c.2 5.1 1.9 8.6 5 10.5v-.5c3.1-1 4.1-4 3.1-9a3.69 3.69 0 0 1-.1-1c-1.3-6.4-5-10.4-11.1-11.9zm40.2 79.6a3.1 3.1 0 0 0-.1 1 31.92 31.92 0 0 1 7 21v1c1.7 3.4 3.6 3.4 5.8-.2a2 2 0 0 0 .2-.8 92.81 92.81 0 0 0-3.5-23h.5a48.82 48.82 0 0 1 11.8-8.4.86.86 0 0 0 .2-.6c-10.8-5.9-18.1-2.6-21.9 10zm6.9-41.7c-6.2-4.1-11.4-2.7-15.8 4.1a2.36 2.36 0 0 0-.2.9c-8.8-1.2-15.4-1.1-19.9.4-.1.1-.1.2-.1.6a30 30 0 0 0 15 7.9c.3 0 .6.1 1 .1 11.1.1 17.7-4.2 19.9-13.1 0-.3.1-.6.1-.9zm6 80c-3.5-2-3.7-1.6-.4 1.3.6.5.8.1.4-1.3zm262-309c-5.2-1.7-5.8-1.3-1.9 1.3.4.3 1.1-.1 1.9-1.3zm-22-5.3a27.55 27.55 0 0 0-9-3h-1a16.29 16.29 0 0 1-14 5.5v.5c-1 3 2.6 4.6 11 4.7 6.8 0 11.1-2.6 13-7.7zm-1 51.3q-7.5 3-.3 1.5.3 0 .3-1.5zm-6-3c-4.2 3.1-4.3 4.3-.3 3.5q.3 0 .3-1.5zm-5 8c-2.6.3-2.6.5 0 .5zm-2 1.5v-.5c-1.5.3-1.5.5 0 .5zm281.9 264.6a2.74 2.74 0 0 0-.9-.1q-12.45 2.55-12 18v1a45.89 45.89 0 0 1 14.8 16.1 2.15 2.15 0 0 1 .2.9 46.8 46.8 0 0 0 1.4 13.9 3.13 3.13 0 0 0 .6.1q12.75-9.75 12-33v-1a26.44 26.44 0 0 0-16.1-15.9zm17.1 112.9c-5.1-.9-11.4 0-19.1 2.8a2.18 2.18 0 0 1-.9.2c-7.5 4.2-12.7 10.6-15.9 19a3.1 3.1 0 0 0-.1 1c.1 3.9 1.5 5 4.1 3.2a2.51 2.51 0 0 1 .9-.2c13.9-4.8 24.2-13.2 30.8-25.1a3 3 0 0 0 .2-.9zM682 918c1.1 0 1.4-1.1 1-3.2-4.8 2.06-5.1 3.2-1 3.2zm105-37.2c-1.7-8.7-4.8-10.5-9.3-5.3a.9.9 0 0 1-.7.3c-.8 8 .7 14 4.2 17.7a1 1 0 0 0 .8.3c2.6-.4 4.2-1.7 4.8-4.1a3 3 0 0 0 .2-.9zm93-27c-5 2.6-7.2 8-6.5 15.9 0 .1.1.1.5.1 5.1-1.9 7.2-6.9 6-15zm-152.4 373.8a118 118 0 0 0-3.5-20.6 61.93 61.93 0 0 0-6.1-15.2q.45-11.4 0-24v-1a77.07 77.07 0 0 0-19-1.1 3.4 3.4 0 0 1-1 .1q-7.5 8.4-16.2 9.6c-.8.1-2 .2-3.8.4-4.1-.7-4.4.7-1 4l-.8.4c-.2 0-.2.2-.2.6-5.2.4-7.9 1.8-8 4v1c7.9 10.8 9.6 20.5 5.2 29.1-.2.2-.2.5-.2.9-15.3-3.6-20.4-14.2-15.1-32.1 0-.3.1-.6.1-.9-11.1-20.3-22.5-40.3-34.4-59.8-.1-.2-.2-.2-.6-.2a125.29 125.29 0 0 0 14.9 39.1c7.5 13.1 10 28.4 7.1 45.9a169.42 169.42 0 0 0-16.4 21.7c-.1.2-.2.3-.6.3-7.6-1.9-13.1 0-16.4 5.8-.1.1-.2.2-.6.2a81.82 81.82 0 0 1 0 14v1c-3.7 6.3-7.6 12.3-11.8 18.1a2.36 2.36 0 0 0-.2.9c8.9 13.5 21 23.7 36.7 30.7 7.7 3.4 15 7 22.1 10.8l39.3 21.2a192.57 192.57 0 0 0 38.9 16.3v-1q-3.3-61.8-8.4-120.24zm-147.7-167.1a3.69 3.69 0 0 0 .1-1c-.2-4.5-2.2-5.7-5.8-3.6-.2 0-.2.2-.2.6-3.2 3.9-3.9 9-2.2 15a3.12 3.12 0 0 1 .2 1 79.27 79.27 0 0 1 9.7 10.2 1 1 0 0 1 .3.8c-2.3 7.2-.9 10.5 4 10h1a124.55 124.55 0 0 1 9.7-15.2 1.11 1.11 0 0 0 .3-.8c-12.2-.94-17.8-6.5-17.1-17.04zm61 71.4a2.74 2.74 0 0 0-.9-.1 191.08 191.08 0 0 0 22 37.5l-1 .5c1.6 3.1 4.4 2.9 8-.5v.5c8.4 3.5 14.6 1.8 18.8-5.2a2 2 0 0 0 .2-.8q-17.7-21.94-47.1-31.94zm48.1 7.9q-4.2 1.5 0 1.5zm-16.1 35.5c.1 0 .1-.2.1-.5-3.5.56-3.5.76-.1.46zm4.1 212.5c-5-3-8.6-3.4-11-1l1 1q4.35 7.5 9 3a4.52 4.52 0 0 0 1-3.04zm-21-9c-6.3-3.3-7.6-3-3.9.8 1.9 2.06 3.2 1.76 3.9-.84zm-9-5c-3.7-.7-3.7-.5 0 .5zm156-27c-5.9-2.7-6.3-2.4-1.3.8.2.06.6-.24 1.3-.84zm26.9-4.4l-1.9.1h-3c-1.1 1.8.3 4.4 4 8a17 17 0 0 0 9.1 4.2c4.4.6 7-.8 7.9-4.2-8-.14-13.3-2.84-16.1-8.14zm-10.9-4.6q-4.8 3.6-.3.6a.6.6 0 0 0 .3-.64zm1 34c-7.9 2.8-8.9 6.7-3 11.5v-.5a22.71 22.71 0 0 1 2.8-10.1 3 3 0 0 0 .2-.94zm34 23.7h-1c.9 8.6 4.1 11.5 9.8 8.6a.86.86 0 0 0 .2-.6c-2.4-5-5.4-7.6-9-8zm2.7 29.6a.6.6 0 0 0 .3-.6c-7.4-6.2-12.9-5.6-16.5 2h.5c5.3 2.76 10.6 2.36 15.7-1.44zm20.3 27.2v.5c-1.4 8.4 1.7 11.4 9.4 9.1q.6-.15.6-2.1c-2.5-5.24-5.8-7.74-10-7.54zm200.93-62.8l-1 .9c0 7.33 3.83 10.12 11.52 8.2.3-.1.5-.8.5-2.1-3.37-4.5-6.95-6.76-11.02-7.04zm-165 97.9c-5.3-1-8-4.5-7.9-10.6-2.6 1.4-3.4 4.3-2.5 8.9 0 0 .1.1.5.1 4.1 2.2 8.3 4.4 12.8 6.4.1 0 .2.2.2.6 3.3-.7 6.6-1.5 9.8-2.5.1 0 .2-.2.2-.5l-13.13-2.4zm-21.9-5.6c-5.5-.5-6.9 2.3-4.4 8.2.2.5.7.5 1.6.2 2.47-1.3 3.37-4.1 2.77-8.4zm36.4 11.4c-.3.1-.4.6-.4 1.6q4 6.75 8.7 2.7a.88.88 0 0 0 .3-.7c-3.23-3.2-6.13-4.4-8.63-3.6zm10.1 14.3H937c-3.4 2.6-6.1 7.6-7.9 15 0 .3-.1.6-.1 1a20.59 20.59 0 0 0-12.9 13c0 .3-.1.6-.1 1 3.6 1.4 7.9.5 13.1-2.8a2.51 2.51 0 0 1 .9-.2l6.7 4.3c.2.1.3.3.3.7 6.4 1.8 11.1 1.5 14.3-.9a2.92 2.92 0 0 0 .7-2.1 42.33 42.33 0 0 1-14.2-4.8 1.09 1.09 0 0 0-.8-.2 237.15 237.15 0 0 0 .47-24zm20.5 106c-5.3-8.6-11.1-8.2-17.5 1h.47c4.3-2 7.6-1.6 9.8 1.3 3.4 4.4 5.8 3.6 7.2-2.3zm-32.4 27.2c-.1-.2-.3-.2-.6-.2-4.6 1.7-6.3 6.4-5.1 14 0 .3.1.6.1 1a33.4 33.4 0 0 1 2.8 6 3.12 3.12 0 0 1 .2 1c7.8 4.5 15.6 9.1 23.1 13.8a2.15 2.15 0 0 0 .9.2 35.41 35.41 0 0 1 4.5 16H951a17.76 17.76 0 0 1-12.1 10.8 2.56 2.56 0 0 1-.9.2 57.07 57.07 0 0 0-18-4h-1a27.84 27.84 0 0 0-11-5.5v.5a80 80 0 0 1-6.1 23.4c-.8 2-.8 3.5.1 4.6 3.1-1.3 5.4-4.9 6.9-11.1 0-.3.1-.6.1-.9a27.74 27.74 0 0 1 11-4.9 3.34 3.34 0 0 1 1-.1c5.2.8 9.4 2.5 12.7 5.3.2.1.3.3.3.7-1.4 9.4.6 13.7 6 13h1l.9-12a3.69 3.69 0 0 0 .1-1 20.81 20.81 0 0 1 8.1-4.9 2.47 2.47 0 0 1 .9-.1 18.7 18.7 0 0 0 4.4-8.9c.1-.1.2-.1.6-.1v-12a39.53 39.53 0 0 1-5.4-12.9c-.1-.1-.3-.1-.6-.1a71 71 0 0 1 6.8-16.1 3 3 0 0 0 .2-.9c-5.7-2.9-9.7-.7-12.1 6.6a5.2 5.2 0 0 1-3.9 3.4c-5.6-.4-9.6-2.5-11.8-6.2a1.82 1.82 0 0 1-.2-.8 52.4 52.4 0 0 0-3.43-17.8zm22.37-24.9c-3.4-.4-3.4-.2 0 .5zm-41.2 120.9a3 3 0 0 0 .2-.9c-1.2 2.66-1.3 2.96-.2.86zm42.2 13.1c-3.8-6.7-8.3-6.5-13.7.4-.9 1.1-.6 2.3.7 3.6 6.8 3.7 11.1 2.7 12.8-3.1a3 3 0 0 0 .2-.94zM631 738.46a43.84 43.84 0 0 1 8.6 1.4c17.8 4.5 32.6 12.3 44.4 23.6h1c4.9.5 8.9 1.8 12 4h1a38.28 38.28 0 0 0 12-2c.3 0 .5 0 .5.1 1.4 6.2 4.9 10.1 10.5 11.9a.86.86 0 0 1-.2.6 48 48 0 0 0-19.8 17.4c-.4 0-.7 0-.9.2q-24 12.15-54.1 13.8a1 1 0 0 0-.2-.7 59.93 59.93 0 0 1-18.8-17.3 1.37 1.37 0 0 1 .9.2c6.9 3 10.2 1.9 10.1-3.2-.4-.7-.7-1.3-1.1-1.9-.6-.8-.9-1.2-1-1.2-19.9-1.6-29.5-11.3-28.9-28.9a1 1 0 0 0 .8-.3 21.75 21.75 0 0 1 12.2-4.7 2.36 2.36 0 0 1 .2-.9c2-2.7 1.2-5.4-2.2-8.1.5-3.2 4.9-4.46 13-4zm25 38.3c-4.8-8.7-9-7.7-12.5 3.2-.7 2.2-.2 3.5 1.5 3.8 5.9 3.2 9.5 1.2 10.9-6 0-.4.1-.7.1-1zm-42 107a19.65 19.65 0 0 1 3.9-15.8q15.3-19.8 43.1-13.2c-.3 3-1.4 5.1-3.5 6.1l-19.6 10.4c-8.8 4.9-16.7 9-23.9 12.5zm305.54 1276.32s-10.34-19.22-12.54-30.32a17.63 17.63 0 0 1-8.6-4.5c-8.6-8.3-19.8-14.2-33.4-17.5 0-.4-.1-.6-.2-.6-8.3-3.9-12.9-11.4-13.8-22.4v-.5c-1.8 1.8-3.1.6-4-3.5 0-.4-.1-.5-.2-.6-4.4-1.2-7.7-1-9.8.6h-1.5c2.6-2.4 3.7-6.8 3.5-13a9.08 9.08 0 0 0 4.4-1c4.6-2.5 9.5-4.8 14.6-7 1.5.4 3 .8 4.2 1.2a41.26 41.26 0 0 1 11.3 5.5q20.1 14.55 45.5 12.3a1.72 1.72 0 0 0 .8-.2 16.57 16.57 0 0 0 7.2-9.8 1.42 1.42 0 0 0-.3-.9 133.58 133.58 0 0 0-11.7-14.1 3.12 3.12 0 0 0-.2-1 65.86 65.86 0 0 1-2.8-15 1.51 1.51 0 0 1 .2-.8 40.72 40.72 0 0 1 13.8-8.2 1.51 1.51 0 0 1 .2-.8 44.19 44.19 0 0 0 5.8-7.2c.6 2 1.3 4 2 6a67.67 67.67 0 0 1 3.3 18.1q1.35 25.2 11.7 39.9a3.69 3.69 0 0 0 .1 1c.5 5.4 2.1 9.7 4.9 13v32a2.8 2.8 0 0 1-1-.1c-10.4-.8-18.1-.8-23 .1a1.69 1.69 0 0 0-.8.2c-3.3 2.5-3.1 4.7.8 6.8v1c.1 5.9 2.1 10.2 6 13a4.24 4.24 0 0 1 1 .1c4.6 1 5.92 3.92 4 8.22m-107-78.82c-2.6 0-2.6-.2 0-.5z"/></svg>