<svg xmlns="http://www.w3.org/2000/svg" viewBox="0 0 1204.31 2328.71" fill="#fff200" xmlns:v="https://vecta.io/nano"><path d="M775 2191.78c0-.41 0-.71.21-.92 2-4.92 2-10.75-.21-17.51 0-.41 0-.62.21-.72a85.32 85.32 0 0 0 19.43-15.63v-17.41c-.41 0-.62-.11-.62-.21a37.47 37.47 0 0 0-6.62-9 3.32 3.32 0 0 1-1-.1c-3.82-.31-6.62-1.54-8.27-4h-.52c1.3-15.92-1.4-27.6-8.19-35.2l-.6-1.67 3.1-53.26c.62 0 1-.1 1-.31 4.45-16.9 8.38-34.21 12-51.82a175.77 175.77 0 0 0 2.49-57.46c6.31-12.09 7.24-25.3 2.58-39.84a447.07 447.07 0 0 1-15.2-65.76c-4.45-28.06-5.07-54.38-1.87-78.76q18.95-20.89 14.18-61.56c-2.8-23.76-4.45-47.21-4.87-70.57q-.76-45.32-12.41-79.89a11.48 11.48 0 0 0-7.55 7.07q-25 60.54-50.8 121.37-27.3 63.77-27 155.27c.11 15 .62 29 1.66 42.1a1161.91 1161.91 0 0 1 .93 174 1.12 1.12 0 0 1-.31.81 45.21 45.21 0 0 0-6.93 10.45 3.58 3.58 0 0 1-.11 1c-1.55 20 .52 36.36 6.32 49.16-4.25 22-6.32 47-6.21 74.77.05 5.06 15.69 43.49 39.35 51.58s55.4-14.13 57.1-11.37m180.32 122.24H10.46c0-1.17-5.26-207.93-5.14-218.85h.52l1.76-10.86c-.42 0 .35-4.45.35-4.45s.26-9.82 1.5-18.42l.05-.52.46-10.37s.39-3.5.42-5.4q3.11-76.52 11.8-153.84 9.31-83.12 17.69-166.84 4.14-41.17 7.76-76.92a706.06 706.06 0 0 1 7-52c7.45-41.79 15.62-83.07 24.83-123.93a72 72 0 0 1 2.9-9.84c16.26-44.39 33.33-88.39 51.54-132.15q26.68-64.38 73.76-109.49c15.72-15.16 34.55-27.14 56.38-36.16 27.52-11.16 59.17-18.33 95-21.3a228.54 228.54 0 0 0 39.41-6.66 15.65 15.65 0 0 1 5.9-8.6c7.34-5.23 11.89-13.32 13.76-24.17a1 1 0 0 1 .2-.72 668.3 668.3 0 0 0 51.52-46.4h1c14.27 1.54 26.38 5.23 36.2 11.27a3.89 3.89 0 0 0 .11 1 9.94 9.94 0 0 0 6.1 8.2 1.26 1.26 0 0 0 .83-.31c8.69-7.68 15.31-17.51 19.86-29.4a4 4 0 0 1 1 .11 140.16 140.16 0 0 1 25.86 7.06c7.34-5.63 11.07-13.52 11.17-23.55a121.58 121.58 0 0 1 3.31-27.66c1.14.82 1.55 2.56 1.35 5.12-.73 6.25-.11 11.58 1.86 15.88a405.91 405.91 0 0 0 43.35 73.23 1.4 1.4 0 0 1 .93.21 50.67 50.67 0 0 1 23.89 21.3 1.42 1.42 0 0 1 .93.2 63.94 63.94 0 0 0 32.18 5.95c0-.41 0-.52.1-.62a41.63 41.63 0 0 0 17.48-8.6c.42 0 .52-.11.52-.21 3-7.06 3.11-13.82.52-20.28a30.93 30.93 0 0 0-9.41-3.07c-11.28-1.74-18.11-7.58-20.59-17.41a2.42 2.42 0 0 1 .21-.92c2.27-3.49 6.41-5.23 12.2-5.23a1 1 0 0 1 .21-.71c5-3.69 9.72-7.58 14.28-11.58A77.07 77.07 0 0 0 667 1079c-12.52-2.76-20.38-8-23.38-15.87v-.51c21.21-2.26 41.28 0 60 6.65h1c6.31.52 12.51 1.23 18.62 2a2.1 2.1 0 0 0-.21-.92c-2.69-4.81-6-7.27-10.14-7.27a.85.85 0 0 1-.2.61q-7.31 4-11.18-3.68a6.48 6.48 0 0 1 0-4.82 256 256 0 0 0 7.24-26.94v-.51c-8.17-.2-14.69-1.74-19.65-4.61h-.52c.42-5.73 3.31-9.11 8.79-10.24h1c5.17-.1 10.34 1.64 15.52 5.12h1c12.11.31 21-2.35 26.9-8.19a217.22 217.22 0 0 1 9.31-47.42 218.58 218.58 0 0 0 9.31-47.83 3 3 0 0 0 .93-.21 194.61 194.61 0 0 1 49.76-13.11c2.48-1.64 4.86-3.17 7.14-4.81 6.72-4.61 11.17-11.17 13.55-19.77-2-3.59-5.38-5.74-10.34-6.56-13.25-2.35-22.66-8.7-27.94-19a2.47 2.47 0 0 1 .21-.92c3.62-5.32 4.55-8.4 2.9-9.32 0 .31-.11.51-.21.51-6.1 2.26-7 0-2.9-6.65h1c8.38.2 16-3.59 22.76-11.27a2.42 2.42 0 0 0-.21-.92c-6.62-11.06-17.27-16.59-31.86-16.49a1.07 1.07 0 0 1-.83-.31 34.28 34.28 0 0 1-6.41-7.89 55.42 55.42 0 0 1-17.96-9.77 18.6 18.6 0 0 0-3.31-2.15q-34.44-15.82-68.59-31.13a54.11 54.11 0 0 0-23.38 19.05 134.39 134.39 0 0 0-14.48 27.55q-26.38 66.38-53.38 131.51a6.49 6.49 0 0 0-.41 3.89c5.38 22.84 2.48 40.77-8.69 53.57l-1.87-4.82a33.46 33.46 0 0 0-8.71-12.55c-8.17-7.48-11.79-20.18-10.65-38a136.85 136.85 0 0 0-.93-24.28q-7-51.46 28.34-63.7a1 1 0 0 1 .21-.72c3.52-2.77 5.48-7 6-12.6a1 1 0 0 0-.31-.82 28.59 28.59 0 0 1-5.9-14.54 1.67 1.67 0 0 1 .21-.82l7-9.42v-1q.46-2.61-3.11-6.14a3 3 0 0 1 .11-1 42.07 42.07 0 0 1 8.17-15.36 3.16 3.16 0 0 1 .1-1c1.14-4.2-.62-4.61-5.27-1-2.18 1.13-2.38.41-.42-2.35 4.45-6.25 4.55-9.22.42-8.92l-1 1.54 2.07-19a1.85 1.85 0 0 0 .83-.2c4.45-2.56 5.89-6.66 4.34-12.09a2.94 2.94 0 0 1 .11-1 8.78 8.78 0 0 1 5.06-6.15c-3.72 0-6.31-.82-7.86-2.46-1.14-1.12-3.72-.71-7.65 1.44h-.52c5.9-4 9.21-9.12 9.83-15.37a2.35 2.35 0 0 0-1.14-.71l-.93-.31c1.76-2.76 6.52-4.51 14.48-5.12 0-.41 0-.51.11-.62 3.93-1.43 5-3.27 3-5.53h1q12.42 0 3.1-6.14a4.35 4.35 0 0 0-1.13-.92l-.94-.62c7 1.33 14.59.41 22.76-2.56v-1c.21-4.1 3.31-4.82 9.31-2a2.52 2.52 0 0 0 .94-.21c13.55-4.6 18.72-14.13 15.62-28.47 0-.41 0-.61.2-.72 3.31-1.84 5.38-5.12 6-9.52.42 0 .52 0 .52.1.93 3.79 1.76 6.15 2.59 7.07.41 0 .51-.1.62-.21 2.17-3.58 7.55-4.2 15.93-1.84 0-.41 0-.61.21-.61a17.91 17.91 0 0 0 7-5.54c4.76-.1 8.59-1.22 11.48-3.27a76 76 0 0 1 22.45-11.68 26.06 26.06 0 0 0-11.17 11.88 936.49 936.49 0 0 0 48.52-2.46 106.73 106.73 0 0 1 30.83 1.95 418.92 418.92 0 0 0 43.76 6.66c0 .3 0 .51.2.61q45.94 19.05 89.8 40.36a1.14 1.14 0 0 0 .21.71 16.1 16.1 0 0 1 3.93 5.43 1.52 1.52 0 0 1 .93.21 43 43 0 0 0 15.62 4.91 2.87 2.87 0 0 1-.21.92c-1.55 5.33.21 8.4 5.38 9.32-.93 1.54-.41 3.08 1.45 4.51 2.48 2.05 5.17 4.1 7.86 6 11.69 8.71 26.18 14.65 43.45 18.13h.52c-1.34 2.67-.83 4.41 1.55 5.12 2.69-1.33 3.73-1.33 3-.1-2.58 4.82-6 7.17-10.24 7.27a2.47 2.47 0 0 0-.93.21c-3.73 2.35-2.38 4.61 4 7-1.13.93-2.58.82-4.13-.41-3-2.15-7.87-2.76-14.49-1.64a1 1 0 0 0-.72.21c-4.35 5.12-2.38 6.66 5.9 4.92 1.86-.52 2.79-.21 2.89 1a4.59 4.59 0 0 0 1.45 3.48c3.72 3 4.66 5.23 2.9 6.76-5.69.1-6.62 2.46-3.11 6.86a104.54 104.54 0 0 0 20.78 19.57c0 .31-.1.51-.2.51-4.56 1.44-9 3-13.25 4.61h-.51c.72 4.1-1.55 4.51-6.73 1-2.89 3-2.38 5.94 1.55 8.81s5.07 5 3.63 6.55c0-.41-.11-.51-.21-.61-5.9-1.74-11.07-.82-15.31 2.66v.51a15.12 15.12 0 0 1-7.24-6.66c-1.45-.41-2-.1-1.66.82a80.22 80.22 0 0 0 15.11 26.84v.82c-4.87-2.77-9.32-4.3-13.45-4.61a1.56 1.56 0 0 0 .2.92l11.18 22.64c-.42 0-.62-.11-.62-.21a114.22 114.22 0 0 0-10.76-16.18 2.93 2.93 0 0 1-.21.92c-3.31 6.86-3.31 14.13.21 21.61 0 .31 0 .51-.11.51-1.86.21-3.93-1.33-6.1-4.61v-.82a45.26 45.26 0 0 0-4.14 16.9c-.41 0-.62-.1-.72-.3a52 52 0 0 1-5.49-11 1 1 0 0 1-.82-.31 28.45 28.45 0 0 0-7.45-3.79h-.52c-.52 4.3.62 8.71 3.62 13.32a2 2 0 0 0 .21.82c1.34 2.35.21 3.68-3.31 4.3v1q-.63 16.14-12.42 21.51a535.05 535.05 0 0 0-22.34 59.2q-18.93 60.84-64.56 95.46a3.28 3.28 0 0 0-1 .1 81.86 81.86 0 0 1-9.31 2c-9.21 8.29-15.41 19.87-18.62 34.61-3.21 14-9 25.71-17.38 35.14a63.42 63.42 0 0 1-20.48 15q-30.88 14.6-44.59 44.86l-14.69 32.78A148.58 148.58 0 0 0 730.5 1270a426.73 426.73 0 0 1 35.79 48.75c6.42 10.14 12.73 20.49 18.73 30.83a418.78 418.78 0 0 0 70.66 90.42v1a47.86 47.86 0 0 0 3.1 15.36 1.11 1.11 0 0 0-.73.2c-2.06 2.67-.82 5.33 3.83 8 5-2.25 9.42-.71 13.24 4.51a975 975 0 0 1 71 113.07 480.1 480.1 0 0 0 35.8 56.54c1.44-.2 2.06-1.23 1.65-3-5.07-19.46-6.52-40.56-4.45-63.6a128.51 128.51 0 0 1 3.73-20.79 379.4 379.4 0 0 0 12.51-78.56c-.41 0-.62-.1-.62-.21a457.85 457.85 0 0 0-23.17-42.81h-1a32.19 32.19 0 0 1-13.45-3.07h-.52c.93-8.3 3.52-15.16 7.76-20.49v-1c-.41-12.91-5.38-21.41-14.48-25.61a2.3 2.3 0 0 0-.94.11 38.5 38.5 0 0 0-14.58 8.09h-1c-4.24.41-7-.62-8.27-3.08v-1c.62-6.15 4-11.27 10.34-15.36 0-.41-.1-.72-.1-1a111.41 111.41 0 0 0-8.17-21.51 1.58 1.58 0 0 1 .2-.82q6.21-7.68 8.07-19.66c0-.41-.1-.62-.31-.72-4.65-3.48-4.86-7-.72-10.55 3.83.41 6.41-.3 7.55-2.15q31.75-49 60.73-100.27a3.29 3.29 0 0 0 .93-.2 29.17 29.17 0 0 1 7.34-2.87 312.19 312.19 0 0 0 16.55-26q33.21-58.38 66.21-117.37v-1l1-24.58a1.56 1.56 0 0 1 .2-.82c3.11-3.38 7.56-5.53 13.25-6.35a1.4 1.4 0 0 1 .93.21c6.2 3.17 11.79 3.07 16.65-.21h1c9.2-.31 15.72 3.79 19.65 12.29-1.13-.1-1.65.62-1.34 2a4.47 4.47 0 0 0 1.34 2.87c7.87 6.25 15.52 12.8 22.76 19.66a218.71 218.71 0 0 1-22.86 38.1c-6 8.1-7.35 16.19-4 24.38-3.83 12.6-9.11 23.66-16.14 33.08-2.49 3.38-5.07 6.76-7.87 9.94-7.65 9.32-11.79 22.22-12.2 38.92.31 0 .51 0 .62.2 7.86 14.55 20.69 24.07 38.69 28.48a3 3 0 0 1-.21.92l-31.86 81a1.34 1.34 0 0 1 .93.2 145.31 145.31 0 0 1 14.59 8 2.61 2.61 0 0 0 .1.92A161.26 161.26 0 0 1 1136 1355a1.52 1.52 0 0 1 .93.21c13.14 5.63 20.48 17.1 21.83 34.62a1.3 1.3 0 0 1-.11.51c-6.93 1.33-9.93.51-9.2-2.56a7.34 7.34 0 0 0-.93-3.69c-4.56-8.09-14.28-11.37-29.07-9.63-6 4.92-11.9 10-17.49 15.47-6.62 6.25-8.38 14.13-5.27 23.45v.51a109.71 109.71 0 0 0 21.72-6.65 1.15 1.15 0 0 1-.31.82c-4.86 6.35-8.28 14.23-10 23.76h1a132.5 132.5 0 0 1 20.69 1l8.17-4.3a25.22 25.22 0 0 1 9.52-2.46c13.35-.61 23.28-4.2 29.9-10.65h.52a43.14 43.14 0 0 0-3.62-15.36 1.06 1.06 0 0 1-.83-.31 267.62 267.62 0 0 0-8.49-6.86 3 3 0 0 1 .94.1 72.68 72.68 0 0 1 18.72 10.14v1c.21 6.25 1.55 11.37 4.14 15.37v1.33a102.29 102.29 0 0 0 3.1 28.68 170.12 170.12 0 0 0-16.76 30.21 337.32 337.32 0 0 0-12.2 33.29 1.42 1.42 0 0 0 .2.72q36.46 26.88 41.18 85.31-7.92 54.09-24 100.28c-9.94 28.37-21.11 55.71-33.42 82.34q-28.86 62.22-61.35 122.19c-5.38 9.84-10.34 19.77-15.1 29.81q-29.79 63.13-78.21 106.82v1c0 7.17-1.76 12.6-5.17 16.39v15.36a.8.8 0 0 1-.31.72 23.58 23.58 0 0 0-6.93 10.55v.71c-.42 17.11-.11 33.5 1 49.17.31 0 .52 0 .62.1a25.08 25.08 0 0 0 7.66 12.19c-.42 0-.62 0-.73.2a214.81 214.81 0 0 1-18.93 27.45c-.41 0 .11 11.68 0 11.57M580.08 894a11 11 0 0 0-.21 5.22c.11.21.62.31 1.66.31 10.34 1.43 14.9-3.07 13.45-13.32v-1c-6.93-4.13-11.9-1.16-14.9 8.79zm3.52 42.4c-5.79-5.63-9.73-13.11-11.9-22.43 0-.1-.21-.1-.52-.1-3.51 12.8-.31 22.33 9.42 28.37a1.41 1.41 0 0 0 .93.31 24.05 24.05 0 0 0 9.72-10c0-.21.21-.21.62-.21a56.48 56.48 0 0 0 1-14.33v-1c-9.31 2.05-11.9 8.2-7.76 18.64.45.84-.06 1.15-1.51.74zm-9.31-27.65c-1.55.3-1.55.51 0 .51zm-47.69 196.74a3 3 0 0 0-.93-.1c-1.35 4.81-.21 8.81 3.31 12a1 1 0 0 0 .82.31c.21 5.22 2 8.81 5.18 10.75v-.51c3.2-1 4.24-4.1 3.2-9.22a3.88 3.88 0 0 1-.1-1c-1.34-6.6-5.17-10.72-11.48-12.23zm41.58 81.51a3.19 3.19 0 0 0-.1 1 32.46 32.46 0 0 1 7.24 21.51v1c1.76 3.48 3.73 3.48 6-.21a1.92 1.92 0 0 0 .21-.82 94.1 94.1 0 0 0-3.62-23.56h.52a50.39 50.39 0 0 1 12.2-8.6.86.86 0 0 0 .21-.61c-11.17-6-18.72-2.67-22.66 10.24zm7.14-42.71c-6.41-4.2-11.79-2.77-16.34 4.2a2.42 2.42 0 0 0-.21.92c-9.1-1.23-15.93-1.13-20.59.41-.1.1-.1.2-.1.61a31.2 31.2 0 0 0 15.52 8.1c.31 0 .62.1 1 .1 11.49.1 18.31-4.3 20.59-13.42.03-.29.13-.59.13-.9zm6.21 81.94c-3.62-2-3.83-1.64-.41 1.33.62.53.82.12.41-1.31zm271-316.49c-5.38-1.74-6-1.33-2 1.33.41.31 1.13-.1 2-1.33zm-22.76-5.43a28.59 28.59 0 0 0-9.31-3.07h-1a16.94 16.94 0 0 1-14.46 5.65v.52c-1 3.07 2.69 4.71 11.38 4.81 7 0 11.49-2.66 13.45-7.89zm-1 52.55q-7.75 3.06-.31 1.53c.2 0 .31-.51.31-1.53zm-6.21-3.08c-4.34 3.18-4.45 4.41-.31 3.59.21 0 .31-.51.31-1.54zM817.4 962c-2.69.3-2.69.51 0 .51zm-2.07 1.53V963c-1.55.31-1.55.51 0 .51zm291.63 271a2.66 2.66 0 0 0-.93-.1q-12.88 2.61-12.42 18.44v1a47 47 0 0 1 15.31 16.49 2 2 0 0 1 .21.92 47.48 47.48 0 0 0 1.45 14.24 3.21 3.21 0 0 0 .62.1q13.18-10 12.41-33.8v-1a27.17 27.17 0 0 0-16.61-16.28zm17.69 115.64c-5.28-.92-11.79 0-19.76 2.87a2.67 2.67 0 0 1-.93.2c-7.76 4.3-13.14 10.86-16.45 19.46a3 3 0 0 0-.1 1c.1 4 1.55 5.12 4.24 3.27a2.67 2.67 0 0 1 .93-.2q21.57-7.38 31.86-25.71a2.93 2.93 0 0 0 .21-.88zm-413.81-293.74c1.14 0 1.45-1.13 1-3.28-4.93 2.15-5.24 3.28-1 3.28zm108.63-38.1c-1.76-8.91-5-10.75-9.62-5.43a1 1 0 0 1-.73.31c-.83 8.19.73 14.34 4.35 18.13a1 1 0 0 0 .82.3c2.69-.41 4.35-1.74 5-4.19a3 3 0 0 0 .21-.93zm96.21-27.65c-5.18 2.66-7.45 8.19-6.73 16.28 0 .1.11.1.52.1 5.28-1.94 7.45-7.06 6.21-15.36zM758 1373.53a119.68 119.68 0 0 0-3.62-21.1 63.22 63.22 0 0 0-6.31-15.57q.46-11.67 0-24.58v-1a79.49 79.49 0 0 0-19.66-1.13 3.6 3.6 0 0 1-1 .1q-7.77 8.61-16.76 9.84c-.83.1-2.07.2-3.93.41-4.25-.72-4.56.71-1 4.09l-.83.41c-.2 0-.2.21-.2.62-5.38.41-8.18 1.84-8.28 4.09v1c8.17 11.06 9.93 21 5.38 29.8-.21.21-.21.51-.21.92-15.83-3.68-21.1-14.54-15.62-32.87 0-.31.11-.62.11-.92-11.49-20.8-23.28-41.28-35.59-61.25-.11-.21-.21-.21-.62-.21a127.44 127.44 0 0 0 15.41 40c7.76 13.42 10.35 29.09 7.35 47a173.18 173.18 0 0 0-17 22.23c-.1.2-.21.3-.62.3-7.86-1.94-13.55 0-17 5.94-.1.11-.2.21-.62.21a81.76 81.76 0 0 1 0 14.34v1c-3.82 6.45-7.86 12.6-12.2 18.54a2.42 2.42 0 0 0-.21.92c9.21 13.83 21.72 24.28 38 31.45 8 3.48 15.51 7.17 22.86 11.06l40.65 21.71a201.54 201.54 0 0 0 40.25 16.7v-1q-3.44-63.24-8.73-123.05zm-152.8-171.15a3.5 3.5 0 0 0 .1-1c-.2-4.61-2.27-5.84-6-3.69-.2 0-.2.21-.2.62-3.31 4-4 9.21-2.28 15.36a3 3 0 0 1 .21 1 81.19 81.19 0 0 1 10 10.45 1 1 0 0 1 .31.82c-2.38 7.37-.93 10.75 4.14 10.24h1a126.27 126.27 0 0 1 10-15.57 1.12 1.12 0 0 0 .31-.82c-12.5-.92-18.29-6.65-17.57-17.41zm63.11 73.13a2.72 2.72 0 0 0-.94-.1 196 196 0 0 0 22.76 38.41l-1 .51c1.65 3.18 4.55 3 8.27-.51v.51c8.69 3.58 15.11 1.84 19.45-5.33a1.92 1.92 0 0 0 .21-.82q-18.32-22.42-48.73-32.67zm49.76 8.09q-4.35 1.55 0 1.54zm-16.64 36.4c.1 0 .1-.2.1-.51-3.62.58-3.62.78-.1.51zm4.24 217.65c-5.17-3.07-8.9-3.48-11.38-1l1 1q4.5 7.68 9.31 3.07a4.55 4.55 0 0 0 1.07-3.11zm-21.67-9.26c-6.52-3.38-7.87-3.07-4 .82 1.88 2.15 3.22 1.85 4-.82zm-9.31-5.12c-3.83-.72-3.83-.51 0 .51zM836 1495.62c-6.1-2.77-6.52-2.46-1.35.82.23.1.65-.21 1.35-.82zm27.83-4.51l-2 .1h-3.1c-1.14 1.85.31 4.51 4.14 8.2a17.76 17.76 0 0 0 9.41 4.3c4.55.61 7.24-.82 8.17-4.3-8.22-.11-13.71-2.87-16.6-8.3zm-11.28-4.71q-5 3.69-.31.61a.61.61 0 0 0 .33-.61zm1 34.82c-8.18 2.87-9.21 6.87-3.11 11.78v-.51a23.05 23.05 0 0 1 2.9-10.34 3 3 0 0 0 .27-.93zm35.17 24.28h-1c.93 8.81 4.24 11.78 10.13 8.81a.9.9 0 0 0 .21-.62c-2.48-5.12-5.59-7.78-9.31-8.19zm2.79 30.31a.59.59 0 0 0 .31-.61c-7.65-6.35-13.34-5.74-17.07 2h.52c5.54 2.92 11.03 2.51 16.3-1.39zm21 27.86v.52c-1.44 8.6 1.76 11.67 9.73 9.32.41-.11.62-.82.62-2.15-2.53-5.36-5.94-7.89-10.29-7.69zm207.87-64.32l-1 .92c0 7.51 4 10.37 11.92 8.4.31-.1.52-.82.52-2.15-3.47-4.52-7.17-6.88-11.38-7.17zm-170.7 100.27c-5.48-1-8.27-4.61-8.17-10.85-2.69 1.43-3.52 4.4-2.59 9.11 0 0 .11.1.52.1 4.24 2.26 8.59 4.51 13.24 6.56.11 0 .21.2.21.61 3.41-.71 6.83-1.53 10.14-2.56.1 0 .21-.2.21-.51l-13.59-2.46zm-22.65-5.73c-5.69-.51-7.14 2.35-4.55 8.4.2.51.72.51 1.65.2 2.56-1.33 3.49-4.2 2.87-8.6zm37.65 11.67c-.31.11-.41.62-.41 1.64q4.14 6.91 9 2.77a.94.94 0 0 0 .31-.72c-3.34-3.28-6.34-4.51-8.93-3.69zm10.45 14.65h-.51c-3.52 2.66-6.32 7.78-8.18 15.36 0 .31-.1.62-.1 1a21.19 21.19 0 0 0-13.35 13.31c0 .31-.1.62-.1 1 3.72 1.43 8.17.51 13.55-2.87a2.52 2.52 0 0 1 .93-.21l6.93 4.41c.21.1.32.31.32.72 6.62 1.84 11.48 1.53 14.79-.93a2.91 2.91 0 0 0 .72-2.15 44.17 44.17 0 0 1-14.63-4.85 1.09 1.09 0 0 0-.82-.21 239.94 239.94 0 0 0 .48-24.58zm21.21 108.57c-5.48-8.81-11.48-8.4-18.1 1h.48c4.45-2 7.86-1.64 10.14 1.33 3.52 4.51 6 3.69 7.45-2.35zm-33.52 27.86c-.1-.21-.31-.21-.62-.21-4.76 1.74-6.52 6.56-5.27 14.34 0 .31.1.62.1 1a33.78 33.78 0 0 1 2.9 6.14 3.25 3.25 0 0 1 .2 1c8.07 4.6 16.14 9.32 23.9 14.13a2.29 2.29 0 0 0 .93.2 36.09 36.09 0 0 1 4.66 16.39h-.52a18.3 18.3 0 0 1-12.52 11.06 3 3 0 0 1-.93.21 59.21 59.21 0 0 0-18.62-4.1h-1a28.89 28.89 0 0 0-11.38-5.63v.51a81.12 81.12 0 0 1-6.31 24c-.82 2-.82 3.58.11 4.71 3.2-1.33 5.58-5 7.14-11.37 0-.31.1-.61.1-.92a28.65 28.65 0 0 1 11.38-5 3 3 0 0 1 1-.1c5.38.82 9.73 2.56 13.14 5.43.21.1.31.3.31.71-1.45 9.63.62 14 6.21 13.32h1l.93-12.29a3.58 3.58 0 0 0 .11-1 21.43 21.43 0 0 1 8.38-5 2.42 2.42 0 0 1 .93-.1 19.1 19.1 0 0 0 4.55-9.11c.1-.11.21-.11.62-.11v-12.29a40.59 40.59 0 0 1-5.59-13.21c-.1-.1-.31-.1-.62-.1a72.31 72.31 0 0 1 7-16.49 3 3 0 0 0 .21-.92c-5.9-3-10-.72-12.52 6.76a5.42 5.42 0 0 1-4 3.48c-5.79-.41-9.93-2.56-12.2-6.35a2 2 0 0 1-.21-.82 52.9 52.9 0 0 0-3.55-18.23zm23.18-25.51c-3.51-.41-3.51-.2 0 .52zM943.4 1895a2.87 2.87 0 0 0 .21-.92c-1.24 2.73-1.35 3.03-.21.92zm43.66 13.42c-3.93-6.86-8.59-6.66-14.17.41-.94 1.13-.63 2.36.72 3.69 7 3.79 11.48 2.76 13.24-3.18a2.87 2.87 0 0 0 .21-.96zm-329-1035.8A44.66 44.66 0 0 1 667 874c18.41 4.61 33.73 12.59 45.93 24.17h1c5.07.51 9.2 1.84 12.41 4.1h1a40.25 40.25 0 0 0 12.41-2c.31 0 .52 0 .52.1 1.45 6.35 5.07 10.34 10.86 12.19a.86.86 0 0 1-.21.61A49.45 49.45 0 0 0 730.5 931c-.41 0-.72 0-.93.21q-24.83 12.44-56 14.13a1 1 0 0 0-.21-.71A61.87 61.87 0 0 1 654 926.87a1.39 1.39 0 0 1 .93.2c7.13 3.07 10.55 1.95 10.44-3.28-.41-.71-.72-1.33-1.13-1.94-.62-.82-.93-1.23-1-1.23C642.57 919 632.63 909 633.26 891a1 1 0 0 0 .82-.31 22.59 22.59 0 0 1 12.62-4.81 2.42 2.42 0 0 1 .21-.92c2.07-2.77 1.24-5.54-2.28-8.3.52-3.26 5.07-4.59 13.45-4.08zM684 911.81c-5-8.91-9.31-7.89-12.94 3.28-.72 2.25-.2 3.58 1.56 3.89 6.1 3.28 9.82 1.23 11.27-6.15-.05-.41.11-.71.11-1.02zm-43.5 109.59a20 20 0 0 1 4-16.18q15.83-20.28 44.59-13.52c-.31 3.07-1.45 5.22-3.62 6.25l-20.28 10.65c-9.07 5.02-17.19 9.22-24.69 12.8zm316.08 1307.23s-10.7-19.68-13-31.05a18.41 18.41 0 0 1-8.9-4.6c-8.89-8.51-20.48-14.55-34.55-17.93 0-.41-.1-.61-.21-.61-8.58-4-13.34-11.68-14.27-23v-.44c-1.87 1.85-3.21.62-4.14-3.58a.73.73 0 0 0-.21-.62c-4.55-1.23-8-1-10.14.62h-1.55c2.69-2.46 3.83-7 3.62-13.32a9.54 9.54 0 0 0 4.55-1c4.76-2.56 9.83-4.92 15.11-7.17 1.55.41 3.1.82 4.34 1.23a42.5 42.5 0 0 1 11.69 5.63q20.81 14.91 47.07 12.6a2 2 0 0 0 .83-.21 17 17 0 0 0 7.45-10 1.39 1.39 0 0 0-.31-.92 135.66 135.66 0 0 0-12.11-14.45 2.76 2.76 0 0 0-.2-1 67.53 67.53 0 0 1-2.9-15.36 1.57 1.57 0 0 1 .21-.82 41.92 41.92 0 0 1 14.27-8.4 1.67 1.67 0 0 1 .21-.82 46.21 46.21 0 0 0 6-7.38c.62 2 1.35 4.1 2.07 6.15a68.1 68.1 0 0 1 3.41 18.54q1.41 25.82 12.11 40.86a4 4 0 0 0 .1 1c.52 5.53 2.17 9.93 5.07 13.31v32.78a3.22 3.22 0 0 1-1-.1c-10.76-.82-18.73-.82-23.8.1a1.56 1.56 0 0 0-.82.2c-3.42 2.56-3.21 4.82.82 7v1c.11 6 2.18 10.45 6.21 13.32a3.92 3.92 0 0 1 1 .1c4.76 1 6.14 4 4.17 8.41m-110.72-80.72c-2.69 0-2.69-.2 0-.51z"/><path d="M5.31 726.99h951.27v1601.65H5.31z"/><path d="M732.52 1039.53h362.13V1887H732.52z"/><path d="M5.31 148.56L102.43 0l1041.11 1041.11-845.14 845.13L0 1587.84m1067.72-353.38h55.93v61.72h-55.93zm-26.673 156.447l84.355-48.48 48.48 84.355-84.355 48.48z"/><path d="M1115.841 1396.249l35.49-20.49 24.445 42.34-35.49 20.49z"/><path d="M1178.83 1398.91l-.41 27.1-35.49-23.28 10.63-18.41 25.27 14.59zm-248.35 475.93h65.92v62.53h-65.92zm163.12-358.44h52.21v52.21h-52.21z"/></svg>