<svg xmlns="http://www.w3.org/2000/svg" viewBox="0 0 3840 2210"><g id="Max_Payne_1_OP_Mask" data-name="Max Payne 1 OP Mask"><rect y="50" width="3840" height="2160" fill="#fff"/><path d="M1163,1396.18a1.42,1.42,0,0,1-.2-.72,339.88,339.88,0,0,1,12.2-33.29,170.12,170.12,0,0,1,16.76-30.21,102.29,102.29,0,0,1-3.1-28.68V1302c-2.59-4-3.93-9.12-4.14-15.36v-1c-1.88-1.41-3.82-2.71-5.83-3.93v-.29l-18-10.36V1259.7h-4.42q-4.95-15.87-19.5-22.07a1.52,1.52,0,0,0-.93-.21,159.84,159.84,0,0,0-7.14-21.61,2.86,2.86,0,0,1-.1-.92,143.15,143.15,0,0,0-14.59-8,1.37,1.37,0,0,0-.93-.2c10.35-27.35,21-54.29,31.86-81a2.87,2.87,0,0,0,.21-.92c-18-4.41-30.83-13.93-38.69-28.47-.1-.21-.31-.21-.62-.21.41-16.69,4.55-29.6,12.21-38.92,2.79-3.17,5.38-6.55,7.86-9.93,7-9.43,12.31-20.49,16.14-33.09-3.31-8.19-2-16.28,4-24.37a219.08,219.08,0,0,0,22.86-38.1c-7.24-6.87-14.89-13.42-22.75-19.67a4.43,4.43,0,0,1-1.35-2.87c-.31-1.43.21-2.15,1.35-2q-3.51-7.56-9.76-10.46L982.31,762.46a44.23,44.23,0,0,1,2.53-6.93v.82c2.17,3.27,4.24,4.81,6.1,4.6.11,0,.11-.2.11-.51-3.52-7.47-3.52-14.75-.21-21.61a2.87,2.87,0,0,0,.21-.92,114.22,114.22,0,0,1,10.76,16.18c0,.1.2.21.62.21-3.73-7.68-7.45-15.26-11.17-22.64a1.49,1.49,0,0,1-.21-.92c4.14.31,8.58,1.84,13.45,4.61v-.82a80.27,80.27,0,0,1-15.11-26.83c-.31-.93.21-1.23,1.66-.82a15.19,15.19,0,0,0,7.24,6.65V713c4.24-3.48,9.41-4.4,15.31-2.66.1.1.21.2.21.61,1.45-1.53.31-3.68-3.62-6.55s-4.45-5.84-1.56-8.81c5.18,3.48,7.45,3.07,6.73-1h.52c4.24-1.64,8.69-3.18,13.24-4.61.1,0,.21-.21.21-.52a104.83,104.83,0,0,1-20.7-19.76c-3.51-4.41-2.58-6.76,3.11-6.87,1.76-1.53.83-3.79-2.9-6.76a4.59,4.59,0,0,1-1.45-3.48c-.1-1.23-1-1.53-2.89-1-8.28,1.74-10.24.2-5.9-4.92a1,1,0,0,1,.72-.2c6.63-1.13,11.49-.52,14.49,1.64,1.55,1.22,3,1.33,4.14.41-6.42-2.36-7.76-4.61-4-7a2.29,2.29,0,0,1,.93-.2c4.24-.11,7.66-2.46,10.24-7.28.73-1.23-.31-1.23-3,.11-2.38-.72-2.89-2.46-1.55-5.13H1020c-17.27-3.48-31.75-9.42-43.44-18.12-2.69-1.95-5.38-4-7.87-6-1.86-1.43-2.38-3-1.45-4.5-5.17-.93-6.93-4-5.38-9.32a3,3,0,0,0,.21-.93,43,43,0,0,1-15.62-4.91,1.52,1.52,0,0,0-.93-.21,16.1,16.1,0,0,0-3.93-5.43,1.14,1.14,0,0,1-.21-.71q-43.86-21.3-89.79-40.36c-.21-.1-.21-.3-.21-.61a419.33,419.33,0,0,1-43.76-6.66,106.73,106.73,0,0,0-30.83-1.94c-8.6.66-17.3,1.19-26,1.62L269.85,50H0V2210H979.07c1.3-3.82-.21-6.41-4.57-7.35a4,4,0,0,0-1-.1c-4-2.87-6.1-7.27-6.21-13.32v-1c-4-2.15-4.24-4.4-.82-7a1.48,1.48,0,0,1,.82-.21c5.07-.92,13-.92,23.8-.1a3.25,3.25,0,0,0,1,.1v-32.77c-2.89-3.38-4.55-7.79-5.07-13.32a3.88,3.88,0,0,1-.1-1q-10.71-15.06-12.1-40.87a68.57,68.57,0,0,0-3.42-18.54c-.72-2.05-1.45-4.1-2.07-6.14.11.1-.41-11.58,0-11.58a214.89,214.89,0,0,0,18.94-27.45c.1-.2.31-.2.72-.2a25.08,25.08,0,0,1-7.66-12.19c-.1-.1-.31-.1-.62-.1q-1.69-23.5-1-49.16V1967a23.67,23.67,0,0,1,6.93-10.55.8.8,0,0,0,.31-.72v-15.36c3.41-3.79,5.17-9.22,5.17-16.39v-1q48.42-43.7,78.21-106.83c4.76-10,9.73-20,15.11-29.8q4.55-8.41,9-16.88h.07v-.13q27.45-51.77,52.24-105.18c12.31-26.63,23.49-54,33.42-82.35q16.08-46.2,24-100.27Q1199.45,1423.06,1163,1396.18ZM956.43,762.44v0h0Z" fill="#fff200"/></g><g id="Max_Payne_2_OP_Mask" data-name="Max Payne 2 OP Mask"><path d="M3745.26,0,3240,500c-15.5-6-32.52-14.24-49.34-17.19-13.45-2.58-27.43-3.35-38.77,2.58,3.69,3.6,10.81,8,10,10.56-2.11,8.51-9.23,10.05-17.67,6.44-21.63-9.53-40.88-5.15-59.87,11.08l23.61,2.06v6.21c-6.4-.64-12.78-1.43-19.13-2.6-14.5-2.57-25.06,1.29-36.4,9.8-26.9,19.84-55.12,37.87-82.82,56.69a91.87,91.87,0,0,0-10.55,9.53l2.38,2.58h28.48a14.51,14.51,0,0,1,1.06,3.09c-11.34,5.67-22.42,11.85-34,16.23-10.28,3.61-16.61,12.11-13.71,22.68,2.37,8.76-6.65,34-14.83,38.39-12.92,7.21-16.15,29.91-5.87,40.48,12.13,12.44,27.09,33,41.84,47.07L2804.21,922.76a39.3,39.3,0,0,0-9.29,5.77l-4,3.19c-21,15.12-39.35,31.52-60.1,46.91-23.14,16.71-40.31,38.88-57.6,61.69-22.61,29.72-21.94,63.58-33.91,95.42a6.76,6.76,0,0,0-.26,4c11.17,32.9,24.94,86.88,43.56,117.13,5.06,8.22,9.76,14.5,16.67,20.6a327,327,0,0,0,36,27.16c8.24,5.31,4.36,2.48,12.87,7.52,3.73,2.13,4.79,3.16,9.58,5.55-6.88,10-8.07,12-14.64,22.21-44.85,24.19-53.38,64-21.89,103.08,10.63,13.26,9.3,21-1.87,33.43a346.78,346.78,0,0,0-29,39.26c-4.26,6.63-8.24,9.55-17,8.22-15.43-2.38-19.42,4-13.83,18.05a19.11,19.11,0,0,1,1.33,10.87c-1.87,11.15-4.79,21.76-6.92,32.9-1.86,10.61,1.33,18.84,12,23.88,3.46,1.59,5.32,6.37,7.45,10.08,10.9,18.84,22.34,36.61,49.74,37.67l-.08,0,3.95.42c1.86,5.56,2.78,11.85,4.37,17.67,2.93,11.41,6.65,22.82,9.31,34.49a239.31,239.31,0,0,0,53.47,105.33c12,14.06,18.5,24.78,29.94,40.43-2.46,4.72-6,11.83-10,15-13.83,10.87-15.16,18-7.18,33.43a22.84,22.84,0,0,1,1.6,14.59c-2.91,14.77-1.08,27.71,12.28,37l5,11.83,7.45,23.61h0l.05.15h0l2.34,3.38h0l5.33,7.7,4.25,9.23c-.51,13.5,6.94,18.54,21.55,19.33-8.51,17.25-14.9,34-24.47,48.55-24.74,37.14-51.07,73-76.61,109.57q-7.14,10.44-14.18,21H3840V0ZM2727.41,1399.35a9.87,9.87,0,0,1-.82.73l.82-1.08Zm12.81,98.74h0l0-.07Zm263.1-724c-.6-.45-1.21-.88-1.83-1.32h1.83Zm103.13-237.19-1-.09,1-.85Z" fill="#fff200"/></g><g id="Max_Payne_2_Cover" data-name="Max Payne 2 Cover"><path d="M3293,1468.43l.06-.33-.82,1.1Z"/><path d="M3831.65,1559.43c-2.42-16.93-8.77-33.39-14.41-49.84l-.75-2.19c-1.52-4.36-6.07-7.44-9.1-11.28l-3.54,1.28c3.13,25.21,6.27,50.43,9.54,76.51.69,5.48,1.38,11,2.09,16.54a86.74,86.74,0,0,1-16.91-8.52c-9.84-6.65-14.56-14.51-15.37-24.87-.46-5.92.35-12.65,2.2-20.44a82.21,82.21,0,0,0,.25-35.12c-11.63-54.85-31.59-106.89-52.82-158.67-13.65-33.32-24.77-67.93-37.92-101.51-9.6-25.12-20.47-49.47-30.58-74.34a188.53,188.53,0,0,1-12.13-40.24c3,1.53,5.88,3.13,8.77,4.76a286,286,0,0,1,108.3,108.7c.41.71.82,1.43,1.22,2.15l.6-.39,2.18-1.41a21.3,21.3,0,0,0,0-5.64c-4.33-12-8.54-24.18-12.78-36.32-4.46-12.81-9-25.63-13.64-38.37l-.07-.2c-.38-1-.75-2.06-1.13-3.08-.75-2-1.51-4.06-2.26-6.08-3-8-6.08-16-9.3-23.87a206.63,206.63,0,0,0-34.67-57.5c-4-4.68-8.19-9.2-12.6-13.5-37.66-37.17-73.29-76.65-109.69-115.1-3.29-3.33-7.08-6.15-11.88-10.51l-16.4,25.89c5.53-12.49,10.89-25.2,17.16-37.68.33-1,3.74-.8,6.1-.76,1.21,0,2.15,0,2.24-.26.76-4.62,2.27-10.51.25-14.36-.71-1.4-1.43-2.8-2.16-4.18-11-20.91-24.91-39.82-44.35-54a31.52,31.52,0,0,0-29.57-4.61c-3.79,7.94-5.81,13.84-9.1,18.71-5.05,7.69-11.88,14.1-16.43,22a333.71,333.71,0,0,1-76.08,91.51c-19.2,16.4-37.15,34.6-55.35,52.29a25.6,25.6,0,0,1-28,6.41c-12.92-4.2-19.59-11.67-18.7-20.22.52-5,3.62-10.37,9.6-15.67,27.29-24.61,56.36-46.91,84.92-70.23a75.46,75.46,0,0,0,7.33-5.13c25.28-26.66,50.3-53.32,75.32-80.23a15.46,15.46,0,0,0,2.53-6.41,57.11,57.11,0,0,1-12.9-7.34c-16.32-12.29-24.32-31.33-37.65-45.47l1.77-3.07,7.05,2.29,7.1,2.32c0-5.9,1-12.05-.25-17.69q-6.59-27.91-15.45-55.15A722.9,722.9,0,0,0,3383.52,610c-13.65-27.94-37.41-46.65-62.43-63.83-35.13-24.09-72.54-43.32-114.75-51-12.89-2.56-26.29-3.33-37.16,2.57,3.54,3.58,10.37,7.94,9.61,10.51-2,8.45-8.85,10-16.94,6.4a49.75,49.75,0,0,0-22.57-4.93,43.82,43.82,0,0,0-12.92,2.45c-7.42,2.57-14.67,7.11-21.88,13.51l53.83,4.87-.75,6.15c-16.18-1.8-32.61-2.31-48.79-5.38-13.9-2.57-24,1.28-34.88,9.74-25.78,19.73-52.82,37.68-79.36,56.39a89,89,0,0,0-10.11,9.48l2.27,2.57H3014a14.14,14.14,0,0,1,1,3.07c-10.87,5.64-21.48,11.8-32.6,16.15a21.82,21.82,0,0,0-11.38,8.8,16.83,16.83,0,0,0-2.32,10.63,19.79,19.79,0,0,0,.55,3.13c2.28,8.72-6.32,29.48-14.15,33.84-12.39,7.18-14.16,18.45-4.3,29,15.17,16.15,28.31,35.63,46.26,46.91a84.28,84.28,0,0,1,27.64,28.73,134.23,134.23,0,0,1,8.88,18c4.8,11.63,8.5,23.79,12.82,35.6,1,2.83,2.1,5.64,3.23,8.42,3.63,9.29,11,9,17.46,10.49,3,.7,5.74,1.78,7.81,4.37,3,4.11,9.1,6.16,11.63,10.26,3,5.07,4.82,10.91,7,16.52a61.39,61.39,0,0,0,3.08,6.8,35.74,35.74,0,0,0,2.25,3.47c5.49,7.42,13.19,10.85,23.79,7a37.92,37.92,0,0,1,2,6.2c.7,3.86-.82,6.21-8.59,5.34-2.78-.26-5.81,1.54-8.84,2.31,1.26,3.59,2,9.23,4,9.74,7.33,1.79,15.93,4.1,22.24,1.79,8.09-3.07,11.63-1,16.94,4.62a157,157,0,0,0,23.76,19.22c12.13,8.52,24.89,16.17,36.92,25,1,.73,2,1.46,3,2.21a44.7,44.7,0,0,1,11.46,13.38c.6,1.07,1.17,2.16,1.69,3.29,5,10.93,14.49,16.95,24.28,17a26.09,26.09,0,0,0,18.68-8.26c2-2.31,3-5.9,5.56-7.95,5.06,20.51-6.82,31.28-19.2,41.27-1.52,1.29-6.83-2-9.61-5.12-22.24-2.57-28.56,3.07-26.79,26.14.76,11.8,5.56,23.07,7.08,34.87,1,7.43,2.27,16.66-1,22.55-20,35.38-30.07,74.85-47,111.25-8.84,19-10.36,36.92-9.35,56.91,1.52,30-8.09,58.19-19.46,85.36-4.05,10.25-7.84,20.51-11.38,30.25-6.21-4.87-12.53-9.78-18.88-14.73-10.69-8.35-21.45-16.83-31.92-25.52-2.53-2-3.79-7.17-3.79-11q.07-14.31.25-28.61c.43-38.65,1.12-77.31.51-116a49.29,49.29,0,0,1,14.91-37.43c12.13-12.3,24.26-25.12,33.87-39.47,16.18-24.1,7.83-40.76-15.67-56.65-.88-.58-1.78-1.15-2.7-1.73-8-5-17.49-10.38-23.72-18.77a33.29,33.29,0,0,1-6.19-14.37,15.22,15.22,0,0,0-8.34-9.74c-10.61-3.84-10.36-11.28-9.1-20.5,2.53-18-2.78-23.84-17.44-23.07,2.28,2.56,6.83,5.12,7.59,8.71.93,3.88-1.57,10.19-5.66,16.52-5.93,9.15-15.23,18.32-22.4,20.14a97,97,0,0,1,3.29-14.87c1.51-4.1,4.29-7.69,5.81-13.07a33.34,33.34,0,0,1-22.05,3.75,65.87,65.87,0,0,1-9.7-2.35c-7.85-2.44-15.56-5.76-23.48-6.92l-.88-.12a10.3,10.3,0,0,1-4.23-2c-2.92-2.14-5.73-5.46-8.65-7.73l18.94.91,7.59.36c-12.14-7.18-22.75-14.87-34.38-19.74-21-8.46-42.71-15.12-63.95-22.56-7.07-2.56-14.4-4.1-21-7.69-15.67-8.71-41.46-6.92-55.1,4.87l-3.8,3.08c-20,14.61-40.18,29-59.9,43.83-2.21,1.63-4.35,3.31-6.45,5-18.83,15.37-33.62,34.36-48.4,54.19-21.48,28.71-17.94,63.31-29.32,94.07a6.77,6.77,0,0,0-.25,3.85c10.62,31.78,13.9,65.62,31.6,94.84,4.8,8,8.34,17.69,14.91,23.58,10.87,9.49,23.76,16.41,35.89,24.36,7.83,5.12,15.92,10,24,14.86,3.54,2.06,7.33,3.85,11.88,6.16-6.54,9.69-13.08,19.65-19.38,29.6-42.62,23.36-50.73,61.85-20.81,99.59,10.11,12.82,8.85,20.25-1.77,32.3-.69.82-1.36,1.66-2,2.48a336.13,336.13,0,0,0-25.5,35.46c-4,6.41-7.83,9.22-16.17,7.94a30.25,30.25,0,0,0-7.49-.37c-8.32.82-9.91,6.93-5.66,17.8a18.75,18.75,0,0,1,1.27,10.51c-1.77,10.77-4.55,21-6.57,31.79a31.86,31.86,0,0,0-.44,3.77c-.45,8.44,3,15,11.81,19.3,3,1.42,4.76,5.44,6.6,8.86.16.3.32.6.48.88,1.4,2.46,2.81,4.9,4.26,7.28,9.31,15.26,20.48,28.23,43,29.12l-15.18-11.1c-.24-1.76-.49-3.27-.49-4,20,1.54,19.72,18.45,23.51,32.55,2.78,11,6.32,22,8.84,33.33a232.57,232.57,0,0,0,50.81,101.76c11.37,13.59,21,28.71,31.84,43.84-5,3.84-9.09,6.66-12.89,9.74-13.14,10.51-14.4,17.43-6.82,32.29a21.93,21.93,0,0,1,2,8.42,23.84,23.84,0,0,1-.48,5.68c-2.77,14.28-1,26.78,11.67,35.74l1.92,4.62,2.83,6.81c5.06-1.8,10.12-3.33,14.92-5.38,1.93-.79,3.84-1.69,5.74-2.59,4.31-2,8.57-4.06,13-4.59a21.68,21.68,0,0,1,9.58,1.58c2.23.91,4.08,2.13,4.83,3.55,2.78,5.38,1.51,11.79-6.83,14.86-3.33,1.2-6.6,2.55-9.86,4l-3.12,1.38c-6.82,3.11-13.69,6.56-21.14,10,9.58,6.94,17.72,10.54,27,6.09a26,26,0,0,0,3.07-1.73c7.33-4.87,14.15-3.84,20.47,6.15-5.41,4.78-10.17,11.77-16.31,14.16a11.12,11.12,0,0,1-1.38.45c-6.07,1.54-13.65-3.33-21.48-5.38-.51,13.07,6.57,17.94,20.47,18.71-1.92,3.95-3.72,7.87-5.48,11.74-3,6.53-5.8,12.92-8.82,19.07a159.64,159.64,0,0,1-8.95,16.1l-.64,1-2.44,3.68c-22.61,34.23-46.5,67.39-69.72,101.23-1.31,1.95-2.61,3.91-3.91,5.86-.65,1-1.3,1.94-1.94,2.91-7.66,11.52-15.25,23.15-22.95,34.79h25.84l31.66-37.7,16.55-19.7c7.86,7.49,14.15,13.84,20.57,19.7l1.16,1.06c14,12.46,27.88,25.06,45.7,29.62a57.82,57.82,0,0,0,18.25,1.66c1,0,2.21,2.56,3.42,5.16l.09.2h472.33c6.55-30.51,12.46-61.25,19.31-91.75,4.94-22.55,10.84-44.86,16.3-67.16.12-.51.25-1,.38-1.54l4.8.51a119.42,119.42,0,0,1,1.26,16.41c0,3.84-2.27,7.43-2.27,11-.76,26.4-.76,52.81-2.53,79-1.19,18.1-4.38,35.74-6.86,53.56h12.91l11.13-50.32,3-13.75a202,202,0,0,1,2.53,36.92c0,9.13.2,18.07.42,27.15h124.07c.76-19.64,1.91-39.29,2.39-58.94.76-20,.76-40,1-60h4.81c1.26,3.84,3.53,7.69,3.79,11.53.5,16.41.25,33.07,1,49.48,1.19,19.3,2.82,38.61,4.27,57.91h38.08c-.71-20.07-3-40.15,3.65-60.22.57.3,1.11.6,1.65.9,14.11,7.82,18.55,14.76,18.06,28.83-.22,10.09-1.66,20.37-2.68,30.49h96.31l-.06-.4c-3.78-26.86-6.32-53.71-11.42-80.33-14.15-75.87-29.83-151.49-44-227.37-1.77-11,.51-22.81,2-34.09a310.86,310.86,0,0,1,7.33-37.68,31.17,31.17,0,0,1,8.34-14.87l.95-.8c17.61-14.92,34.79-31.45,54.66-43a155.62,155.62,0,0,0,30.59-22.75c19.41-18.82,30.26-41.32,33.11-67.83v-30.09c-.47-4.87-1.13-9.84-2-14.94C3833.42,1610.7,3835.44,1584.56,3831.65,1559.43Zm-236.58,412.19-.25,1.29-.76-1Zm-.5,14.36v43.83H3592v-43.57l.79-.08Zm.25,77.16c.76.77,2.28,1.28,2.28,2.05s-1.27,1.79-1.77,2.56l-2.78-1.79Zm-4-105.36a50.91,50.91,0,0,0,4.27-4.54c2.09-2.34,4.13-4.43,6.09-4.43,7.58.26,12.64-2.31,11.63-9.23v0c-.52-4.35-5.81-8.44-9.6-12-1.52-1.53-4.55-1.53-8.34-2.56a19.37,19.37,0,0,1,4.76-5.93c6.52-5,13,1.41,18.24,3.88,5.68,2.67,9.07,7.5,8,14.07a20.19,20.19,0,0,1-1.65,5.16l-.11.27c-2.43,5.58-3.2,12.13-4.69,18.44-.12.6-.26,1.22-.4,1.85-.47,2-1,4.2-1.62,6.35-2.78-1.28-5.82-2.56-8.35-3.59s-5.3-1.54-7.83-2.56C3597.6,1961.37,3594.06,1959.58,3590.78,1957.78Zm33.87,132.79c-11.63,1.53-15.93-8-9.86-24.61l.1.26,7.88,19.65Zm-51.82-385c-3,5.89-9.1,10.25-13.9,15.12-3-4.1-6.07-8.46-9.1-12.56-4-5.64-7.58-12.3-12.64-16.92-13.9-12.56-28.81-24.35-43-36.4l2-5.4.28-.75c4.3,1,9.1.77,12.64,2.82,10.61,6.15,21,12.82,31.09,19.48a246.68,246.68,0,0,1,28.56,20.76,13.53,13.53,0,0,1,3.39,5.46C3573.31,1700.23,3573.71,1703.62,3572.83,1705.55Zm-138.51,23.58c-1.56-.23-4.3-5.84-4.23-9.1a3.64,3.64,0,0,1,.19-1.15c4.55-14.1-1.77-24.61-9.35-35.12a114.25,114.25,0,0,1-8.09-14.36l3.54-2.82c2.65,1.87,5.95,3.41,8.19,5.55a9.81,9.81,0,0,1,1.41,1.63c8.59,13.59,16.94,27.17,24.52,41.27,1.26,2-1.52,8-4.05,10.25A17.65,17.65,0,0,1,3434.32,1729.13ZM3136.26,1592.3c1.88.35,3.75.68,5.62,1,5.31.77,11.13,0,19.47,0,0,.26,1.51,3.59,2.78,6.67-6.32,2-10.87,3.58-15.42,5.12-6.57,2-13.4,6.41-19.72,5.9-21.73-2-43.22-5.9-64.7-9.49-40.27-7-80.3-14-120.33-21.29l-2.76-.49c-17.7-3.08-35.14-6.67-53.08-10l3.54-15.64c5.56.77,10.11,1.28,14.66,1.8,12.6,1.76,25.13,3.94,37.64,6.3,47.46,8.94,94.52,20.47,143.33,21.89C3103.61,1584.5,3119.94,1589.29,3136.26,1592.3Zm212.88-504.78c-2.78,7.43-5,15.12-8.34,22.56q-36.62,84.54-73.53,168.9-13.47,31-26.88,61.93l-3.78,8.76q-5.67,13.11-11.32,26.23c-5.77,13.56-11.2,27.27-16.57,41q-4.69,12-9.38,24l0,.08q-2.78,7.07-5.6,14.13c2.26-3.18,4.4-6.35,7.32-10.69l4.56-6.75c2.7,4.83,5.79,8.93,8.25,12.84a29,29,0,0,1,4,8.73,16.63,16.63,0,0,1,.39,2.53c.5,8-5.56,15.89-8.6,23.33,9.45-2.5,14.37-8.91,17.62-16.58,2.75-6.5,4.31-13.89,6.39-20.59,4.21-13-8-16.44-16.19-23.43a22.43,22.43,0,0,1-3.82-4.1c-.16-.22-.31-.44-.46-.67,1.77-2.56,5.06-8,5.81-7.69,10.62,4.36,10.37-5.38,12.9-10.51a193.56,193.56,0,0,0,10.86-25.89c3.29-10,8.85-15.64,19-14.61,10.62.77,14.15-5.38,17.69-13.84q45.12-108.82,91.25-217.63c1.51-3.85,5.56-6.92,8.59-10.26h.25c-.75-1.28-2.27-3.33-1.77-4.1a40.23,40.23,0,0,1,5.31-6.15c1.34,1.36,2.66,2.75,3.95,4.15a120.74,120.74,0,0,1,9.45,11.49c1,1.53-2.28,5.89-3.54,9v-.26c-.25,11,1.77,21.53-3.29,32.81-19.71,44.35-37.66,89.21-56.61,133.81-6.32,15.38-6.57,29.22,2.52,43.58,6.32,9.74,2.28,16.66-8.59,19.48-5.05,1.54-11.63,5.64-13.4,10a285.91,285.91,0,0,0-11.12,40.75c-3.51,18.09-6.28,36.18-9.29,54.27l4.49-6.07,3,2.56c-8.84,7.69-4,24.86-17.44,26.92-3.79,6.92-5.56,15.89-9.35,16.91-16.93,4.36-26.54,15.13-33.11,30.51a71.24,71.24,0,0,1-6.57,8.71V1523l-20.47,19-6.32-19,11.5-5.38,4.93-2.31c-8.6-7.94-15.42-16.14-24-22-10.61-7.18-13.14-16.41-11.12-28.2l-4.8,3.33c-1-3.84-4.3-8.71-3-11.53,2.78-6.92,8.09-12.56,11.12-19.48l1.13-2.6c.3-.7.6-1.39.91-2.09l8.67-20,5.43-12.5q30.07-69.35,59.69-138.68,3.43-8.13,6.83-16.26c11.24-26.87,22.29-53.71,33.86-80.38,5.57-12.59,10.33-25.18,13-38.41a116.21,116.21,0,0,0,2.27-18.35c.08-1.91.13-3.84.11-5.78-.17-12.83,3.17-18.77,10.53-19C3338.21,1083.29,3343.1,1084.72,3349.14,1087.52ZM3290,1275.93q2.1-3.67,4.09-7.41c12.32-23,21.77-47.72,31.31-72.29,4.11-10.59,8.24-21.15,12.62-31.56q11.76-27.3,22.75-54.59l2.2.59,1.59.43a41,41,0,0,1-1.52,7.69c-31.84,76.39-63.69,152.26-95.54,228.65-3.28,8.46-8.34,8.21-15.67,6.41,1.1-2.71,1.91-4.92,2.73-6.95.49-1.23,1-2.39,1.57-3.56C3266.75,1320.53,3277.36,1298,3290,1275.93Zm83.41-177.13h1l-.76,1.28-.76-.51C3372.9,1099.31,3373.15,1098.8,3373.41,1098.8Zm-98.32,180.46,73.29-174.82,3.54,1.53c-.89,2.14-1.79,4.27-2.68,6.4q-35.43,84.47-70.62,168.94l-1.83-1.07ZM3334.48,1854a142.14,142.14,0,0,0-28.81-8.46c-3.79-.52-11.12,3.59-11.88,6.66-2.53,10.77-9.6,14.36-18.45,13.33-14.41-1.79-28.82-5.13-43.22-7.69-5-.82-7.95-3-9.09-6.43a14.22,14.22,0,0,1-.26-6.9c4.55-26.66,9.1-53.32,13.9-82,17.69,8.72,31.34,16.67,45.75,22.56l1.38.6c12.21,5.36,18.46,13,21.87,27.34,2.27,9.89,5.86,17.46,10.65,22.81,10.1,11.29,25.56,12.62,45.46,4.62,8.71-3.5,17.53-6.68,26.39-9.88,4.76-1.72,9.53-3.45,14.3-5.24-2.78,8.2-6.82,15.63-12.89,19.73C3372.9,1856,3354.45,1861.14,3334.48,1854Zm-26.28-418.09,2.78,1.28c-2.78,5.64-5.56,11.28-8.09,16.92l-3.54-.77Zm53.67-69.83c-6.13-3.12-12.41-6.17-15.25-14.51l13.17,5.31,9.42,3.79,10.52,4.23c-1.77,17.69-16.43,49.22-24.77,51.78l18.19-42.29a21.51,21.51,0,0,0-6.42-5.67C3365.17,1367.73,3363.53,1366.89,3361.87,1366.05Zm-31.68,31.89q-1.76,5.58-3.5,11.15-.92,2.9-1.81,5.77l-4.3-1.28,5.82-16.92,1.1.37Zm63.44,147.14c-5.82-8.46-12.64-13.84-24.27-11-5.56,1.28-15.67.77-17.18-2.31-1.36-2.4-1.7-5.37-1.65-8.56.07-4,.75-8.23.89-12.2-3.58.24-7.33,1-11,1.57-4.06.58-8,.81-11.29-.55-3.58-1.43-6.55-5.65-8.67-11-4.32-10.93-5.1-26.62-.18-33.32.28-.39.53-.78.8-1.16,11.21-15.91,16.1-33.89,16.83-53.27,0-.57.05-1.14.06-1.71.11-3.68.94-6.49,2.65-8.5a11.13,11.13,0,0,1,6.31-3.47,24.35,24.35,0,0,1,4-.53c.39,0,.77,0,1.18-.06,1.2,26.55-15.29,49.1-19.5,74.73a65.59,65.59,0,0,0-.22,21.14,43.15,43.15,0,0,0,6.57-5.39c5.36-5.81,12.61-9.83,19-9.07a11.93,11.93,0,0,1,6.54,2.92c4.67,4.32,3.59,8.56,1,12.68-2.23,3.47-5.56,6.86-7.52,10.14,10.1-3.49,17.62,2.2,25.39,6.59a44.6,44.6,0,0,0,5.95,2.89q18.59,7.31,36.4,16.15c.47.31.93.64,1.37,1a16,16,0,0,1,6,8.75c1.51,9.23,2.53,18.46,3.28,27.69C3421.18,1561.49,3420.93,1528.67,3393.63,1545.08ZM2885.09,1793a3.61,3.61,0,0,1-4.55-2.57q-3.9-7.7-7.82-15.39l-1.76-3.47-6.08-12c-9.52-18.72-19-37.46-28.32-56.32-5.06-10.51-1-29,7.07-36.66l6.07,9.49,16.18-41.79,4.8.52c1.26,3.33,3.54,6.92,3.54,10.51-.51,23.84.5,48.19-3.54,71.26-1.52,9.23-2.28,16.92,0,25.12,1.58,6,3.24,11.93,4.91,17.87C2878.73,1770.67,2882,1781.76,2885.09,1793Zm-43.48-458.33c1.86,2.51,4.43,5.1,6.84,7.77,3.5,3.86,6.66,7.87,6.81,12a23.23,23.23,0,0,1-5.22,16.43c-5.58,7.09-14.54,12-21.57,18.18C2831.25,1371,2820.13,1350.52,2841.61,1334.63Zm115.26-124.33.76,2.31-5.56,2.31-1.27-3.08Zm-73,340.93a16,16,0,0,0-1.26,3.08l-21.74-3.59c2.28-6.15,3.29-12.82,5.81-13.59C2879.53,1533.29,2875.23,1549.44,2883.82,1551.23Zm302,58.45,3.54-5.13a148.25,148.25,0,0,1,14.66,10c.51.51-2.53,5.38-3.79,8.2Zm6.07,39c-.51,1.28-1.26,2.31-1.77,3.59l-214.79-38.51-31.41-5.63-54.07-9.69c1.26-6.15,2-10.51,3-15.13a38.36,38.36,0,0,1,6.07.26l45,8q40.83,7.26,81.66,14.86c47.77,9.23,95.54,18.46,143.31,28.71.15,0,.3.09.46.12C3177.28,1637.13,3184.24,1644.11,3191.93,1648.64Zm-190.19,57.93a94.25,94.25,0,0,1-11.51-7.94,10.37,10.37,0,0,1-1.66-2.22,8.74,8.74,0,0,1-1.12-4.19c-1-12.82-1.52-25.89-2-39.22l22,4.61c-16.05,15.84-15.43,33.52,0,44.49a47,47,0,0,0,9.84,5.24c.37.16.75.29,1.13.43,7.57,3,16.21,4,24.39,5.72a85.53,85.53,0,0,0,14.16,1.8C3036.54,1719.43,3018.27,1716.21,3001.74,1706.57Zm-34.51-67.41c-7.64-2.93-15.42-5.49-23.27-7.82-28-8.32-57-13.58-85.41-20.38-8.34-2-11.88-5.64-10.11-16.15l95.52,17.11,33.3,6,17,3,5.81,1c3.28,6.15,5.31,14.1,7.58,14.1a15.58,15.58,0,0,0,7.21-2.34c2.4-1.31,4.8-2.92,7.2-4.07a16.34,16.34,0,0,1,2.73-.58c6.59-.78,9.47,3.92,11.85,9.38.8,1.83,1.54,3.74,2.35,5.56a13.73,13.73,0,0,1-.25,10.51c-.76,1.53-6.32,1.53-9.1.51C3009.44,1647.61,2988,1646.85,2967.23,1639.16Zm-113.49-70.75-13.14-1.54.51-5.13,13.14,1.8Zm-7.07-21.28,5.3,2.82.76-.26-.25.26-9.35,5.13Zm198.16,98.43c4.8-12.81,13.39-10.25,23.25-7.69C3062.27,1650.43,3057,1652.23,3044.83,1645.56Zm-172.38-56.13-16.94-3.34c1.77-9.74,3.29-17.68,5.06-27.17l17.19,7.44C2876,1574.3,2874.22,1581.48,2872.45,1589.43Zm24.79-151.67c11.45-7.83,23.27-11,35-9.39,8.27,1.11,16.52,4.55,24.59,10.33,15.16,10.77,28.31,25.12,42.21,37.68l-2.78,4.1a189.28,189.28,0,0,0-23.7-15.32,138.39,138.39,0,0,0-22.39-9.73c-21.63-7.15-45.05-8.31-71.19-.84A92.69,92.69,0,0,1,2897.24,1437.76Zm55.08-28.8a56.5,56.5,0,0,1,7.83-2,59.56,59.56,0,0,1,19.37-.32c14.34,2.16,26.36,9.57,29.67,20.26Zm-27.93-212.8c.51.88,1,1.81,1.52,2.78,1,1.84,1.92,3.83,2.9,6l-32.6-24.35C2909.31,1178.85,2916.93,1183.06,2924.39,1196.16Zm-17.86,20.92-1.22-1.14,3.28-2.82,3.09,3.43,5,5.54-1.46,1.49-.81.82-.65-.59Zm48.81-21.35-.24,1-.66-.16-24.87-5.74c.25-1.28.51-2.82.76-4.36l25.53,7.18Zm92,9.45.28-.26.25.26Zm-4.53,6.4c-17.18,23.33-34.37,26.41-59.39,10.51-17.44,11.28-36.4,18.72-57.88,17.44-14-1-25.84-5.7-34.32-15.47a47.1,47.1,0,0,1-5.58-8.08c-.73-1.32-1.42-2.69-2.06-4.14a8.77,8.77,0,0,1-.58-4.16c.1-1.45.39-3,.64-4.5a28.88,28.88,0,0,0,.44-3.39c2.78,3.08,7.08,5.39,8.09,9a38.07,38.07,0,0,0,3.24,8.33,26.51,26.51,0,0,0,6.08,7.61c5.71,4.89,13.37,7,22.53,7.39a74.35,74.35,0,0,0,52.6-16.31,75.2,75.2,0,0,0,8.06-7.53,99.54,99.54,0,0,0,12.18,6.6c14.6,6.52,29.54,7.58,44.94-4,.5-.51,1-1.13,1.5-1.71C3043.13,1209.94,3043,1210.76,3042.8,1211.58Zm-117.22,680.79c-12.77-23.39-24.19-47.72-37.46-71l28.31,16.92c-7.76-26.62-15.17-52.72-18.77-78.77-4-29.14-3.27-58.21,7.14-87.85l5.56-1c8.59,27.43,18.71,54.6,25.78,82.55.52,2.1,1,4.21,1.46,6.33,4.48,20.61,6.41,42,9.16,62.88a129.81,129.81,0,0,1,.56,16.37c0,2.49,0,5,.2,7.47,1,13,1.26,26,3.27,38.55.09.56.17,1.13.26,1.69,3.29,19.48,8.35,39,12.9,58.45l-3,1.28C2947.12,1929.62,2935.91,1911.3,2925.58,1892.37Zm66.93,70.28c-.13-1.23-.29-2.46-.46-3.68-1.47-11-4.35-21.62-6.62-32.46l-.21-.92c-7.21-31.79-14.42-63.57-21.39-95.36a28.37,28.37,0,0,1,4.92,5.54c10.61,21,22.75,41.78,31.59,63.57,7.58,18.71,11.38,39,16.68,58.44a21.26,21.26,0,0,1-.25,9c-2,14.36-7.58,29,3.54,42.81C3002.62,1999.82,2994.53,1984.44,2992.51,1962.65Zm76.83-142.71c-5.54-3.65-10-8.2-11.88-12.88,4.51-2.36,14.66-2.44,24.27-1a75.5,75.5,0,0,1,11.07,2.39c4.51,1.37,8.08,3.1,9.65,5,4.05,5.13,4.3,10.51-3,13.33-.28.12-.58.21-.87.31C3090.79,1829.61,3078.6,1826,3069.34,1819.94Zm106.16,23.26c-15.67-3.59-31.85-4.61-48-5.9-6.5-.44-11-3.06-13.22-7.27-1.65-3.17-2-7.23-.94-12a19.9,19.9,0,0,0-2.78-13.59c-4.29-6.41-9.35-12.81-14.4-19-5.6,0-10.18.24-14.32.28a60.2,60.2,0,0,1-9.44-.53,54.07,54.07,0,0,1-18-5.39,12.51,12.51,0,0,1-3.54-2.89c-1.8-2-3.41-4.5-5.3-6.59,3.53-1.28,6.82-4.1,10.11-3.85,9.09,1,18.19,3.85,27.29,4.88a248.82,248.82,0,0,0,33.87.76c2.28,0,4.3-5.89,6.57-9.22-10.11-6.93-13.39-16.41-7.33-29.74-9.85,2.82-17.69,3.08-23,7.18a2.91,2.91,0,0,0-.31.3c-2.31,2.47-.71,10.51-.95,17.39l-49.29-14.87c.9-.42,1.79-.8,2.67-1.17,8.72-3.6,16.7-4.64,24.67-6.47l.21,0a135.27,135.27,0,0,0,23.69-7.06l.32-.12c7.33-3.33,14.16-8.46,21.24-12.82-.26-1.53-.76-3.33-1-4.87-6.86-2.32-13.31-4.84-20.09-6.63-.71-.19-1.43-.37-2.15-.54-16.43-3.85-33.11-6.41-49.29-10.77-3.44-1-6.36-3.51-9.29-6.13-1.58-1.42-3.18-2.87-4.86-4.12.76-1.29,1.26-2.82,2-4.11,6.57-.51,13.4-1.53,19.72-1,22.24,2.05,44.23,5.64,66.47,7.18,18.71,1.28,38.42,4.1,56.37.51,14.85-3,27.1-1,39.34,4.1,2.55,1.07,5.1,2.26,7.67,3.59,10.36,5.38,13.65,11.79,7.08,23.33-13.65,23.58-16.18,49.73-17.19,76.38a141.34,141.34,0,0,1-8.34,38.2C3197.74,1842.69,3188.64,1846.28,3175.5,1843.2Zm563.85-667.4.05-.1.25.51Zm-94.51-87.92a40,40,0,0,0,4.32,1.94c6.83,2.57,14.16,2.57,21.23,3.85-1.6-6-3-11.88-4.57-17.88-.16-.62-.31-1.23-.48-1.86l.5-.51-.25.77,1.63,1.77c4.89,5.22,10.2,10.15,14.3,15.92,6.48,9.2,12.55,18.67,18.62,28.13,2.21,3.44,4.42,6.89,6.65,10.32l3-1.8c-1-2.11-2.13-4.22-3.23-6.34a135.4,135.4,0,0,1-5.87-12.37c-3.53-8.46-6.57-17.43-9.85-26.15q1.76,1.38,3.44,2.84a110.89,110.89,0,0,1,21.53,25.77,195.74,195.74,0,0,1,12.06,23.06l.63,1.39c4.71,10.93,6.84,23.27,9.55,35.06l.81,3.4-7.75-10.51-18.54-25.13c-4.82-.72-8.75-.69-12-1.24a14,14,0,0,1-3.69-1.06c-13.44-6.28-26.54-12.93-39.72-19.63l-7.29-3.7a13,13,0,0,1-5.56-4.87c-5.31-9.48-10.36-19-15.42-28.45C3635.25,1082.2,3639.87,1085.35,3644.84,1087.88Zm-97.28-129.56-.51-.51.72.18Zm-341.73-31a13.82,13.82,0,0,1-12.64-1c-2.52-2-2.78-7.95-2.78-12.3,0-2.24.88-4.37,2-6.84.66-1.5,1.4-3.11,2.07-4.95,1.72,1,3.41,1.9,5.08,2.81,6.2,3.35,12.09,6.31,17.67,9.75,8.08,5.12,15.41,6.66,24.77,2,4.29-2,10.61.25,15.92.51,0,1.79-.25,3.59-.25,5.38-5.82,7.69-13.91,10-22,5.39C3225.29,922.18,3216.19,921.67,3205.83,927.31Zm-85.68-345.8-.76.25-.25-.77Zm4.8,16.92h-45.5C3090.07,585.1,3105.49,584.84,3125,598.43Zm.25-9.75c.26-1,.76-2,1-3.07l17.95,5.64-1,2.56Zm-31.59,30.25a9.33,9.33,0,0,1-1.27,2.82l-2.52-1.28a9.94,9.94,0,0,1,2-2.56C3092.09,617.65,3093.61,618.68,3093.61,618.93Zm3.54-11.53c5-9.23,14.91-4.36,21-1.54l-8.85,18.71C3101.19,621.5,3092.6,616.11,3097.15,607.4Zm18.7,14.87,22.5,5.12,1.26,3.59-12.39,8.46ZM3155,636.88l.25,5.89-16.43.77c0-1.79-.25-3.59-.25-5.38Zm150.13,62.8-1.3-.59-2.72-1.21-28.58-12.81-.25-3.85c5.3-.25,11.37-2.56,15.67-.77C3296.32,684,3305.92,688.14,3305.16,699.68Zm16.94,67.93c.25,10.25-5.31,21-9.61,31-1.26,2.56-7.58,2.56-11.62,3.58a41.35,41.35,0,0,1,.5-11.27c.76-3.08,3.54-5.39,6.07-8.46l-6.56-4.44-4.06-2.74c11.63-19,9.35-37.68-4.29-54.86l15.1-1,7.64-.52C3317.55,733.52,3321.85,750.43,3322.1,767.61ZM2989,645.08l3.54.77a81.18,81.18,0,0,1-2.53,13.58c-.25.77-5.06,0-8.85,0C2984.42,653.54,2986.69,649.18,2989,645.08Zm37.66,93.82c2.78-1.8,2-9.49,2.27-14.36.26-4.1-1.26-8.46-.5-12.56,1.87-9,4.39-18.05,6.56-26.67q.27-1,.51-2l1,.54,18.71,10c10.81-15.35,14.78-19.63,23.62-20.87,1.49-.2,3.12-.33,4.94-.4,4.3,0,8.59,2,12.89,3.07-1,3.85-2,7.69-2.78,11L3105,700.45l-8.09.25-8.34.26c.26,2.31.26,3.08.51,3.08a83.88,83.88,0,0,1,13.54,5.76c8.69,4.74,15.69,11.18,20,20.33a48.09,48.09,0,0,1,3.91,13.38c.25,2,4.8,4.36,7.83,5.13,21.23,6.41,42.72,12.3,63.95,19.22,5.56,1.8,11.88,5.39,14.91,10,14.41,22,32.1,34.35,59.65,29.22a7.73,7.73,0,0,1,4.34.68c4.6,1.9,10,6.93,11.84,11.12,3.54,7.69.25,15.12-10.11,17.68-18,4.36-35.14,4.1-50.81-6.92-3.53-2.56-7.33-4.36-10.86-6.66-8.85-5.64-16.18-4.87-22.5,4.61a89.25,89.25,0,0,1-15.92,17.94,18.88,18.88,0,0,1-14.66,3.34c-2-.52-3.54-8.72-3.29-13.33a86,86,0,0,1,1.44-10.76c1-5.64,2.3-11.29,2.61-16.93,1-14.48-5.27-20.72-18.46-19.42-.58.06-1.16.11-1.77.2-6.31.77-12.38,1.79-18.7,2.56-21.74,2.56-41.45,7.69-50.8,31.27-1.27,3.08-7.08,5.64-10.87,5.9-4.8.26-9.86-1.54-16.94-2.82,0-5.27,1.36-12.34.88-19.07a26.61,26.61,0,0,0-1.38-7.08c-4.55-13.33-12.64-25.37-20-37.42C3022.08,754,3014,747.36,3026.63,738.9ZM3122.87,1093c1.62,1,3.24,2,4.86,3l-2,3.33-2.79-1.58-10.36-5.85,2.28-3.85C3117.52,1089.63,3120.19,1091.32,3122.87,1093ZM3006,1018a6.52,6.52,0,0,1,.7.17,4.9,4.9,0,0,1,1.94,1,232.3,232.3,0,0,1,20.48,18.71l.09.09c5.78,5.71,11.64,11,18.42,14.77a42.56,42.56,0,0,0,18.14,5.39c12.38.77,12.13,2.31,4.54,11.53a52.67,52.67,0,0,0-2.78,6.67c-20-12.82-39.43-20.51-58.38-4.36-3-9-5.91-17.31-8.52-25.46-1.78-5.57-3.44-11.06-4.88-16.58a13.8,13.8,0,0,1,3.29-10.76,5.43,5.43,0,0,1,3-1.22A12,12,0,0,1,3006,1018ZM2865.12,956c11.12-3.08,24.26-1.29,36.14.25,24.6,3,47.74,10.1,64.27,29.87a74.63,74.63,0,0,1,4.73,6.28h.21c-3.54.75-9.06.51-10.06,2.55a171.65,171.65,0,0,0-6.32,21.53c-6.32-1.28-13.9-2.31-21.23-3.84-18.71-4.1-37.92-5.9-52.07-22.3l-.37-.41c-4.62-5.05-12.75-6.64-21.37-11.13,0,.69.09,1.34.13,2,.42,6.61.63,9.82.63,9.82l-29.95,20.47-28.18,19.26-2-2.3c8.09-9.49,15.68-20.25,24.52-28.46,1.55-1.43,3.17-2.79,4.81-4.12,7.76-6.26,16.47-11.53,25-17.67-10.29-6.1-18.4-3.68-26,.21s-14.89,9.41-23.29,9l3.29,7.69c-5.31-.77-9.86-2.82-10.37-5.89a10.78,10.78,0,0,1,5.31-9.23c8.16-3.37,16.33-6.87,24.54-10.22q5-2.07,10.11-4C2846.67,961.82,2855.82,958.6,2865.12,956Zm-78.36,49c0,2-1.77,3.84-3.53,6.92l-5.56-5.9c1.51-1.54,3-3.84,5-4.36C2783.73,1001.13,2786.76,1004,2786.76,1005Zm4-10.26,7.08,6.67-2.53,2.82-7.08-6.67ZM2759.47,1402c-.76,2.31-4.81,3.85-7.33,5.9l-1.77-1.8c-1,4.11-2.28,8.46-3.29,12.57l-4-.52c.5-6.66-1-14.1,1.77-19.74,9-17.68,19.16-34.63,28.89-52a13.65,13.65,0,0,1,2.45,1.81C2770.84,1366.16,2765.53,1384.1,2759.47,1402Zm-47.52,163a6.69,6.69,0,0,1-1.52,1.29c0-.26-.25-.52-.5-.77.5-.52,1-.77,1.51-1.29Zm-3.54-28.45-5.31,5.13-2.27-3.34,6.06-4.1Zm-7.58,63.06,4.55-5.64,3.28,2.82-5.3,4.61C2703.1,1601.73,2702.09,1600.7,2700.83,1599.68Zm36.14-19.74c.25,14.61-7.08,17.69-18.45,20.51Zm1.93,61.51c-9.06-1.09-16.59-11.57-18.1-25.37-1-9-.26-10.51,9.35-13.32C2727.39,1617,2725.64,1631.21,2738.9,1641.45Zm-9.26-118.67-3.54-3.59,38.93-36.91,3.28,2.82C2761.49,1509.19,2748.85,1521.5,2729.64,1522.78Zm131.94,369.64c2.93-1.1,6.79,1,10.74,3.42,2,1.25,4,2.6,6,3.71.5.29,1,.57,1.49.81-.51,1.54-1,3.08-1.52,4.62l-33.36,13.58c.45-7.49,2.53-14.14,6.38-19A20.85,20.85,0,0,1,2861.58,1892.42Zm9.17,46.86a45.44,45.44,0,0,1-8.42,1.64,83.26,83.26,0,0,1-14.89,0c.36-11.2,8.4-22.59,18.69-25.14,10.11-2.56,17.19,3.08,23.25,10.26A35.34,35.34,0,0,1,2870.75,1939.28Zm33,93.35c-.76,5.9-1.52,11.79-2,17.43s-2.78,12.05-1.27,17.18c5.56,18.71,14.66,35.37,29.58,48.19,10.86,9.48,21.73,19,32.35,28.45a91.42,91.42,0,0,1,6.57,7.44l-2,2.56c-3-1-6.32-1.28-8.6-3.08-14.66-11.53-30.33-22-42.71-35.63s-23.56-28.1-26.42-45.62c-.19-1.14-.35-2.29-.46-3.45a57,57,0,0,1,1.86-20.65c.11-.33.24-.65.36-1a88.4,88.4,0,0,1,6.46-13.89Zm604.13-183.38c-1.08-6.32-1.83-11.94-4.6-16h0c-7.84-11.54-17.69-21.28-26.79-32-5-5.75-9.66-11.65-12.87-18.63a48,48,0,0,1-4.32-22.64c29.29,28.22,53.63,58.34,89.4,73.77q1.92.83,3.87,1.59c-5.31,16.92-24.77,25.38-43.22,21.28C3508.77,1854,3508.33,1851.59,3507.92,1849.25Zm102.73,287.25c8.16,7.11,10.94,12.12,8.84,18.2-1.17,3.39-3.86,7.12-8,11.74-1-11.28-1.77-20-3-31.78C3609.24,2135.29,3610,2135.9,3610.65,2136.5Zm43.82-121v45.58h-5.31c.76-18.2,1.77-36.4,2.53-54.6h2.78Zm-1.85-71.83c3.37,2.78,8.14,5.67,7.92,8-1,8.22-3.17,16.28-5.28,24.44-.53,2-1.05,4-1.55,6.06h-2.27l-2.53-37.16,2.53-2.31C3651.8,1943,3652.2,1943.34,3652.62,1943.68Zm-1.69,130h2.53c0,.63.09,1.26.13,1.9,1,14.23,2.17,28.47,2.65,42.7a1.34,1.34,0,0,1,0,.2c0,1.75-3.1,3.72-4.8,5.7-1.27-2.31-3.29-4.62-3.54-6.93a160,160,0,0,1,.25-19C3648.91,2090.05,3650.17,2081.59,3650.93,2073.65Zm-.15,62.37c1.09-1.1,2-1.88,2.93-1.88,1.64,0,3.49,2.86,5.16,4.7l.4.43a51.94,51.94,0,0,1-6.82,5.9c-.51.25-3-2.82-5.31-5.39C3648.52,2138.51,3649.71,2137.11,3650.78,2136Zm168.74-443a114.72,114.72,0,0,1-6.07-10.77c-4.55-11.28-6.82-24.35-13.9-33.84-20.22-27.94-40.19-56.39-64-80.74-40.44-41.27-69.25-90-96.55-139.71-9.35-16.91-15.42-35.88-22-54.34-2.27-6.15-1.26-13.33-1.77-20l2.4,1.3,18.33,10a3.66,3.66,0,0,1,.76,1c23.5,42.55,53.58,80.23,82.9,118.68,29.83,38.71,53.33,82.8,79.37,124.58a28.14,28.14,0,0,1,3.53,7.95q3.16,9.95,6.19,20,3.9,12.88,7.72,25.85c2.78,9.49,5.56,18.72,8.08,28.2Z"/><path d="M3793.74,1353.85c-2-12.3-4.8-24.35-5.31-36.65-1.26-23.07-6.57-43.58-24.52-59.22-2.77-2.69-5.49-5.5-8.11-8.38s-5.15-5.84-7.56-8.79c-7.07,38.7,32.1,175.33,64.71,226.86q-4.12-24.14-8.13-47.9C3801.09,1397.7,3797.41,1375.77,3793.74,1353.85Z"/><path d="M2725.11,1394.66a5.08,5.08,0,0,0,1.84-2.24l.12-.36Z" fill="none"/></g><g id="Max_Payne_1_Cover" data-name="Max Payne 1 Cover"><path d="M612.93,918a19.68,19.68,0,0,0-3.9,15.8c7.2-3.5,15.1-7.6,23.9-12.5,6.5-3.6,13-7,19.6-10.4,2.1-1,3.2-3.1,3.5-6.1Q628.24,898.16,612.93,918Z"/><path d="M705.53,815.56c0-.1-.2-.1-.5-.1a38.28,38.28,0,0,1-12,2h-1c-3.1-2.2-7.1-3.5-12-4h-1c-11.8-11.3-26.6-19.1-44.4-23.6a43.84,43.84,0,0,0-8.6-1.4c-8.1-.5-12.5.8-13,4,3.4,2.7,4.2,5.4,2.2,8.1a2.56,2.56,0,0,0-.2.9,21.78,21.78,0,0,0-12.2,4.7,1,1,0,0,1-.8.3c-.6,17.6,9,27.3,28.9,28.9.1,0,.4.4,1,1.2.4.6.7,1.2,1.1,1.9.1,5.1-3.2,6.2-10.1,3.2a1.35,1.35,0,0,0-.9-.2,60,60,0,0,0,18.8,17.3,1,1,0,0,1,.2.7q30.11-1.65,54.1-13.8c.2-.2.5-.2.9-.2a48,48,0,0,1,19.8-17.4.86.86,0,0,0,.2-.6C710.43,825.66,706.93,821.76,705.53,815.56Zm-54.6,12.2c-1.4,7.2-5,9.2-10.9,6-1.7-.3-2.2-1.6-1.5-3.8,3.5-10.9,7.7-11.9,12.5-3.2C651,827.06,650.93,827.36,650.93,827.76Z"/><path d="M932,2201.86a4.19,4.19,0,0,0-1-.1c-3.9-2.8-5.9-7.1-6-13v-1c-3.9-2.1-4.1-4.3-.8-6.8a1.69,1.69,0,0,1,.8-.2c4.9-.9,12.6-.9,23-.1a2.82,2.82,0,0,0,1,.1v-32c-2.8-3.3-4.4-7.6-4.9-13a3.69,3.69,0,0,1-.1-1q-10.35-14.7-11.7-39.9a67.67,67.67,0,0,0-3.3-18.1c-.7-2-1.4-4-2-6,.1.1-.4-11.3,0-11.3a210.55,210.55,0,0,0,18.3-26.8c.1-.2.3-.2.7-.2a24.51,24.51,0,0,1-7.4-11.9c-.1-.1-.3-.1-.6-.1-1.1-15.3-1.4-31.3-1-48v-.7a23.24,23.24,0,0,1,6.7-10.3.76.76,0,0,0,.3-.7v-15c3.3-3.7,5-9,5-16v-1c2.51-2.28,5-4.63,7.4-7q41.7-40.62,68.2-97.3c4.6-9.8,9.4-19.5,14.6-29.1q6.93-12.9,13.67-25.93,21.67-41.79,41.6-84.68c1.34-2.89,2.7-5.78,4-8.69,11.9-26,22.7-52.7,32.3-80.4q15.56-45.09,23.2-97.9-2.13-26.73-11-46.71a90.46,90.46,0,0,0-28.79-36.59,1.53,1.53,0,0,1-.2-.7c1.53-5,3.2-10,5-14.93q3.16-8.86,6.83-17.57a166.83,166.83,0,0,1,16.2-29.5,100.4,100.4,0,0,1-3-28v-1.3c-.25-.39-.48-.8-.7-1.21a25.93,25.93,0,0,1-2.72-8.07,41.75,41.75,0,0,1-.58-5.72v-1c-1.75-1.33-3.58-2.56-5.44-3.72a70.62,70.62,0,0,0-12.66-6.18,3,3,0,0,0-.9-.1c2.8,2.2,5.5,4.4,8.2,6.7a1,1,0,0,0,.8.3,42.47,42.47,0,0,1,3.5,15h-.5c-6.4,6.3-16,9.8-28.9,10.4a24.36,24.36,0,0,0-9.2,2.4c-2.7,1.4-5.3,2.8-7.9,4.2-2.24-.29-4.49-.49-6.74-.66a127.48,127.48,0,0,0-13.26-.34h-1a59,59,0,0,1,5-15.63,47.07,47.07,0,0,1,4.66-7.57,1.11,1.11,0,0,0,.3-.8c-2.63,1.13-5.31,2.15-8,3.06a105.54,105.54,0,0,1-13,3.44v-.5c-2.61-7.92-1.66-14.79,2.86-20.46a25.36,25.36,0,0,1,2.24-2.44c5.4-5.3,11.1-10.3,16.9-15.1,14.3-1.7,23.7,1.5,28.1,9.4a7.21,7.21,0,0,1,.9,3.6c-.7,3,2.2,3.8,8.9,2.5a1.18,1.18,0,0,0,.1-.5c-1.3-17.1-8.4-28.3-21.1-33.8a1.5,1.5,0,0,0-.9-.2,157.66,157.66,0,0,0-5.65-17.87c-.41-1.08-.81-2.16-1.25-3.23a2.71,2.71,0,0,1-.1-.9,139.14,139.14,0,0,0-14.1-7.8,1.35,1.35,0,0,0-.9-.2q9.62-25.65,19.57-50.85,5.58-14.16,11.23-28.25a2.74,2.74,0,0,0,.2-.9c-12.29-3-22.08-8.58-29.45-16.58a54.15,54.15,0,0,1-7.95-11.22c-.1-.2-.3-.2-.6-.2.4-16.3,4.4-28.9,11.8-38,2.7-3.1,5.2-6.4,7.6-9.7,6.8-9.2,11.9-20,15.6-32.3a22,22,0,0,1,.47-18,33.09,33.09,0,0,1,3.43-5.78,214,214,0,0,0,22.1-37.2c-5.7-5.45-11.68-10.7-17.8-15.76q-2.09-1.73-4.2-3.44a4.37,4.37,0,0,1-1.3-2.8c-.3-1.4.2-2.1,1.3-2-3.8-8.3-10.1-12.3-19-12h-1c-4.7,3.2-10.1,3.3-16.1.2a1.35,1.35,0,0,0-.9-.2c-5.5.8-9.8,2.9-12.8,6.2a1.51,1.51,0,0,0-.2.8c-.2,6.6-.5,14.6-1,24v1q-27.33,49.35-54.8,98.24-4.61,8.19-9.2,16.36c-5,8.9-10.4,17.4-16,25.4a28.77,28.77,0,0,0-7.1,2.8,2.56,2.56,0,0,1-.9.2q-28,50.05-58.7,97.9c-1.1,1.8-3.6,2.5-7.3,2.1-4,3.5-3.8,6.9.7,10.3.2.1.3.3.3.7q-1.8,11.7-7.8,19.2a1.51,1.51,0,0,0-.2.8,108.74,108.74,0,0,1,7.9,21c0,.3.1.6.1,1-6.1,4-9.4,9-10,15v1c1.2,2.4,3.9,3.4,8,3h1a37.35,37.35,0,0,1,14.1-7.9,2.5,2.5,0,0,1,.9-.1c8.8,4.1,13.6,12.4,14,25v1c-4.1,5.2-6.6,11.9-7.5,20h.5a30.64,30.64,0,0,0,13,3h1a448.43,448.43,0,0,1,22.4,41.8c0,.1.2.2.6.2a373.37,373.37,0,0,1-12.1,76.7,127.13,127.13,0,0,0-3.6,20.3c-2,22.5-.6,43.1,4.3,62.1.4,1.7-.2,2.7-1.6,2.9a469.69,469.69,0,0,1-34.6-55.2,954.72,954.72,0,0,0-68.6-110.4c-3.7-5.1-8-6.6-12.8-4.4-4.5-2.6-5.7-5.2-3.7-7.8a1,1,0,0,1,.7-.2,47.49,47.49,0,0,1-3-15v-1a409.81,409.81,0,0,1-68.3-88.3c-5.8-10.1-11.9-20.2-18.1-30.1a418.08,418.08,0,0,0-34.6-47.6,146.44,146.44,0,0,1,10.1-34.4c4.6-10.7,9.4-21.4,14.2-32q13.24-29.55,43.1-43.8a61.21,61.21,0,0,0,19.8-14.7c8.1-9.2,13.7-20.6,16.8-34.3,3.1-14.4,9.1-25.7,18-33.8a76.55,76.55,0,0,0,9-1.9,3.37,3.37,0,0,1,1-.1q44.1-33.8,62.4-93.2a524.8,524.8,0,0,1,21.6-57.8q11.4-5.25,12-21v-1c3.4-.6,4.5-1.9,3.2-4.2a2,2,0,0,1-.2-.8c-2.9-4.5-4-8.8-3.5-13h.5a27.43,27.43,0,0,1,7.2,3.7,1,1,0,0,0,.8.3,50.55,50.55,0,0,0,5.3,10.7c.1.2.3.3.7.3a44.52,44.52,0,0,1,4-16.5v.8c2.1,3.2,4.1,4.7,5.9,4.5.1,0,.1-.2.1-.5-3.4-7.3-3.4-14.4-.2-21.1a2.74,2.74,0,0,0,.2-.9,111,111,0,0,1,10.4,15.8c0,.1.2.2.6.2-3.6-7.5-7.2-14.9-10.8-22.1a1.48,1.48,0,0,1-.2-.9c4,.3,8.3,1.8,13,4.5v-.8a78.61,78.61,0,0,1-14.6-26.2c-.3-.9.2-1.2,1.6-.8a14.68,14.68,0,0,0,7,6.5v-.5a14.42,14.42,0,0,1,8.86-3.42,18.36,18.36,0,0,1,5.94.82c.1.1.2.2.2.6,1.4-1.5.3-3.6-3.5-6.4s-4.3-5.7-1.5-8.6c5,3.4,7.2,3,6.5-1h.5c4.1-1.6,8.4-3.1,12.8-4.5.1,0,.2-.2.2-.5a101.33,101.33,0,0,1-20-19.3c-3.4-4.3-2.5-6.6,3-6.7,1.7-1.5.8-3.7-2.8-6.6a4.49,4.49,0,0,1-1.4-3.4c-.1-1.2-1-1.5-2.8-1a27.11,27.11,0,0,1-4.6.66c-3.94.14-4.32-1.63-1.1-5.46a1,1,0,0,1,.7-.2l.4-.05c6.19-1,10.76-.4,13.6,1.65,1.5,1.2,2.9,1.3,4,.4-6.2-2.3-7.5-4.5-3.9-6.8a2.56,2.56,0,0,1,.9-.2c4.1-.1,7.4-2.4,9.9-7.1.7-1.2-.3-1.2-2.9.1-2.3-.7-2.8-2.4-1.5-5H976a125.24,125.24,0,0,1-19.6-5.58A89.83,89.83,0,0,1,934,647.76c-2.6-1.9-5.2-3.9-7.6-5.9-1.8-1.4-2.3-2.9-1.4-4.4-5-.9-6.7-3.9-5.2-9.1a2.74,2.74,0,0,0,.2-.9,41.34,41.34,0,0,1-15.1-4.8,1.5,1.5,0,0,0-.9-.2,15.61,15.61,0,0,0-3.8-5.3,1.15,1.15,0,0,1-.2-.7c-4.83-2.37-9.7-4.71-14.57-7Q850,592.49,813.23,577.06c-.2-.1-.2-.3-.2-.6q-9.57-.94-19.08-2.37-11.67-1.73-23.22-4.13a102.14,102.14,0,0,0-29.8-1.9c-15.4,1.2-31.1,2-46.9,2.4a25.39,25.39,0,0,1,10.8-11.6,73.44,73.44,0,0,0-21.7,11.4c-2.8,2-6.5,3.1-11.1,3.2a17.25,17.25,0,0,1-6.8,5.4c-.2,0-.2.2-.2.6-8.1-2.3-13.3-1.7-15.4,1.8-.1.1-.2.2-.6.2-.8-.9-1.6-3.2-2.5-6.9,0-.1-.1-.1-.5-.1-.6,4.3-2.6,7.5-5.8,9.3-.2.1-.2.3-.2.7,3,14-2,23.3-15.1,27.8a2.15,2.15,0,0,1-.9.2c-5.8-2.7-8.8-2-9,2v1c-7.9,2.9-15.2,3.8-22,2.5l.9.6a4.56,4.56,0,0,1,1.1.9q9,6-3,6h-1c1.9,2.2.9,4-2.9,5.4-.1.1-.1.2-.1.6-7.7.6-12.3,2.3-14,5l.9.3a2.29,2.29,0,0,1,1.1.7c-.6,6.1-3.8,11.1-9.5,15h.5c3.8-2.1,6.3-2.5,7.4-1.4,1.5,1.6,4,2.4,7.6,2.4a8.57,8.57,0,0,0-4.9,6,3.1,3.1,0,0,0-.1,1c1.5,5.3.1,9.3-4.2,11.8a1.72,1.72,0,0,1-.8.2c-.7,7.1-1.4,13.3-2,18.5l1-1.5c4-.3,3.9,2.6-.4,8.7-1.9,2.7-1.7,3.4.4,2.3,4.5-3.5,6.2-3.1,5.1,1a3.1,3.1,0,0,0-.1,1,41.39,41.39,0,0,0-7.9,15,3.1,3.1,0,0,0-.1,1q3.45,3.45,3,6v1c-2.3,3.1-4.5,6.1-6.8,9.2a1.51,1.51,0,0,0-.2.8,28.05,28.05,0,0,0,5.7,14.2,1,1,0,0,1,.3.8c-.5,5.5-2.4,9.6-5.8,12.3a1,1,0,0,0-.2.7q-34.15,12-27.4,62.2a134.11,134.11,0,0,1,.9,23.7c-1.1,17.4,2.4,29.8,10.3,37.1a33,33,0,0,1,8.4,12.3c.6,1.6,1.2,3.2,1.8,4.7,10.8-12.5,13.6-30,8.4-52.3a6.44,6.44,0,0,1,.4-3.8c17.4-42.3,34.6-85.2,51.6-128.4a132.49,132.49,0,0,1,14-26.9,52.39,52.39,0,0,1,22.6-18.6q33,15,66.3,30.4a17.84,17.84,0,0,1,3.2,2.1,53.41,53.41,0,0,0,17.5,9.5,33.14,33.14,0,0,0,6.2,7.7,1,1,0,0,0,.8.3c14.1-.1,24.4,5.3,30.8,16.1a2.36,2.36,0,0,1,.2.9c-6.5,7.5-13.9,11.2-22,11h-1c-4,6.5-3.1,8.7,2.8,6.5.1,0,.2-.2.2-.5,1.6.9.7,3.9-2.8,9.1a2.56,2.56,0,0,0-.2.9c5.1,10.1,14.2,16.3,27,18.6,4.8.8,8.1,2.9,10,6.4-2.3,8.4-6.6,14.8-13.1,19.3-2.2,1.6-4.5,3.1-6.9,4.7a187.28,187.28,0,0,0-48.1,12.8,2.56,2.56,0,0,1-.9.2,214.48,214.48,0,0,1-9,46.7,214.88,214.88,0,0,0-9,46.3c-5.7,5.7-14.3,8.3-26,8h-1c-5-3.4-10-5.1-15-5h-1c-5.3,1.1-8.1,4.4-8.5,10h.5c4.8,2.8,11.1,4.3,19,4.5v.5a253.35,253.35,0,0,1-7,26.3,6.36,6.36,0,0,0,0,4.7q3.75,7.5,10.8,3.6a.86.86,0,0,0,.2-.6c4,0,7.2,2.4,9.8,7.1a1.88,1.88,0,0,1,.2.9c-5.9-.8-11.9-1.5-18-2h-1c-18.1-6.5-37.5-8.7-58-6.5v.5c2.9,7.7,10.5,12.8,22.6,15.5a74.22,74.22,0,0,1,27.4,11.5c-4.4,3.9-9,7.7-13.8,11.3a1,1,0,0,0-.2.7c-5.6,0-9.6,1.7-11.8,5.1a2.56,2.56,0,0,0-.2.9c2.4,9.6,9,15.3,19.9,17a29.79,29.79,0,0,1,9.1,3c2.5,6.3,2.4,12.9-.5,19.8,0,.1-.1.2-.5.2a40,40,0,0,1-16.9,8.4c-.1.1-.1.2-.1.6a61.12,61.12,0,0,1-31.1-5.8,1.35,1.35,0,0,0-.9-.2,49.25,49.25,0,0,0-23.1-20.8,1.35,1.35,0,0,0-.9-.2,397.64,397.64,0,0,1-41.9-71.5c-1.9-4.2-2.5-9.4-1.8-15.5.2-2.5-.2-4.2-1.3-5a119.77,119.77,0,0,0-3.2,27c-.1,9.8-3.7,17.5-10.8,23a134.43,134.43,0,0,0-25-6.9,4.19,4.19,0,0,0-1-.1c-4.4,11.6-10.8,21.2-19.2,28.7a1.12,1.12,0,0,1-.8.3c-3.3-1.4-5.3-4.1-5.9-8a3.69,3.69,0,0,1-.1-1c-9.5-5.9-21.2-9.5-35-11h-1a647.09,647.09,0,0,1-49.8,45.3,1,1,0,0,0-.2.7c-1.8,10.6-6.2,18.5-13.3,23.6a15.37,15.37,0,0,0-5.7,8.4,218.49,218.49,0,0,1-38.1,6.5c-34.6,2.9-65.2,9.9-91.8,20.8-21.1,8.8-39.3,20.5-54.5,35.3q-45.49,44.06-71.3,106.9c-17.6,42.7-34.1,85.7-49.8,129a73.18,73.18,0,0,0-2.8,9.6c-8.9,39.9-16.8,80.2-24,121l-.66,3.93c-2.5,15-4.58,30.6-6.14,46.87q-3.49,34.91-7.5,75.1-8.1,81.75-17.1,162.9-3.59,32.27-6.17,64.37Q1.73,1904,0,1946v264H936.09C937.94,2205.74,936.6,2202.86,932,2201.86ZM1073,1439.46c4.07.28,7.65,2.58,11,7,0,1.3-.2,2-.5,2.1-7.69,1.92-11.52-.87-11.52-8.2ZM545,823.76v.5C543.53,824.26,543.53,824.06,545,823.76Zm17,23c-.4,0-.6,0-.6.2a23.26,23.26,0,0,1-9.4,9.8,1.36,1.36,0,0,1-.9-.3c-9.4-5.9-12.5-15.2-9.1-27.7.3,0,.5,0,.5.1,2.1,9.1,5.9,16.4,11.5,21.9,1.4.4,1.9.1,1.5-.8-4-10.2-1.5-16.2,7.5-18.2v1A55.71,55.71,0,0,1,562,846.76Zm-10-32c-1,0-1.5-.1-1.6-.3a10.86,10.86,0,0,1,.2-5.1c2.9-9.7,7.7-12.6,14.4-8.6v1C566.43,811.76,562,816.16,552,814.76Zm334,717h0c.6,4.3-.3,7.1-2.77,8.4-.9.3-1.4.3-1.6-.2C879.16,1534.06,880.56,1531.26,886.06,1531.76Zm16,254a2.74,2.74,0,0,1-.2.9C900.73,1788.76,900.83,1788.46,902,1785.76Zm34-121.3h-.47c6.4-9.2,12.2-9.6,17.5-1h0c-1.4,5.9-3.8,6.7-7.2,2.3C943.63,1662.86,940.33,1662.46,936,1664.46Zm7,1.3v.5C939.63,1665.56,939.63,1665.36,943,1665.76Zm1,134a2.74,2.74,0,0,1-.2.9c-1.7,5.8-6,6.8-12.8,3.1a5.51,5.51,0,0,1-.69-.83,2.12,2.12,0,0,1,0-2.77h0C935.73,1793.26,940.23,1793.07,944,1799.76Zm132.8-544.1c-6.6,11.9-16.9,20.3-30.8,25.1a2.56,2.56,0,0,0-.9.2,6.64,6.64,0,0,1-.68.42c-2.16,1.15-3.33-.07-3.42-3.62a3.1,3.1,0,0,1,.1-1c.09-.22.19-.43.28-.65,3.22-8.07,8.32-14.26,15.62-18.35a2.15,2.15,0,0,0,.9-.2c7.7-2.8,14-3.7,19.1-2.8A2.74,2.74,0,0,1,1076.83,1255.66Zm-16.9-113.8a26.46,26.46,0,0,1,16.1,15.9v1q.38,11.61-2.61,19.85a28.18,28.18,0,0,1-9.39,13.15,3.13,3.13,0,0,1-.6-.1,46.8,46.8,0,0,1-1.4-13.9,1.88,1.88,0,0,0-.2-.9,45.89,45.89,0,0,0-14.8-16.1v-1q-.45-15.45,12-18A2.74,2.74,0,0,1,1059.93,1141.86Zm-127.4,415.6a237.15,237.15,0,0,1-.47,24,1.09,1.09,0,0,1,.8.2,42.33,42.33,0,0,0,14.2,4.8,2.92,2.92,0,0,1-.7,2.1c-3.2,2.4-7.9,2.7-14.3.9,0-.4-.1-.6-.3-.7-2.2-1.5-4.5-2.9-6.7-4.3a2.56,2.56,0,0,0-.9.2c-5.2,3.3-9.5,4.2-13.1,2.8,0-.4.1-.7.1-1a20.59,20.59,0,0,1,12.9-13c0-.4.1-.7.1-1,1.8-7.4,4.5-12.4,7.9-15Zm-1.77-10q-4.69,4.05-8.7-2.7c0-1,.1-1.5.4-1.6h0c2.5-.8,5.4.4,8.63,3.6A.88.88,0,0,1,930.76,1547.46Zm-30.7-20.7c-.1,6.1,2.6,9.6,7.9,10.6h0c4.5.8,8.9,1.6,13.13,2.4,0,.3-.1.5-.2.5-3.2,1-6.5,1.8-9.8,2.5,0-.4-.1-.6-.2-.6-4.5-2-8.7-4.2-12.8-6.4-.4,0-.5-.1-.5-.1C896.66,1531.06,897.46,1528.16,900.06,1526.76Zm3,217.7v-.5a27.84,27.84,0,0,1,11,5.5h1a57.07,57.07,0,0,1,18,4,2.56,2.56,0,0,0,.9-.2,17.76,17.76,0,0,0,12.1-10.8h.5a35.41,35.41,0,0,0-4.5-16,2.18,2.18,0,0,1-.9-.2c-7.5-4.7-15.3-9.3-23.1-13.8a3.12,3.12,0,0,0-.2-1,33.08,33.08,0,0,0-2.8-6c0-.4-.1-.7-.1-1-1.2-7.6.5-12.3,5.1-14,.3,0,.5,0,.6.2h0a52.4,52.4,0,0,1,3.43,17.8,2,2,0,0,0,.2.8c2.2,3.7,6.2,5.8,11.8,6.2a5.22,5.22,0,0,0,3.9-3.4c2.4-7.3,6.4-9.5,12.1-6.6a2.74,2.74,0,0,1-.2.9,71,71,0,0,0-6.8,16.1c.3,0,.5,0,.6.1a39.74,39.74,0,0,0,5.4,12.9v12c-.4,0-.5,0-.6.1a18.7,18.7,0,0,1-4.4,8.9,2.5,2.5,0,0,0-.9.1c-.63.21-1.25.45-1.85.71a20.79,20.79,0,0,0-6.25,4.19,3.69,3.69,0,0,1-.1,1c-.2,3.7-.6,7.7-.9,12h-1a5,5,0,0,1-4.72-1.43,7.07,7.07,0,0,1-1.49-3.6,26.36,26.36,0,0,1,.21-8c0-.4-.1-.6-.3-.7-3.3-2.8-7.5-4.5-12.7-5.3a3.37,3.37,0,0,0-1,.1,27.74,27.74,0,0,0-11,4.9c0,.3-.1.6-.1.9a23.63,23.63,0,0,1-3.3,8.07,8.51,8.51,0,0,1-3.6,3,3.44,3.44,0,0,1-.57-3,8.81,8.81,0,0,1,.47-1.57A79.64,79.64,0,0,0,903.06,1744.46Zm-31-241.7v-.5c4.2-.2,7.5,2.3,10,7.5q0,2-.6,2.1C873.73,1514.16,870.63,1511.16,872,1502.76Zm-14-49.3a.86.86,0,0,1-.2.6c-5.7,2.9-8.9,0-9.8-8.6h1C852.63,1445.86,855.63,1448.46,858,1453.46Zm-6,21a.6.6,0,0,1-.3.6c-5.1,3.8-10.4,4.2-15.7,1.4h-.5C839.13,1468.86,844.63,1468.26,852,1474.46Zm-32-82h3l1.9-.1c2.8,5.3,8.1,8,16.1,8.1-.9,3.4-3.5,4.8-7.9,4.2a17.11,17.11,0,0,1-9.1-4.2C820.33,1396.86,818.93,1394.26,820,1392.46Zm-6-4.7a.6.6,0,0,1-.3.6Q809.23,1391.36,814,1387.76Zm1,34a2.74,2.74,0,0,1-.2.9,22.67,22.67,0,0,0-2.8,10.1v.5C806.13,1428.46,807.13,1424.56,815,1421.76Zm-17-25c-.7.6-1.1.9-1.3.8C791.73,1394.36,792.13,1394.06,798,1396.76Zm-114-207v1.5Q679.83,1191.26,684,1189.76Zm88-264a.89.89,0,0,0,.7-.3c4.5-5.2,7.6-3.4,9.3,5.3v8a2.74,2.74,0,0,1-.2.9c-.6,2.4-2.2,3.7-4.8,4.1a1,1,0,0,1-.8-.3C772.73,939.76,771.23,933.76,772,925.76Zm6-49v.5C776.53,877.26,776.53,877.06,778,876.76Zm2-1v.5C777.43,876.26,777.43,876.06,780,875.76Zm5-8v2q0,1.5-.3,1.5C780.73,872.06,780.83,870.86,785,867.76Zm6,3q0,1.5-.3,1.5Q783.53,873.76,791,870.76Zm78,49c-.4,0-.5,0-.5-.1-.7-7.9,1.5-13.3,6.5-15.9v1C876.23,912.86,874.13,917.86,869,919.76Zm-56.9-93.7c-3.9-2.6-3.3-3,1.9-1.3C813.23,826,812.53,826.36,812.13,826.06Zm-44.1-3.6V822a16.28,16.28,0,0,0,14-5.5h1a27.55,27.55,0,0,1,9,3c-1.9,5.1-6.2,7.7-13,7.7C770.63,827.06,767,825.46,768,822.46ZM677,968c-4.1,0-3.8-1.1,1-3.2C678.43,966.86,678.13,968,677,968Zm-41.1,213.9q29.4,10,47.1,31.9a1.82,1.82,0,0,1-.2.8c-4.2,7-10.4,8.7-18.8,5.2v-.5c-3.6,3.4-6.4,3.6-8,.5l1-.5a191.57,191.57,0,0,1-22-37.5A2.74,2.74,0,0,1,635.93,1181.86Zm32.1,42.9c0,.3,0,.5-.1.5C664.53,1225.56,664.53,1225.36,668,1224.76Zm-73.8,94.1c4.2-5.8,8.1-11.8,11.8-18.1v-1a81.82,81.82,0,0,0,0-14c.4,0,.5-.1.6-.2,3.3-5.8,8.8-7.7,16.4-5.8.4,0,.5-.1.6-.3a170.35,170.35,0,0,1,16.4-21.7c2.9-17.5.4-32.8-7.1-45.9a125.29,125.29,0,0,1-14.9-39.1c.4,0,.5,0,.6.2,11.9,19.5,23.3,39.5,34.4,59.8,0,.3-.1.6-.1.9-5.3,17.9-.2,28.5,15.1,32.1,0-.4,0-.7.2-.9,4.4-8.6,2.7-18.3-5.2-29.1v-1c.1-2.2,2.8-3.6,8-4,0-.4,0-.6.2-.6l.8-.4c-3.4-3.3-3.1-4.7,1-4,1.8-.2,3-.3,3.8-.4q8.7-1.2,16.2-9.6a3.37,3.37,0,0,0,1-.1,77,77,0,0,1,19,1.1v1q.45,12.6,0,24a61.93,61.93,0,0,1,6.1,15.2,117,117,0,0,1,3.5,20.6q2.67,30.5,4.83,61.91,2,28.76,3.57,58.29v1a192.57,192.57,0,0,1-38.9-16.3l-5-2.7c-11.24-6.12-22.75-12.31-34.34-18.5-7.1-3.8-14.4-7.4-22.1-10.8-15.7-7-27.8-17.2-36.7-30.7A2.56,2.56,0,0,1,594.23,1318.86Zm77.8,118.9a4.46,4.46,0,0,1-1,3q-4.65,4.5-9-3l-1-1C663.43,1434.36,667,1434.76,672,1437.76Zm-132.9-342.3c3.8-12.6,11.1-15.9,21.9-10a.86.86,0,0,1-.2.6,48.82,48.82,0,0,0-11.8,8.4h-.5a92.34,92.34,0,0,1,3.5,23,1.82,1.82,0,0,1-.2.8c-2.2,3.6-4.1,3.6-5.8.2v-1a31.86,31.86,0,0,0-7-21,3.1,3.1,0,0,1,.1-1Zm12.5,39.6c-3.3-2.9-3.1-3.3.4-1.3C552.43,1135.16,552.23,1135.56,551.63,1135.06Zm90.4,288.7v.5C638.33,1423.26,638.33,1423.06,642,1423.76Zm-50-296.3a1.11,1.11,0,0,1-.3.8,124.55,124.55,0,0,0-9.7,15.2h-1c-4.9.5-6.3-2.8-4-10a1,1,0,0,0-.3-.8,78,78,0,0,0-9.7-10.2,3.12,3.12,0,0,0-.2-1c-1.7-6-1-11.1,2.2-15,0-.4,0-.6.2-.6,3.6-2.1,5.6-.9,5.8,3.6a3.69,3.69,0,0,1-.1,1C574.23,1121,579.83,1126.56,592,1127.46Zm-62-68.7a2.56,2.56,0,0,1,.2-.9c4.4-6.8,9.6-8.2,15.8-4.1,0,.3-.1.6-.1.9-2.2,8.9-8.8,13.2-19.9,13.1-.4,0-.7-.1-1-.1a30.07,30.07,0,0,1-15-7.9c0-.4,0-.5.1-.6C514.63,1057.66,521.23,1057.56,530,1058.76Zm-32-43a3,3,0,0,1,.9.1c6.1,1.5,9.8,5.5,11.1,11.9a3.69,3.69,0,0,0,.1,1c1,5,0,8-3.1,9v.5c-3.1-1.9-4.8-5.4-5-10.5a1,1,0,0,1-.8-.3C497.83,1024.36,496.73,1020.46,498,1015.76Zm153,413c-.7,2.6-2,2.9-3.9.8C643.43,1425.76,644.73,1425.46,651,1428.76Zm34,673.07c-22.87-7.9-38-45.42-38-50.37-.1-27.1,1.9-51.5,6-73-5.6-12.5-7.6-28.5-6.1-48a3.69,3.69,0,0,0,.1-1,44.19,44.19,0,0,1,6.7-10.2,1.11,1.11,0,0,0,.3-.8,1144.36,1144.36,0,0,0-.9-169.9c-1-12.8-1.5-26.5-1.6-41.1-.1-59.5,8.5-110.1,26.1-151.6q24.95-59.4,49.1-118.5a11.15,11.15,0,0,1,5.64-6.23,11.51,11.51,0,0,1,1.66-.67q11.25,33.75,12,78c.4,22.8,2,45.7,4.7,68.9q4.6,39.71-13.7,60.1c-3.1,23.8-2.5,49.5,1.8,76.9a442.17,442.17,0,0,0,12,55.07c.88,3,1.77,6.1,2.71,9.13,4.5,14.2,3.6,27.1-2.5,38.9a173.55,173.55,0,0,1-2.4,56.1c-3.5,17.2-7.3,34.1-11.6,50.6,0,.2-.4.3-1,.3-.9,17.4-1.9,34.7-3,52l.58,1.63c6.57,7.42,9.18,18.82,7.92,34.37h.5c1.6,2.4,4.3,3.6,8,3.9a2.82,2.82,0,0,0,1,.1,36.4,36.4,0,0,1,6.4,8.8c0,.1.2.2.6.2v17a82.19,82.19,0,0,1-18.8,15.3c-.2.1-.2.3-.2.7,2.1,6.6,2.1,12.3.2,17.1-.2.2-.2.5-.2.9l1.24,14.27C738.62,2088,708,2109.74,685.07,2101.83Z"/></g><g id="Max_Payne_Logo" data-name="Max Payne Logo"><path d="M1701.49,1892.94a12,12,0,0,1-.23-9.49q26.77-73.5,53.32-147.07c.61-1.7,1-3.48,1.45-5.23l-75.64.26q-10.17,45.75-20.35,91.51l-.78,0c-3.74-13.82-7.45-27.64-11.23-41.45q-6.91-25.23-13.93-50.43l-73.91.2q18.09,47.23,36.2,94.45c7.51,19.55,15.15,39,22.5,58.64a11.64,11.64,0,0,1,.09,7.51q-25.92,69.06-52.18,138c-.29.75-.69,1.47-1.63,3.45-15.56-101.5-30.93-201.78-46.29-302.06l-98.48-.13c-3.16,0-6.32-.08-9.49-.13-1.61,10.66-3.34,21.3-4.81,32q-7.85,56.85-15.54,113.72T1375,1990.43c-2.93,21.25-6,42.49-9,63.73h76c1.16-15.25,2.29-30.49,3.48-45.74.39-4.94.92-9.86,1.39-14.91h39.53q2.8,30.43,5.6,60.65h139c4-11.44,7.85-22.9,11.87-34.32,5.41-15.35,10.92-30.67,16.77-47.11,3.47,8.38,6.59,15.83,9.64,23.3q11.88,29.06,23.72,58.13h74a46.89,46.89,0,0,0-1.59-5.95Q1733.54,1970.54,1701.49,1892.94Zm-250.13,41.45c3.48-46.09,6.94-91.86,10.42-137.92h5.81c4.47,46,8.93,91.8,13.42,137.92Z" fill="#c03c3b"/><path d="M1276.68,1730.66h-6.35l-27.75,169.17-1.21-.06q-3.16-21.55-6.34-43.1-9.09-62.2-18.19-124.4a4.93,4.93,0,0,0-.66-1.29l-86.42.17c-6.72,0-6.73,0-6.73,6.77v316.24h73c-.17-1.64-.47-3.28-.48-4.91q0-91.66,0-183.33v-4.87l1.17-.1c1.41,8.88,2.86,17.76,4.24,26.65q11.93,76.39,23.81,152.79c.72,4.6,1.52,9.18,2.28,13.77h27l31.23-195.82.77.08v195.74h73l0-323.09c-2-.13-4-.39-5.94-.39Q1314.9,1730.64,1276.68,1730.66Z" fill="#c03c3b"/><path d="M2555,1878l-.91.23q-22.17-73.43-44.35-146.84l-66.82-.28c-.15,2.14-.41,4.28-.41,6.42q0,155.13,0,310.26c0,2.13-.31,4.27-.47,6.41h74a41.24,41.24,0,0,1-.47-4.41q0-63.68,0-127.35a7.84,7.84,0,0,1,1.15-4.5c2.29,7.33,4.61,14.66,6.87,22q16.88,54.75,33.69,109.52a33.94,33.94,0,0,1,.77,4.74h70v-324h-73Z" fill="#c03c3b"/><path d="M2220.09,1838.74q-8.15-53.23-16.25-106.48a4.59,4.59,0,0,0-.66-1.28l-90,.18c-6,0-12,.1-18,.16q-11.47,84.78-22.93,169.55-10.09,74.89-20.12,149.81c-.15,1.14-.11,2.32-.16,3.48h75q2.28-30.28,4.56-60.63h39.47c2,20.31,4,40.47,6,60.63h76q-7.25-47.58-14.49-95.15Q2229.34,1898.88,2220.09,1838.74Zm-84,95.53c3.46-45.86,6.92-91.69,10.41-137.94h6.54c4.22,45.92,8.43,91.72,12.68,137.94Z" fill="#c03c3b"/><path d="M2052.78,1782.74c0-2.09-.71-4.75-2.1-6.16-15.07-15.29-30.34-30.38-45.56-45.53l-126.18,0c-.14,2.14-.4,4.28-.4,6.42q0,155.13,0,310.25c0,2.14-.31,4.28-.47,6.42h74a32.74,32.74,0,0,1-.47-3.92q0-50.94,0-101.89c0-1.29.17-2.58.3-4.35,9.86,0,19.47,0,29.09,0,8.15,0,17.13,2,24.22-.79s12.3-10.36,18.3-15.87c8.82-8.1,17.72-16.12,26.33-24.45a10.51,10.51,0,0,0,2.94-6.76Q2053,1839.44,2052.78,1782.74ZM1979.54,1884h-27.77v-92.73h27.77Z" fill="#c03c3b"/><path d="M2785,1791.16v-60l-138.09-.09c-.14,2-.4,4-.4,5.93q0,155.63,0,311.25c0,2,.32,3.94.49,5.91h138c0-20.28,0-40.52,0-60.8-21.28,0-43.6,0-65.18,0V1913.2h55.73v-62.26H2720v-59.78Z" fill="#c03c3b"/><path d="M2335.08,1804.33c-2.24,10.19-4.43,20.4-7.68,30.69q-3.66-14.44-7.34-28.9-9.53-37.47-19.07-74.93l-75.67.18q27.61,84.26,55.25,168.51c.46,1.42.81,2.89,1.4,4.25,7,15.91,8,32.57,7.72,49.74-.58,31.45-.16,62.92-.19,94.38,0,2-.3,3.94-.47,5.91h74c.06-36.16.43-72.31,0-108.46a106.63,106.63,0,0,1,6.45-37.93c20.35-57,40.17-114.16,60.16-171.27.59-1.7.88-3.52,1.31-5.28h-79.84Q2343.1,1767.79,2335.08,1804.33Z" fill="#c03c3b"/></g></svg>