<svg xmlns="http://www.w3.org/2000/svg" viewBox="0 0 1201.12 2160.01"><g id="Layer_2" data-name="Layer 2"><g id="Max_Payne_2_OP_Mask" data-name="Max Payne 2 OP Mask"><path d="M601.12,450c-15.5-6-32.52-14.24-49.34-17.19-13.45-2.58-27.43-3.35-38.77,2.58,3.69,3.6,10.81,8,10,10.56-2.11,8.51-9.23,10.05-17.67,6.44-21.63-9.53-40.88-5.15-59.87,11.08l23.61,2.06v6.21c-6.4-.64-12.78-1.43-19.13-2.6-14.51-2.57-25.06,1.29-36.4,9.8-26.9,19.84-55.12,37.87-82.82,56.69a91.87,91.87,0,0,0-10.55,9.53l2.38,2.58h28.48a14.51,14.51,0,0,1,1.06,3.09c-11.35,5.67-22.42,11.85-34,16.23-10.29,3.61-16.62,12.11-13.71,22.68,2.37,8.76-6.65,34-14.83,38.39-12.92,7.22-16.16,29.91-5.87,40.48,12.13,12.44,27.08,33,41.84,47.07L165.33,872.76a39.3,39.3,0,0,0-9.29,5.77l-4,3.19c-21,15.12-39.35,31.52-60.1,46.91-23.14,16.71-40.31,38.88-57.6,61.69C11.74,1020,12.41,1053.9.44,1085.74a6.87,6.87,0,0,0-.27,4c11.18,32.89,25,86.87,43.57,117.12,5.06,8.22,9.76,14.5,16.67,20.6a327,327,0,0,0,36,27.16c8.24,5.31,4.36,2.48,12.87,7.52,3.73,2.13,4.79,3.16,9.58,5.55-6.88,10-8.07,12-14.64,22.21-44.85,24.19-53.38,64-21.9,103.08,10.64,13.26,9.31,21-1.86,33.43a346.78,346.78,0,0,0-29,39.26c-4.26,6.63-8.25,9.55-17,8.23-15.43-2.39-19.42,4-13.83,18A19.11,19.11,0,0,1,22,1502.79c-1.87,11.15-4.79,21.76-6.92,32.9-1.86,10.61,1.33,18.84,12,23.88,3.46,1.59,5.32,6.37,7.45,10.08,10.9,18.84,22.34,36.61,49.74,37.67l-.08,0,3.95.42c1.86,5.56,2.78,11.85,4.37,17.67,2.93,11.41,6.65,22.82,9.31,34.49a239.4,239.4,0,0,0,53.46,105.33c12,14.06,18.51,24.78,29.95,40.43-2.46,4.72-6,11.83-10,15-13.83,10.87-15.16,18-7.18,33.43a22.84,22.84,0,0,1,1.6,14.59c-2.91,14.77-1.08,27.71,12.28,37l5,11.83,7.45,23.62h0l.05.15h0l2.34,3.38h0l5.33,7.7,4.25,9.23c-.51,13.5,6.93,18.54,21.55,19.33-8.51,17.25-14.9,34-24.47,48.55-24.74,37.14-51.07,73-76.61,109.57q-7.14,10.44-14.18,21H1201.12V0H1055.86ZM88.53,1349.35a9.87,9.87,0,0,1-.82.73l.82-1.08Zm12.81,98.74h0l0-.07Zm263.1-724c-.6-.45-1.21-.88-1.83-1.32h1.83ZM467.57,486.91l-1-.09,1-.85Z" fill="#fff200"/></g><g id="Max_Payne_2_Cover" data-name="Max Payne 2 Cover"><path d="M654.15,1418.44l.06-.33-.82,1.09Z"/><path d="M1192.77,1509.43c-2.42-16.93-8.77-33.39-14.41-49.83-.25-.74-.51-1.47-.75-2.2-1.52-4.36-6.07-7.44-9.1-11.28l-3.54,1.28c3.13,25.21,6.27,50.43,9.54,76.51.69,5.48,1.38,11,2.09,16.54a86.74,86.74,0,0,1-16.91-8.52c-9.84-6.65-14.56-14.51-15.37-24.87-.46-5.92.35-12.65,2.2-20.44a82.21,82.21,0,0,0,.25-35.12c-11.63-54.85-31.59-106.89-52.83-158.67-13.64-33.32-24.77-67.93-37.91-101.51-9.6-25.12-20.47-49.47-30.58-74.34a188.53,188.53,0,0,1-12.13-40.24c2.95,1.53,5.88,3.13,8.77,4.76a286,286,0,0,1,108.3,108.7c.41.71.82,1.43,1.22,2.15l.6-.39,2.18-1.41a21.3,21.3,0,0,0,0-5.64c-4.33-12-8.54-24.18-12.78-36.32-4.47-12.81-9-25.63-13.64-38.37l-.07-.2c-.38-1-.75-2.06-1.13-3.08q-1.12-3-2.27-6.08-4.5-12-9.29-23.87a206.63,206.63,0,0,0-34.67-57.5c-4-4.68-8.19-9.2-12.6-13.5-37.66-37.17-73.3-76.65-109.69-115.1-3.29-3.33-7.08-6.15-11.88-10.51L910,906.27c5.53-12.49,10.88-25.2,17.16-37.68.33-1,3.74-.8,6.1-.76,1.21,0,2.15,0,2.24-.26.76-4.62,2.27-10.51.25-14.36-.71-1.4-1.43-2.8-2.16-4.18-11-20.91-24.91-39.82-44.35-54a31.52,31.52,0,0,0-29.57-4.61c-3.79,8-5.81,13.84-9.1,18.71-5,7.69-11.88,14.1-16.43,22A333.56,333.56,0,0,1,758,922.68c-19.21,16.4-37.15,34.6-55.35,52.29a25.59,25.59,0,0,1-28.06,6.41c-12.91-4.2-19.58-11.67-18.69-20.22.52-5,3.62-10.37,9.6-15.67,27.29-24.61,56.36-46.91,84.92-70.23a75.46,75.46,0,0,0,7.33-5.13c25.28-26.66,50.3-53.32,75.32-80.23a15.4,15.4,0,0,0,2.53-6.41,57.11,57.11,0,0,1-12.9-7.34c-16.32-12.29-24.32-31.33-37.65-45.47l1.77-3.07,7,2.29,7.1,2.32c0-5.9,1-12.05-.25-17.69q-6.59-27.91-15.45-55.15A722.9,722.9,0,0,0,744.64,560C731,532,707.23,513.31,682.21,496.13c-35.14-24.09-72.54-43.32-114.75-51-12.89-2.56-26.29-3.33-37.16,2.57,3.54,3.58,10.37,7.94,9.61,10.51-2,8.45-8.85,10-16.94,6.4a49.78,49.78,0,0,0-22.57-4.93,43.82,43.82,0,0,0-12.92,2.45c-7.42,2.57-14.67,7.11-21.88,13.51l53.83,4.87-.75,6.15c-16.18-1.8-32.61-2.31-48.79-5.38-13.9-2.57-24,1.28-34.88,9.74-25.78,19.73-52.82,37.68-79.36,56.39a88.15,88.15,0,0,0-10.11,9.49l2.27,2.56h27.3a14.14,14.14,0,0,1,1,3.07c-10.87,5.64-21.48,11.8-32.6,16.15a21.82,21.82,0,0,0-11.38,8.8,16.83,16.83,0,0,0-2.32,10.63,19.59,19.59,0,0,0,.55,3.13c2.28,8.72-6.32,29.48-14.15,33.84-12.39,7.18-14.16,18.45-4.3,29,15.17,16.15,28.31,35.64,46.26,46.91a84.28,84.28,0,0,1,27.64,28.73,134.23,134.23,0,0,1,8.88,18c4.8,11.63,8.5,23.79,12.82,35.6,1,2.83,2.1,5.64,3.23,8.42,3.63,9.29,11,9,17.46,10.49,3,.7,5.74,1.78,7.81,4.38,3,4.1,9.1,6.15,11.63,10.25,3,5.07,4.82,10.91,7,16.52a60.55,60.55,0,0,0,3.08,6.81A34.93,34.93,0,0,0,460,853.6c5.49,7.42,13.19,10.85,23.78,7a36.73,36.73,0,0,1,2,6.19c.7,3.86-.82,6.22-8.59,5.34-2.78-.26-5.81,1.54-8.84,2.31,1.26,3.59,2,9.23,4,9.74,7.33,1.79,15.92,4.1,22.24,1.79,8.09-3.07,11.63-1,16.94,4.62a157,157,0,0,0,23.76,19.22c12.13,8.52,24.89,16.18,36.92,25,1,.73,2,1.46,3,2.21a44.7,44.7,0,0,1,11.46,13.38c.6,1.07,1.17,2.16,1.69,3.29,5,10.93,14.49,17,24.28,17a26.09,26.09,0,0,0,18.68-8.26c2-2.31,3-5.89,5.56-7.95,5.06,20.51-6.82,31.28-19.21,41.27-1.51,1.29-6.82-2.05-9.6-5.12-22.24-2.57-28.56,3.07-26.79,26.14.76,11.8,5.56,23.07,7.08,34.87,1,7.43,2.27,16.66-1,22.55-20,35.38-30.07,74.85-47,111.25-8.84,19-10.36,36.92-9.35,56.91,1.52,30-8.09,58.19-19.46,85.36-4.05,10.26-7.84,20.51-11.38,30.25-6.21-4.87-12.53-9.78-18.88-14.73-10.69-8.35-21.45-16.83-31.92-25.52-2.53-2-3.79-7.17-3.79-11q.08-14.3.25-28.61c.43-38.65,1.12-77.31.51-116a49.29,49.29,0,0,1,14.91-37.43c12.13-12.3,24.26-25.12,33.87-39.47,16.18-24.1,7.83-40.76-15.67-56.65-.88-.58-1.78-1.15-2.7-1.73-8-5-17.49-10.38-23.72-18.77a33.29,33.29,0,0,1-6.19-14.37,15.22,15.22,0,0,0-8.34-9.74c-10.61-3.84-10.36-11.28-9.1-20.5,2.53-18-2.78-23.84-17.44-23.07,2.28,2.56,6.83,5.12,7.59,8.71.92,3.88-1.57,10.19-5.66,16.52-5.93,9.15-15.23,18.32-22.4,20.14a97,97,0,0,1,3.29-14.87c1.51-4.1,4.29-7.69,5.81-13.07a33.34,33.34,0,0,1-22.05,3.75,65.87,65.87,0,0,1-9.7-2.35c-7.85-2.44-15.56-5.76-23.49-6.91-.29,0-.58-.1-.87-.13a10.24,10.24,0,0,1-4.23-2c-2.92-2.13-5.73-5.46-8.65-7.73l18.94.91,7.59.36C346,936.52,335.43,928.83,323.8,924c-21-8.46-42.71-15.12-63.95-22.56-7.07-2.56-14.4-4.1-21-7.69-15.68-8.71-41.46-6.92-55.11,4.87L180,901.66c-20,14.61-40.18,29-59.9,43.83-2.21,1.63-4.35,3.31-6.46,5C94.8,965.89,80,984.88,65.23,1004.71c-21.48,28.71-17.94,63.31-29.32,94.07a6.77,6.77,0,0,0-.25,3.85c10.62,31.78,13.9,65.62,31.6,94.84,4.8,8,8.34,17.69,14.91,23.59,10.87,9.48,23.76,16.4,35.89,24.35,7.83,5.12,15.92,10,24,14.87,3.54,2,7.33,3.84,11.88,6.15-6.54,9.7-13.08,19.65-19.38,29.6-42.62,23.37-50.73,61.86-20.81,99.59,10.11,12.82,8.85,20.25-1.77,32.3-.69.82-1.36,1.66-2,2.48a337.17,337.17,0,0,0-25.5,35.46c-4,6.41-7.83,9.23-16.17,7.94a30.25,30.25,0,0,0-7.49-.37c-8.32.82-9.91,6.93-5.66,17.8a18.75,18.75,0,0,1,1.27,10.51c-1.77,10.77-4.55,21-6.58,31.79a34,34,0,0,0-.43,3.77c-.46,8.44,3,15,11.81,19.3,3,1.42,4.76,5.44,6.6,8.87l.48.87c1.4,2.46,2.81,4.9,4.26,7.28,9.31,15.26,20.48,28.23,43,29.12l-15.18-11.1c-.24-1.76-.49-3.27-.49-4,20,1.54,19.72,18.45,23.51,32.55,2.78,11,6.32,22,8.84,33.33A232.57,232.57,0,0,0,183,1755.26c11.37,13.59,21,28.71,31.84,43.84-5.05,3.84-9.1,6.66-12.89,9.74-13.14,10.51-14.4,17.43-6.82,32.3a21.84,21.84,0,0,1,2,8.41,23.8,23.8,0,0,1-.48,5.68c-2.77,14.28-1,26.78,11.67,35.74l1.92,4.62,2.83,6.81c5.06-1.79,10.11-3.33,14.92-5.38,1.93-.79,3.84-1.69,5.74-2.59,4.31-2,8.57-4.06,13-4.59a21.68,21.68,0,0,1,9.58,1.58c2.23.91,4.08,2.13,4.83,3.55,2.78,5.38,1.51,11.79-6.83,14.86-3.33,1.21-6.6,2.55-9.86,4l-3.12,1.38c-6.82,3.11-13.7,6.56-21.14,10,9.58,6.94,17.72,10.54,27,6.09a26,26,0,0,0,3.07-1.73c7.33-4.87,14.15-3.84,20.47,6.15-5.41,4.78-10.17,11.77-16.31,14.16a11.12,11.12,0,0,1-1.38.45c-6.07,1.54-13.65-3.33-21.48-5.38-.51,13.07,6.57,18,20.47,18.71-1.92,3.95-3.72,7.87-5.48,11.74-3,6.53-5.8,12.92-8.82,19.07a159.64,159.64,0,0,1-8.95,16.1l-.64,1-2.44,3.68c-22.61,34.23-46.5,67.39-69.72,101.23-1.31,1.95-2.61,3.91-3.91,5.86-.65,1-1.3,1.94-1.94,2.91-7.66,11.52-15.25,23.15-23,34.8H153l31.66-37.71,16.54-19.7c7.87,7.49,14.16,13.84,20.58,19.7l1.16,1.06c14,12.46,27.88,25.06,45.7,29.62a57.82,57.82,0,0,0,18.25,1.66c1,0,2.21,2.56,3.42,5.16l.09.21H762.74c6.55-30.52,12.46-61.26,19.3-91.76,5-22.55,10.85-44.86,16.31-67.16.12-.51.25-1,.38-1.54l4.8.51a119.42,119.42,0,0,1,1.26,16.41c0,3.85-2.27,7.43-2.27,11-.76,26.41-.76,52.81-2.53,79-1.19,18.1-4.38,35.74-6.86,53.57H806l11.13-50.32,3-13.76a202,202,0,0,1,2.53,36.92c0,9.13.2,18.07.42,27.16H947.22c.77-19.65,1.92-39.3,2.4-59,.76-20,.76-40,1-60h4.8c1.27,3.84,3.54,7.69,3.8,11.53.5,16.41.25,33.07,1,49.48,1.19,19.3,2.82,38.61,4.27,57.92h38.08c-.71-20.08-3-40.16,3.65-60.23.57.3,1.11.6,1.65.9,14.11,7.82,18.55,14.76,18.06,28.83-.22,10.09-1.66,20.37-2.68,30.5h96.31l-.06-.41c-3.78-26.86-6.32-53.71-11.42-80.33-14.16-75.87-29.83-151.49-44-227.37-1.77-11,.51-22.81,2-34.09a310.86,310.86,0,0,1,7.33-37.68,31.17,31.17,0,0,1,8.34-14.87l1-.8c17.61-14.92,34.79-31.45,54.66-43a155.92,155.92,0,0,0,30.59-22.75c19.41-18.82,30.26-41.32,33.11-67.83v-30.09c-.47-4.87-1.14-9.84-2-14.94C1194.54,1560.7,1196.56,1534.56,1192.77,1509.43Zm-236.58,412.2-.25,1.28-.76-1Zm-.5,14.35v43.83h-2.53v-43.57l.78-.08Zm.25,77.16c.76.77,2.27,1.28,2.27,2s-1.26,1.79-1.76,2.56l-2.78-1.79Zm-4-105.36a50.91,50.91,0,0,0,4.27-4.54c2.09-2.34,4.13-4.43,6.09-4.43,7.58.26,12.64-2.31,11.63-9.23v0c-.52-4.35-5.81-8.44-9.6-12-1.52-1.54-4.55-1.54-8.34-2.57a19.19,19.19,0,0,1,4.76-5.92c6.52-5,12.95,1.4,18.24,3.87,5.68,2.68,9.07,7.5,8,14.07a20.06,20.06,0,0,1-1.65,5.16l-.11.27c-2.43,5.58-3.2,12.13-4.69,18.44-.12.6-.26,1.22-.4,1.85-.47,2-1,4.2-1.62,6.35-2.79-1.28-5.82-2.56-8.35-3.59s-5.3-1.53-7.83-2.56C958.72,1911.37,955.18,1909.58,951.9,1907.78Zm33.87,132.79c-11.63,1.53-15.93-8-9.86-24.61l.1.26,7.88,19.65Zm-51.82-385c-3,5.89-9.1,10.25-13.9,15.12-3-4.1-6.07-8.46-9.1-12.56-4-5.64-7.58-12.3-12.64-16.92-13.9-12.56-28.81-24.35-43-36.4l2-5.4.28-.75c4.3,1,9.1.77,12.64,2.82,10.61,6.15,21,12.82,31.09,19.48a246.68,246.68,0,0,1,28.56,20.76,13.53,13.53,0,0,1,3.39,5.46C934.43,1650.23,934.83,1653.62,934,1655.55Zm-138.51,23.58c-1.56-.23-4.3-5.84-4.23-9.1a3.64,3.64,0,0,1,.19-1.15c4.55-14.1-1.77-24.61-9.36-35.12A115.43,115.43,0,0,1,774,1619.4l3.54-2.82c2.65,1.87,6,3.41,8.19,5.56a9.37,9.37,0,0,1,1.41,1.62c8.59,13.59,16.93,27.17,24.52,41.27,1.26,2-1.52,8-4,10.26A17.69,17.69,0,0,1,795.44,1679.13ZM497.38,1542.31c1.87.34,3.75.67,5.62,1,5.31.77,11.13,0,19.47,0,0,.26,1.51,3.59,2.78,6.67-6.32,2-10.87,3.58-15.42,5.12-6.57,2-13.4,6.41-19.72,5.9-21.73-2-43.22-5.9-64.7-9.49-40.27-7-80.3-14-120.33-21.29l-2.76-.49c-17.7-3.08-35.14-6.67-53.08-10l3.54-15.64c5.56.77,10.11,1.28,14.66,1.8,12.6,1.76,25.13,3.94,37.64,6.3,47.46,8.94,94.52,20.47,143.33,21.89C464.73,1534.5,481.06,1539.29,497.38,1542.31Zm212.88-504.79c-2.78,7.43-5,15.12-8.34,22.56q-36.61,84.54-73.53,168.9-13.47,31-26.88,61.93l-3.78,8.76q-5.67,13.11-11.32,26.23c-5.77,13.56-11.2,27.27-16.57,41q-4.7,12-9.38,24l0,.08q-2.77,7.07-5.6,14.13c2.26-3.18,4.4-6.35,7.32-10.68l4.56-6.76c2.7,4.83,5.79,8.93,8.25,12.84a29.19,29.19,0,0,1,4,8.73,16.63,16.63,0,0,1,.39,2.53c.5,8-5.57,15.89-8.6,23.33,9.45-2.5,14.36-8.91,17.62-16.58,2.75-6.5,4.31-13.89,6.39-20.59,4.21-13-8-16.44-16.19-23.43a22.43,22.43,0,0,1-3.82-4.1c-.16-.22-.31-.44-.46-.67,1.77-2.56,5.06-8,5.81-7.69,10.62,4.36,10.37-5.38,12.89-10.51a192.32,192.32,0,0,0,10.87-25.89c3.29-10,8.85-15.64,19-14.61,10.62.77,14.15-5.38,17.69-13.84q45.12-108.82,91.25-217.63c1.51-3.85,5.56-6.92,8.59-10.26h.25c-.76-1.28-2.27-3.33-1.77-4.1a40.23,40.23,0,0,1,5.31-6.15c1.34,1.36,2.66,2.75,4,4.15a120.74,120.74,0,0,1,9.45,11.49c1,1.53-2.28,5.89-3.54,9v-.26c-.25,11,1.77,21.53-3.29,32.81C731,1160.56,713,1205.42,694.09,1250c-6.32,15.38-6.58,29.22,2.52,43.58,6.32,9.74,2.28,16.66-8.59,19.48-5,1.54-11.63,5.64-13.4,10a285.68,285.68,0,0,0-11.12,40.76c-3.51,18.09-6.28,36.17-9.29,54.27l4.49-6.08,3,2.56c-8.84,7.69-4,24.86-17.44,26.92-3.79,6.92-5.56,15.89-9.35,16.91-16.93,4.36-26.54,15.13-33.11,30.51a71.24,71.24,0,0,1-6.57,8.71V1473l-20.47,19-6.32-19,11.5-5.39,4.93-2.31c-8.6-7.94-15.42-16.14-24-22-10.61-7.18-13.14-16.41-11.12-28.2l-4.8,3.34c-1-3.85-4.3-8.72-3-11.54,2.78-6.92,8.09-12.56,11.12-19.48l1.13-2.6.9-2.09,8.68-20,5.43-12.5q30.07-69.35,59.69-138.68,3.43-8.13,6.83-16.26c11.24-26.87,22.29-53.71,33.86-80.38,5.57-12.59,10.33-25.18,13-38.41a116.21,116.21,0,0,0,2.27-18.35c.08-1.91.13-3.84.11-5.78-.17-12.83,3.17-18.77,10.53-19C699.33,1033.29,704.22,1034.72,710.26,1037.52Zm-59.14,188.41q2.1-3.67,4.09-7.41c12.32-23,21.76-47.72,31.31-72.29,4.11-10.59,8.24-21.15,12.62-31.55q11.76-27.3,22.75-54.6l2.2.59,1.59.43a41,41,0,0,1-1.52,7.69c-31.84,76.39-63.69,152.27-95.54,228.65-3.28,8.46-8.34,8.21-15.67,6.41,1.1-2.71,1.91-4.92,2.73-6.95.49-1.23,1-2.39,1.57-3.56C627.86,1270.53,638.48,1248,651.12,1225.93Zm83.41-177.13h1l-.76,1.28-.76-.51C734,1049.31,734.27,1048.8,734.53,1048.8Zm-98.32,180.46,73.29-174.82L713,1056c-.89,2.14-1.79,4.27-2.68,6.4q-35.43,84.48-70.62,168.94l-1.83-1.07ZM695.6,1804a142.14,142.14,0,0,0-28.81-8.46c-3.79-.52-11.12,3.59-11.88,6.66-2.53,10.77-9.61,14.36-18.45,13.33-14.41-1.79-28.82-5.13-43.22-7.69-5-.82-8-3-9.09-6.43a14.22,14.22,0,0,1-.26-6.9c4.54-26.66,9.09-53.32,13.9-82,17.69,8.72,31.34,16.67,45.75,22.56l1.38.6c12.21,5.36,18.46,13,21.87,27.34,2.27,9.89,5.86,17.46,10.65,22.81,10.1,11.29,25.56,12.62,45.46,4.62,8.71-3.5,17.53-6.68,26.39-9.88,4.76-1.72,9.53-3.45,14.3-5.24-2.78,8.2-6.82,15.63-12.89,19.73C734,1806,715.57,1811.14,695.6,1804Zm-26.28-418.09,2.78,1.28c-2.78,5.64-5.56,11.28-8.09,16.92l-3.54-.77ZM723,1316.05c-6.13-3.12-12.41-6.17-15.26-14.5l13.17,5.3,9.43,3.79,10.52,4.23c-1.77,17.69-16.43,49.22-24.77,51.78l18.19-42.29a21.65,21.65,0,0,0-6.42-5.67C726.29,1317.73,724.65,1316.89,723,1316.05Zm-31.68,31.89q-1.75,5.58-3.5,11.15-.91,2.9-1.81,5.77l-4.3-1.28,5.81-16.92,1.11.37Zm63.44,147.14c-5.82-8.46-12.64-13.84-24.27-11-5.56,1.28-15.67.77-17.18-2.31-1.36-2.4-1.7-5.37-1.65-8.56.07-4,.75-8.23.89-12.2-3.58.24-7.33,1-10.95,1.57-4.06.58-8,.81-11.3-.55-3.57-1.43-6.54-5.65-8.66-11-4.32-10.93-5.1-26.62-.18-33.32.28-.39.53-.77.8-1.16,11.21-15.91,16.1-33.89,16.82-53.27,0-.57.06-1.14.07-1.71.11-3.68.94-6.49,2.65-8.5a11.13,11.13,0,0,1,6.31-3.47,24.35,24.35,0,0,1,4-.53c.38,0,.77,0,1.18-.06,1.19,26.55-15.29,49.1-19.5,74.73a65.59,65.59,0,0,0-.22,21.14,42.56,42.56,0,0,0,6.57-5.39c5.36-5.81,12.61-9.83,19-9.07a11.93,11.93,0,0,1,6.54,2.92c4.67,4.32,3.59,8.56,1,12.68-2.23,3.47-5.56,6.86-7.52,10.14,10.1-3.49,17.62,2.2,25.39,6.59a44,44,0,0,0,6,2.89q18.59,7.31,36.4,16.15c.47.31.93.64,1.37,1a16,16,0,0,1,6,8.75c1.51,9.23,2.52,18.46,3.28,27.69C782.3,1511.49,782.05,1478.67,754.75,1495.08ZM246.21,1743a3.6,3.6,0,0,1-4.55-2.57q-3.9-7.7-7.82-15.39l-1.76-3.47-6.08-12c-9.52-18.72-19-37.46-28.32-56.32-5.06-10.51-1-29,7.07-36.66l6.07,9.49L227,1584.29l4.8.51c1.26,3.33,3.54,6.92,3.54,10.51-.51,23.84.5,48.19-3.54,71.26-1.52,9.23-2.28,16.92,0,25.12,1.58,6,3.24,11.93,4.91,17.87C239.85,1720.68,243.08,1731.76,246.21,1743Zm-43.48-458.33c1.86,2.51,4.43,5.1,6.84,7.77,3.5,3.86,6.66,7.87,6.81,12a23.23,23.23,0,0,1-5.22,16.43c-5.58,7.09-14.54,12-21.57,18.18C192.37,1321,181.25,1300.52,202.73,1284.63ZM318,1160.3l.76,2.31-5.56,2.31-1.27-3.08Zm-73.05,340.93a16,16,0,0,0-1.26,3.08l-21.74-3.59c2.28-6.15,3.29-12.82,5.81-13.59C240.64,1483.29,236.35,1499.44,244.94,1501.23Zm302,58.45,3.54-5.13a148.25,148.25,0,0,1,14.66,10c.51.51-2.53,5.38-3.79,8.2Zm6.07,39c-.51,1.28-1.26,2.31-1.77,3.59l-214.79-38.51-31.41-5.63L251,1548.4c1.26-6.15,2-10.51,3-15.13a38.36,38.36,0,0,1,6.07.26l45,8q40.83,7.26,81.66,14.86c47.77,9.23,95.54,18.46,143.31,28.71l.46.13C538.4,1587.13,545.36,1594.11,553.05,1598.64Zm-190.19,57.93a94.25,94.25,0,0,1-11.51-7.94,10.37,10.37,0,0,1-1.66-2.22,8.62,8.62,0,0,1-1.12-4.19c-1-12.82-1.52-25.89-2-39.22l22,4.61c-16.05,15.85-15.43,33.52,0,44.49a47,47,0,0,0,9.84,5.24c.37.16.75.29,1.13.44,7.57,3,16.21,4,24.39,5.71a85.53,85.53,0,0,0,14.16,1.8C397.66,1669.43,379.39,1666.21,362.86,1656.57Zm-34.51-67.41c-7.65-2.93-15.42-5.49-23.27-7.82-28-8.32-57-13.58-85.41-20.38-8.35-2-11.88-5.64-10.11-16.15l95.52,17.11,33.3,6,17,3,5.81,1c3.28,6.15,5.31,14.1,7.58,14.1a15.58,15.58,0,0,0,7.21-2.34c2.4-1.31,4.8-2.92,7.2-4.07a16.34,16.34,0,0,1,2.73-.58c6.59-.78,9.47,3.92,11.85,9.38.8,1.83,1.54,3.74,2.35,5.56a13.73,13.73,0,0,1-.25,10.51c-.76,1.53-6.32,1.53-9.1.51C370.56,1597.61,349.08,1596.85,328.35,1589.16Zm-113.49-70.75-13.14-1.54.51-5.13,13.14,1.8Zm-7.07-21.28,5.3,2.82.76-.26-.25.26-9.35,5.13ZM406,1595.56c4.8-12.81,13.39-10.25,23.25-7.69C423.39,1600.43,418.08,1602.23,406,1595.56Zm-172.38-56.13-16.94-3.34c1.77-9.74,3.29-17.68,5.06-27.17l17.19,7.44C237.11,1524.3,235.34,1531.48,233.57,1539.43Zm24.78-151.67c11.46-7.83,23.28-11,35-9.39,8.27,1.11,16.51,4.55,24.59,10.33,15.16,10.77,28.31,25.12,42.21,37.68l-2.78,4.1a189.28,189.28,0,0,0-23.7-15.32,138.78,138.78,0,0,0-22.39-9.73c-21.63-7.15-45.05-8.31-71.19-.84A92.94,92.94,0,0,1,258.35,1387.76Zm55.09-28.8a56.5,56.5,0,0,1,7.83-2,59.56,59.56,0,0,1,19.37-.32c14.34,2.16,26.36,9.57,29.67,20.26Zm-27.93-212.8c.51.88,1,1.81,1.52,2.78,1,1.84,1.92,3.83,2.9,6l-32.6-24.35C270.43,1128.85,278.05,1133.06,285.51,1146.16Zm-17.86,20.92-1.22-1.14,3.28-2.82,3.09,3.43,5,5.54-1.46,1.49-.82.82-.64-.59Zm48.81-21.35-.24,1-.66-.15-24.87-5.75c.25-1.28.51-2.82.76-4.36l25.53,7.18Zm92,9.45.28-.26.25.26Zm-4.53,6.41c-17.18,23.32-34.37,26.4-59.39,10.5-17.44,11.28-36.4,18.72-57.88,17.44-14-1-25.84-5.7-34.32-15.47a47.1,47.1,0,0,1-5.58-8.08c-.73-1.32-1.42-2.69-2.06-4.14a8.65,8.65,0,0,1-.58-4.16c.1-1.45.39-3,.64-4.5a28.88,28.88,0,0,0,.44-3.39c2.78,3.08,7.08,5.39,8.09,9a38.17,38.17,0,0,0,3.24,8.32,26.51,26.51,0,0,0,6.08,7.61c5.71,4.89,13.37,7,22.53,7.39a74.35,74.35,0,0,0,52.6-16.31,75.2,75.2,0,0,0,8.06-7.53,99.54,99.54,0,0,0,12.18,6.6c14.6,6.52,29.54,7.58,44.94-4,.5-.51,1-1.13,1.5-1.71C404.25,1159.94,404.09,1160.76,403.92,1161.59ZM286.7,1842.37c-12.77-23.39-24.19-47.72-37.46-71l28.31,16.92c-7.76-26.62-15.17-52.72-18.77-78.77-4-29.14-3.27-58.21,7.14-87.85l5.56-1c8.59,27.42,18.7,54.6,25.78,82.54.52,2.1,1,4.21,1.46,6.33,4.48,20.61,6.41,42,9.16,62.88a129.81,129.81,0,0,1,.56,16.37c0,2.49,0,5,.2,7.47,1,13,1.26,26,3.27,38.55.09.56.17,1.13.26,1.69,3.29,19.48,8.35,39,12.89,58.45l-3,1.28C308.24,1879.62,297,1861.3,286.7,1842.37Zm66.93,70.28c-.13-1.23-.29-2.46-.46-3.68-1.47-11-4.35-21.62-6.62-32.46l-.21-.92c-7.21-31.79-14.42-63.57-21.39-95.36a28.7,28.7,0,0,1,4.92,5.54c10.61,21,22.74,41.78,31.59,63.57,7.58,18.71,11.38,39,16.68,58.44a21.26,21.26,0,0,1-.25,9c-2,14.36-7.58,29,3.54,42.81C363.74,1949.82,355.65,1934.44,353.63,1912.65Zm76.83-142.71c-5.54-3.65-10-8.2-11.88-12.88,4.51-2.35,14.66-2.44,24.27-1a75.5,75.5,0,0,1,11.07,2.39c4.51,1.37,8.08,3.1,9.65,5.06,4.05,5.12,4.3,10.5-3,13.32-.28.12-.58.21-.87.31C451.91,1779.61,439.72,1776,430.46,1769.94Zm106.16,23.26c-15.67-3.59-31.85-4.61-48-5.9-6.5-.44-11-3.06-13.22-7.27-1.65-3.17-2-7.23-.94-12a19.91,19.91,0,0,0-2.78-13.59c-4.29-6.41-9.35-12.81-14.4-19-5.6,0-10.18.24-14.32.28a59,59,0,0,1-9.44-.53,54.07,54.07,0,0,1-17.95-5.39A12.34,12.34,0,0,1,412,1727c-1.8-2-3.41-4.5-5.31-6.59,3.54-1.28,6.83-4.1,10.11-3.84,9.1,1,18.2,3.84,27.3,4.87a248.82,248.82,0,0,0,33.87.76c2.28,0,4.3-5.89,6.57-9.22-10.11-6.92-13.39-16.41-7.33-29.74-9.85,2.82-17.69,3.08-23,7.18a2.91,2.91,0,0,0-.31.3c-2.31,2.47-.71,10.51-1,17.39l-49.29-14.87c.9-.42,1.78-.8,2.67-1.17,8.72-3.6,16.7-4.64,24.67-6.47l.21,0a135.27,135.27,0,0,0,23.69-7.06l.32-.12c7.33-3.33,14.16-8.46,21.23-12.82-.25-1.53-.75-3.33-1-4.87-6.86-2.32-13.31-4.84-20.09-6.63-.71-.19-1.43-.37-2.15-.54-16.43-3.85-33.11-6.41-49.29-10.77-3.44-1-6.36-3.51-9.29-6.13-1.58-1.42-3.18-2.86-4.86-4.12.76-1.29,1.26-2.82,2-4.1,6.57-.52,13.4-1.54,19.72-1,22.24,2.05,44.23,5.64,66.47,7.18,18.7,1.28,38.42,4.1,56.37.51,14.85-3,27.1-1,39.34,4.1,2.55,1.07,5.1,2.26,7.67,3.59,10.36,5.38,13.65,11.79,7.07,23.33-13.64,23.58-16.17,49.73-17.18,76.39a141.27,141.27,0,0,1-8.34,38.19C558.86,1792.69,549.76,1796.28,536.62,1793.2Zm563.85-667.4,0-.1.25.51ZM1006,1037.88a40,40,0,0,0,4.32,1.94c6.83,2.57,14.16,2.57,21.23,3.85-1.6-6-3-11.88-4.57-17.88-.16-.62-.32-1.23-.48-1.86l.5-.51-.25.77,1.63,1.77c4.89,5.22,10.2,10.15,14.29,15.92,6.49,9.2,12.56,18.68,18.62,28.13,2.22,3.44,4.43,6.89,6.66,10.32l3-1.8c-1-2.11-2.14-4.22-3.23-6.34a135.4,135.4,0,0,1-5.87-12.37c-3.53-8.46-6.57-17.43-9.85-26.15q1.76,1.38,3.44,2.84a110.89,110.89,0,0,1,21.53,25.77,195.74,195.74,0,0,1,12.06,23.06l.63,1.39c4.71,10.93,6.84,23.27,9.55,35.06l.81,3.4-7.75-10.51-18.54-25.13c-4.82-.72-8.75-.69-12-1.24a14,14,0,0,1-3.69-1.06c-13.45-6.28-26.54-12.93-39.72-19.63l-7.29-3.7a12.91,12.91,0,0,1-5.56-4.87c-5.31-9.48-10.36-19-15.42-28.45C996.37,1032.2,1001,1035.35,1006,1037.88ZM908.68,908.32l-.51-.51.72.18ZM567,877.31a13.82,13.82,0,0,1-12.64-1c-2.52-2-2.78-7.94-2.78-12.3,0-2.24.88-4.37,2-6.84.66-1.49,1.4-3.11,2.07-4.95,1.72,1,3.41,1.9,5.08,2.81,6.2,3.35,12.09,6.31,17.66,9.75,8.09,5.12,15.42,6.66,24.77,2,4.3-2,10.62.25,15.93.51,0,1.79-.25,3.59-.25,5.38-5.82,7.69-13.91,10-22,5.39C586.41,872.18,577.31,871.67,567,877.31Zm-85.68-345.8-.76.25-.25-.76Zm4.8,16.92h-45.5C451.19,535.1,466.61,534.84,486.07,548.43Zm.25-9.74c.25-1,.76-2.06,1-3.08l17.95,5.64-1,2.56Zm-31.59,30.24a9.58,9.58,0,0,1-1.27,2.82l-2.52-1.28a9.94,9.94,0,0,1,2-2.56C453.21,567.65,454.73,568.68,454.73,568.93Zm3.54-11.53c5.05-9.23,14.91-4.36,21-1.54l-8.84,18.71C462.31,571.5,453.72,566.11,458.27,557.4ZM477,572.27l22.5,5.12,1.26,3.59-12.39,8.46Zm39.18,14.61.25,5.89-16.43.77c0-1.79-.25-3.59-.25-5.38Zm150.13,62.8-1.3-.59-2.72-1.21-28.58-12.81-.25-3.85c5.3-.25,11.37-2.56,15.67-.77C657.44,634,667,638.14,666.28,649.68Zm16.94,67.93c.25,10.25-5.31,21-9.61,31-1.26,2.56-7.58,2.56-11.62,3.58a41.35,41.35,0,0,1,.5-11.27c.76-3.08,3.54-5.39,6.07-8.46L662,728l-4.06-2.74c11.63-19,9.35-37.68-4.29-54.86l15.1-1,7.64-.52C678.67,683.52,683,700.43,683.22,717.61ZM350.09,595.08l3.54.77a81.18,81.18,0,0,1-2.53,13.58c-.25.77-5.06,0-8.85,0C345.54,603.54,347.81,599.18,350.09,595.08Zm37.66,93.82c2.78-1.8,2-9.49,2.27-14.36.26-4.1-1.26-8.45-.5-12.56,1.87-9,4.39-18.05,6.56-26.67.17-.68.35-1.36.51-2l1,.54,18.71,10c10.81-15.35,14.78-19.63,23.62-20.86a49,49,0,0,1,4.94-.41c4.3,0,8.59,2,12.89,3.07-1,3.85-2,7.69-2.78,11l11.12,13.84-8.09.25-8.34.26c.26,2.31.26,3.08.51,3.08a83.88,83.88,0,0,1,13.54,5.76c8.69,4.74,15.69,11.18,20,20.33a48.09,48.09,0,0,1,3.91,13.38c.25,2,4.8,4.36,7.83,5.13,21.23,6.41,42.72,12.3,63.95,19.23,5.56,1.79,11.88,5.38,14.91,10,14.41,22,32.1,34.35,59.65,29.22a7.73,7.73,0,0,1,4.34.68c4.6,1.9,10,6.93,11.84,11.12,3.54,7.69.25,15.12-10.11,17.68-18,4.36-35.14,4.11-50.81-6.92-3.54-2.56-7.33-4.36-10.87-6.66-8.84-5.64-16.17-4.87-22.49,4.61a89.59,89.59,0,0,1-15.92,17.95,18.91,18.91,0,0,1-14.66,3.33c-2-.51-3.54-8.72-3.29-13.33a86,86,0,0,1,1.44-10.76c1-5.64,2.3-11.28,2.6-16.93,1-14.48-5.27-20.72-18.45-19.42-.58.06-1.16.11-1.77.2-6.31.77-12.38,1.79-18.7,2.56-21.74,2.57-41.45,7.69-50.8,31.28-1.27,3.07-7.08,5.63-10.87,5.89-4.8.26-9.86-1.54-16.94-2.82,0-5.27,1.36-12.34.88-19.07a26.61,26.61,0,0,0-1.38-7.08C403.42,736.07,395.33,724,388,712,383.2,704,375.11,697.36,387.75,688.9ZM484,1043c1.62,1,3.24,2,4.86,3l-2,3.33-2.79-1.58-10.36-5.85L476,1038C478.64,1039.63,481.31,1041.32,484,1043ZM367.16,968a7.16,7.16,0,0,1,.7.17,4.9,4.9,0,0,1,1.94,1,233.86,233.86,0,0,1,20.48,18.71l.09.09c5.78,5.71,11.64,11,18.42,14.77a42.55,42.55,0,0,0,18.13,5.39c12.39.77,12.14,2.31,4.55,11.53a52.67,52.67,0,0,0-2.78,6.67c-20-12.82-39.43-20.51-58.38-4.36-3-9-5.91-17.31-8.52-25.46-1.79-5.57-3.44-11.06-4.88-16.58a13.8,13.8,0,0,1,3.29-10.76,5.36,5.36,0,0,1,2.95-1.21A11.74,11.74,0,0,1,367.16,968ZM226.24,906c11.12-3.08,24.26-1.28,36.14.25,24.6,3,47.74,10.1,64.27,29.87a74.63,74.63,0,0,1,4.73,6.28h.21c-3.54.75-9.06.51-10.06,2.55a171.65,171.65,0,0,0-6.32,21.53c-6.32-1.28-13.9-2.3-21.23-3.84-18.71-4.1-37.92-5.9-52.07-22.3l-.37-.41c-4.63-5.05-12.75-6.64-21.37-11.13.05.69.09,1.34.13,2,.42,6.61.63,9.82.63,9.82l-30,20.47L162.8,980.35l-2-2.3c8.09-9.49,15.68-20.25,24.52-28.46,1.55-1.43,3.17-2.79,4.81-4.11,7.76-6.26,16.47-11.54,25-17.67-10.29-6.11-18.4-3.69-26,.2s-14.89,9.41-23.29,9l3.29,7.69c-5.31-.77-9.86-2.82-10.37-5.89a10.78,10.78,0,0,1,5.31-9.23c8.16-3.37,16.33-6.87,24.54-10.22q5-2.07,10.11-4C207.78,911.82,216.94,908.6,226.24,906Zm-78.36,49c0,2-1.77,3.84-3.53,6.92l-5.57-5.9c1.52-1.54,3-3.84,5.06-4.36C144.85,951.13,147.88,954,147.88,955Zm4.05-10.26,7.07,6.67-2.52,2.82-7.08-6.67ZM120.59,1352c-.76,2.31-4.81,3.85-7.33,5.9l-1.77-1.8c-1,4.11-2.28,8.46-3.29,12.57l-4-.52c.5-6.66-1-14.1,1.77-19.74,9-17.68,19.16-34.62,28.89-52a13.67,13.67,0,0,1,2.45,1.8C132,1316.16,126.65,1334.1,120.59,1352Zm-47.52,163a6.69,6.69,0,0,1-1.52,1.29c0-.26-.25-.52-.5-.77.5-.52,1-.77,1.51-1.28Zm-3.54-28.45-5.31,5.13L62,1488.42l6.06-4.11ZM62,1549.68,66.5,1544l3.28,2.82-5.31,4.61C64.22,1551.73,63.21,1550.71,62,1549.68Zm36.14-19.74c.25,14.61-7.08,17.69-18.45,20.51Zm1.93,61.51c-9.06-1.09-16.59-11.57-18.11-25.36-1-9-.25-10.51,9.36-13.33C88.51,1567,86.76,1581.21,100,1591.45Zm-9.26-118.67-3.54-3.59,38.93-36.91,3.28,2.82C122.61,1459.19,110,1471.5,90.76,1472.78ZM222.7,1842.42c2.93-1.1,6.79,1,10.74,3.42,2,1.25,4,2.6,6,3.71.5.29,1,.57,1.49.81-.51,1.54-1,3.08-1.52,4.62L206,1868.56c.45-7.48,2.53-14.14,6.38-19A20.8,20.8,0,0,1,222.7,1842.42Zm9.17,46.86a44.63,44.63,0,0,1-8.42,1.64,83.26,83.26,0,0,1-14.89,0c.36-11.2,8.4-22.59,18.69-25.14,10.11-2.56,17.19,3.08,23.25,10.26A35.34,35.34,0,0,1,231.87,1889.28Zm33,93.35c-.76,5.9-1.52,11.8-2,17.43s-2.78,12-1.27,17.18c5.56,18.71,14.66,35.37,29.58,48.19,10.86,9.48,21.73,19,32.35,28.45a91.42,91.42,0,0,1,6.57,7.44l-2,2.56c-3-1-6.32-1.28-8.6-3.08-14.66-11.53-30.33-22-42.71-35.63s-23.56-28.1-26.42-45.62c-.19-1.14-.35-2.29-.46-3.45a57,57,0,0,1,1.86-20.65c.11-.33.24-.65.36-1a88.82,88.82,0,0,1,6.46-13.89ZM869,1799.25c-1.08-6.32-1.83-11.93-4.6-16h0c-7.84-11.54-17.69-21.27-26.79-32-5-5.75-9.66-11.65-12.87-18.63a48,48,0,0,1-4.32-22.64c29.29,28.22,53.63,58.34,89.4,73.77q1.92.83,3.87,1.59c-5.31,16.92-24.77,25.38-43.22,21.28C869.89,1804,869.45,1801.59,869,1799.25Zm102.73,287.26c8.16,7.1,10.94,12.11,8.84,18.19-1.17,3.39-3.86,7.12-8,11.74-1-11.28-1.77-20-3-31.78C970.36,2085.29,971.08,2085.9,971.77,2086.51Zm43.82-121v45.58h-5.31c.76-18.2,1.77-36.4,2.53-54.6h2.78Zm-1.85-71.83c3.37,2.78,8.14,5.67,7.92,8-1,8.22-3.17,16.28-5.28,24.44-.53,2-1,4-1.55,6.06h-2.27L1010,1895l2.53-2.31C1012.92,1893,1013.32,1893.34,1013.74,1893.68Zm-1.69,130h2.53c0,.63.09,1.26.13,1.9,1,14.23,2.17,28.47,2.65,42.7a1.33,1.33,0,0,1,0,.2c0,1.75-3.1,3.72-4.8,5.7-1.27-2.31-3.29-4.62-3.54-6.93a160,160,0,0,1,.25-19C1010,2040.05,1011.29,2031.59,1012.05,2023.65Zm-.15,62.38c1.09-1.11,2-1.89,2.93-1.89,1.64,0,3.49,2.86,5.16,4.7l.4.43a51.94,51.94,0,0,1-6.82,5.9c-.51.25-3-2.82-5.31-5.39C1009.64,2088.51,1010.83,2087.11,1011.9,2086Zm168.74-443a114.72,114.72,0,0,1-6.07-10.77c-4.55-11.28-6.82-24.35-13.9-33.84-20.22-27.94-40.19-56.39-64-80.74-40.44-41.27-69.25-90-96.55-139.71-9.35-16.91-15.42-35.88-22-54.34-2.27-6.15-1.26-13.33-1.77-20l2.4,1.3,18.33,10a3.86,3.86,0,0,1,.76,1c23.5,42.55,53.58,80.23,82.9,118.68,29.83,38.71,53.33,82.8,79.37,124.58a28.14,28.14,0,0,1,3.53,7.95q3.16,9.95,6.19,20,3.9,12.88,7.72,25.86c2.78,9.48,5.56,18.71,8.08,28.19Z"/><path d="M1154.86,1303.85c-2-12.3-4.8-24.35-5.31-36.65-1.26-23.07-6.57-43.58-24.52-59.22-2.77-2.69-5.49-5.5-8.11-8.38s-5.15-5.84-7.56-8.79c-7.08,38.7,32.1,175.33,64.71,226.86q-4.12-24.12-8.13-47.9C1162.21,1347.7,1158.53,1325.77,1154.86,1303.85Z"/><path d="M86.23,1344.66a5.08,5.08,0,0,0,1.84-2.24l.12-.36Z" fill="none"/></g></g></svg>