<svg xmlns="http://www.w3.org/2000/svg" viewBox="0 0 1165.62 1716.81"><g id="Layer_2" data-name="Layer 2"><g id="Max_Payne_2_Cover" data-name="Max Payne 2 Cover"><path d="M618.66,975.24c0-.11,0-.22.05-.33l-.81,1.1Z"/><path d="M1157.28,1066.24c-2.42-16.93-8.78-33.4-14.42-49.84l-.75-2.2c-1.51-4.35-6.06-7.43-9.1-11.28l-3.54,1.29c3.14,25.2,6.27,50.43,9.55,76.5.69,5.48,1.38,11,2.08,16.55a86.74,86.74,0,0,1-16.91-8.53c-9.84-6.64-14.55-14.5-15.36-24.86-.46-5.92.34-12.66,2.19-20.44a82.37,82.37,0,0,0,.26-35.12c-11.63-54.86-31.6-106.9-52.83-158.68-13.65-33.32-24.77-67.92-37.91-101.51-9.61-25.12-20.48-49.47-30.59-74.33a189.36,189.36,0,0,1-12.13-40.25q4.44,2.31,8.78,4.77A285.92,285.92,0,0,1,1094.9,747l1.21,2.15.6-.39,2.18-1.4a21.3,21.3,0,0,0,0-5.64c-4.33-12.05-8.54-24.18-12.77-36.32-4.47-12.82-9-25.63-13.64-38.38l-.08-.2c-.37-1-.75-2.05-1.13-3.08-.74-2-1.5-4-2.26-6.07-3-8-6.08-16-9.3-23.87A206.63,206.63,0,0,0,1025,576.3q-6-7-12.59-13.51c-37.66-37.17-73.3-76.64-109.7-115.09-3.28-3.33-7.07-6.15-11.88-10.51l-16.39,25.89c5.53-12.5,10.88-25.21,17.15-37.68.34-1,3.75-.81,6.1-.77,1.22,0,2.16,0,2.24-.26.76-4.61,2.28-10.51.26-14.35-.71-1.41-1.43-2.8-2.16-4.19-11-20.9-24.91-39.82-44.35-54a31.52,31.52,0,0,0-29.57-4.62c-3.79,8-5.82,13.85-9.1,18.72-5.06,7.69-11.88,14.09-16.43,22a333.91,333.91,0,0,1-76.08,91.51c-19.21,16.41-37.16,34.61-55.35,52.3a25.59,25.59,0,0,1-28.06,6.4c-12.91-4.2-19.58-11.67-18.7-20.21.52-5,3.63-10.37,9.6-15.67,27.3-24.61,56.37-46.91,84.93-70.24a76.16,76.16,0,0,0,7.33-5.13c25.27-26.65,50.29-53.31,75.32-80.23a15.62,15.62,0,0,0,2.53-6.41A57,57,0,0,1,787.23,333c-16.31-12.29-24.32-31.32-37.65-45.46l1.77-3.08,7,2.3,7.11,2.31c0-5.89,1-12-.26-17.68q-6.59-27.93-15.44-55.16a722.83,722.83,0,0,0-40.67-99.41c-13.65-27.94-37.4-46.66-62.43-63.83C611.58,28.84,574.17,9.62,532,1.93c-12.89-2.57-26.28-3.34-37.15,2.56,3.54,3.59,10.36,8,9.6,10.51-2,8.46-8.84,10-16.93,6.41a49.64,49.64,0,0,0-22.57-4.93A43.61,43.61,0,0,0,452,18.92c-7.41,2.57-14.67,7.11-21.88,13.51l53.84,4.87c-.25,2.05-.51,4.1-.76,6.15-16.18-1.79-32.6-2.3-48.78-5.38-13.9-2.56-24,1.28-34.88,9.74-25.78,19.74-52.83,37.68-79.37,56.4A90.67,90.67,0,0,0,310,113.69l2.28,2.56h27.3a15.4,15.4,0,0,1,1,3.08C329.76,125,319.14,131.12,308,135.48a21.75,21.75,0,0,0-11.37,8.8,16.76,16.76,0,0,0-2.33,10.63,21.28,21.28,0,0,0,.56,3.13c2.27,8.71-6.32,29.48-14.16,33.83-12.38,7.18-14.15,18.46-4.29,29,15.16,16.15,28.31,35.63,46.25,46.91a84.26,84.26,0,0,1,27.64,28.72,135.62,135.62,0,0,1,8.89,18c4.8,11.62,8.49,23.78,12.81,35.6,1,2.83,2.1,5.64,3.23,8.41,3.63,9.29,11,9,17.47,10.5,3,.7,5.73,1.78,7.81,4.37,3,4.1,9.1,6.15,11.63,10.25,3,5.08,4.82,10.91,7,16.53a60.46,60.46,0,0,0,3.09,6.8,34.47,34.47,0,0,0,2.25,3.47c5.48,7.42,13.18,10.85,23.78,7a36.69,36.69,0,0,1,2,6.2c.7,3.86-.82,6.21-8.58,5.33-2.78-.25-5.81,1.54-8.85,2.31,1.27,3.59,2,9.23,4.05,9.74,7.33,1.8,15.92,4.1,22.24,1.8,8.09-3.08,11.63-1,16.93,4.61a156.9,156.9,0,0,0,23.76,19.23c12.13,8.51,24.9,16.17,36.92,24.95,1,.74,2,1.47,3,2.22a44.84,44.84,0,0,1,11.46,13.38c.6,1.07,1.17,2.15,1.68,3.28,5,10.94,14.5,17,24.29,17,6.5,0,13.13-2.63,18.68-8.25,2-2.31,3-5.9,5.56-8,5,20.51-6.82,31.27-19.21,41.27-1.52,1.28-6.82-2-9.6-5.13-22.25-2.56-28.57,3.08-26.8,26.15.76,11.79,5.56,23.07,7.08,34.86,1,7.43,2.28,16.66-1,22.56-20,35.37-30.08,74.85-47,111.25-8.85,19-10.37,36.91-9.35,56.91,1.51,30-8.09,58.18-19.47,85.36-4,10.25-7.83,20.5-11.37,30.24-6.22-4.87-12.54-9.77-18.88-14.73-10.69-8.34-21.46-16.83-31.92-25.51-2.53-2-3.8-7.18-3.8-11,.05-9.54.15-19.08.25-28.61.43-38.66,1.12-77.31.51-116a49.28,49.28,0,0,1,14.92-37.42c12.13-12.31,24.26-25.12,33.86-39.48,16.18-24.09,7.84-40.76-15.67-56.65-.87-.57-1.78-1.15-2.7-1.72-8-5-17.49-10.38-23.72-18.78a33.24,33.24,0,0,1-6.18-14.36,15.22,15.22,0,0,0-8.34-9.74c-10.62-3.85-10.37-11.28-9.1-20.51,2.53-17.94-2.78-23.84-17.44-23.07,2.27,2.56,6.82,5.13,7.58,8.72.93,3.87-1.56,10.19-5.66,16.51-5.93,9.15-15.22,18.32-22.4,20.14a97.53,97.53,0,0,1,3.29-14.87c1.52-4.1,4.3-7.69,5.81-13.07a33.26,33.26,0,0,1-22.05,3.75A64.77,64.77,0,0,1,333.4,516c-7.85-2.45-15.56-5.76-23.49-6.92L309,509a10.18,10.18,0,0,1-4.22-2c-2.93-2.14-5.73-5.47-8.65-7.74l18.93.91,7.59.36c-12.13-7.17-22.75-14.86-34.37-19.73-21-8.46-42.72-15.13-63.95-22.56-7.08-2.57-14.41-4.1-21-7.69-15.67-8.72-41.45-6.92-55.1,4.87l-3.79,3.07c-20,14.61-40.19,29-59.9,43.84-2.21,1.62-4.36,3.31-6.46,5-18.82,15.37-33.61,34.35-48.39,54.18C8.25,590.22,11.79,624.83.42,655.59a6.57,6.57,0,0,0-.25,3.84c10.61,31.79,13.9,65.62,31.59,94.85,4.8,7.94,8.34,17.68,14.91,23.58,10.87,9.48,23.76,16.41,35.89,24.35,7.84,5.13,15.93,10,24,14.87,3.53,2,7.33,3.84,11.88,6.15-6.55,9.7-13.09,19.65-19.38,29.6-42.62,23.37-50.73,61.86-20.81,99.6,10.11,12.81,8.84,20.25-1.77,32.29l-2,2.49A336,336,0,0,0,49,1022.66c-4.05,6.41-7.84,9.23-16.18,7.95a29.7,29.7,0,0,0-7.48-.37c-8.32.82-9.91,6.92-5.66,17.8a18.72,18.72,0,0,1,1.26,10.51c-1.77,10.77-4.55,21-6.57,31.78a32,32,0,0,0-.43,3.77c-.46,8.44,3,15.05,11.8,19.31,3,1.41,4.77,5.43,6.6,8.86l.48.88c1.4,2.45,2.81,4.89,4.27,7.28,9.31,15.26,20.48,28.23,43,29.12l-15.18-11.11c-.25-1.76-.49-3.26-.49-4,20,1.54,19.71,18.46,23.5,32.56,2.78,11,6.32,22,8.85,33.32a232.75,232.75,0,0,0,50.8,101.77c11.38,13.58,21,28.71,31.85,43.83-5.06,3.85-9.1,6.67-12.89,9.74-13.14,10.51-14.41,17.43-6.83,32.3a21.53,21.53,0,0,1,2,8.42,23.38,23.38,0,0,1-.48,5.68c-2.76,14.27-1,26.77,11.67,35.73l1.93,4.63,2.83,6.8c5.05-1.79,10.11-3.33,14.91-5.38,1.93-.78,3.84-1.69,5.74-2.59,4.31-2,8.58-4,13-4.59a21.68,21.68,0,0,1,9.57,1.59c2.24.9,4.08,2.13,4.83,3.54,2.78,5.38,1.52,11.79-6.82,14.87-3.33,1.2-6.6,2.54-9.86,4-1,.46-2.08.91-3.12,1.39-6.83,3.1-13.7,6.56-21.14,10,9.57,6.94,17.71,10.53,27,6.09a26.49,26.49,0,0,0,3.06-1.73c7.33-4.87,14.16-3.85,20.48,6.15-5.42,4.77-10.18,11.77-16.32,14.15a11.6,11.6,0,0,1-1.37.46c-6.07,1.54-13.65-3.33-21.49-5.38-.5,13.07,6.57,17.94,20.47,18.71-1.91,4-3.71,7.87-5.47,11.74-3,6.53-5.8,12.92-8.83,19.07a156.85,156.85,0,0,1-8.95,16.1l-.63,1c-.81,1.23-1.63,2.45-2.44,3.67-22.61,34.24-46.51,67.39-69.72,101.24-1.31,1.94-2.61,3.9-3.91,5.85l-1.95,2.91c-7.66,11.53-15.25,23.15-22.94,34.8h25.83l31.67-37.71,16.54-19.7c7.87,7.5,14.16,13.84,20.57,19.7l1.17,1.07c14,12.45,27.88,25,45.69,29.61a57.58,57.58,0,0,0,18.25,1.66c1,0,2.22,2.56,3.42,5.16l.1.21H727.24c6.56-30.52,12.46-61.25,19.31-91.76,4.94-22.55,10.85-44.85,16.3-67.16.13-.51.26-1,.38-1.53l4.8.51a119.17,119.17,0,0,1,1.27,16.4c0,3.85-2.28,7.44-2.28,11-.75,26.4-.75,52.8-2.52,79-1.19,18.09-4.39,35.73-6.87,53.56h12.91l11.13-50.32,3.05-13.75a201,201,0,0,1,2.52,36.91c0,9.13.21,18.07.43,27.16H911.73c.77-19.65,1.92-39.3,2.4-58.94.75-20,.75-40,1-60h4.8c1.26,3.85,3.54,7.69,3.79,11.54.51,16.4.25,33.07,1,49.47,1.19,19.31,2.82,38.61,4.28,57.92H967.1c-.71-20.08-3-40.15,3.64-60.23l1.66.9c14.1,7.83,18.55,14.77,18.06,28.84-.23,10.08-1.66,20.37-2.69,30.49h96.31c0-.13,0-.27,0-.4-3.79-26.86-6.32-53.72-11.43-80.33-14.15-75.88-29.82-151.5-44-227.37-1.77-11,.5-22.82,2-34.1a309.69,309.69,0,0,1,7.33-37.68,31,31,0,0,1,8.34-14.87l.94-.8c17.62-14.92,34.8-31.45,54.66-43a156,156,0,0,0,30.6-22.74c19.4-18.83,30.25-41.33,33.1-67.83v-30.1c-.47-4.87-1.13-9.84-2-14.93C1159.05,1117.51,1161.07,1091.36,1157.28,1066.24ZM920.7,1478.43l-.25,1.28-.76-1Zm-.51,14.35v43.84h-2.52V1493l.78-.08Zm.26,77.16c.75.77,2.27,1.28,2.27,2s-1.26,1.8-1.77,2.57l-2.78-1.8Zm-4.05-105.35a54,54,0,0,0,4.28-4.54c2.08-2.34,4.13-4.43,6.08-4.43,7.59.25,12.64-2.31,11.63-9.23v0c-.52-4.35-5.82-8.45-9.6-12-1.52-1.54-4.55-1.54-8.34-2.56a19.38,19.38,0,0,1,4.75-5.93c6.53-5,13,1.4,18.25,3.88,5.68,2.67,9.06,7.49,8,14.06a20.34,20.34,0,0,1-1.65,5.16c0,.09-.08.18-.11.27-2.44,5.59-3.2,12.14-4.7,18.44-.12.61-.25,1.23-.4,1.86-.46,2-1,4.19-1.62,6.35-2.78-1.29-5.81-2.57-8.34-3.59s-5.31-1.54-7.84-2.57C923.23,1468.18,919.69,1466.38,916.4,1464.59Zm33.87,132.78c-11.63,1.54-15.92-7.95-9.86-24.61l.11.26,7.87,19.66Zm-51.81-385c-3,5.9-9.1,10.26-13.91,15.13-3-4.11-6.06-8.46-9.09-12.57-4.05-5.63-7.59-12.3-12.64-16.91-13.9-12.56-28.82-24.36-43-36.4l2-5.4.27-.76c4.3,1,9.1.77,12.64,2.82,10.62,6.16,21,12.82,31.09,19.49a245.83,245.83,0,0,1,28.56,20.76,13.65,13.65,0,0,1,3.4,5.46C898.94,1207,899.33,1210.42,898.46,1212.35ZM760,1235.93c-1.57-.22-4.31-5.84-4.23-9.09a3.72,3.72,0,0,1,.18-1.16c4.55-14.1-1.77-24.61-9.35-35.12a116,116,0,0,1-8.09-14.35l3.54-2.82c2.66,1.86,6,3.41,8.2,5.55a9.81,9.81,0,0,1,1.41,1.63c8.59,13.58,16.93,27.17,24.51,41.27,1.27,2.05-1.51,7.94-4,10.25A17.65,17.65,0,0,1,760,1235.93ZM461.89,1099.11c1.87.35,3.74.68,5.62,1,5.31.76,11.12,0,19.46,0,0,.25,1.52,3.58,2.78,6.66-6.32,2-10.87,3.59-15.42,5.13-6.57,2.05-13.39,6.41-19.71,5.89-21.74-2-43.22-5.89-64.71-9.48q-60.41-10.53-120.32-21.29l-2.77-.5c-17.69-3.08-35.13-6.66-53.08-10l3.54-15.63c5.56.77,10.11,1.28,14.66,1.79,12.6,1.77,25.14,3.95,37.65,6.3,47.45,9,94.52,20.48,143.32,21.9C429.24,1091.31,445.56,1096.09,461.89,1099.11ZM674.77,594.32c-2.78,7.44-5.06,15.13-8.34,22.56Q629.8,701.42,592.9,785.79,579.43,816.73,566,847.71c-1.27,2.92-2.52,5.84-3.79,8.76q-5.65,13.11-11.31,26.23c-5.77,13.57-11.2,27.27-16.57,41-3.13,8-6.24,16-9.39,24l0,.09q-2.77,7.07-5.61,14.12c2.26-3.17,4.4-6.34,7.32-10.68,1.33-2,2.82-4.19,4.56-6.75,2.71,4.83,5.8,8.93,8.25,12.84a28.84,28.84,0,0,1,4,8.73,14.35,14.35,0,0,1,.39,2.52c.51,7.95-5.56,15.9-8.59,23.33,9.44-2.5,14.36-8.91,17.61-16.58,2.75-6.49,4.31-13.89,6.4-20.59,4.21-13-8-16.44-16.2-23.43a22.32,22.32,0,0,1-3.81-4.09c-.16-.23-.32-.44-.46-.67,1.77-2.57,5.05-7.95,5.81-7.69,10.62,4.35,10.36-5.39,12.89-10.51a192.32,192.32,0,0,0,10.87-25.89c3.28-10,8.84-15.64,18.95-14.62,10.62.77,14.16-5.38,17.7-13.84q45.12-108.81,91.24-217.63c1.52-3.84,5.56-6.92,8.6-10.25h.25c-.76-1.28-2.28-3.33-1.77-4.1a40.78,40.78,0,0,1,5.31-6.16c1.34,1.36,2.65,2.75,4,4.16A120.51,120.51,0,0,1,722,631.49c1,1.54-2.27,5.9-3.54,9v-.25c-.25,11,1.77,21.53-3.28,32.81-19.72,44.34-37.66,89.2-56.62,133.81-6.32,15.38-6.57,29.22,2.53,43.57,6.32,9.74,2.27,16.67-8.59,19.49-5.06,1.53-11.63,5.63-13.4,10A286,286,0,0,0,628,920.64c-3.52,18.09-6.29,36.18-9.3,54.27l4.5-6.08,3,2.56c-8.85,7.69-4,24.87-17.44,26.92-3.79,6.92-5.56,15.89-9.35,16.92-16.94,4.36-26.54,15.12-33.11,30.5a71.68,71.68,0,0,1-6.58,8.72v-24.61l-20.47,19-6.32-19,11.5-5.38,4.93-2.31c-8.59-7.95-15.42-16.15-24-22-10.62-7.17-13.14-16.4-11.12-28.19l-4.8,3.33c-1-3.85-4.3-8.72-3-11.54,2.78-6.92,8.09-12.56,11.12-19.48.38-.86.75-1.73,1.13-2.59.31-.7.61-1.4.91-2.1q4.35-10,8.68-20c1.8-4.16,3.62-8.33,5.42-12.49q30.07-69.36,59.69-138.68,3.43-8.13,6.83-16.26c11.25-26.88,22.3-53.72,33.86-80.38,5.57-12.59,10.34-25.18,13-38.41A115.2,115.2,0,0,0,649.38,615c.09-1.92.13-3.84.11-5.79-.16-12.83,3.18-18.76,10.53-19C663.84,590.1,668.73,591.52,674.77,594.32ZM615.62,782.73q2.1-3.68,4.09-7.41C632,752.29,641.48,727.61,651,703c4.11-10.58,8.24-21.15,12.63-31.55q11.75-27.3,22.74-54.6l2.2.59,1.6.44a42,42,0,0,1-1.52,7.69C656.82,702,625,777.86,593.13,854.25c-3.29,8.46-8.34,8.2-15.67,6.41,1.1-2.71,1.9-4.93,2.72-6.95.5-1.23,1-2.4,1.57-3.56C592.37,827.33,603,804.78,615.62,782.73ZM699,605.6h1l-.75,1.28-.76-.51C698.53,606.11,698.78,605.6,699,605.6ZM600.71,786.06,674,611.24l3.54,1.54c-.9,2.13-1.79,4.26-2.69,6.4q-35.43,84.47-70.61,168.93l-1.84-1.06Zm59.4,574.71a143.52,143.52,0,0,0-28.82-8.46c-3.79-.51-11.12,3.59-11.88,6.67-2.52,10.76-9.6,14.35-18.45,13.33-14.4-1.8-28.81-5.13-43.22-7.69-5-.82-8-3-9.09-6.43a14.35,14.35,0,0,1-.26-6.9c4.55-26.66,9.1-53.32,13.9-82,17.7,8.71,31.34,16.66,45.75,22.56.48.19.92.4,1.38.6,12.22,5.35,18.46,13,21.87,27.34,2.28,9.88,5.87,17.45,10.65,22.8,10.1,11.29,25.57,12.63,45.47,4.63,8.71-3.51,17.53-6.68,26.38-9.89,4.77-1.72,9.54-3.45,14.31-5.24-2.78,8.2-6.83,15.64-12.89,19.74C698.53,1362.82,680.08,1368,660.11,1360.77ZM633.82,942.68,636.6,944c-2.78,5.64-5.56,11.28-8.09,16.91l-3.53-.76Zm53.68-69.83c-6.13-3.11-12.42-6.16-15.26-14.5l13.17,5.3,9.42,3.79,10.52,4.24c-1.77,17.69-16.43,49.22-24.77,51.78l18.2-42.3a21.65,21.65,0,0,0-6.42-5.67C690.8,874.54,689.15,873.69,687.5,872.85Zm-31.69,31.9q-1.74,5.57-3.5,11.15-.9,2.88-1.81,5.77l-4.29-1.29L652,903.47l1.1.37Zm63.44,147.13c-5.81-8.45-12.63-13.84-24.26-11-5.56,1.28-15.67.77-17.19-2.31-1.35-2.4-1.7-5.37-1.64-8.56.06-3.94.74-8.23.88-12.2-3.58.24-7.32,1.05-10.95,1.57-4.05.59-8,.81-11.29-.54-3.58-1.44-6.55-5.66-8.67-11-4.32-10.93-5.09-26.62-.18-33.33.28-.38.54-.77.81-1.15,11.21-15.92,16.1-33.89,16.82-53.27,0-.57,0-1.14.07-1.72.11-3.68.94-6.48,2.65-8.5a11.16,11.16,0,0,1,6.31-3.47,25.49,25.49,0,0,1,4-.53c.39,0,.77-.05,1.18-.06,1.2,26.55-15.29,49.1-19.5,74.73a65.59,65.59,0,0,0-.21,21.14,43.57,43.57,0,0,0,6.57-5.38c5.36-5.81,12.61-9.83,19-9.07a11.79,11.79,0,0,1,6.55,2.92c4.66,4.31,3.59,8.55.94,12.68-2.22,3.47-5.55,6.85-7.52,10.13,10.11-3.48,17.62,2.21,25.4,6.59a45.31,45.31,0,0,0,6,2.9q18.57,7.3,36.39,16.14c.48.31.94.65,1.38,1a16,16,0,0,1,5.95,8.76c1.52,9.22,2.53,18.45,3.29,27.68C746.8,1068.29,746.55,1035.48,719.25,1051.88ZM210.71,1299.76a3.61,3.61,0,0,1-4.55-2.56q-3.9-7.7-7.81-15.4l-1.76-3.46-6.09-12c-9.51-18.71-19-37.46-28.32-56.32-5.05-10.51-1-29,7.08-36.65l6.07,9.48,16.17-41.78,4.8.51c1.27,3.33,3.54,6.92,3.54,10.51-.5,23.84.51,48.19-3.54,71.26-1.51,9.23-2.27,16.92,0,25.13,1.59,6,3.24,11.92,4.92,17.86C204.35,1277.48,207.58,1288.57,210.71,1299.76ZM167.24,841.43c1.85,2.51,4.42,5.11,6.83,7.77,3.5,3.87,6.67,7.87,6.82,12a23.34,23.34,0,0,1-5.22,16.43c-5.58,7.08-14.54,12-21.58,18.18C156.87,877.83,145.75,857.32,167.24,841.43ZM282.49,717.11l.76,2.31-5.56,2.3-1.26-3.07Zm-73,340.93a16,16,0,0,0-1.27,3.07l-21.73-3.59c2.27-6.15,3.28-12.81,5.81-13.58C205.15,1040.09,200.85,1056.24,209.45,1058Zm302,58.44,3.54-5.13a149.43,149.43,0,0,1,14.66,10c.5.51-2.53,5.38-3.79,8.2Zm6.06,39c-.5,1.29-1.26,2.31-1.76,3.59L301,1120.53l-31.41-5.63-54.08-9.7c1.27-6.15,2-10.51,3-15.12a38.15,38.15,0,0,1,6.06.26q22.48,4,45,8,40.83,7.24,81.65,14.86c47.77,9.23,95.54,18.46,143.31,28.71.16,0,.31.08.46.12C502.91,1143.94,509.87,1150.92,517.55,1155.44Zm-190.19,57.94a93.15,93.15,0,0,1-11.5-8,9.7,9.7,0,0,1-1.66-2.21,8.69,8.69,0,0,1-1.12-4.2c-1-12.81-1.52-25.89-2-39.22l22,4.62c-16.05,15.84-15.42,33.52,0,44.48a46.64,46.64,0,0,0,9.83,5.25l1.13.43c7.58,3,16.21,4,24.4,5.72a85.41,85.41,0,0,0,14.15,1.79C362.17,1226.23,343.89,1223,327.36,1213.38ZM292.86,1146c-7.65-2.92-15.42-5.48-23.27-7.82-28-8.31-57-13.57-85.42-20.38-8.34-2-11.88-5.64-10.11-16.15l95.53,17.12,33.29,6,17,3,5.8,1c3.29,6.15,5.31,14.09,7.59,14.09a15.43,15.43,0,0,0,7.2-2.34c2.4-1.31,4.8-2.91,7.2-4.06a16.53,16.53,0,0,1,2.74-.59c6.59-.78,9.46,3.93,11.85,9.39.8,1.83,1.54,3.73,2.35,5.55a13.82,13.82,0,0,1-.25,10.51c-.76,1.54-6.32,1.54-9.1.51C335.07,1154.42,313.58,1153.65,292.86,1146Zm-113.49-70.75-13.14-1.54.5-5.12,13.14,1.79Zm-7.08-21.27,5.31,2.81.76-.25-.25.25-9.36,5.13Zm198.16,98.43c4.8-12.82,13.4-10.25,23.26-7.69C387.89,1157.24,382.58,1159,370.45,1152.37Zm-172.38-56.14-16.93-3.33c1.77-9.74,3.28-17.69,5.05-27.17l17.19,7.43C201.61,1081.11,199.84,1088.28,198.07,1096.23Zm24.79-151.67c11.45-7.82,23.27-11,35-9.39,8.27,1.11,16.52,4.56,24.59,10.33,15.17,10.77,28.31,25.13,42.21,37.69l-2.78,4.1A188.64,188.64,0,0,0,298.22,972a138.29,138.29,0,0,0-22.38-9.73c-21.64-7.14-45-8.3-71.2-.83A93,93,0,0,1,222.86,944.56Zm55.08-28.79a57.23,57.23,0,0,1,7.83-2,59.35,59.35,0,0,1,19.38-.33c14.34,2.16,26.36,9.57,29.66,20.26ZM250,703c.5.89,1,1.82,1.51,2.79,1,1.84,1.93,3.82,2.91,6l-32.61-24.35C234.93,685.66,242.56,689.86,250,703Zm-17.87,20.92-1.22-1.13,3.29-2.82,3.08,3.42,5,5.55-1.46,1.48-.81.83-.64-.6ZM281,702.53l-.25,1-.66-.15-24.86-5.74c.25-1.29.5-2.82.75-4.36l25.53,7.18ZM373,712l.27-.26.25.26Zm-4.53,6.41c-17.19,23.33-34.38,26.4-59.4,10.51-17.44,11.28-36.39,18.71-57.88,17.43-14-1-25.84-5.69-34.31-15.47a47,47,0,0,1-5.59-8.07c-.72-1.33-1.41-2.7-2.06-4.14a8.65,8.65,0,0,1-.57-4.16,44.05,44.05,0,0,1,.64-4.51,34,34,0,0,0,.44-3.38c2.78,3.07,7.08,5.38,8.09,9a38.17,38.17,0,0,0,3.24,8.32,26.35,26.35,0,0,0,6.07,7.61c5.72,4.89,13.37,7,22.53,7.4a74.37,74.37,0,0,0,52.61-16.32,77.12,77.12,0,0,0,8.06-7.52,100.8,100.8,0,0,0,12.18,6.6c14.6,6.52,29.54,7.58,44.94-4,.5-.51,1-1.12,1.5-1.7C368.75,716.74,368.59,717.57,368.43,718.39ZM251.2,1399.18c-12.76-23.4-24.18-47.73-37.46-71l28.31,16.91c-7.75-26.61-15.16-52.72-18.76-78.77-4-29.14-3.27-58.2,7.14-87.84l5.56-1c8.59,27.43,18.7,54.6,25.78,82.54q.76,3.15,1.45,6.33c4.48,20.62,6.41,42,9.16,62.88a130,130,0,0,1,.57,16.38c0,2.49,0,5,.19,7.46,1,13,1.26,26,3.28,38.55.09.57.16,1.13.26,1.7,3.29,19.48,8.34,39,12.89,58.44l-3,1.28C272.74,1436.43,261.53,1418.11,251.2,1399.18Zm66.93,70.28c-.13-1.24-.29-2.46-.45-3.69-1.48-11-4.35-21.62-6.63-32.46-.07-.3-.13-.61-.2-.91-7.22-31.79-14.43-63.58-21.4-95.37a28.34,28.34,0,0,1,4.92,5.54c10.62,21,22.75,41.78,31.6,63.57,7.58,18.72,11.37,39,16.68,58.45a21.59,21.59,0,0,1-.25,9c-2,14.35-7.59,29,3.53,42.81C328.24,1506.63,320.15,1491.25,318.13,1469.46ZM395,1326.74c-5.53-3.65-10-8.19-11.87-12.88,4.51-2.35,14.66-2.43,24.27-1a76.82,76.82,0,0,1,11.07,2.39c4.51,1.37,8.08,3.1,9.65,5.06,4,5.13,4.3,10.51-3,13.33-.29.11-.58.21-.88.3C416.41,1336.41,404.22,1332.84,395,1326.74ZM501.13,1350c-15.68-3.58-31.85-4.61-48-5.89-6.5-.44-11-3.06-13.21-7.28-1.66-3.16-2-7.22-.94-11.95a19.88,19.88,0,0,0-2.78-13.58c-4.3-6.41-9.35-12.82-14.41-19-5.59,0-10.18.23-14.32.27a59,59,0,0,1-9.44-.53,54,54,0,0,1-17.94-5.38,12.42,12.42,0,0,1-3.55-2.9c-1.8-2-3.4-4.5-5.3-6.59,3.54-1.28,6.82-4.1,10.11-3.84,9.1,1,18.2,3.84,27.3,4.87a248.75,248.75,0,0,0,33.87.77c2.27,0,4.29-5.9,6.57-9.23-10.11-6.92-13.4-16.4-7.33-29.73-9.86,2.82-17.69,3.07-23,7.17a2.27,2.27,0,0,0-.31.31c-2.32,2.46-.71,10.5-1,17.38L368.18,1250c.89-.42,1.78-.8,2.66-1.16,8.73-3.61,16.71-4.65,24.68-6.48l.21-.05a134.63,134.63,0,0,0,23.69-7l.32-.12c7.33-3.34,14.15-8.46,21.23-12.82-.25-1.54-.76-3.33-1-4.87-6.86-2.32-13.31-4.84-20.1-6.63-.71-.19-1.42-.38-2.14-.55-16.43-3.84-33.11-6.41-49.29-10.77-3.45-1-6.36-3.51-9.29-6.13-1.59-1.41-3.18-2.86-4.86-4.12.75-1.28,1.26-2.82,2-4.1,6.57-.51,13.39-1.54,19.71-1,22.24,2.06,44.23,5.64,66.48,7.18,18.7,1.28,38.42,4.1,56.36.51,14.85-3,27.11-1,39.34,4.11,2.55,1.06,5.1,2.26,7.67,3.58,10.37,5.39,13.65,11.8,7.08,23.33-13.65,23.58-16.18,49.73-17.19,76.39a141.27,141.27,0,0,1-8.34,38.19C523.37,1349.49,514.27,1353.08,501.13,1350ZM1065,682.6l0-.1.25.52Zm-94.51-87.91a42.24,42.24,0,0,0,4.33,1.94c6.82,2.56,14.15,2.56,21.23,3.84-1.6-6-3-11.87-4.57-17.87-.16-.62-.32-1.24-.49-1.86l.51-.52-.25.77c.53.6,1.08,1.18,1.63,1.77,4.89,5.22,10.2,10.16,14.29,15.92,6.48,9.2,12.56,18.68,18.62,28.13q3.32,5.18,6.66,10.32l3-1.79c-1-2.11-2.14-4.22-3.24-6.34a134.24,134.24,0,0,1-5.86-12.38c-3.54-8.46-6.57-17.43-9.86-26.14,1.18.92,2.32,1.87,3.44,2.83a110.93,110.93,0,0,1,21.53,25.78,191.9,191.9,0,0,1,12.06,23c.21.47.43.93.63,1.4,4.72,10.93,6.84,23.27,9.56,35.05.26,1.14.53,2.27.81,3.4l-7.75-10.51-18.54-25.12c-4.83-.73-8.75-.69-12-1.24a14,14,0,0,1-3.68-1.07c-13.45-6.28-26.54-12.92-39.73-19.62q-3.63-1.86-7.28-3.7a12.88,12.88,0,0,1-5.56-4.88c-5.31-9.48-10.37-19-15.42-28.45C960.88,589,965.5,592.16,970.46,594.69ZM873.18,465.13l-.5-.51.71.18Zm-341.72-31a13.82,13.82,0,0,1-12.64-1c-2.53-2-2.78-7.95-2.78-12.31,0-2.23.88-4.37,2-6.83.66-1.5,1.4-3.12,2.07-5,1.72,1,3.41,1.91,5.09,2.81,6.2,3.36,12.09,6.32,17.66,9.75,8.09,5.13,15.42,6.67,24.77,2.05,4.3-2.05,10.62.26,15.92.51,0,1.8-.25,3.59-.25,5.39-5.81,7.69-13.9,10-22,5.38C550.92,429,541.82,428.47,531.46,434.11ZM445.77,88.31l-.76.26-.25-.77Zm4.8,16.92H405.08C415.69,91.9,431.11,91.64,450.57,105.23Zm.26-9.74c.25-1,.76-2,1-3.08l17.94,5.64-1,2.57Zm-31.6,30.25a9.68,9.68,0,0,1-1.26,2.82l-2.53-1.28a10.26,10.26,0,0,1,2-2.57C417.72,124.46,419.23,125.48,419.23,125.74Zm3.54-11.54c5.06-9.23,14.91-4.36,21-1.54l-8.85,18.72C426.82,128.3,418.22,122.92,422.77,114.2Zm18.71,14.87L464,134.2l1.26,3.59-12.38,8.45Zm39.17,14.61.26,5.9-16.43.77c0-1.8-.26-3.59-.26-5.39Zm150.14,62.8-1.31-.58-2.71-1.22-28.59-12.81-.25-3.84c5.31-.26,11.37-2.57,15.67-.77C621.94,190.85,631.55,195,630.79,206.48Zm16.93,67.93c.26,10.26-5.3,21-9.6,31-1.27,2.56-7.58,2.56-11.63,3.59a41.82,41.82,0,0,1,.51-11.28c.76-3.08,3.54-5.38,6.06-8.46l-6.56-4.43-4-2.75c11.62-19,9.35-37.68-4.3-54.85l15.11-1,7.64-.52C643.17,240.32,647.47,257.24,647.72,274.41ZM314.59,151.88l3.54.77a79.32,79.32,0,0,1-2.53,13.59c-.25.77-5.05,0-8.84,0C310,160.34,312.32,156,314.59,151.88Zm37.66,93.82c2.78-1.79,2-9.48,2.28-14.35.25-4.1-1.27-8.46-.51-12.56,1.88-9,4.4-18.06,6.57-26.68l.51-2,1,.54,18.7,10c10.82-15.35,14.79-19.63,23.62-20.87,1.5-.21,3.12-.33,4.95-.41,4.29,0,8.59,2.05,12.89,3.08-1,3.84-2,7.69-2.78,11l11.12,13.84-8.09.26-8.34.26c.25,2.3.25,3.07.5,3.07a82.28,82.28,0,0,1,13.54,5.77c8.69,4.74,15.7,11.17,20,20.33a47.75,47.75,0,0,1,3.91,13.38c.25,2.05,4.8,4.36,7.84,5.12,21.23,6.41,42.71,12.31,63.94,19.23,5.56,1.79,11.88,5.38,14.92,10,14.4,22,32.1,34.35,59.65,29.22a7.61,7.61,0,0,1,4.33.68c4.6,1.89,10,6.92,11.84,11.11,3.54,7.69.26,15.12-10.11,17.69-17.94,4.36-35.13,4.1-50.8-6.92-3.54-2.57-7.33-4.36-10.87-6.67-8.85-5.64-16.18-4.87-22.49,4.62a89.54,89.54,0,0,1-15.93,17.94,18.82,18.82,0,0,1-14.66,3.33c-2-.51-3.54-8.71-3.28-13.33a82.89,82.89,0,0,1,1.44-10.76c1-5.64,2.29-11.28,2.6-16.92,1-14.49-5.27-20.72-18.45-19.42-.59.06-1.16.11-1.77.19-6.32.77-12.39,1.8-18.7,2.57-21.74,2.56-41.46,7.69-50.81,31.27-1.26,3.08-7.07,5.64-10.87,5.9-4.8.25-9.85-1.54-16.93-2.82,0-5.28,1.36-12.34.88-19.08a26.63,26.63,0,0,0-1.39-7.07c-4.55-13.33-12.63-25.38-20-37.43C347.7,260.83,339.62,254.16,352.25,245.7ZM448.5,599.8c1.62,1,3.24,2,4.86,3l-2,3.33-2.78-1.57-10.36-5.86,2.27-3.84C443.14,596.43,445.82,598.13,448.5,599.8Zm-116.83-75,.7.17a5.11,5.11,0,0,1,1.94,1,235.33,235.33,0,0,1,20.47,18.71l.09.09c5.78,5.72,11.65,11,18.43,14.78a42.55,42.55,0,0,0,18.13,5.38c12.39.77,12.13,2.31,4.55,11.54A53.14,53.14,0,0,0,393.2,583c-20-12.81-39.43-20.5-58.39-4.35-3-9-5.9-17.32-8.51-25.46-1.79-5.58-3.44-11.06-4.88-16.58a13.81,13.81,0,0,1,3.28-10.77,5.39,5.39,0,0,1,3-1.21A12,12,0,0,1,331.67,524.75ZM190.74,462.82c11.12-3.07,24.27-1.28,36.15.26,24.6,3,47.73,10.09,64.27,29.87q2.46,2.94,4.73,6.27h.2c-3.54.76-9,.51-10.06,2.55a173.49,173.49,0,0,0-6.32,21.54c-6.32-1.28-13.9-2.31-21.23-3.85-18.7-4.1-37.91-5.89-52.07-22.3-.11-.14-.25-.27-.37-.4-4.62-5-12.75-6.64-21.36-11.13,0,.69.08,1.34.12,2,.42,6.6.64,9.82.64,9.82l-30,20.47L127.3,537.16l-2-2.31c8.09-9.48,15.67-20.25,24.52-28.45,1.54-1.44,3.16-2.79,4.81-4.12,7.76-6.26,16.46-11.54,25-17.67-10.29-6.11-18.39-3.69-26,.21s-14.89,9.41-23.3,9l3.29,7.69c-5.31-.77-9.86-2.82-10.36-5.9a10.81,10.81,0,0,1,5.31-9.23c8.16-3.37,16.32-6.86,24.54-10.22,3.36-1.37,6.73-2.73,10.11-4C172.29,468.63,181.44,465.4,190.74,462.82Zm-78.35,49c0,2.05-1.77,3.85-3.54,6.92l-5.56-5.89c1.52-1.54,3-3.85,5-4.36C109.36,507.94,112.39,510.76,112.39,511.78Zm4-10.25,7.08,6.66L121,511l-7.07-6.66ZM85.09,908.85c-.76,2.31-4.8,3.84-7.33,5.89L76,913c-1,4.1-2.27,8.46-3.28,12.56l-4-.51c.51-6.67-1-14.1,1.77-19.74,9-17.69,19.17-34.63,28.9-52a13.84,13.84,0,0,1,2.44,1.81C96.47,873,91.16,890.9,85.09,908.85Zm-47.52,163a6.86,6.86,0,0,1-1.51,1.28c0-.26-.26-.51-.51-.77.51-.51,1-.77,1.52-1.28ZM34,1043.43l-5.31,5.12-2.28-3.33,6.07-4.1Zm-7.59,63,4.55-5.64,3.29,2.82L29,1108.28C28.73,1108.54,27.72,1107.51,26.45,1106.48Zm36.15-19.73c.25,14.61-7.08,17.68-18.45,20.5Zm1.92,61.5c-9-1.09-16.59-11.57-18.1-25.36-1-9-.25-10.51,9.35-13.33C53,1123.79,51.26,1138,64.52,1148.25Zm-9.25-118.67L51.73,1026l38.92-36.91,3.29,2.82C87.11,1016,74.48,1028.3,55.27,1029.58ZM187.2,1399.22c2.93-1.09,6.8,1,10.75,3.42,2,1.26,4,2.61,6,3.72.51.28,1,.56,1.49.81-.5,1.54-1,3.07-1.51,4.61l-33.37,13.59c.45-7.49,2.54-14.14,6.38-19A21,21,0,0,1,187.2,1399.22Zm9.18,46.87a44.77,44.77,0,0,1-8.42,1.63,82.32,82.32,0,0,1-14.89,0c.35-11.2,8.39-22.6,18.68-25.14,10.11-2.57,17.19,3.07,23.26,10.25A35.4,35.4,0,0,1,196.38,1446.09Zm33,93.35c-.75,5.89-1.51,11.79-2,17.43s-2.78,12.05-1.26,17.17c5.56,18.72,14.66,35.38,29.57,48.2,10.87,9.48,21.74,19,32.35,28.45a93.1,93.1,0,0,1,6.58,7.43l-2,2.57c-3-1-6.32-1.29-8.59-3.08-14.66-11.54-30.33-22-42.72-35.63s-23.56-28.11-26.42-45.63c-.18-1.14-.34-2.28-.45-3.44a57,57,0,0,1,1.85-20.66c.11-.33.25-.65.37-1a86.23,86.23,0,0,1,6.46-13.89Zm604.14-183.39c-1.09-6.32-1.84-11.93-4.6-16h0c-7.83-11.53-17.69-21.27-26.78-32-5-5.76-9.67-11.66-12.88-18.63A48.13,48.13,0,0,1,785,1266.7c29.29,28.21,53.63,58.34,89.4,73.76,1.27.55,2.56,1.09,3.87,1.6-5.31,16.92-24.77,25.38-43.23,21.27C834.4,1360.84,834,1358.4,833.55,1356.05Zm102.72,287.26c8.16,7.11,10.94,12.12,8.84,18.19-1.17,3.4-3.86,7.13-8,11.75-1-11.28-1.77-20-3-31.79C934.86,1642.09,935.58,1642.71,936.27,1643.31Zm43.83-121v45.58h-5.31c.76-18.2,1.77-36.4,2.53-54.6h2.78Zm-1.86-71.82c3.37,2.77,8.15,5.66,7.92,8-1,8.22-3.16,16.28-5.28,24.44-.52,2-1,4-1.54,6.06h-2.28l-2.52-37.17,2.52-2.31C977.42,1449.8,977.82,1450.14,978.24,1450.49Zm-1.68,130h2.52c0,.64.09,1.27.14,1.9,1,14.24,2.16,28.47,2.64,42.7a1.48,1.48,0,0,1,0,.21c0,1.74-3.1,3.72-4.81,5.69-1.26-2.31-3.28-4.61-3.54-6.92a158,158,0,0,1,.26-19C974.54,1596.86,975.8,1588.4,976.56,1580.45Zm-.15,62.38c1.08-1.1,2-1.88,2.93-1.88,1.63,0,3.49,2.85,5.16,4.7.13.15.27.29.4.42a50.58,50.58,0,0,1-6.83,5.9c-.5.26-3-2.82-5.3-5.38C974.15,1645.31,975.34,1643.92,976.41,1642.83Zm168.73-443a116.88,116.88,0,0,1-6.06-10.77c-4.55-11.27-6.83-24.35-13.9-33.83-20.22-27.94-40.19-56.4-64-80.75-40.44-41.27-69.25-90-96.55-139.7-9.35-16.92-15.42-35.89-22-54.35-2.28-6.15-1.27-13.32-1.77-20l2.4,1.31,18.32,10a3.41,3.41,0,0,1,.76,1c23.51,42.56,53.59,80.24,82.91,118.69,29.82,38.71,53.33,82.8,79.36,124.58a28.16,28.16,0,0,1,3.54,8q3.16,9.94,6.19,20,3.9,12.88,7.71,25.86c2.78,9.48,5.56,18.71,8.09,28.2Z"/><path d="M1119.36,860.66c-2-12.31-4.8-24.36-5.3-36.66-1.27-23.07-6.58-43.58-24.52-59.21-2.78-2.69-5.49-5.51-8.11-8.39s-5.16-5.84-7.56-8.79c-7.08,38.71,32.1,175.34,64.7,226.86q-4.12-24.12-8.13-47.89C1126.72,904.51,1123,882.58,1119.36,860.66Z"/><path d="M50.74,901.47a5.11,5.11,0,0,0,1.83-2.24c0-.12.09-.24.13-.37Z" fill="none"/></g></g></svg>