<svg xmlns="http://www.w3.org/2000/svg" viewBox="0 0 1154.03 1651.14"><g id="Layer_2" data-name="Layer 2"><g id="Max_Payne_1_Cover" data-name="Max Payne 1 Cover"><path d="M612.93,359.1a19.68,19.68,0,0,0-3.9,15.8c7.2-3.5,15.1-7.6,23.9-12.5,6.5-3.6,13-7,19.6-10.4,2.1-1,3.2-3.1,3.5-6.1Q628.24,339.3,612.93,359.1Z"/><path d="M705.53,256.7c0-.1-.2-.1-.5-.1a38.57,38.57,0,0,1-12,2h-1c-3.1-2.2-7.1-3.5-12-4h-1c-11.8-11.3-26.6-19.1-44.4-23.6a42.4,42.4,0,0,0-8.6-1.4c-8.1-.5-12.5.8-13,4,3.4,2.7,4.2,5.4,2.2,8.1a2.51,2.51,0,0,0-.2.9,21.71,21.71,0,0,0-12.2,4.7,1,1,0,0,1-.8.3c-.6,17.6,9,27.3,28.9,28.9.1,0,.4.4,1,1.2.4.6.7,1.2,1.1,1.9.1,5.1-3.2,6.2-10.1,3.2a1.35,1.35,0,0,0-.9-.2,60,60,0,0,0,18.8,17.3,1,1,0,0,1,.2.7q30.11-1.65,54.1-13.8c.2-.2.5-.2.9-.2a47.82,47.82,0,0,1,19.8-17.4.87.87,0,0,0,.2-.6C710.43,266.8,706.93,262.9,705.53,256.7Zm-54.6,12.2c-1.4,7.2-5,9.2-10.9,6-1.7-.3-2.2-1.6-1.5-3.8,3.5-10.9,7.7-11.9,12.5-3.2C651,268.2,650.93,268.5,650.93,268.9Z"/><path d="M932,1643a3.74,3.74,0,0,0-1-.1c-3.9-2.8-5.9-7.1-6-13v-1c-3.9-2.1-4.1-4.3-.8-6.8a1.49,1.49,0,0,1,.8-.2c4.9-.9,12.6-.9,23-.1a3.07,3.07,0,0,0,1,.1v-32c-2.8-3.3-4.4-7.6-4.9-13a3.74,3.74,0,0,1-.1-1q-10.35-14.7-11.7-39.9a67.52,67.52,0,0,0-3.3-18.1c-.7-2-1.4-4-2-6,.1.1-.4-11.3,0-11.3a210.55,210.55,0,0,0,18.3-26.8c.1-.2.3-.2.7-.2a24.56,24.56,0,0,1-7.4-11.9c-.1-.1-.3-.1-.6-.1-1.1-15.3-1.4-31.3-1-48v-.7a23.24,23.24,0,0,1,6.7-10.3.77.77,0,0,0,.3-.7v-15c3.3-3.7,5-9,5-16v-1q3.76-3.44,7.4-7,41.7-40.62,68.2-97.3c4.6-9.8,9.4-19.5,14.6-29.1q6.93-12.91,13.67-25.94,21.67-41.77,41.6-84.67c1.34-2.9,2.7-5.79,4-8.69,11.9-26,22.7-52.7,32.3-80.4q15.56-45.1,23.2-97.9-2.13-26.74-11-46.72a90.43,90.43,0,0,0-28.79-36.58,1.53,1.53,0,0,1-.2-.7c1.53-5,3.2-10,5-14.93q3.16-8.88,6.83-17.57a166.48,166.48,0,0,1,16.2-29.5,100.44,100.44,0,0,1-3-28v-1.3c-.25-.39-.48-.8-.7-1.21a26,26,0,0,1-2.72-8.07,41.91,41.91,0,0,1-.58-5.72v-1c-1.75-1.33-3.58-2.56-5.44-3.72a70.62,70.62,0,0,0-12.66-6.18,2.74,2.74,0,0,0-.9-.1c2.8,2.2,5.5,4.4,8.2,6.7a1,1,0,0,0,.8.3,42.42,42.42,0,0,1,3.5,15h-.5c-6.4,6.3-16,9.8-28.9,10.4a24.18,24.18,0,0,0-9.2,2.4c-2.7,1.4-5.3,2.8-7.9,4.2-2.24-.29-4.49-.5-6.74-.67a127.48,127.48,0,0,0-13.26-.33h-1a59.08,59.08,0,0,1,5-15.64,47,47,0,0,1,4.66-7.56,1.12,1.12,0,0,0,.3-.8c-2.63,1.13-5.31,2.15-8,3a103.82,103.82,0,0,1-13,3.45v-.5c-2.61-7.93-1.66-14.79,2.86-20.46a25.36,25.36,0,0,1,2.24-2.44c5.4-5.3,11.1-10.3,16.9-15.1,14.3-1.7,23.7,1.5,28.1,9.4a7.18,7.18,0,0,1,.9,3.6c-.7,3,2.2,3.8,8.9,2.5a1.24,1.24,0,0,0,.1-.5c-1.3-17.1-8.4-28.3-21.1-33.8a1.5,1.5,0,0,0-.9-.2,157,157,0,0,0-5.65-17.87c-.41-1.08-.81-2.16-1.25-3.23a2.74,2.74,0,0,1-.1-.9,139.14,139.14,0,0,0-14.1-7.8,1.35,1.35,0,0,0-.9-.2q9.62-25.65,19.57-50.85,5.58-14.18,11.23-28.25a2.8,2.8,0,0,0,.2-.9c-12.29-3-22.08-8.59-29.45-16.58a54.15,54.15,0,0,1-7.95-11.22c-.1-.2-.3-.2-.6-.2.4-16.3,4.4-28.9,11.8-38,2.7-3.1,5.2-6.4,7.6-9.7,6.8-9.2,11.9-20,15.6-32.3a22,22,0,0,1,.47-18,33,33,0,0,1,3.43-5.77,214.35,214.35,0,0,0,22.1-37.2c-5.7-5.46-11.68-10.71-17.8-15.76q-2.09-1.74-4.2-3.44a4.37,4.37,0,0,1-1.3-2.8c-.3-1.4.2-2.1,1.3-2-3.8-8.3-10.1-12.3-19-12h-1c-4.7,3.2-10.1,3.3-16.1.2a1.35,1.35,0,0,0-.9-.2c-5.5.8-9.8,2.9-12.8,6.2a1.49,1.49,0,0,0-.2.8c-.2,6.6-.5,14.6-1,24v1q-27.33,49.35-54.8,98.24L983,532.2c-5,8.9-10.4,17.4-16,25.4a28.39,28.39,0,0,0-7.1,2.8,3.09,3.09,0,0,1-.9.2q-28,50.05-58.7,97.9c-1.1,1.8-3.6,2.5-7.3,2.1-4,3.5-3.8,6.9.7,10.3.2.1.3.3.3.7q-1.8,11.7-7.8,19.2a1.49,1.49,0,0,0-.2.8,108.74,108.74,0,0,1,7.9,21c0,.3.1.6.1,1-6.1,4-9.4,9-10,15v1c1.2,2.4,3.9,3.4,8,3h1a37.35,37.35,0,0,1,14.1-7.9,2.29,2.29,0,0,1,.9-.1c8.8,4.1,13.6,12.4,14,25v1c-4.1,5.2-6.6,11.9-7.5,20h.5a30.79,30.79,0,0,0,13,3h1a447.17,447.17,0,0,1,22.4,41.8c0,.1.2.2.6.2a373.48,373.48,0,0,1-12.1,76.7,127.13,127.13,0,0,0-3.6,20.3c-2,22.5-.6,43.1,4.3,62.1.4,1.7-.2,2.7-1.6,2.9a470.51,470.51,0,0,1-34.6-55.2A953.87,953.87,0,0,0,835.83,812c-3.7-5.1-8-6.6-12.8-4.4-4.5-2.6-5.7-5.2-3.7-7.8a1,1,0,0,1,.7-.2,47.55,47.55,0,0,1-3-15v-1a410.46,410.46,0,0,1-68.3-88.3c-5.8-10.1-11.9-20.2-18.1-30.1A417.19,417.19,0,0,0,696,617.6a146.3,146.3,0,0,1,10.1-34.4c4.6-10.7,9.4-21.4,14.2-32q13.24-29.55,43.1-43.8a61.35,61.35,0,0,0,19.8-14.7c8.1-9.2,13.7-20.6,16.8-34.3,3.1-14.4,9.1-25.7,18-33.8a78.63,78.63,0,0,0,9-1.9,3.07,3.07,0,0,1,1-.1q44.1-33.8,62.4-93.2A524.8,524.8,0,0,1,912,271.6q11.4-5.25,12-21v-1c3.4-.6,4.5-1.9,3.2-4.2a2,2,0,0,1-.2-.8c-2.9-4.5-4-8.8-3.5-13h.5a27.14,27.14,0,0,1,7.2,3.7,1,1,0,0,0,.8.3,51,51,0,0,0,5.3,10.7c.1.2.3.3.7.3a44.43,44.43,0,0,1,4-16.5v.8c2.1,3.2,4.1,4.7,5.9,4.5.1,0,.1-.2.1-.5-3.4-7.3-3.4-14.4-.2-21.1a2.8,2.8,0,0,0,.2-.9,111,111,0,0,1,10.4,15.8c0,.1.2.2.6.2-3.6-7.5-7.2-14.9-10.8-22.1a1.5,1.5,0,0,1-.2-.9c4,.3,8.3,1.8,13,4.5v-.8a78.7,78.7,0,0,1-14.6-26.2c-.3-.9.2-1.2,1.6-.8a14.73,14.73,0,0,0,7,6.5v-.5a14.36,14.36,0,0,1,8.86-3.42,18.36,18.36,0,0,1,5.94.82c.1.1.2.2.2.6,1.4-1.5.3-3.6-3.5-6.4s-4.3-5.7-1.5-8.6c5,3.4,7.2,3,6.5-1h.5c4.1-1.6,8.4-3.1,12.8-4.5.1,0,.2-.2.2-.5a101.62,101.62,0,0,1-20-19.3c-3.4-4.3-2.5-6.6,3-6.7,1.7-1.5.8-3.7-2.8-6.6a4.49,4.49,0,0,1-1.4-3.4c-.1-1.2-1-1.5-2.8-1a28.17,28.17,0,0,1-4.6.66c-3.94.14-4.32-1.63-1.1-5.46a1,1,0,0,1,.7-.2l.4-.06c6.19-1,10.76-.39,13.6,1.66,1.5,1.2,2.9,1.3,4,.4-6.2-2.3-7.5-4.5-3.9-6.8a2.56,2.56,0,0,1,.9-.2c4.1-.1,7.4-2.4,9.9-7.1.7-1.2-.3-1.2-2.9.1-2.3-.7-2.8-2.4-1.5-5H976a126.33,126.33,0,0,1-19.6-5.58A90.15,90.15,0,0,1,934,88.9c-2.6-1.9-5.2-3.9-7.6-5.9-1.8-1.4-2.3-2.9-1.4-4.4-5-.9-6.7-3.9-5.2-9.1a2.8,2.8,0,0,0,.2-.9,41.34,41.34,0,0,1-15.1-4.8,1.5,1.5,0,0,0-.9-.2,15.61,15.61,0,0,0-3.8-5.3,1.17,1.17,0,0,1-.2-.7c-4.83-2.37-9.7-4.71-14.57-7Q850,33.63,813.23,18.2c-.2-.1-.2-.3-.2-.6q-9.57-.95-19.08-2.37-11.67-1.73-23.22-4.13a102.14,102.14,0,0,0-29.8-1.9c-15.4,1.2-31.1,2-46.9,2.4A25.34,25.34,0,0,1,704.83,0a73.21,73.21,0,0,0-21.7,11.4c-2.8,2-6.5,3.1-11.1,3.2a17.34,17.34,0,0,1-6.8,5.4c-.2,0-.2.2-.2.6-8.1-2.3-13.3-1.7-15.4,1.8-.1.1-.2.2-.6.2-.8-.9-1.6-3.2-2.5-6.9,0-.1-.1-.1-.5-.1-.6,4.3-2.6,7.5-5.8,9.3-.2.1-.2.3-.2.7,3,14-2,23.3-15.1,27.8a2.51,2.51,0,0,1-.9.2c-5.8-2.7-8.8-2-9,2v1c-7.9,2.9-15.2,3.8-22,2.5l.9.6a4.34,4.34,0,0,1,1.1.9q9,6-3,6h-1c1.9,2.2.9,4-2.9,5.4-.1.1-.1.2-.1.6-7.7.6-12.3,2.3-14,5l.9.3a2.22,2.22,0,0,1,1.1.7c-.6,6.1-3.8,11.1-9.5,15h.5c3.8-2.1,6.3-2.5,7.4-1.4,1.5,1.6,4,2.4,7.6,2.4a8.53,8.53,0,0,0-4.9,6,3.07,3.07,0,0,0-.1,1c1.5,5.3.1,9.3-4.2,11.8a1.86,1.86,0,0,1-.8.2c-.7,7.1-1.4,13.3-2,18.5l1-1.5c4-.3,3.9,2.6-.4,8.7-1.9,2.7-1.7,3.4.4,2.3,4.5-3.5,6.2-3.1,5.1,1a3.07,3.07,0,0,0-.1,1,41.39,41.39,0,0,0-7.9,15,3.07,3.07,0,0,0-.1,1q3.45,3.45,3,6v1c-2.3,3.1-4.5,6.1-6.8,9.2a1.49,1.49,0,0,0-.2.8,28.05,28.05,0,0,0,5.7,14.2,1,1,0,0,1,.3.8c-.5,5.5-2.4,9.6-5.8,12.3a1,1,0,0,0-.2.7q-34.15,12-27.4,62.2a134.11,134.11,0,0,1,.9,23.7c-1.1,17.4,2.4,29.8,10.3,37.1a32.86,32.86,0,0,1,8.4,12.3c.6,1.6,1.2,3.2,1.8,4.7,10.8-12.5,13.6-30,8.4-52.3a6.43,6.43,0,0,1,.4-3.8c17.4-42.3,34.6-85.2,51.6-128.4a132.23,132.23,0,0,1,14-26.9A52.32,52.32,0,0,1,655,114.6q33,15,66.3,30.4a17.31,17.31,0,0,1,3.2,2.1,53.6,53.6,0,0,0,17.5,9.5,33.14,33.14,0,0,0,6.2,7.7,1,1,0,0,0,.8.3c14.1-.1,24.4,5.3,30.8,16.1a2.31,2.31,0,0,1,.2.9c-6.5,7.5-13.9,11.2-22,11h-1c-4,6.5-3.1,8.7,2.8,6.5.1,0,.2-.2.2-.5,1.6.9.7,3.9-2.8,9.1a2.51,2.51,0,0,0-.2.9c5.1,10.1,14.2,16.3,27,18.6,4.8.8,8.1,2.9,10,6.4-2.3,8.4-6.6,14.8-13.1,19.3-2.2,1.6-4.5,3.1-6.9,4.7a186.87,186.87,0,0,0-48.1,12.8,3.09,3.09,0,0,1-.9.2,214.71,214.71,0,0,1-9,46.7,214.76,214.76,0,0,0-9,46.3c-5.7,5.7-14.3,8.3-26,8h-1c-5-3.4-10-5.1-15-5h-1c-5.3,1.1-8.1,4.4-8.5,10h.5c4.8,2.8,11.1,4.3,19,4.5v.5a254,254,0,0,1-7,26.3,6.36,6.36,0,0,0,0,4.7q3.75,7.5,10.8,3.6a.87.87,0,0,0,.2-.6c4,0,7.2,2.4,9.8,7.1a1.88,1.88,0,0,1,.2.9c-5.9-.8-11.9-1.5-18-2h-1c-18.1-6.5-37.5-8.7-58-6.5v.5c2.9,7.7,10.5,12.8,22.6,15.5A74.05,74.05,0,0,1,662,442.6c-4.4,3.9-9,7.7-13.8,11.3a1,1,0,0,0-.2.7c-5.6,0-9.6,1.7-11.8,5.1a2.51,2.51,0,0,0-.2.9c2.4,9.6,9,15.3,19.9,17a29.52,29.52,0,0,1,9.1,3c2.5,6.3,2.4,12.9-.5,19.8,0,.1-.1.2-.5.2a40.18,40.18,0,0,1-16.9,8.4c-.1.1-.1.2-.1.6a61.33,61.33,0,0,1-31.1-5.8,1.35,1.35,0,0,0-.9-.2,49.14,49.14,0,0,0-23.1-20.8,1.35,1.35,0,0,0-.9-.2,397.64,397.64,0,0,1-41.9-71.5c-1.9-4.2-2.5-9.4-1.8-15.5.2-2.5-.2-4.2-1.3-5a119.77,119.77,0,0,0-3.2,27c-.1,9.8-3.7,17.5-10.8,23a134.43,134.43,0,0,0-25-6.9,3.74,3.74,0,0,0-1-.1c-4.4,11.6-10.8,21.2-19.2,28.7a1.12,1.12,0,0,1-.8.3c-3.3-1.4-5.3-4.1-5.9-8a3.74,3.74,0,0,1-.1-1c-9.5-5.9-21.2-9.5-35-11h-1a649.15,649.15,0,0,1-49.8,45.3,1,1,0,0,0-.2.7c-1.8,10.6-6.2,18.5-13.3,23.6a15.3,15.3,0,0,0-5.7,8.4,219.43,219.43,0,0,1-38.1,6.5c-34.6,2.9-65.2,9.9-91.8,20.8-21.1,8.8-39.3,20.5-54.5,35.3q-45.49,44.06-71.3,106.9c-17.6,42.7-34.1,85.7-49.8,129a72.74,72.74,0,0,0-2.8,9.6c-8.9,39.9-16.8,80.2-24,121l-.66,3.92c-2.5,15-4.58,30.6-6.14,46.88q-3.49,34.9-7.5,75.1-8.1,81.75-17.1,162.9-3.59,32.26-6.17,64.37Q1.73,1345.14,0,1387.16v264H936.09C937.94,1646.88,936.6,1644,932,1643ZM1073,880.6c4.07.28,7.65,2.58,11,7,0,1.3-.2,2-.5,2.1-7.69,1.92-11.52-.87-11.52-8.2ZM545,264.9v.5C543.53,265.4,543.53,265.2,545,264.9Zm17,23c-.4,0-.6,0-.6.2a23.31,23.31,0,0,1-9.4,9.8,1.42,1.42,0,0,1-.9-.3c-9.4-5.9-12.5-15.2-9.1-27.7.3,0,.5,0,.5.1,2.1,9.1,5.9,16.4,11.5,21.9,1.4.4,1.9.1,1.5-.8-4-10.2-1.5-16.2,7.5-18.2v1A55.74,55.74,0,0,1,562,287.9Zm-10-32c-1,0-1.5-.1-1.6-.3a10.86,10.86,0,0,1,.2-5.1c2.9-9.7,7.7-12.6,14.4-8.6v1C566.43,252.9,562,257.3,552,255.9Zm334,717h0c.6,4.3-.3,7.1-2.77,8.4-.9.3-1.4.3-1.6-.2C879.16,975.2,880.56,972.4,886.06,972.9Zm16,254a2.8,2.8,0,0,1-.2.9C900.73,1229.9,900.83,1229.6,902,1226.9Zm34-121.3h-.47c6.4-9.2,12.2-9.6,17.5-1h0c-1.4,5.9-3.8,6.7-7.2,2.3C943.63,1104,940.33,1103.6,936,1105.6Zm7,1.3v.5C939.63,1106.7,939.63,1106.5,943,1106.9Zm1,134a2.8,2.8,0,0,1-.2.9c-1.7,5.8-6,6.8-12.8,3.1a5.51,5.51,0,0,1-.69-.83,2.12,2.12,0,0,1,0-2.77h0C935.73,1234.4,940.23,1234.2,944,1240.9Zm132.8-544.1c-6.6,11.9-16.9,20.3-30.8,25.1a2.56,2.56,0,0,0-.9.2,5.12,5.12,0,0,1-.68.41c-2.16,1.16-3.33-.07-3.42-3.61a3.07,3.07,0,0,1,.1-1c.09-.22.19-.43.28-.65,3.22-8.07,8.32-14.26,15.62-18.35a2.51,2.51,0,0,0,.9-.2c7.7-2.8,14-3.7,19.1-2.8A2.8,2.8,0,0,1,1076.83,696.8ZM1059.93,583a26.38,26.38,0,0,1,16.1,15.9v1q.38,11.61-2.61,19.85A28.23,28.23,0,0,1,1064,632.9a4.17,4.17,0,0,1-.6-.1,46.83,46.83,0,0,1-1.4-13.9,1.88,1.88,0,0,0-.2-.9,45.8,45.8,0,0,0-14.8-16.1v-1q-.45-15.45,12-18A2.5,2.5,0,0,1,1059.93,583ZM932.53,998.6a237.27,237.27,0,0,1-.47,24,1.09,1.09,0,0,1,.8.2,42.55,42.55,0,0,0,14.2,4.8,2.93,2.93,0,0,1-.7,2.1c-3.2,2.4-7.9,2.7-14.3.9,0-.4-.1-.6-.3-.7-2.2-1.5-4.5-2.9-6.7-4.3a2.56,2.56,0,0,0-.9.2c-5.2,3.3-9.5,4.2-13.1,2.8,0-.4.1-.7.1-1a20.59,20.59,0,0,1,12.9-13c0-.4.1-.7.1-1,1.8-7.4,4.5-12.4,7.9-15Zm-1.77-10q-4.69,4-8.7-2.7c0-1,.1-1.5.4-1.6h0c2.5-.8,5.4.4,8.63,3.6A.89.89,0,0,1,930.76,988.6Zm-30.7-20.7c-.1,6.1,2.6,9.6,7.9,10.6h0c4.5.8,8.9,1.6,13.13,2.4,0,.3-.1.5-.2.5-3.2,1-6.5,1.8-9.8,2.5,0-.4-.1-.6-.2-.6-4.5-2-8.7-4.2-12.8-6.4-.4,0-.5-.1-.5-.1C896.66,972.2,897.46,969.3,900.06,967.9Zm3,217.7v-.5a27.84,27.84,0,0,1,11,5.5h1a56.52,56.52,0,0,1,18,4,3.09,3.09,0,0,0,.9-.2,17.76,17.76,0,0,0,12.1-10.8h.5a35.37,35.37,0,0,0-4.5-16,2.56,2.56,0,0,1-.9-.2c-7.5-4.7-15.3-9.3-23.1-13.8a3.12,3.12,0,0,0-.2-1,33.08,33.08,0,0,0-2.8-6c0-.4-.1-.7-.1-1-1.2-7.6.5-12.3,5.1-14,.3,0,.5,0,.6.2h0a52.35,52.35,0,0,1,3.43,17.8,2,2,0,0,0,.2.8c2.2,3.7,6.2,5.8,11.8,6.2a5.24,5.24,0,0,0,3.9-3.4c2.4-7.3,6.4-9.5,12.1-6.6a2.8,2.8,0,0,1-.2.9,70.83,70.83,0,0,0-6.8,16.1c.3,0,.5,0,.6.1a39.84,39.84,0,0,0,5.4,12.9v12c-.4,0-.5,0-.6.1a18.75,18.75,0,0,1-4.4,8.9,2.29,2.29,0,0,0-.9.1,19.62,19.62,0,0,0-1.85.71,20.61,20.61,0,0,0-6.25,4.19,3.74,3.74,0,0,1-.1,1c-.2,3.7-.6,7.7-.9,12h-1a5,5,0,0,1-4.72-1.44,7,7,0,0,1-1.49-3.6,26.3,26.3,0,0,1,.21-8c0-.4-.1-.6-.3-.7-3.3-2.8-7.5-4.5-12.7-5.3a3.07,3.07,0,0,0-1,.1,27.74,27.74,0,0,0-11,4.9c0,.3-.1.6-.1.9a23.48,23.48,0,0,1-3.3,8.06,8.54,8.54,0,0,1-3.6,3,3.46,3.46,0,0,1-.57-3A8.72,8.72,0,0,1,897,1209,79.8,79.8,0,0,0,903.06,1185.6ZM872,943.9v-.5c4.2-.2,7.5,2.3,10,7.5q0,2-.6,2.1C873.73,955.3,870.63,952.3,872,943.9Zm-14-49.3a.87.87,0,0,1-.2.6c-5.7,2.9-8.9,0-9.8-8.6h1C852.63,887,855.63,889.6,858,894.6Zm-6,21a.61.61,0,0,1-.3.6c-5.1,3.8-10.4,4.2-15.7,1.4h-.5C839.13,910,844.63,909.4,852,915.6Zm-32-82h3l1.9-.1c2.8,5.3,8.1,8,16.1,8.1-.9,3.4-3.5,4.8-7.9,4.2a17.11,17.11,0,0,1-9.1-4.2C820.33,838,818.93,835.4,820,833.6Zm-6-4.7a.61.61,0,0,1-.3.6Q809.23,832.5,814,828.9Zm1,34a2.8,2.8,0,0,1-.2.9,22.63,22.63,0,0,0-2.8,10.1v.5C806.13,869.6,807.13,865.7,815,862.9Zm-17-25c-.7.6-1.1.9-1.3.8C791.73,835.5,792.13,835.2,798,837.9Zm-114-207v1.5Q679.83,632.4,684,630.9Zm88-264a.89.89,0,0,0,.7-.3c4.5-5.2,7.6-3.4,9.3,5.3v8a2.8,2.8,0,0,1-.2.9c-.6,2.4-2.2,3.7-4.8,4.1a1,1,0,0,1-.8-.3C772.73,380.9,771.23,374.9,772,366.9Zm6-49v.5C776.53,318.4,776.53,318.2,778,317.9Zm2-1v.5C777.43,317.4,777.43,317.2,780,316.9Zm5-8v2q0,1.5-.3,1.5C780.73,313.2,780.83,312,785,308.9Zm6,3q0,1.5-.3,1.5Q783.53,314.9,791,311.9Zm78,49c-.4,0-.5,0-.5-.1-.7-7.9,1.5-13.3,6.5-15.9v1C876.23,354,874.13,359,869,360.9Zm-56.9-93.7c-3.9-2.6-3.3-3,1.9-1.3C813.23,267.1,812.53,267.5,812.13,267.2ZM768,263.6v-.5a16.28,16.28,0,0,0,14-5.5h1a27.31,27.31,0,0,1,9,3c-1.9,5.1-6.2,7.7-13,7.7C770.63,268.2,767,266.6,768,263.6ZM677,409.1c-4.1,0-3.8-1.1,1-3.2C678.43,408,678.13,409.1,677,409.1ZM635.93,623q29.4,10,47.1,31.9a1.86,1.86,0,0,1-.2.8c-4.2,7-10.4,8.7-18.8,5.2v-.5c-3.6,3.4-6.4,3.6-8,.5l1-.5a191.86,191.86,0,0,1-22-37.5A2.5,2.5,0,0,1,635.93,623ZM668,665.9c0,.3,0,.5-.1.5C664.53,666.7,664.53,666.5,668,665.9ZM594.23,760c4.2-5.8,8.1-11.8,11.8-18.1v-1a81.82,81.82,0,0,0,0-14c.4,0,.5-.1.6-.2,3.3-5.8,8.8-7.7,16.4-5.8.4,0,.5-.1.6-.3A169.65,169.65,0,0,1,640,698.9c2.9-17.5.4-32.8-7.1-45.9A125.38,125.38,0,0,1,618,613.9c.4,0,.5,0,.6.2,11.9,19.5,23.3,39.5,34.4,59.8,0,.3-.1.6-.1.9-5.3,17.9-.2,28.5,15.1,32.1,0-.4,0-.7.2-.9,4.4-8.6,2.7-18.3-5.2-29.1v-1c.1-2.2,2.8-3.6,8-4,0-.4,0-.6.2-.6l.8-.4c-3.4-3.3-3.1-4.7,1-4,1.8-.2,3-.3,3.8-.4q8.7-1.2,16.2-9.6a3.74,3.74,0,0,0,1-.1,76.08,76.08,0,0,1,19,1.1v1q.45,12.6,0,24a61.77,61.77,0,0,1,6.1,15.2,116.87,116.87,0,0,1,3.5,20.6q2.67,30.48,4.83,61.9,2,28.77,3.57,58.3v1a193.15,193.15,0,0,1-38.9-16.3l-5-2.7c-11.24-6.13-22.75-12.31-34.34-18.5-7.1-3.8-14.4-7.4-22.1-10.8-15.7-7-27.8-17.2-36.7-30.7A2.51,2.51,0,0,1,594.23,760ZM672,878.9a4.48,4.48,0,0,1-1,3q-4.65,4.5-9-3l-1-1C663.43,875.5,667,875.9,672,878.9ZM539.13,536.6c3.8-12.6,11.1-15.9,21.9-10a.87.87,0,0,1-.2.6,48.28,48.28,0,0,0-11.8,8.4h-.5a92.34,92.34,0,0,1,3.5,23,1.86,1.86,0,0,1-.2.8c-2.2,3.6-4.1,3.6-5.8.2v-1a31.86,31.86,0,0,0-7-21,3.07,3.07,0,0,1,.1-1Zm12.5,39.6c-3.3-2.9-3.1-3.3.4-1.3C552.43,576.3,552.23,576.7,551.63,576.2ZM642,864.9v.5C638.33,864.4,638.33,864.2,642,864.9ZM592,568.6a1.12,1.12,0,0,1-.3.8,123,123,0,0,0-9.7,15.2h-1c-4.9.5-6.3-2.8-4-10a1,1,0,0,0-.3-.8,77.33,77.33,0,0,0-9.7-10.2,3.12,3.12,0,0,0-.2-1c-1.7-6-1-11.1,2.2-15,0-.4,0-.6.2-.6,3.6-2.1,5.6-.9,5.8,3.6a3.74,3.74,0,0,1-.1,1C574.23,562.1,579.83,567.7,592,568.6Zm-62-68.7a2.51,2.51,0,0,1,.2-.9c4.4-6.8,9.6-8.2,15.8-4.1,0,.3-.1.6-.1.9-2.2,8.9-8.8,13.2-19.9,13.1-.4,0-.7-.1-1-.1a30.07,30.07,0,0,1-15-7.9c0-.4,0-.5.1-.6C514.63,498.8,521.23,498.7,530,499.9Zm-32-43a2.74,2.74,0,0,1,.9.1c6.1,1.5,9.8,5.5,11.1,11.9a3.74,3.74,0,0,0,.1,1c1,5,0,8-3.1,9v.5c-3.1-1.9-4.8-5.4-5-10.5a1,1,0,0,1-.8-.3C497.83,465.5,496.73,461.6,498,456.9Zm153,413c-.7,2.6-2,2.9-3.9.8C643.43,866.9,644.73,866.6,651,869.9Zm34,673.07c-22.87-7.9-38-45.42-38-50.37-.1-27.1,1.9-51.5,6-73-5.6-12.5-7.6-28.5-6.1-48a3.74,3.74,0,0,0,.1-1,44,44,0,0,1,6.7-10.2,1.12,1.12,0,0,0,.3-.8,1144.35,1144.35,0,0,0-.9-169.9c-1-12.8-1.5-26.5-1.6-41.1-.1-59.5,8.5-110.1,26.1-151.6q24.95-59.4,49.1-118.5a11.11,11.11,0,0,1,5.64-6.23,10.47,10.47,0,0,1,1.66-.67q11.25,33.75,12,78c.4,22.8,2,45.7,4.7,68.9q4.6,39.7-13.7,60.1c-3.1,23.8-2.5,49.5,1.8,76.9a441.62,441.62,0,0,0,12,55.06c.88,3.06,1.77,6.1,2.71,9.14,4.5,14.2,3.6,27.1-2.5,38.9a173.56,173.56,0,0,1-2.4,56.1c-3.5,17.2-7.3,34.1-11.6,50.6,0,.2-.4.3-1,.3-.9,17.4-1.9,34.7-3,52l.58,1.63c6.57,7.42,9.18,18.82,7.92,34.37h.5c1.6,2.4,4.3,3.6,8,3.9a3.07,3.07,0,0,0,1,.1,36,36,0,0,1,6.4,8.8c0,.1.2.2.6.2v17a82.19,82.19,0,0,1-18.8,15.3c-.2.1-.2.3-.2.7,2.1,6.6,2.1,12.3.2,17.1-.2.2-.2.5-.2.9l1.24,14.27C738.62,1529.16,708,1550.87,685.07,1543Z"/></g></g></svg>