<svg xmlns="http://www.w3.org/2000/svg" viewBox="0 0 1204.16 2160"><g id="Layer_2" data-name="Layer 2"><g id="Max_Payne_1_OP_Mask" data-name="Max Payne 1 OP Mask"><path d="M1163,1346.18a1.42,1.42,0,0,1-.2-.72,339.88,339.88,0,0,1,12.2-33.29,170.12,170.12,0,0,1,16.76-30.21,102.29,102.29,0,0,1-3.1-28.68V1252c-2.59-4-3.93-9.12-4.14-15.36v-1c-1.88-1.41-3.82-2.71-5.83-3.93v-.29l-18-10.36V1209.7h-4.42q-4.95-15.87-19.5-22.07a1.52,1.52,0,0,0-.93-.21,159.84,159.84,0,0,0-7.14-21.61,2.86,2.86,0,0,1-.1-.92,143.15,143.15,0,0,0-14.59-8,1.37,1.37,0,0,0-.93-.2c10.35-27.35,21-54.29,31.86-81a2.87,2.87,0,0,0,.21-.92c-18-4.4-30.83-13.93-38.69-28.47-.1-.21-.31-.21-.62-.21.41-16.69,4.55-29.6,12.21-38.92,2.79-3.17,5.38-6.55,7.86-9.93,7-9.43,12.31-20.49,16.14-33.09-3.31-8.19-2-16.28,4-24.37a219.08,219.08,0,0,0,22.86-38.1c-7.24-6.87-14.89-13.42-22.75-19.67a4.43,4.43,0,0,1-1.35-2.87c-.31-1.43.21-2.15,1.35-2q-3.51-7.56-9.76-10.46L982.31,712.46a44.23,44.23,0,0,1,2.53-6.93v.82c2.17,3.27,4.24,4.81,6.1,4.61.11,0,.11-.21.11-.52-3.52-7.47-3.52-14.75-.21-21.61a2.87,2.87,0,0,0,.21-.92,114.22,114.22,0,0,1,10.76,16.18c0,.11.2.21.62.21-3.73-7.68-7.45-15.26-11.17-22.64a1.49,1.49,0,0,1-.21-.92c4.14.31,8.58,1.84,13.45,4.61v-.82a80.27,80.27,0,0,1-15.11-26.83c-.31-.93.21-1.23,1.66-.82a15.19,15.19,0,0,0,7.24,6.65V663c4.24-3.48,9.41-4.4,15.31-2.66.1.1.21.2.21.61,1.45-1.53.31-3.68-3.62-6.55s-4.45-5.84-1.56-8.81c5.18,3.48,7.45,3.07,6.73-1h.52c4.24-1.64,8.69-3.18,13.24-4.61.1,0,.21-.21.21-.52a104.55,104.55,0,0,1-20.7-19.76c-3.51-4.41-2.58-6.76,3.11-6.87,1.76-1.53.83-3.78-2.9-6.76a4.59,4.59,0,0,1-1.45-3.48c-.1-1.23-1-1.53-2.89-1-8.28,1.74-10.24.2-5.9-4.92a1,1,0,0,1,.72-.2c6.63-1.13,11.49-.52,14.49,1.64,1.55,1.22,3,1.33,4.14.41-6.42-2.36-7.76-4.61-4-7a2.29,2.29,0,0,1,.93-.2c4.24-.11,7.66-2.46,10.24-7.28.73-1.23-.31-1.23-3,.11-2.38-.72-2.89-2.46-1.55-5.12H1020c-17.27-3.49-31.75-9.43-43.44-18.13-2.69-1.95-5.38-4-7.87-6-1.86-1.43-2.38-3-1.45-4.5-5.17-.92-6.93-4-5.38-9.32a3,3,0,0,0,.21-.93,43,43,0,0,1-15.62-4.91,1.52,1.52,0,0,0-.93-.21,16,16,0,0,0-3.93-5.42,1.19,1.19,0,0,1-.21-.72q-43.86-21.3-89.79-40.36c-.21-.1-.21-.3-.21-.61a419.33,419.33,0,0,1-43.76-6.66,106.73,106.73,0,0,0-30.83-1.94c-8.6.66-17.3,1.19-26,1.62L269.85,0H0V2160H979.07c1.3-3.82-.21-6.41-4.57-7.35a4,4,0,0,0-1-.1c-4-2.87-6.1-7.27-6.21-13.31v-1c-4-2.15-4.24-4.4-.82-7a1.48,1.48,0,0,1,.82-.21c5.07-.92,13-.92,23.8-.1a3.25,3.25,0,0,0,1,.1v-32.77c-2.89-3.38-4.55-7.79-5.07-13.32a3.88,3.88,0,0,1-.1-1q-10.71-15.06-12.1-40.87a68.57,68.57,0,0,0-3.42-18.54c-.72-2-1.45-4.09-2.07-6.14.11.1-.41-11.58,0-11.58a214.89,214.89,0,0,0,18.94-27.45c.1-.2.31-.2.72-.2a25.08,25.08,0,0,1-7.66-12.19c-.1-.1-.31-.1-.62-.1q-1.69-23.5-1-49.16V1917a23.67,23.67,0,0,1,6.93-10.55.8.8,0,0,0,.31-.72v-15.36c3.41-3.79,5.17-9.22,5.17-16.39v-1q48.42-43.7,78.21-106.83c4.76-10,9.73-20,15.11-29.8q4.55-8.41,9-16.88h.07v-.13q27.45-51.77,52.24-105.18c12.31-26.63,23.49-54,33.42-82.35q16.08-46.2,24-100.27Q1199.45,1373.06,1163,1346.18ZM956.43,712.44v0h0Z" fill="#fff200"/></g><g id="Max_Payne_1_Cover" data-name="Max Payne 1 Cover"><path d="M612.93,868a19.68,19.68,0,0,0-3.9,15.8c7.2-3.5,15.1-7.6,23.9-12.5,6.5-3.6,13-7,19.6-10.4,2.1-1,3.2-3.1,3.5-6.1Q628.24,848.16,612.93,868Z"/><path d="M705.53,765.56c0-.1-.2-.1-.5-.1a38.28,38.28,0,0,1-12,2h-1c-3.1-2.2-7.1-3.5-12-4h-1c-11.8-11.3-26.6-19.1-44.4-23.6a43.84,43.84,0,0,0-8.6-1.4c-8.1-.5-12.5.8-13,4,3.4,2.7,4.2,5.4,2.2,8.1a2.56,2.56,0,0,0-.2.9,21.78,21.78,0,0,0-12.2,4.7,1,1,0,0,1-.8.3c-.6,17.6,9,27.3,28.9,28.9.1,0,.4.4,1,1.2.4.6.7,1.2,1.1,1.9.1,5.1-3.2,6.2-10.1,3.2a1.35,1.35,0,0,0-.9-.2,60,60,0,0,0,18.8,17.3,1,1,0,0,1,.2.7q30.11-1.65,54.1-13.8c.2-.2.5-.2.9-.2a48,48,0,0,1,19.8-17.4.86.86,0,0,0,.2-.6C710.43,775.66,706.93,771.76,705.53,765.56Zm-54.6,12.2c-1.4,7.2-5,9.2-10.9,6-1.7-.3-2.2-1.6-1.5-3.8,3.5-10.9,7.7-11.9,12.5-3.2C651,777.06,650.93,777.36,650.93,777.76Z"/><path d="M932,2151.86a4.19,4.19,0,0,0-1-.1c-3.9-2.8-5.9-7.1-6-13v-1c-3.9-2.1-4.1-4.3-.8-6.8a1.69,1.69,0,0,1,.8-.2c4.9-.9,12.6-.9,23-.1a2.82,2.82,0,0,0,1,.1v-32c-2.8-3.3-4.4-7.6-4.9-13a3.69,3.69,0,0,1-.1-1q-10.35-14.7-11.7-39.9a67.67,67.67,0,0,0-3.3-18.1c-.7-2-1.4-4-2-6,.1.1-.4-11.3,0-11.3a210.55,210.55,0,0,0,18.3-26.8c.1-.2.3-.2.7-.2a24.51,24.51,0,0,1-7.4-11.9c-.1-.1-.3-.1-.6-.1-1.1-15.3-1.4-31.3-1-48v-.7a23.24,23.24,0,0,1,6.7-10.3.76.76,0,0,0,.3-.7v-15c3.3-3.7,5-9,5-16v-1c2.51-2.28,5-4.63,7.4-7q41.7-40.62,68.2-97.3c4.6-9.8,9.4-19.5,14.6-29.1q6.93-12.9,13.67-25.93,21.67-41.79,41.6-84.67c1.34-2.9,2.7-5.79,4-8.7,11.9-26,22.7-52.7,32.3-80.4q15.56-45.09,23.2-97.9-2.13-26.73-11-46.71a90.46,90.46,0,0,0-28.79-36.59,1.53,1.53,0,0,1-.2-.7c1.53-5,3.2-10,5-14.92q3.16-8.88,6.83-17.58a166.83,166.83,0,0,1,16.2-29.5,100.4,100.4,0,0,1-3-28v-1.3c-.25-.39-.48-.79-.7-1.21a25.93,25.93,0,0,1-2.72-8.07,41.75,41.75,0,0,1-.58-5.72v-1c-1.75-1.33-3.58-2.56-5.44-3.72a70.62,70.62,0,0,0-12.66-6.18,3,3,0,0,0-.9-.1c2.8,2.2,5.5,4.4,8.2,6.7a1,1,0,0,0,.8.3,42.47,42.47,0,0,1,3.5,15h-.5c-6.4,6.3-16,9.8-28.9,10.4a24.36,24.36,0,0,0-9.2,2.4c-2.7,1.4-5.3,2.8-7.9,4.2-2.24-.29-4.49-.49-6.74-.66a127.48,127.48,0,0,0-13.26-.34h-1a59,59,0,0,1,5-15.63,47.51,47.51,0,0,1,4.66-7.57,1.11,1.11,0,0,0,.3-.8c-2.63,1.13-5.31,2.15-8,3.06a105.54,105.54,0,0,1-13,3.44v-.5c-2.61-7.92-1.66-14.79,2.86-20.46a26.61,26.61,0,0,1,2.24-2.44c5.4-5.3,11.1-10.3,16.9-15.1,14.3-1.7,23.7,1.5,28.1,9.4a7.21,7.21,0,0,1,.9,3.6c-.7,3,2.2,3.8,8.9,2.5a1.18,1.18,0,0,0,.1-.5c-1.3-17.1-8.4-28.3-21.1-33.8a1.5,1.5,0,0,0-.9-.2,157.66,157.66,0,0,0-5.65-17.87c-.41-1.08-.81-2.16-1.25-3.23a2.71,2.71,0,0,1-.1-.9,139.14,139.14,0,0,0-14.1-7.8,1.35,1.35,0,0,0-.9-.2q9.62-25.65,19.57-50.85,5.58-14.16,11.23-28.25a2.74,2.74,0,0,0,.2-.9c-12.29-3-22.08-8.58-29.45-16.58a54.15,54.15,0,0,1-7.95-11.22c-.1-.2-.3-.2-.6-.2.4-16.3,4.4-28.9,11.8-38,2.7-3.1,5.2-6.4,7.6-9.7,6.8-9.2,11.9-20,15.6-32.3a22,22,0,0,1,.47-18,33.09,33.09,0,0,1,3.43-5.78,214,214,0,0,0,22.1-37.2c-5.7-5.45-11.68-10.7-17.8-15.76q-2.09-1.73-4.2-3.44a4.35,4.35,0,0,1-1.3-2.8c-.3-1.4.2-2.1,1.3-2-3.8-8.3-10.1-12.3-19-12h-1c-4.7,3.2-10.1,3.3-16.1.2a1.35,1.35,0,0,0-.9-.2c-5.5.8-9.8,2.9-12.8,6.2a1.51,1.51,0,0,0-.2.8c-.2,6.6-.5,14.6-1,24v1q-27.33,49.35-54.8,98.24-4.61,8.19-9.2,16.36c-5,8.9-10.4,17.4-16,25.4a28.77,28.77,0,0,0-7.1,2.8,2.56,2.56,0,0,1-.9.2q-28,50.05-58.7,97.9c-1.1,1.8-3.6,2.5-7.3,2.1-4,3.5-3.8,6.9.7,10.3.2.1.3.3.3.7q-1.8,11.7-7.8,19.2a1.51,1.51,0,0,0-.2.8,108.74,108.74,0,0,1,7.9,21c0,.3.1.6.1,1-6.1,4-9.4,9-10,15v1c1.2,2.4,3.9,3.4,8,3h1a37.35,37.35,0,0,1,14.1-7.9,2.5,2.5,0,0,1,.9-.1c8.8,4.1,13.6,12.4,14,25v1c-4.1,5.2-6.6,11.9-7.5,20h.5a30.64,30.64,0,0,0,13,3h1a448.43,448.43,0,0,1,22.4,41.8c0,.1.2.2.6.2a373.37,373.37,0,0,1-12.1,76.7,127.13,127.13,0,0,0-3.6,20.3c-2,22.5-.6,43.1,4.3,62.1.4,1.7-.2,2.7-1.6,2.9a469.69,469.69,0,0,1-34.6-55.2,954.72,954.72,0,0,0-68.6-110.4c-3.7-5.1-8-6.6-12.8-4.4-4.5-2.6-5.7-5.2-3.7-7.8a1,1,0,0,1,.7-.2,47.49,47.49,0,0,1-3-15v-1a409.81,409.81,0,0,1-68.3-88.3c-5.8-10.1-11.9-20.2-18.1-30.1a418.08,418.08,0,0,0-34.6-47.6,146.44,146.44,0,0,1,10.1-34.4c4.6-10.7,9.4-21.4,14.2-32q13.24-29.55,43.1-43.8a61.21,61.21,0,0,0,19.8-14.7c8.1-9.2,13.7-20.6,16.8-34.3,3.1-14.4,9.1-25.7,18-33.8a76.55,76.55,0,0,0,9-1.9,3.37,3.37,0,0,1,1-.1q44.1-33.8,62.4-93.2a524.8,524.8,0,0,1,21.6-57.8q11.4-5.25,12-21v-1c3.4-.6,4.5-1.9,3.2-4.2a2,2,0,0,1-.2-.8c-2.9-4.5-4-8.8-3.5-13h.5a27.43,27.43,0,0,1,7.2,3.7,1,1,0,0,0,.8.3,50.55,50.55,0,0,0,5.3,10.7c.1.2.3.3.7.3a44.52,44.52,0,0,1,4-16.5v.8c2.1,3.2,4.1,4.7,5.9,4.5.1,0,.1-.2.1-.5-3.4-7.3-3.4-14.4-.2-21.1a2.74,2.74,0,0,0,.2-.9,111,111,0,0,1,10.4,15.8c0,.1.2.2.6.2-3.6-7.5-7.2-14.9-10.8-22.1a1.48,1.48,0,0,1-.2-.9c4,.3,8.3,1.8,13,4.5v-.8a78.61,78.61,0,0,1-14.6-26.2c-.3-.9.2-1.2,1.6-.8a14.68,14.68,0,0,0,7,6.5v-.5a14.42,14.42,0,0,1,8.86-3.42,18.93,18.93,0,0,1,5.94.82c.1.1.2.2.2.6,1.4-1.5.3-3.6-3.5-6.4s-4.3-5.7-1.5-8.6c5,3.4,7.2,3,6.5-1h.5c4.1-1.6,8.4-3.1,12.8-4.5.1,0,.2-.2.2-.5a101.33,101.33,0,0,1-20-19.3c-3.4-4.3-2.5-6.6,3-6.7,1.7-1.5.8-3.7-2.8-6.6a4.48,4.48,0,0,1-1.4-3.4c-.1-1.2-1-1.5-2.8-1a27.11,27.11,0,0,1-4.6.66c-3.94.14-4.32-1.63-1.1-5.46a1,1,0,0,1,.7-.2l.4-.05c6.19-1,10.76-.4,13.6,1.65,1.5,1.2,2.9,1.3,4,.4-6.2-2.3-7.5-4.5-3.9-6.8a2.56,2.56,0,0,1,.9-.2c4.1-.1,7.4-2.4,9.9-7.1.7-1.2-.3-1.2-2.9.1-2.3-.7-2.8-2.4-1.5-5H976a126.34,126.34,0,0,1-19.6-5.57A90.18,90.18,0,0,1,934,597.76c-2.6-1.9-5.2-3.9-7.6-5.9-1.8-1.4-2.3-2.9-1.4-4.4-5-.9-6.7-3.9-5.2-9.1a2.74,2.74,0,0,0,.2-.9,41.34,41.34,0,0,1-15.1-4.8,1.5,1.5,0,0,0-.9-.2,15.61,15.61,0,0,0-3.8-5.3,1.15,1.15,0,0,1-.2-.7c-4.83-2.37-9.7-4.71-14.57-7Q850,542.49,813.23,527.06c-.2-.1-.2-.3-.2-.6q-9.57-.94-19.08-2.37-11.67-1.73-23.22-4.13a102.14,102.14,0,0,0-29.8-1.9c-15.4,1.2-31.1,2-46.9,2.4a25.39,25.39,0,0,1,10.8-11.6,73.44,73.44,0,0,0-21.7,11.4c-2.8,2-6.5,3.1-11.1,3.2a17.25,17.25,0,0,1-6.8,5.4c-.2,0-.2.2-.2.6-8.1-2.3-13.3-1.7-15.4,1.8-.1.1-.2.2-.6.2-.8-.9-1.6-3.2-2.5-6.9,0-.1-.1-.1-.5-.1-.6,4.3-2.6,7.5-5.8,9.3-.2.1-.2.3-.2.7,3,14-2,23.3-15.1,27.8a2.15,2.15,0,0,1-.9.2c-5.8-2.7-8.8-2-9,2v1c-7.9,2.9-15.2,3.8-22,2.5l.9.6a4.56,4.56,0,0,1,1.1.9q9,6-3,6h-1c1.9,2.2.9,4-2.9,5.4-.1.1-.1.2-.1.6-7.7.6-12.3,2.3-14,5l.9.3a2.37,2.37,0,0,1,1.1.7c-.6,6.1-3.8,11.1-9.5,15h.5c3.8-2.1,6.3-2.5,7.4-1.4,1.5,1.6,4,2.4,7.6,2.4a8.57,8.57,0,0,0-4.9,6,3.1,3.1,0,0,0-.1,1c1.5,5.3.1,9.3-4.2,11.8a1.72,1.72,0,0,1-.8.2c-.7,7.1-1.4,13.3-2,18.5l1-1.5c4-.3,3.9,2.6-.4,8.7-1.9,2.7-1.7,3.4.4,2.3,4.5-3.5,6.2-3.1,5.1,1a3.1,3.1,0,0,0-.1,1,41.39,41.39,0,0,0-7.9,15,3.1,3.1,0,0,0-.1,1q3.45,3.45,3,6v1c-2.3,3.1-4.5,6.1-6.8,9.2a1.51,1.51,0,0,0-.2.8,28.05,28.05,0,0,0,5.7,14.2,1,1,0,0,1,.3.8c-.5,5.5-2.4,9.6-5.8,12.3a1,1,0,0,0-.2.7q-34.15,12-27.4,62.2a134.11,134.11,0,0,1,.9,23.7c-1.1,17.4,2.4,29.8,10.3,37.1a33,33,0,0,1,8.4,12.3c.6,1.6,1.2,3.2,1.8,4.7,10.8-12.5,13.6-30,8.4-52.3a6.44,6.44,0,0,1,.4-3.8c17.4-42.3,34.6-85.2,51.6-128.4a132.49,132.49,0,0,1,14-26.9,52.39,52.39,0,0,1,22.6-18.6q33,15,66.3,30.4a18.39,18.39,0,0,1,3.2,2.1,53.41,53.41,0,0,0,17.5,9.5,32.93,32.93,0,0,0,6.2,7.7,1,1,0,0,0,.8.3c14.1-.1,24.4,5.3,30.8,16.1a2.36,2.36,0,0,1,.2.9c-6.5,7.5-13.9,11.2-22,11h-1c-4,6.5-3.1,8.7,2.8,6.5.1,0,.2-.2.2-.5,1.6.9.7,3.9-2.8,9.1a2.56,2.56,0,0,0-.2.9c5.1,10.1,14.2,16.3,27,18.6,4.8.8,8.1,2.9,10,6.4-2.3,8.4-6.6,14.8-13.1,19.3-2.2,1.6-4.5,3.1-6.9,4.7a187.28,187.28,0,0,0-48.1,12.8,2.56,2.56,0,0,1-.9.2,214.48,214.48,0,0,1-9,46.7,214.88,214.88,0,0,0-9,46.3c-5.7,5.7-14.3,8.3-26,8h-1c-5-3.4-10-5.1-15-5h-1c-5.3,1.1-8.1,4.4-8.5,10h.5c4.8,2.8,11.1,4.3,19,4.5v.5a253.35,253.35,0,0,1-7,26.3,6.36,6.36,0,0,0,0,4.7q3.75,7.5,10.8,3.6a.86.86,0,0,0,.2-.6c4,0,7.2,2.4,9.8,7.1a1.88,1.88,0,0,1,.2.9c-5.9-.8-11.9-1.5-18-2h-1c-18.1-6.5-37.5-8.7-58-6.5v.5c2.9,7.7,10.5,12.8,22.6,15.5a74.22,74.22,0,0,1,27.4,11.5c-4.4,3.9-9,7.7-13.8,11.3a1,1,0,0,0-.2.7c-5.6,0-9.6,1.7-11.8,5.1a2.56,2.56,0,0,0-.2.9c2.4,9.6,9,15.3,19.9,17a29.79,29.79,0,0,1,9.1,3c2.5,6.3,2.4,12.9-.5,19.8,0,.1-.1.2-.5.2a40,40,0,0,1-16.9,8.4c-.1.1-.1.2-.1.6a61.12,61.12,0,0,1-31.1-5.8,1.35,1.35,0,0,0-.9-.2,49.25,49.25,0,0,0-23.1-20.8,1.35,1.35,0,0,0-.9-.2,397.64,397.64,0,0,1-41.9-71.5c-1.9-4.2-2.5-9.4-1.8-15.5.2-2.5-.2-4.2-1.3-5a119.77,119.77,0,0,0-3.2,27c-.1,9.8-3.7,17.5-10.8,23a134.43,134.43,0,0,0-25-6.9,4.19,4.19,0,0,0-1-.1c-4.4,11.6-10.8,21.2-19.2,28.7a1.12,1.12,0,0,1-.8.3c-3.3-1.4-5.3-4.1-5.9-8a3.69,3.69,0,0,1-.1-1c-9.5-5.9-21.2-9.5-35-11h-1a645.05,645.05,0,0,1-49.8,45.3,1,1,0,0,0-.2.7c-1.8,10.6-6.2,18.5-13.3,23.6a15.37,15.37,0,0,0-5.7,8.4,218.49,218.49,0,0,1-38.1,6.5c-34.6,2.9-65.2,9.9-91.8,20.8-21.1,8.8-39.3,20.5-54.5,35.3q-45.49,44.06-71.3,106.9c-17.6,42.7-34.1,85.7-49.8,129a73.18,73.18,0,0,0-2.8,9.6c-8.9,39.9-16.8,80.2-24,121l-.66,3.93c-2.5,15-4.58,30.6-6.14,46.87q-3.49,34.91-7.5,75.1-8.1,81.75-17.1,162.9-3.59,32.27-6.17,64.37Q1.73,1854,0,1896v264H936.09C937.94,2155.74,936.6,2152.86,932,2151.86ZM1073,1389.46c4.07.28,7.65,2.58,11,7,0,1.3-.2,2-.5,2.1-7.69,1.92-11.52-.87-11.52-8.2ZM545,773.76v.5C543.53,774.26,543.53,774.06,545,773.76Zm17,23c-.4,0-.6,0-.6.2a23.26,23.26,0,0,1-9.4,9.8,1.36,1.36,0,0,1-.9-.3c-9.4-5.9-12.5-15.2-9.1-27.7.3,0,.5,0,.5.1,2.1,9.1,5.9,16.4,11.5,21.9,1.4.4,1.9.1,1.5-.8-4-10.2-1.5-16.2,7.5-18.2v1A55.71,55.71,0,0,1,562,796.76Zm-10-32c-1,0-1.5-.1-1.6-.3a10.86,10.86,0,0,1,.2-5.1c2.9-9.7,7.7-12.6,14.4-8.6v1C566.43,761.76,562,766.16,552,764.76Zm334,717h0c.6,4.3-.3,7.1-2.77,8.4-.9.3-1.4.3-1.6-.2C879.16,1484.06,880.56,1481.26,886.06,1481.76Zm16,254a2.74,2.74,0,0,1-.2.9C900.73,1738.76,900.83,1738.46,902,1735.76Zm34-121.3h-.47c6.4-9.2,12.2-9.6,17.5-1h0c-1.4,5.9-3.8,6.7-7.2,2.3C943.63,1612.86,940.33,1612.46,936,1614.46Zm7,1.3v.5C939.63,1615.56,939.63,1615.36,943,1615.76Zm1,134a2.74,2.74,0,0,1-.2.9c-1.7,5.8-6,6.8-12.8,3.1a5.51,5.51,0,0,1-.69-.83,2.12,2.12,0,0,1,0-2.77h0C935.73,1743.26,940.23,1743.07,944,1749.76Zm132.8-544.1c-6.6,11.9-16.9,20.3-30.8,25.1a2.56,2.56,0,0,0-.9.2,6.64,6.64,0,0,1-.68.42c-2.16,1.15-3.33-.07-3.42-3.62a3.1,3.1,0,0,1,.1-1c.09-.22.19-.43.28-.65,3.22-8.07,8.32-14.26,15.62-18.35a2.15,2.15,0,0,0,.9-.2c7.7-2.8,14-3.7,19.1-2.8A2.74,2.74,0,0,1,1076.83,1205.66Zm-16.9-113.8a26.46,26.46,0,0,1,16.1,15.9v1q.38,11.61-2.61,19.85a28.18,28.18,0,0,1-9.39,13.15,3.13,3.13,0,0,1-.6-.1,46.8,46.8,0,0,1-1.4-13.9,1.88,1.88,0,0,0-.2-.9,45.89,45.89,0,0,0-14.8-16.1v-1q-.45-15.45,12-18A2.74,2.74,0,0,1,1059.93,1091.86Zm-127.4,415.6a237.15,237.15,0,0,1-.47,24,1.09,1.09,0,0,1,.8.2,42.33,42.33,0,0,0,14.2,4.8,2.92,2.92,0,0,1-.7,2.1c-3.2,2.4-7.9,2.7-14.3.9,0-.4-.1-.6-.3-.7-2.2-1.5-4.5-2.9-6.7-4.3a2.56,2.56,0,0,0-.9.2c-5.2,3.3-9.5,4.2-13.1,2.8,0-.4.1-.7.1-1a20.59,20.59,0,0,1,12.9-13c0-.4.1-.7.1-1,1.8-7.4,4.5-12.4,7.9-15Zm-1.77-10q-4.69,4.05-8.7-2.7c0-1,.1-1.5.4-1.6h0c2.5-.8,5.4.4,8.63,3.6A.88.88,0,0,1,930.76,1497.46Zm-30.7-20.7c-.1,6.1,2.6,9.6,7.9,10.6h0c4.5.8,8.9,1.6,13.13,2.4,0,.3-.1.5-.2.5-3.2,1-6.5,1.8-9.8,2.5,0-.4-.1-.6-.2-.6-4.5-2-8.7-4.2-12.8-6.4-.4,0-.5-.1-.5-.1C896.66,1481.06,897.46,1478.16,900.06,1476.76Zm3,217.7v-.5a27.84,27.84,0,0,1,11,5.5h1a57.07,57.07,0,0,1,18,4,2.56,2.56,0,0,0,.9-.2,17.76,17.76,0,0,0,12.1-10.8h.5a35.41,35.41,0,0,0-4.5-16,2.18,2.18,0,0,1-.9-.2c-7.5-4.7-15.3-9.3-23.1-13.8a3.12,3.12,0,0,0-.2-1,33.4,33.4,0,0,0-2.8-6c0-.4-.1-.7-.1-1-1.2-7.6.5-12.3,5.1-14,.3,0,.5,0,.6.2h0a52.4,52.4,0,0,1,3.43,17.8,2,2,0,0,0,.2.8c2.2,3.7,6.2,5.8,11.8,6.2a5.2,5.2,0,0,0,3.9-3.4c2.4-7.3,6.4-9.5,12.1-6.6a2.74,2.74,0,0,1-.2.9,71,71,0,0,0-6.8,16.1c.3,0,.5,0,.6.1a39.74,39.74,0,0,0,5.4,12.9v12c-.4,0-.5,0-.6.1a18.7,18.7,0,0,1-4.4,8.9,2.5,2.5,0,0,0-.9.1c-.63.21-1.25.45-1.85.71a20.79,20.79,0,0,0-6.25,4.19,3.69,3.69,0,0,1-.1,1c-.2,3.7-.6,7.7-.9,12h-1a5,5,0,0,1-4.72-1.43,7.07,7.07,0,0,1-1.49-3.6,26.36,26.36,0,0,1,.21-8c0-.4-.1-.6-.3-.7-3.3-2.8-7.5-4.5-12.7-5.3a3.37,3.37,0,0,0-1,.1,27.74,27.74,0,0,0-11,4.9c0,.3-.1.6-.1.9a23.63,23.63,0,0,1-3.3,8.07,8.51,8.51,0,0,1-3.6,3,3.44,3.44,0,0,1-.57-3,8.81,8.81,0,0,1,.47-1.57A79.64,79.64,0,0,0,903.06,1694.46Zm-31-241.7v-.5c4.2-.2,7.5,2.3,10,7.5q0,2-.6,2.1C873.73,1464.16,870.63,1461.16,872,1452.76Zm-14-49.3a.86.86,0,0,1-.2.6c-5.7,2.9-8.9,0-9.8-8.6h1C852.63,1395.86,855.63,1398.46,858,1403.46Zm-6,21a.6.6,0,0,1-.3.6c-5.1,3.8-10.4,4.2-15.7,1.4h-.5C839.13,1418.86,844.63,1418.26,852,1424.46Zm-32-82h3l1.9-.1c2.8,5.3,8.1,8,16.1,8.1-.9,3.4-3.5,4.8-7.9,4.2a17.11,17.11,0,0,1-9.1-4.2C820.33,1346.86,818.93,1344.26,820,1342.46Zm-6-4.7a.6.6,0,0,1-.3.6Q809.23,1341.36,814,1337.76Zm1,34a2.74,2.74,0,0,1-.2.9,22.71,22.71,0,0,0-2.8,10.1v.5C806.13,1378.46,807.13,1374.56,815,1371.76Zm-17-25c-.7.6-1.1.9-1.3.8C791.73,1344.36,792.13,1344.06,798,1346.76Zm-114-207v1.5Q679.83,1141.26,684,1139.76Zm88-264a.89.89,0,0,0,.7-.3c4.5-5.2,7.6-3.4,9.3,5.3v8a2.74,2.74,0,0,1-.2.9c-.6,2.4-2.2,3.7-4.8,4.1a1,1,0,0,1-.8-.3C772.73,889.76,771.23,883.76,772,875.76Zm6-49v.5C776.53,827.26,776.53,827.06,778,826.76Zm2-1v.5C777.43,826.26,777.43,826.06,780,825.76Zm5-8v2q0,1.5-.3,1.5C780.73,822.06,780.83,820.86,785,817.76Zm6,3q0,1.5-.3,1.5Q783.53,823.76,791,820.76Zm78,49c-.4,0-.5,0-.5-.1-.7-7.9,1.5-13.3,6.5-15.9v1C876.23,862.86,874.13,867.86,869,869.76Zm-56.9-93.7c-3.9-2.6-3.3-3,1.9-1.3C813.23,776,812.53,776.36,812.13,776.06Zm-44.1-3.6V772a16.28,16.28,0,0,0,14-5.5h1a27.55,27.55,0,0,1,9,3c-1.9,5.1-6.2,7.7-13,7.7C770.63,777.06,767,775.46,768,772.46ZM677,918c-4.1,0-3.8-1.1,1-3.2C678.43,916.86,678.13,918,677,918Zm-41.1,213.9q29.4,10,47.1,31.9a1.82,1.82,0,0,1-.2.8c-4.2,7-10.4,8.7-18.8,5.2v-.5c-3.6,3.4-6.4,3.6-8,.5l1-.5a191.57,191.57,0,0,1-22-37.5A2.74,2.74,0,0,1,635.93,1131.86Zm32.1,42.9c0,.3,0,.5-.1.5C664.53,1175.56,664.53,1175.36,668,1174.76Zm-73.8,94.1c4.2-5.8,8.1-11.8,11.8-18.1v-1a81.82,81.82,0,0,0,0-14c.4,0,.5-.1.6-.2,3.3-5.8,8.8-7.7,16.4-5.8.4,0,.5-.1.6-.3a170.35,170.35,0,0,1,16.4-21.7c2.9-17.5.4-32.8-7.1-45.9a125.29,125.29,0,0,1-14.9-39.1c.4,0,.5,0,.6.2,11.9,19.5,23.3,39.5,34.4,59.8,0,.3-.1.6-.1.9-5.3,17.9-.2,28.5,15.1,32.1,0-.4,0-.7.2-.9,4.4-8.6,2.7-18.3-5.2-29.1v-1c.1-2.2,2.8-3.6,8-4,0-.4,0-.6.2-.6l.8-.4c-3.4-3.3-3.1-4.7,1-4,1.8-.2,3-.3,3.8-.4q8.7-1.2,16.2-9.6a3.37,3.37,0,0,0,1-.1,77,77,0,0,1,19,1.1v1q.45,12.6,0,24a61.93,61.93,0,0,1,6.1,15.2,117,117,0,0,1,3.5,20.6q2.67,30.5,4.83,61.91,2,28.76,3.57,58.29v1a192.57,192.57,0,0,1-38.9-16.3l-5-2.7c-11.24-6.12-22.75-12.31-34.34-18.5-7.1-3.8-14.4-7.4-22.1-10.8-15.7-7-27.8-17.2-36.7-30.7A2.56,2.56,0,0,1,594.23,1268.86Zm77.8,118.9a4.46,4.46,0,0,1-1,3q-4.65,4.5-9-3l-1-1C663.43,1384.36,667,1384.76,672,1387.76Zm-132.9-342.3c3.8-12.6,11.1-15.9,21.9-10a.86.86,0,0,1-.2.6,48.82,48.82,0,0,0-11.8,8.4h-.5a92.34,92.34,0,0,1,3.5,23,1.82,1.82,0,0,1-.2.8c-2.2,3.6-4.1,3.6-5.8.2v-1a31.86,31.86,0,0,0-7-21,3.1,3.1,0,0,1,.1-1Zm12.5,39.6c-3.3-2.9-3.1-3.3.4-1.3C552.43,1085.16,552.23,1085.56,551.63,1085.06Zm90.4,288.7v.5C638.33,1373.26,638.33,1373.06,642,1373.76Zm-50-296.3a1.11,1.11,0,0,1-.3.8,124.55,124.55,0,0,0-9.7,15.2h-1c-4.9.5-6.3-2.8-4-10a1,1,0,0,0-.3-.8,78.59,78.59,0,0,0-9.7-10.2,3.12,3.12,0,0,0-.2-1c-1.7-6-1-11.1,2.2-15,0-.4,0-.6.2-.6,3.6-2.1,5.6-.9,5.8,3.6a3.69,3.69,0,0,1-.1,1C574.23,1071,579.83,1076.56,592,1077.46Zm-62-68.7a2.56,2.56,0,0,1,.2-.9c4.4-6.8,9.6-8.2,15.8-4.1,0,.3-.1.6-.1.9-2.2,8.9-8.8,13.2-19.9,13.1-.4,0-.7-.1-1-.1a30.07,30.07,0,0,1-15-7.9c0-.4,0-.5.1-.6C514.63,1007.66,521.23,1007.56,530,1008.76Zm-32-43a3,3,0,0,1,.9.1c6.1,1.5,9.8,5.5,11.1,11.9a3.69,3.69,0,0,0,.1,1c1,5,0,8-3.1,9v.5c-3.1-1.9-4.8-5.4-5-10.5a1,1,0,0,1-.8-.3C497.83,974.36,496.73,970.46,498,965.76Zm153,413c-.7,2.6-2,2.9-3.9.8C643.43,1375.76,644.73,1375.46,651,1378.76Zm34,673.07c-22.87-7.9-38-45.42-38-50.37-.1-27.1,1.9-51.5,6-73-5.6-12.5-7.6-28.5-6.1-48a3.69,3.69,0,0,0,.1-1,44.19,44.19,0,0,1,6.7-10.2,1.11,1.11,0,0,0,.3-.8,1144.36,1144.36,0,0,0-.9-169.9c-1-12.8-1.5-26.5-1.6-41.1-.1-59.5,8.5-110.1,26.1-151.6q24.95-59.4,49.1-118.5a11.15,11.15,0,0,1,5.64-6.23,11.51,11.51,0,0,1,1.66-.67q11.25,33.75,12,78c.4,22.8,2,45.7,4.7,68.9q4.6,39.71-13.7,60.1c-3.1,23.8-2.5,49.5,1.8,76.9a442.17,442.17,0,0,0,12,55.07c.88,3,1.77,6.1,2.71,9.13,4.5,14.2,3.6,27.1-2.5,38.9a173.55,173.55,0,0,1-2.4,56.1c-3.5,17.2-7.3,34.1-11.6,50.6,0,.2-.4.3-1,.3-.9,17.4-1.9,34.7-3,52l.58,1.63c6.57,7.42,9.18,18.82,7.92,34.37h.5c1.6,2.4,4.3,3.6,8,3.9a2.82,2.82,0,0,0,1,.1,36.4,36.4,0,0,1,6.4,8.8c0,.1.2.2.6.2v17a82.19,82.19,0,0,1-18.8,15.3c-.2.1-.2.3-.2.7,2.1,6.6,2.1,12.3.2,17.1-.2.2-.2.5-.2.9l1.24,14.27C738.62,2038,708,2059.74,685.07,2051.83Z"/></g></g></svg>