<svg xmlns="http://www.w3.org/2000/svg" viewBox="0 0 1663 324" xmlns:v="https://vecta.io/nano"><path d="M646 324h-75a12.48 12.48 0 0 1-5-6.48l-26-63.06a39.58 39.58 0 0 0-2-4.56c-2.84 5.78-4.41 11.52-6.37 17.06l-17.49 49.27c-1 3.07-2.38 5.81-5 7.77H370.13c-2.73-2.26-2.91-5.58-3.18-8.64l-4.24-43.11c-.48-5.25-1.83-6.63-7.22-6.75-7-.15-14-.12-20.95 0-6.13.09-7.51 1.6-8 7.63l-4 45.12c-.24 2.2-.52 4.3-2.42 5.76h-76c-2.54-2.75-1.51-6.07-1.09-9.05l12.29-89.48q7.25-52.89 14.45-105.79 7.2-52.9 14.62-105.79c.44-3.13.55-6.29 1.4-9.37.59-2.12 1.48-3.7 3.94-3.78q53.08 0 106.17 0c3.75.47 4 3.56 4.47 6.29q4.1 25.89 8 51.8l11.38 74.49 18.89 123.84 5.12 33.05a25.34 25.34 0 0 1 .48 4.26l17.27-45.64q16-42.27 32.14-84.47a16.41 16.41 0 0 0-.12-12.56l-34.77-89.88-20.58-53.61c-.9-2.41-3.46-5.55.91-7.56q35.82 0 71.63 0c4.08-.33 4.83 2.71 5.67 5.65 4.24 14.69 8 29.53 12 44.26l9 33.61Q546 45.53 554.72 6.63c.66-2.93 1.37-6.06 5.5-5.88q36.16 0 72.31 0c4.24.62 3.22 3.45 2.38 6-3.79 11.54-8.08 22.9-12.23 34.31l-27.38 75.5-12.92 35.65c-1.62 4.34-1.21 8.21.57 12.49q16.71 40.32 33.28 80.7l29 70.61c.99 2.53 2.77 5.1.77 7.99zm-513.78 0h-27c-2.72-1.12-3.2-3.55-3.62-6.08l-9.37-59.69-15.59-101.68a181.56 181.56 0 0 1-1.51-20.66c2.85 40.51 1.07 80 1.48 119.36v60.46c0 2.94.41 6.09-2.36 8.29h-73c-.94-1.72-.48-3.59-.48-5.39q0-155.94 0-311.88c0-1.82-.26-3.66.27-5.46 1.71-1 3.59-.5 5.38-.5q43.47 0 86.93 0c3.38-.08 3.95 2.41 4.47 4.93 2.12 10.07 3.18 20.3 4.7 30.49q7.88 53.19 15.62 106.41c1.08 7.38 2.51 14.74 2.09 22.12v-.17c-.09-14.38 3.59-28.14 5.82-42.08q9.17-57.18 18.72-114.3c.5-2.92.58-6.11 4.08-7.39h85.13a7.69 7.69 0 0 1 3.43.36c1.67 1 1.85 2.66 2 4.33.18 1.83.18 3.66.18 5.49q0 151.4 0 302.77c0 3.54.93 7.45-2.37 10.3h-73c-2.28-1.74-2.31-4.28-2.35-6.79-.11-5.82-.05-11.64-.05-17.46l-.05-129.25c0-12.14.55-24.23 1.73-36.91-2 30.91-8.28 60.59-12.83 90.52l-14.81 93.1c-.47 2.76-1.36 5.07-3.64 6.76zm1261.49 0h-73c-2.13-2.21-1.47-5-1.47-7.6q-.06-73.62 0-147.23V10.46 4.98c0-3.17 1.46-4.32 4.63-4.28l34.45.05h28.45c3.64.79 4.22 4 5.06 6.78l13.79 45.4 23.75 78.91a41.56 41.56 0 0 1 1.81 9c-1.42-7.53-.88-16-.89-24.36l.06-106.92c0-3.07-1.29-6.9 2.89-8.75h69.21a7.55 7.55 0 0 1 3.43.37c1.67 1 1.84 2.67 2 4.34.19 2 .18 4 .18 6q0 150.87 0 301.75c0 3.69 1 7.78-2.36 10.8h-69c-2.64-1.19-3.94-3.38-4.75-6.05l-35.47-115.34a27 27 0 0 1-1.12-7.83c1.32 30.83.51 61.68.73 92.52q.12 14.71 0 29.43c-.04 2.59.1 5.33-2.38 7.2z" fill="#bf3b3a"/><path d="M646,324q-33.59-81.48-67.25-162.94c-1.11-2.69-.46-4.81.39-7.14q26.7-73.72,53.4-147.45c.62-1.7,1-3.48,1.46-5.22-.68-.34-.68-.67,0-1H757a4.77,4.77,0,0,1,.77,1.81,36.24,36.24,0,0,1,.64,8.94q0,150.85,0,301.71c0,3.84,1.16,8.1-2.36,11.29Z" fill="#fefefe"/><path d="M1130.82 324h-76c-2.36-2-3.06-4.64-3.3-7.54-1.19-14.56-3-29.07-4.22-43.63-.49-5.64-2.27-7.25-7.94-7.34-6.82-.12-13.64-.11-20.46 0-6.07.1-7.26 1.35-7.67 7.26l-3.11 43.72c-.14 2.91-.92 5.58-3.28 7.54h-75c-2.14-1.65-2.24-3.9-1.92-6.32l11.95-89.05q6.81-51.21 13.72-102.4 5.6-41.82 11.3-83.6l4.64-34.13c.44-2.87.37-6.13 3.68-7.69l106.72-.06c4.79.28 4.58 4.23 5.07 7.32q2.48 15.76 4.86 31.55l14 91.19 19.32 126.7 9.22 60.64c.39 2.3.38 4.29-1.58 5.84zM756 324c.91-2.08.47-4.27.47-6.41q0-155 0-310c0-2.14.27-4.28.41-6.42 1.75-.77 3.61-.39 5.41-.4q59.84 0 119.66 0c3.53.18 6.25 2 8.68 4.38L929.5 44a11.8 11.8 0 0 1 3.76 8.84q.09 56.42 0 112.83a10.5 10.5 0 0 1-3.11 8.08c-14.29 13.94-29.27 27.14-43.88 40.73-2.19 2-4.87 1.95-7.51 2l-38 .08c-7.39 0-8.41 1-8.43 8.36l-.05 90.37c0 3.08.58 6.43-2.36 8.78zM1662.6 1.24v60c-2 2.6-5 2.34-7.79 2.36l-45 .07c-8.73 0-9.77 1.06-9.8 9.77v35.44c0 7.43 1.41 8.81 8.72 8.87l37.45.1c8.38.12 9.62 1.32 9.71 9.61q.25 24.46 0 48.92c-.08 7.95-1.13 9-9 9.11l-38 .09c-7.65.06-8.93 1.35-9 9.12q-.08 28.46 0 56.92c0 7.73 1.29 9 9 9l44.94.1c2.71 0 5.8-.71 7.77 2.19.35 20.37.76 40.74-.2 61.1h-137.74c-1.75-1.34-2.19-3.24-2.29-5.3-.11-2.33-.12-4.66-.12-7q0-149.11 0-298.24c0-2.66 0-5.32.18-8 .17-2.09.61-4 3-4.68l135.3-.06a4.53 4.53 0 0 1 2.87.51zM1240.78 324h-74c-3-2.34-2.34-5.69-2.35-8.78l.11-99.36a113.24 113.24 0 0 0-6.12-38.08l-48.31-146.5-7.28-22.83c-.67-2-1.46-4.13-.12-6.25s3.56-1.43 5.46-1.43q34.61-.06 69.2 0c4.25.05 4.89 3.36 5.66 6.42q6.6 26.1 13.09 52.22l9.26 37 9-41 10.45-48.21c.62-2.92 1.25-6 5.15-6.41q39 0 77.93 0c3.7 1.38 2.59 4.19 1.74 6.64l-13.8 39.6-25.12 71.6-25.34 72.06a38 38 0 0 0-2.24 13.19q.06 55.42 0 110.86c-.03 3.26.73 6.76-2.37 9.26z" fill="#bf3b3a"/><path d="M829.94 324l-.47-4.91-.13-99.82c0-4.45 1.17-5.54 5.53-5.46 14.81.28 29.62.05 44.43.16a9.29 9.29 0 0 0 7-2.8q20.62-19.24 41.5-38.17a8.38 8.38 0 0 0 3-6.9q-.12-56.9 0-113.8c0-2.25-.35-4.07-2.09-5.78Q905.76 23.91 883 1.14c-.75-.23-.78-.52-.09-.89h90c.65.28.72.67.21 1.16q-11.46 84.71-22.91 169.42-10.09 74.83-20.12 149.69c-.15 1.15-.11 2.32-.16 3.48zm410.84 0l-.11-107.25c-.35-15.74 3.39-30 8.53-44.49L1307.56 6c.54-1.54.81-3.18 1.21-4.78-.7-.31-.7-.63 0-1h11c1 1.72.48 3.59.48 5.38q0 156.5 0 313c0 1.8.46 3.67-.48 5.39zM438.26 1.37q18.09 47.19 36.18 94.38 11.26 29.3 22.64 58.53a9.8 9.8 0 0 1 .12 7.63q-26.26 68.88-52.34 137.84c-.29.75-.69 1.47-1.63 3.45L397 1.37c-.55-.46-.5-.83.16-1.12h41c.59.29.65.66.1 1.12zm665.45 1.96q31.17 95.09 62.35 190.17a21.75 21.75 0 0 1 1.25 6.82q0 59.88 0 119.77a30.69 30.69 0 0 1-.48 3.91h-36q-7.24-47.53-14.48-95.08-9.19-60.09-18.45-120.17-8.15-53.2-16.24-106.4a4.46 4.46 0 0 0-.66-1.28c-.8-.14-.85-.42-.15-.82h22c1.03.81.09 2.19.86 3.08zm557.84 259.87l-58.91-.06c-4.14 0-5.69-.65-5.63-5.31v-69.89c0-3.93 1.07-5 5-4.93l46.44.17c3.71 0 5.15-.64 5.09-4.8q-.37-26.46 0-52.91c.06-4.13-1.34-4.94-5.1-4.9l-46.44.14c-3.44 0-5-.54-5-4.56l.07-50.91c0-2.6.05-4.32 3.6-4.28l61.89.24v201.85c-.21.66-.56.72-1.01.15zM237.18 324q0-158.34 0-316.67l-.11-6c-.58-.44-.54-.81.12-1.1h52c.69.38.65.67-.12.86-2.43 10.52-3.29 21.29-4.78 32l-15.56 113.63-15.55 113.63-9 63.68zM1524.58 1.16l-.41 6.42q0 155 0 310c0 2.14.43 4.33-.48 6.41h-18q0-158.34 0-316.67l-.12-6c-.57-.44-.53-.81.13-1.1h19c.65.39.62.7-.12.94zM119.43 169.9q-5.25-36.46-10.52-72.9-6.76-46.37-13.64-92.67c-.16-1.12.11-2.37-.88-3.26-.8-.14-.85-.42-.15-.82h54c.64.28.71.66.2 1.15q-13.48 82.05-27 164.1l-.41 3.46c-.32.68-.44 1.69-1.6.94zM1432.82 1.35L1432.7 142a15.32 15.32 0 0 1-.9 6.19L1387.46 1.44c-.47-.52-.38-.92.26-1.19h45c.64.29.68.66.1 1.1zM132.22 324q15.5-97.08 31-194.17l1 .11V324z" fill="#fefefe"/><path d="M74.25 324a48 48 0 0 1-.48-4.91q0-91.59 0-183.19c0-1.63-.4-3.33 1-5.78l4.38 27.44Q91.07 233.9 103 310.24l2.27 13.76z" fill="#fefdfd"/><path d="M1393.71 324a41.24 41.24 0 0 1-.47-4.41q0-63.64 0-127.3c0-1.42-.46-2.95 1-4.89l7.44 23.9q17 55.2 34.07 110.4c.24.79.61 1.53.93 2.3zm-1073.56 0c.22-15.3 2.45-30.45 3.47-45.69.06-.83.19-1.65.3-2.48.54-4.07-1.12-9.44 1.89-11.9s8-.63 12.15-.69l23-.07c2.47-.05 3.62.68 3.85 3.25l5.35 57.58zm684.72 0l4.1-56.7c.21-3.19 1.29-4.22 4.53-4.16 10.49.2 21 .18 31.46 0 3-.05 4 .79 4.29 3.79l5.6 57.07zM1228.86 1.31l-16.08 73.41c-2.2 10-4.38 20-7.67 30.11q-3.64-14.42-7.3-28.82-9.52-37.37-19-74.73c-.65-.37-.64-.71 0-1h50c.64.27.66.63.05 1.03zM509.07 324c3.2-11.69 7.84-22.89 11.87-34.3l16.76-47 9.63 23.27q11.88 29 23.72 58.08zM558.92 1.09c-4.41 15.49-7.22 31.35-10.84 47l-9.19 41.35c-.24 1.12-.71 2.19-1.4 4.24l-11.43-42.16q-6.9-25.2-13.92-50.38c-.73-.24-.76-.55-.07-.91h47c.68.41.63.69-.15.86z" fill="#fefefe"/><path d="M1387.72.25l-.26 1.19-62.93-.23c-2.74 0-4 .89-3.8 3.73.11 1.16 0 2.33 0 3.49V324h-1V.25z" fill="#de9d9c"/><g fill="#de9c9b"><path d="M1.32 1.36q0 161.32 0 322.64c-2.1-1.1-.94-3-.94-4.49Q.24 194.55.28 69.58L.34 3.24c0-1-1.21-2.6.94-3C2 .59 2 1 1.32 1.36zm1523.26-.2a1 1 0 0 1 .08-.91q67 0 133.95.06c1.29 0 3.1-1.13 4 .93zM882.92.25c0 .29.07.59.09.89H756.89a1 1 0 0 1 .11-.89zm197.92 0a.92.92 0 0 1 .15.82q-44.46.09-88.92.18l-19 .16-.19-1.16zM289 1.11a.94.94 0 0 1 .12-.86h108L397 1.37l-99.43-.13-8.57-.13z"/><path d="M1.32 1.36V.25h93a.92.92 0 0 1 .15.82q-40.32.09-80.63.18l-12.52.11zm147.1.04l-.2-1.15h89l-.12 1.1zm1080.44-.09c0-.35 0-.71-.08-1.06h80v1zM1178.8.25v1q-35.13 0-70.26 0c-1.76 0-4.22-1-4.8 2-1-.83-1-1.95-.88-3.08zm-619.88.84a.93.93 0 0 1 .13-.84h75v1zM512.07.25a1.42 1.42 0 0 1 .07.91l-73.88.21-.16-1.12zm920.75 1.1l-.12-1.1h73l-.13 1.1z"/></g><path d="M1661.55 263.2l1-.15-.1 57.45c0 1 1.6 2.95-.89 3.5z" fill="#cf6b6b"/><path d="M344.32 204.58c-3.82 0-7.66-.11-11.48 0-2.69.11-3.37-.91-3.16-3.53l4.74-63.17 5.13-66.65c.14-1.78-1-4.64 2.41-5.06 2.52-.31 3.89.29 4.16 3.32l6.06 64.06 6.6 66c.43 4-.35 5.44-4.47 5-3.31-.22-6.66.03-9.99.03z" fill="#fefefe"/><path d="M119.43 169.9l1.57-.9c.21 1.16.44 2.62-1 2.84-.95.16-.71-1.16-.57-1.94z" fill="#da9090"/><path d="M1028.69 204.58c-3.83 0-7.66-.14-11.48 0-2.77.14-3.38-1-3.18-3.54q3.69-47.21 7.27-94.43 1.4-18.14 2.69-36.28c.16-2.17-.09-4.16 3.3-4.3s3.71 1.41 4 4.06l7.59 82.4 4.44 48.15c.33 3.29-.6 4.09-3.61 3.94-3.71-.13-7.36 0-11.02 0zm-170.93-96.4l.07 41.92c0 3.17-.75 4.4-4.14 4.27-6.81-.26-13.64-.17-20.46 0-2.66 0-3.84-.55-3.83-3.54q.14-43.16 0-86.32c0-3 1.28-3.54 3.88-3.49 6.82.13 13.65.23 20.46 0 3.46-.14 4.12 1.21 4.09 4.31l-.07 42.85z" fill="#fefefe"/></svg>